<svg viewBox="0 0 40 40" xmlns="http://www.w3.org/2000/svg" xmlns:xlink="http://www.w3.org/1999/xlink" width="40" height="40" fill="none">
    <rect id="属性 1=设置页入口_风信子图标_Light" width="40" height="40" x="0" y="0" />
    <g id="light_风信子_终稿">
        <g id="编组-2">
            <path id="Fill-1备份" d="M0 20C1.22732e-15 31.05 8.95 40 20 40C31.05 40 40 31.05 40 20C40 8.95 31.05 6.15827e-16 20 3.18921e-32C8.95 -6.16911e-16 -1.22732e-15 8.95 0 20Z" fill="rgb(237,111,33)" fill-rule="evenodd" transform="matrix(0,1,1,0,0,0)" />
            <g id="编组">
                <path id="路径" d="M14.8583 0.0758373L14.8489 2.49281L0 2.41698L0.00938283 0L14.8583 0.0758373Z" opacity="0.400000006" fill="rgb(255,255,255)" fill-rule="nonzero" transform="matrix(0.706739,0.707474,-0.706739,0.707474,16.1223,13.3423)" />
                <path id="矩形备份" d="M0.612178 0L6.39004 0C6.72811 0 7.00216 0.274055 7.00216 0.61212L7.00216 8.07275C7.0021 8.4108 6.72808 8.68484 6.39004 8.68493L0.612178 8.68548C0.274114 8.68557 3.22529e-05 8.41154 0 8.07348C0 8.07346 0 8.07344 5.83763e-05 8.07342L5.83763e-05 0.61212C5.83763e-05 0.274055 0.274114 0 0.612178 0Z" fill="rgb(255,238,227)" fill-rule="evenodd" transform="matrix(-0.706739,0.707474,0.706739,0.707474,13.9487,8)" />
                <path id="矩形备份-2" d="M0.612178 0L6.35623 0C6.69429 0 6.96835 0.274056 6.96835 0.61212L6.96835 8.07275C6.96829 8.4108 6.69427 8.68484 6.35623 8.68493L0.612178 8.68548C0.274114 8.68557 3.26907e-05 8.41154 0 8.07348C0 8.07346 0 8.07344 5.83763e-05 8.07342L5.83763e-05 0.61212C5.83763e-05 0.274056 0.274114 0 0.612178 0Z" fill="rgb(255,238,227)" fill-rule="evenodd" transform="matrix(-0.706739,0.707474,0.706739,0.707474,25.8616,19.9253)" />
                <path id="形状结合" d="M3.04038 1.58313e-32C3.54747 -9.31522e-17 3.95856 0.411083 3.95856 0.91818L3.95939 1.75633C4.58445 1.80586 5.10521 1.90449 5.42843 2.03142C5.80573 2.1443 6.08075 2.49484 6.08075 2.90961L6.08075 13.5032C6.08075 13.7464 5.88356 13.9436 5.6403 13.9436C5.56852 13.9436 5.50075 13.9265 5.44088 13.896C5.43967 13.8948 5.43792 13.894 5.4362 13.893C4.72249 13.5076 3.90684 13.2896 3.04038 13.2896C2.17962 13.2896 1.36902 13.5047 0.659237 13.8841L0.611894 13.909C0.5592 13.9313 0.501265 13.9436 0.440451 13.9436C0.197196 13.9436 0 13.7464 0 13.5032L0 2.90961C0 2.49484 0.275023 2.1443 0.652656 2.03041C0.975541 1.90449 1.4963 1.80586 2.12136 1.75633L2.1222 0.91818C2.1222 0.411083 2.53328 9.31522e-17 3.04038 1.58313e-32Z" fill="rgb(255,255,255)" fill-rule="evenodd" transform="matrix(0.706739,0.707474,-0.706739,0.707474,25.7314,9.97314)" />
                <path id="形状结合" d="M4.99729 0C7.45205 0 9.49889 1.74918 9.96288 4.07088C9.98325 4.14572 9.99457 4.22462 9.99457 4.30617C9.99457 4.78182 9.60956 5.16741 9.13462 5.16741C9.12587 5.16741 9.11715 5.16728 9.10847 5.16702L9.10595 5.16749L0.888619 5.16749L0.885126 5.16507L0.859954 5.16741C0.424593 5.16741 0.0647936 4.84341 0.00785045 4.42304L0 4.30617C0 4.2269 0.0106951 4.15013 0.0307182 4.07722L0.0248024 4.10603C0.475064 1.76686 2.53015 0 4.99729 0Z" fill="rgb(255,255,255)" fill-rule="evenodd" transform="matrix(0.706739,0.707474,-0.706739,0.707474,14.2078,18.7397)" />
                <circle id="椭圆形" cx="1.53030062" cy="1.53030062" r="1.53030062" fill="rgb(255,255,255)" transform="matrix(0.706739,0.707474,-0.706739,0.707474,12.1531,25.7021)" />
            </g>
        </g>
    </g>
</svg>
