<?xml version="1.0" encoding="UTF-8"?>
<svg width="244px" height="244px" viewBox="0 0 244 244" version="1.1" xmlns="http://www.w3.org/2000/svg" xmlns:xlink="http://www.w3.org/1999/xlink">
    <title>PAD_解锁后来电通知_横幅light</title>
    <defs>
        <circle id="path-1" cx="3.61562897" cy="3.61562897" r="3.61562897"></circle>
        <path d="M0.339429036,1.11322143 C0.288749529,0.892705321 0.355819433,0.661731535 0.516807313,0.50205092 C0.606200334,0.401663967 0.690817012,0.343828345 0.770657348,0.328544055 C0.890417851,0.305617619 1.01304416,0.352878254 1.08921425,0.447550357 L1.34836451,0.767897684 C1.36133245,0.783772101 1.37149129,0.796127747 1.37767263,0.803511206 L1.3833364,0.810150041 C1.48155651,0.920801174 1.47898699,1.08705705 1.37891271,1.19455755 L1.37177262,1.20196082 L1.19680765,1.3670211 C1.12727416,1.43635346 1.11485567,1.54419821 1.16684239,1.62740709 C1.2676604,1.78959478 1.45657472,2.00827149 1.66287364,2.21100334 C1.8656167,2.41731346 2.0842934,2.60622778 2.24648109,2.7070458 C2.32968998,2.75903251 2.43753472,2.74661402 2.50686708,2.67708053 L2.67192736,2.50211556 L2.67933063,2.49497548 C2.78392571,2.3976059 2.94414312,2.39254179 3.05464684,2.4828088 L3.08249536,2.5062627 C3.14588919,2.55850054 3.34428867,2.71865985 3.42633783,2.78467393 C3.52100993,2.86084402 3.56827056,2.98347033 3.54534413,3.10323084 C3.53005984,3.18307117 3.47222422,3.26768785 3.37183726,3.35708087 C3.21215665,3.51806875 2.98118286,3.58513865 2.76066675,3.53445915 C2.29106891,3.4253629 1.73576087,3.05732112 1.27383142,2.60006796 C0.816567064,2.13812731 0.448525281,1.58281927 0.339429036,1.11322143 Z" id="path-3"></path>
        <circle id="path-5" cx="3.61562897" cy="3.61562897" r="3.61562897"></circle>
        <path d="M0.339429036,1.11322143 C0.288749529,0.892705321 0.355819433,0.661731535 0.516807313,0.50205092 C0.606200334,0.401663967 0.690817012,0.343828345 0.770657348,0.328544055 C0.890417851,0.305617619 1.01304416,0.352878254 1.08921425,0.447550357 L1.34836451,0.767897684 C1.36133245,0.783772101 1.37149129,0.796127747 1.37767263,0.803511206 L1.3833364,0.810150041 C1.48155651,0.920801174 1.47898699,1.08705705 1.37891271,1.19455755 L1.37177262,1.20196082 L1.19680765,1.3670211 C1.12727416,1.43635346 1.11485567,1.54419821 1.16684239,1.62740709 C1.2676604,1.78959478 1.45657472,2.00827149 1.66287364,2.21100334 C1.8656167,2.41731346 2.0842934,2.60622778 2.24648109,2.7070458 C2.32968998,2.75903251 2.43753472,2.74661402 2.50686708,2.67708053 L2.67192736,2.50211556 L2.67933063,2.49497548 C2.78392571,2.3976059 2.94414312,2.39254179 3.05464684,2.4828088 L3.08249536,2.5062627 C3.14588919,2.55850054 3.34428867,2.71865985 3.42633783,2.78467393 C3.52100993,2.86084402 3.56827056,2.98347033 3.54534413,3.10323084 C3.53005984,3.18307117 3.47222422,3.26768785 3.37183726,3.35708087 C3.21215665,3.51806875 2.98118286,3.58513865 2.76066675,3.53445915 C2.29106891,3.4253629 1.73576087,3.05732112 1.27383142,2.60006796 C0.816567064,2.13812731 0.448525281,1.58281927 0.339429036,1.11322143 Z" id="path-7"></path>
    </defs>
    <g id="PAD_解锁后来电通知_横幅light" stroke="none" stroke-width="1" fill="none" fill-rule="evenodd">
        <g id="#illustration_编组">
            <rect id="矩形" x="0" y="0" width="244" height="244"></rect>
            <g id="Mockup/Tablet/Default-" transform="translate(-0.000000, 43.317322)">
                <g id="底备份-2" transform="translate(122.000000, 78.682678) rotate(270.000000) translate(-122.000000, -78.682678) translate(43.317322, -43.317322)">
                    <path d="M144.91776,5.02897813e-16 C149.24606,-2.92198112e-16 150.815607,0.450665962 152.397969,1.29692243 C153.980331,2.14317889 155.222178,3.38502586 156.068434,4.96738787 C156.91469,6.54974989 157.365356,8.11929628 157.365356,12.4475969 L157.365356,231.552403 C157.365356,235.880704 156.91469,237.45025 156.068434,239.032612 C155.222178,240.614974 153.980331,241.856821 152.397969,242.703078 C150.815607,243.549334 149.24606,244 144.91776,244 L12.4475969,244 C8.11929628,244 6.54974989,243.549334 4.96738787,242.703078 C3.38502586,241.856821 2.14317889,240.614974 1.29692243,239.032612 C0.450665962,237.45025 1.94798741e-16,235.880704 -3.35265209e-16,231.552403 L3.35265209e-16,12.4475969 C-1.94798741e-16,8.11929628 0.450665962,6.54974989 1.29692243,4.96738787 C2.14317889,3.38502586 3.38502586,2.14317889 4.96738787,1.29692243 C6.54974989,0.450665962 8.11929628,2.92198112e-16 12.4475969,-5.02897813e-16 L144.91776,5.02897813e-16 Z M144.183206,4.88 L13.1821504,4.88 C10.2966166,4.88 9.25025237,5.18044397 8.19534436,5.74461495 C7.14043635,6.30878593 6.31253837,7.13668391 5.74836739,8.19159192 C5.18419642,9.24649993 4.88375244,10.2928642 4.88375244,13.1783979 L4.88375244,13.1783979 L4.88375244,230.821602 C4.88375244,233.707136 5.18419642,234.7535 5.74836739,235.808408 C6.31253837,236.863316 7.14043635,237.691214 8.19534436,238.255385 C9.25025237,238.819556 10.2966166,239.12 13.1821504,239.12 L13.1821504,239.12 L144.183206,239.12 C147.06874,239.12 148.115104,238.819556 149.170012,238.255385 C150.22492,237.691214 151.052818,236.863316 151.616989,235.808408 C152.18116,234.7535 152.481604,233.707136 152.481604,230.821602 L152.481604,230.821602 L152.481604,13.1783979 C152.481604,10.2928642 152.18116,9.24649993 151.616989,8.19159192 C151.052818,7.13668391 150.22492,6.30878593 149.170012,5.74461495 C148.115104,5.18044397 147.06874,4.88 144.183206,4.88 L144.183206,4.88 Z" id="形状结合" fill="#505259"></path>
                    <path d="M13.1821504,4.88 L144.183206,4.88 C147.06874,4.88 148.115104,5.18044397 149.170012,5.74461495 C150.22492,6.30878593 151.052818,7.13668391 151.616989,8.19159192 C152.18116,9.24649993 152.481604,10.2928642 152.481604,13.1783979 L152.481604,230.821602 C152.481604,233.707136 152.18116,234.7535 151.616989,235.808408 C151.052818,236.863316 150.22492,237.691214 149.170012,238.255385 C148.115104,238.819556 147.06874,239.12 144.183206,239.12 L13.1821504,239.12 C10.2966166,239.12 9.25025237,238.819556 8.19534436,238.255385 C7.14043635,237.691214 6.31253837,236.863316 5.74836739,235.808408 C5.18419642,234.7535 4.88375244,233.707136 4.88375244,230.821602 L4.88375244,13.1783979 C4.88375244,10.2928642 5.18419642,9.24649993 5.74836739,8.19159192 C6.31253837,7.13668391 7.14043635,6.30878593 8.19534436,5.74461495 C9.25025237,5.18044397 10.2966166,4.88 13.1821504,4.88 Z" id="screen" fill-opacity="0.1" fill="#FFFFFF"></path>
                </g>
            </g>
            <g id="编组-4" transform="translate(67.524387, 60.000000)">
                <path d="M2.4712415,0 L106.479985,0 C107.844814,7.02255494e-15 108.951227,1.10641251 108.951227,2.4712415 L108.951227,14.4016937 C108.951227,15.7665227 107.844814,16.8729352 106.479985,16.8729352 L2.4712415,16.8729352 C1.10641251,16.8729352 1.05532177e-15,15.7665227 0,14.4016937 L0,2.4712415 C-1.67143346e-16,1.10641251 1.10641251,2.50715019e-16 2.4712415,0 Z" id="Mask" fill-opacity="0.2" fill="#596080"></path>
                <rect id="矩形" fill-opacity="0.4" fill="#A1A4B3" x="14.0116283" y="4.82083863" width="21.8727842" height="3.52783224" rx="0.823747167"></rect>
                <rect id="矩形备份-3" fill-opacity="0.4" fill="#A1A4B3" x="14.0116283" y="9.64167726" width="17.7458438" height="2.49023452" rx="0.823747167"></rect>
                <ellipse id="椭圆形" fill-opacity="0.4" fill="#A1A4B3" cx="8.02090837" cy="8.4364676" rx="3.59443197" ry="3.61562897"></ellipse>
                <g id="挂断" transform="translate(87.016080, 4.820839)">
                    <mask id="mask-2" fill="white">
                        <use xlink:href="#path-1"></use>
                    </mask>
                    <use id="backplane/round" fill="#E84026" xlink:href="#path-1"></use>
                    <g id="编组" mask="url(#mask-2)">
                        <g transform="translate(1.678685, 1.678685)" id="Public/ic_public_phone_filled备份-3">
                            <g transform="translate(1.936944, 1.936944) rotate(-225.000000) translate(-1.936944, -1.936944) ">
                                <mask id="mask-4" fill="white">
                                    <use xlink:href="#path-3"></use>
                                </mask>
                                <g id="路径"></g>
                                <g id="编组" mask="url(#mask-4)" fill="#FFFFFF">
                                    <g id="Symbol/color-light/colorPrimary">
                                        <rect id="color/#000000" x="0" y="0" width="3.87388818" height="3.87388818"></rect>
                                    </g>
                                </g>
                            </g>
                        </g>
                    </g>
                </g>
                <g id="挂断" transform="translate(96.683564, 4.820839)">
                    <mask id="mask-6" fill="white">
                        <use xlink:href="#path-5"></use>
                    </mask>
                    <use id="backplane/round" fill="#64BB5C" xlink:href="#path-5"></use>
                    <g id="编组" mask="url(#mask-6)">
                        <g transform="translate(1.678685, 1.678685)" id="Public/ic_public_phone_filled备份">
                            <mask id="mask-8" fill="white">
                                <use xlink:href="#path-7"></use>
                            </mask>
                            <g id="路径"></g>
                            <g id="编组" mask="url(#mask-8)" fill="#FFFFFF">
                                <g id="Symbol/color-light/colorPrimary">
                                    <rect id="color/#000000" x="0" y="0" width="3.87388818" height="3.87388818"></rect>
                                </g>
                            </g>
                        </g>
                    </g>
                </g>
            </g>
        </g>
    </g>
</svg>