<?xml version="1.0" encoding="UTF-8"?>
<svg width="158px" height="158px" viewBox="0 0 158 158" version="1.1" xmlns="http://www.w3.org/2000/svg" xmlns:xlink="http://www.w3.org/1999/xlink">
    <title>解锁后来电通知-横幅light</title>
    <defs>
        <circle id="path-1" cx="4" cy="4" r="4"></circle>
        <path d="M0.394288785,1.29314431 C0.335418272,1.03698758 0.413328256,0.768682978 0.60033558,0.583194205 C0.704176624,0.46658235 0.802469356,0.399399126 0.895213775,0.381644533 C1.0343304,0.355012644 1.17677602,0.409911714 1.265257,0.519885064 L1.56629205,0.892008084 C1.58135592,0.910448182 1.59315667,0.924800792 1.60033706,0.933377593 L1.60691623,0.94108942 C1.72101103,1.06962439 1.71802622,1.26275114 1.60177756,1.38762626 L1.59348347,1.39622607 L1.39024003,1.587964 C1.30946829,1.6685021 1.29504268,1.79377711 1.35543167,1.89043451 C1.47254426,2.07883556 1.6919916,2.33285559 1.93163329,2.5683537 C2.16714441,2.8080084 2.42116444,3.02745574 2.60956549,3.14456833 C2.70622289,3.20495732 2.8314979,3.19053171 2.912036,3.10975997 L3.10377393,2.90651653 L3.11237374,2.89822244 C3.23387386,2.78511564 3.41998618,2.77923305 3.5483499,2.88408933 L3.58069941,2.91133394 C3.65433918,2.97201465 3.8848047,3.15805949 3.98011494,3.234743 C4.09008829,3.32322398 4.14498736,3.4656696 4.11835547,3.60478623 C4.10060087,3.69753064 4.03341765,3.79582338 3.9168058,3.89966442 C3.73131702,4.08667174 3.46301242,4.16458173 3.20685569,4.10571122 C2.66135976,3.97898244 2.01630082,3.55145641 1.47971266,3.02030035 C0.948543586,2.48369918 0.521017559,1.83864024 0.394288785,1.29314431 Z" id="path-3"></path>
        <circle id="path-5" cx="4" cy="4" r="4"></circle>
        <path d="M0.394288785,1.29314431 C0.335418272,1.03698758 0.413328256,0.768682978 0.60033558,0.583194205 C0.704176624,0.46658235 0.802469356,0.399399126 0.895213775,0.381644533 C1.0343304,0.355012644 1.17677602,0.409911714 1.265257,0.519885064 L1.56629205,0.892008084 C1.58135592,0.910448182 1.59315667,0.924800792 1.60033706,0.933377593 L1.60691623,0.94108942 C1.72101103,1.06962439 1.71802622,1.26275114 1.60177756,1.38762626 L1.59348347,1.39622607 L1.39024003,1.587964 C1.30946829,1.6685021 1.29504268,1.79377711 1.35543167,1.89043451 C1.47254426,2.07883556 1.6919916,2.33285559 1.93163329,2.5683537 C2.16714441,2.8080084 2.42116444,3.02745574 2.60956549,3.14456833 C2.70622289,3.20495732 2.8314979,3.19053171 2.912036,3.10975997 L3.10377393,2.90651653 L3.11237374,2.89822244 C3.23387386,2.78511564 3.41998618,2.77923305 3.5483499,2.88408933 L3.58069941,2.91133394 C3.65433918,2.97201465 3.8848047,3.15805949 3.98011494,3.234743 C4.09008829,3.32322398 4.14498736,3.4656696 4.11835547,3.60478623 C4.10060087,3.69753064 4.03341765,3.79582338 3.9168058,3.89966442 C3.73131702,4.08667174 3.46301242,4.16458173 3.20685569,4.10571122 C2.66135976,3.97898244 2.01630082,3.55145641 1.47971266,3.02030035 C0.948543586,2.48369918 0.521017559,1.83864024 0.394288785,1.29314431 Z" id="path-7"></path>
    </defs>
    <g id="解锁后来电通知-横幅light" stroke="none" stroke-width="1" fill="none" fill-rule="evenodd">
        <g id="#illustration_编组-2">
            <g id="Mockup/Folderscreen/Default-">
                <rect id="矩形" x="0" y="0" width="158" height="158"></rect>
                <g id="folder-screen" transform="translate(8.859813, 0.000000)">
                    <path d="M50.7003003,8.1795891e-16 C53.8378098,-4.75257682e-16 54.9755465,0.326679883 56.1225731,0.940116412 C56.3708646,1.07290417 56.6075902,1.21912855 56.8323449,1.37838462 L60.2883635,1.37914523 C60.8646017,0.54589298 61.8268738,-2.00187913e-16 62.9166461,0 C64.0064183,2.00187913e-16 64.9686904,0.54589298 65.5449287,1.37914523 L69.0009473,1.37838462 C69.225702,1.21912855 69.4624276,1.07290417 69.7107191,0.940116412 C70.8167804,0.348588331 71.9142037,0.0237000384 74.8043909,0.00124823191 L75.1329919,3.6454184e-16 L130.446502,-2.63162719e-15 C133.584011,1.52905118e-15 134.721748,0.326679883 135.868775,0.940116412 C137.015801,1.55355294 137.915994,2.45374612 138.529431,3.6007727 C138.984359,4.45141405 139.281577,5.2969462 139.404801,6.95680035 C139.5612,7.77473231 139.642158,8.8410512 139.642158,10.4029582 L139.642,27.364 L139.752481,27.3643196 C140.044028,27.3643196 140.280374,27.6006653 140.280374,27.8922125 L140.280374,43.4930978 C140.280374,43.784645 140.044028,44.0209907 139.752481,44.0209907 L139.642,44.02 L139.642158,147.597042 C139.642158,149.160816 139.561006,150.227817 139.403645,151.046792 C139.281058,152.70453 138.983962,153.549328 138.529431,154.399227 C137.915994,155.546254 137.015801,156.446447 135.868775,157.059884 C134.762713,157.651412 133.66529,157.9763 130.775103,157.998752 L130.446502,158 L75.1329919,158 C71.9954824,158 70.8577457,157.67332 69.7107191,157.059884 C69.4624276,156.927096 69.225702,156.780871 69.0009473,156.621615 L65.5449287,156.620855 C64.9686904,157.454107 64.0064183,158 62.9166461,158 C61.8268738,158 60.8646017,157.454107 60.2883635,156.620855 L56.8323449,156.621615 C56.6075902,156.780871 56.3708646,156.927096 56.1225731,157.059884 C54.9755465,157.67332 53.8378098,158 50.7003003,158 L9.02304555,158 C5.88553604,158 4.74779928,157.67332 3.6007727,157.059884 C2.45374612,156.446447 1.55355294,155.546254 0.940116412,154.399227 C0.326679883,153.252201 4.22276773e-15,152.114464 -7.26774256e-15,148.976954 L6.96444963e-16,9.02304555 C-4.0465458e-16,5.88553604 0.326679883,4.74779928 0.940116412,3.6007727 C1.55355294,2.45374612 2.45374612,1.55355294 3.6007727,0.940116412 C4.74779928,0.326679883 5.88553604,1.26560281e-15 9.02304555,-2.17821012e-15 L50.7003003,8.1795891e-16 Z M129.96792,4.31222707 L9.84684926,4.31222707 C7.0230907,4.31222707 5.99912761,4.60623897 4.96680369,5.15833185 C3.93447976,5.71042472 3.12430591,6.52059858 2.57221303,7.5529225 C2.0413545,8.54554166 1.74910634,9.53043075 1.727411,12.1150342 L1.72610826,12.4329681 L1.72610826,145.739521 C1.72610826,148.56328 2.02012016,149.587243 2.57221303,150.619567 C3.12430591,151.651891 3.93447976,152.462064 4.96680369,153.014157 C5.95942285,153.545016 6.94431194,153.837264 9.52891535,153.858959 L9.84684926,153.860262 L129.96792,153.860262 C132.791678,153.860262 133.815641,153.56625 134.847965,153.014157 C135.880289,152.462064 136.690463,151.651891 137.242556,150.619567 C137.773415,149.626947 138.065663,148.642058 138.087358,146.057455 L138.088661,145.739521 L138.088661,12.4329681 C138.088661,9.60920951 137.794649,8.58524643 137.242556,7.5529225 C136.690463,6.52059858 135.880289,5.71042472 134.847965,5.15833185 C133.855346,4.62747331 132.870457,4.33522515 130.285854,4.31352982 L129.96792,4.31222707 Z" id="形状结合" fill="#505259"></path>
                    <path d="M9.84684926,4.31222707 L129.96792,4.31222707 C132.791678,4.31222707 133.815641,4.60623897 134.847965,5.15833185 C135.880289,5.71042472 136.690463,6.52059858 137.242556,7.5529225 C137.794649,8.58524643 138.088661,9.60920951 138.088661,12.4329681 L138.088661,145.739521 C138.088661,148.56328 137.794649,149.587243 137.242556,150.619567 C136.690463,151.651891 135.880289,152.462064 134.847965,153.014157 C133.815641,153.56625 132.791678,153.860262 129.96792,153.860262 L9.84684926,153.860262 C7.0230907,153.860262 5.99912761,153.56625 4.96680369,153.014157 C3.93447976,152.462064 3.12430591,151.651891 2.57221303,150.619567 C2.02012016,149.587243 1.72610826,148.56328 1.72610826,145.739521 L1.72610826,12.4329681 C1.72610826,9.60920951 2.02012016,8.58524643 2.57221303,7.5529225 C3.12430591,6.52059858 3.93447976,5.71042472 4.96680369,5.15833185 C5.99912761,4.60623897 7.0230907,4.31222707 9.84684926,4.31222707 Z" id="矩形" fill-opacity="0.1" fill="#FFFFFF"></path>
                </g>
            </g>
            <g id="编组-5" transform="translate(44.976775, 16.741722)">
                <g id="编组" transform="translate(-0.000000, 0.000000)">
                    <g id="编组-3" transform="translate(-0.000000, 0.000000)">
                        <path d="M2.51542289,5.94785442e-15 L65.5310271,5.94785442e-15 C66.9202568,6.13674628e-15 68.04645,1.12619319 68.04645,2.51542289 L68.04645,14.4999617 C68.04645,15.8891914 66.9202568,17.0153846 65.5310271,17.0153846 L2.51542289,17.0153846 C1.12619319,17.0153846 2.30849861e-14,15.8891914 2.3803033e-14,14.4999617 L2.3803033e-14,2.51542289 C2.36329014e-14,1.12619319 1.12619319,5.31487336e-15 2.51542289,5.94785442e-15 Z" id="Mask" fill-opacity="0.2" fill="#596080"></path>
                        <rect id="矩形" fill-opacity="0.4" fill="#A1A4B3" x="12.1885399" y="4.86153846" width="18.0061375" height="3.55761589" rx="0.838474295"></rect>
                        <rect id="矩形备份-3" fill-opacity="0.4" fill="#A1A4B3" x="12.1885399" y="9.72307692" width="13.8186637" height="2.51125828" rx="0.838474295"></rect>
                        <ellipse id="椭圆形" fill-opacity="0.4" fill="#A1A4B3" cx="6.09426997" cy="8.50769231" rx="3.65656198" ry="3.64615385"></ellipse>
                        <g id="挂断" transform="translate(47.171034, 4.507692)">
                            <mask id="mask-2" fill="white">
                                <use xlink:href="#path-1"></use>
                            </mask>
                            <use id="backplane/round" fill="#E84026" xlink:href="#path-1"></use>
                            <g id="编组" mask="url(#mask-2)">
                                <g transform="translate(1.750000, 1.750000)" id="Public/ic_public_phone_filled备份-3">
                                    <g transform="translate(2.250000, 2.250000) rotate(-225.000000) translate(-2.250000, -2.250000) ">
                                        <mask id="mask-4" fill="white">
                                            <use xlink:href="#path-3"></use>
                                        </mask>
                                        <g id="路径"></g>
                                        <g id="编组" mask="url(#mask-4)" fill="#FFFFFF">
                                            <g id="Symbol/color-light/colorPrimary">
                                                <rect id="color/#000000" x="0" y="0" width="4.5" height="4.5"></rect>
                                            </g>
                                        </g>
                                    </g>
                                </g>
                            </g>
                        </g>
                        <g id="接听" transform="translate(57.608742, 4.507692)">
                            <mask id="mask-6" fill="white">
                                <use xlink:href="#path-5"></use>
                            </mask>
                            <use id="backplane/round" fill="#64BB5C" xlink:href="#path-5"></use>
                            <g id="编组" mask="url(#mask-6)">
                                <g transform="translate(1.750000, 1.750000)" id="Public/ic_public_phone_filled备份">
                                    <mask id="mask-8" fill="white">
                                        <use xlink:href="#path-7"></use>
                                    </mask>
                                    <g id="路径"></g>
                                    <g id="编组" mask="url(#mask-8)" fill="#FFFFFF">
                                        <g id="Symbol/color-light/colorPrimary">
                                            <rect id="color/#000000" x="0" y="0" width="4.5" height="4.5"></rect>
                                        </g>
                                    </g>
                                </g>
                            </g>
                        </g>
                    </g>
                </g>
            </g>
        </g>
    </g>
</svg>