<?xml version="1.0" encoding="UTF-8"?>
<svg width="48px" height="48px" viewBox="0 0 40 40" version="1.1" xmlns="http://www.w3.org/2000/svg" xmlns:xlink="http://www.w3.org/1999/xlink">
    <title>强提醒_关闭图标</title>
    <defs>
        <path d="M11.5333784,0.219669917 C11.8262716,0.512563136 11.8262716,0.98743687 11.5333784,1.28033009 L1.28033009,11.5333784 C0.98743687,11.8262716 0.512563136,11.8262716 0.219669917,11.5333784 C-0.0732233015,11.2404852 -0.0732233015,10.7656115 0.219669917,10.4727182 L4.8165711,5.87581706 L0.219669914,1.28033009 C-0.0732233047,0.987436867 -0.0732233047,0.512563133 0.219669914,0.219669914 C0.512563133,-0.0732233047 0.987436867,-0.0732233047 1.28033009,0.219669914 L5.87723127,4.81515689 L10.4727182,0.219669917 C10.7656115,-0.0732233015 11.2404852,-0.0732233015 11.5333784,0.219669917 Z M11.5333784,10.4727182 C11.8262716,10.7656115 11.8262716,11.2404852 11.5333784,11.5333784 C11.2404852,11.8262716 10.7656115,11.8262716 10.4727182,11.5333784 L6.58363094,7.64429112 L7.64429112,6.58363094 L11.5333784,10.4727182 Z" id="path-1"></path>
    </defs>
    <g id="强提醒_关闭图标" stroke="none" stroke-width="1" fill="none" fill-rule="evenodd">
        <g id="编组">
            <circle id="椭圆形" fill-opacity="0.101960784" fill="#FFFFFF" cx="20" cy="20" r="20"></circle>
            <g transform="translate(11.000000, 11.000000)" id="Public/ic_cancel">
                <g id="编组" transform="translate(3.123476, 3.123476)">
                    <mask id="mask-2" fill="white">
                        <use xlink:href="#path-1"></use>
                    </mask>
                    <g id="形状"></g>
                    <g mask="url(#mask-2)" fill-opacity="0.858823529" id="Public/Icon/Symbol/Color/Light/Primary">
                        <g transform="translate(-3.123476, -3.123476)">
                            <rect id="color/#000000" fill="#FFFFFF" x="0" y="0" width="24" height="24"></rect>
                        </g>
                    </g>
                </g>
            </g>
        </g>
    </g>
</svg>