<?xml version="1.0" encoding="UTF-8"?>
<svg width="357px" height="755px" viewBox="0 0 357 755" version="1.1" xmlns="http://www.w3.org/2000/svg" xmlns:xlink="http://www.w3.org/1999/xlink">
    <title>手机横幅</title>
    <defs>
        <ellipse id="path-1" cx="17.4193548" cy="17.4230769" rx="17.4193548" ry="17.4230769"></ellipse>
        <path d="M1.63529911,5.36441732 C1.39113569,4.30178915 1.71426466,3.1887673 2.48987107,2.41929464 C2.92054821,1.93554766 3.32821392,1.65684802 3.71286819,1.58319573 C4.2898496,1.47271729 4.88063787,1.70045793 5.24760968,2.15666606 L6.49614216,3.70036321 C6.55861902,3.77685922 6.60756223,3.83639889 6.63734263,3.87197848 L6.66462951,3.90396985 C7.13783376,4.4371781 7.12545436,5.23833577 6.64331709,5.7563617 L6.60891762,5.79203673 L5.76597249,6.58743306 C5.43097446,6.92153344 5.37114474,7.44121822 5.62160602,7.84218712 C6.10732642,8.62374094 7.01747666,9.67750532 8.01138232,10.6544343 C8.98815655,11.6486063 10.0416958,12.558951 10.8230827,13.0447752 C11.2239659,13.29529 11.7435397,13.2354475 12.0775687,12.9003779 L12.8727951,12.0572526 L12.9084625,12.0228458 C13.41238,11.553639 14.1842745,11.529236 14.7166586,11.9642167 L14.8508271,12.077237 C15.1562455,12.3289619 16.1120932,13.1007413 16.5073891,13.4188515 C16.9634998,13.7859017 17.1911918,14.3768162 17.080737,14.9539209 C17.0071004,15.3386573 16.7284603,15.7464102 16.2448167,16.1771793 C15.4755084,16.9529515 14.3627243,17.2761495 13.3003231,17.0319339 C11.0378976,16.5062184 8.36253798,14.7326901 6.13705711,12.5292679 C3.93405174,10.3032576 2.16090232,7.62732629 1.63529911,5.36441732 Z" id="path-3"></path>
        <ellipse id="path-5" cx="17.4193548" cy="17.4230769" rx="17.4193548" ry="17.4230769"></ellipse>
        <path d="M1.63529911,5.36441732 C1.39113569,4.30178915 1.71426466,3.1887673 2.48987107,2.41929464 C2.92054821,1.93554766 3.32821392,1.65684802 3.71286819,1.58319573 C4.2898496,1.47271729 4.88063787,1.70045793 5.24760968,2.15666606 L6.49614216,3.70036321 C6.55861902,3.77685922 6.60756223,3.83639889 6.63734263,3.87197848 L6.66462951,3.90396985 C7.13783376,4.4371781 7.12545436,5.23833577 6.64331709,5.7563617 L6.60891762,5.79203673 L5.76597249,6.58743306 C5.43097446,6.92153344 5.37114474,7.44121822 5.62160602,7.84218712 C6.10732642,8.62374094 7.01747666,9.67750532 8.01138232,10.6544343 C8.98815655,11.6486063 10.0416958,12.558951 10.8230827,13.0447752 C11.2239659,13.29529 11.7435397,13.2354475 12.0775687,12.9003779 L12.8727951,12.0572526 L12.9084625,12.0228458 C13.41238,11.553639 14.1842745,11.529236 14.7166586,11.9642167 L14.8508271,12.077237 C15.1562455,12.3289619 16.1120932,13.1007413 16.5073891,13.4188515 C16.9634998,13.7859017 17.1911918,14.3768162 17.080737,14.9539209 C17.0071004,15.3386573 16.7284603,15.7464102 16.2448167,16.1771793 C15.4755084,16.9529515 14.3627243,17.2761495 13.3003231,17.0319339 C11.0378976,16.5062184 8.36253798,14.7326901 6.13705711,12.5292679 C3.93405174,10.3032576 2.16090232,7.62732629 1.63529911,5.36441732 Z" id="path-7"></path>
    </defs>
    <g id="手机横幅" stroke="none" stroke-width="1" fill="none" fill-rule="evenodd">
        <g id="编组-3">
            <g id="编组-8备份-2">
                <path d="M330.748386,6.45682913 L331.250617,6.72283971 L331.250617,6.72283971 C339.453086,11.1095682 345.890432,17.546914 350.27716,25.7493831 L350.543171,26.2516142 C354.758267,34.2898915 357,42.5457781 357,64.5244442 L357,690.475556 C357,712.454222 354.758267,720.710109 350.543171,728.748386 L350.27716,729.250617 L350.27716,729.250617 C345.890432,737.453086 339.453086,743.890432 331.250617,748.27716 L330.748386,748.543171 C322.710109,752.758267 314.454222,755 292.475556,755 L64.5244442,755 C42.5457781,755 34.2898915,752.758267 26.2516142,748.543171 L25.7493831,748.27716 L25.7493831,748.27716 C17.546914,743.890432 11.1095682,737.453086 6.72283971,729.250617 L6.45682913,728.748386 C2.28563996,720.793841 0.0469168885,712.626196 0.000729427368,691.157937 L1.73790985e-15,64.5244442 C-9.53700456e-16,42.5457781 2.24173271,34.2898915 6.45682913,26.2516142 L6.72283971,25.7493831 L6.72283971,25.7493831 C11.1095682,17.546914 17.546914,11.1095682 25.7493831,6.72283971 L26.2516142,6.45682913 C34.2061594,2.28563996 42.3738041,0.0469168885 63.8420627,0.000729427368 L292.475556,2.60686477e-15 C314.454222,-1.43055068e-15 322.710109,2.24173271 330.748386,6.45682913 Z M290.969255,15.1007425 L66.0307447,15.1007425 C48.5800309,15.1403314 40.724654,16.7624357 34.0816591,19.800473 L33.5855767,20.0309781 C32.7621248,20.4195693 31.9543418,20.8302194 31.1458547,21.2626031 C23.6269247,25.2837709 17.7260244,31.1846712 13.7048566,38.7036012 C13.402188,39.2695422 13.1101689,39.8351381 12.8289108,40.406005 L12.5904704,40.8967413 C9.28927252,47.7887889 7.54225352,55.6709047 7.54225352,74.2474072 L7.54299598,674.700398 C7.58406948,692.805513 9.3285725,700.582148 12.5904704,707.392148 L12.8289108,707.882884 C13.1101689,708.453751 13.402188,709.019347 13.7048566,709.585288 C17.7260244,717.104218 23.6269247,723.005118 31.1458547,727.026286 C38.6647848,731.047454 46.1228187,733.188889 66.6896607,733.188889 L290.969255,733.188146 C311.037576,733.142619 318.416064,731.004215 325.854145,727.026286 C333.373075,723.005118 339.273976,717.104218 343.295143,709.585288 C343.597812,709.019347 343.889831,708.453751 344.171089,707.882884 L344.40953,707.392148 C347.710727,700.5001 349.457746,692.617984 349.457746,674.041482 L349.457004,73.5884912 C349.415931,55.4833756 347.671428,47.7067407 344.40953,40.8967413 L344.171089,40.406005 C343.889831,39.8351381 343.597812,39.2695422 343.295143,38.7036012 C339.273976,31.1846712 333.373075,25.2837709 325.854145,21.2626031 C325.045658,20.8302194 324.237875,20.4195693 323.414423,20.0309781 L322.918341,19.800473 C316.192309,16.7244603 308.223395,15.1 290.310339,15.1 Z" id="形状结合" fill="#505259"></path>
                <path d="M66.6896607,15.1 L290.310339,15.1 C310.877181,15.1 318.335215,17.2414353 325.854145,21.2626031 C333.373075,25.2837709 339.273976,31.1846712 343.295143,38.7036012 C347.316311,46.2225312 349.457746,53.6805651 349.457746,74.2474072 L349.457746,674.041482 C349.457746,694.608324 347.316311,702.066358 343.295143,709.585288 C339.273976,717.104218 333.373075,723.005118 325.854145,727.026286 C318.335215,731.047454 310.877181,733.188889 290.310339,733.188889 L66.6896607,733.188889 C46.1228187,733.188889 38.6647848,731.047454 31.1458547,727.026286 C23.6269247,723.005118 17.7260244,717.104218 13.7048566,709.585288 C9.6836888,702.066358 7.54225352,694.608324 7.54225352,674.041482 L7.54225352,74.2474072 C7.54225352,53.6805651 9.6836888,46.2225312 13.7048566,38.7036012 C17.7260244,31.1846712 23.6269247,25.2837709 31.1458547,21.2626031 C38.6647848,17.2414353 46.1228187,15.1 66.6896607,15.1 Z" id="矩形" fill-opacity="0.1" fill="#FFFFFF"></path>
            </g>
            <g id="编组-5" transform="translate(16.000000, 81.000000)">
                <g id="编组" transform="translate(-0.000000, 0.000000)">
                    <path d="M12,2.84217094e-14 L313.16129,2.84217094e-14 C319.788707,2.72042727e-14 325.16129,5.372583 325.16129,12 L325.16129,69.3076923 C325.16129,75.9351093 319.788707,81.3076923 313.16129,81.3076923 L12,81.3076923 C5.372583,81.3076923 -1.12875213e-13,75.9351093 -1.13686838e-13,69.3076923 L-1.13686838e-13,12 C-1.12722105e-13,5.372583 5.372583,2.96391462e-14 12,2.84217094e-14 Z" id="Mask" fill-opacity="0.4" fill="#A1A4B3"></path>
                    <rect id="矩形" fill-opacity="0.4" fill="#A1A4B3" x="58.0645161" y="23.2307692" width="85" height="17.4230769" rx="4"></rect>
                    <rect id="矩形备份-3" fill-opacity="0.4" fill="#A1A4B3" x="58.0645161" y="46.4615385" width="66" height="11.6153846" rx="4"></rect>
                    <ellipse id="椭圆形" fill-opacity="0.4" fill="#A1A4B3" cx="29.0322581" cy="40.6538462" rx="17.4193548" ry="17.4230769"></ellipse>
                    <g transform="translate(238.064516, 23.230769)" id="ic_56x56_底部btn" opacity="0.8">
                        <g id="挂断">
                            <mask id="mask-2" fill="white">
                                <use xlink:href="#path-1"></use>
                            </mask>
                            <use id="backplane/round" fill="#E84026" xlink:href="#path-1"></use>
                            <g id="编组" mask="url(#mask-2)">
                                <g transform="translate(8.087558, 8.089286)" id="Public/ic_public_phone_filled备份-3">
                                    <g transform="translate(9.331797, 9.333791) rotate(-225.000000) translate(-9.331797, -9.333791) ">
                                        <mask id="mask-4" fill="white">
                                            <use xlink:href="#path-3"></use>
                                        </mask>
                                        <g id="路径"></g>
                                        <g id="编组" mask="url(#mask-4)" fill="#FFFFFF">
                                            <g id="Symbol/color-light/colorPrimary">
                                                <rect id="color/#000000" x="0" y="0" width="18.6635945" height="18.6675824"></rect>
                                            </g>
                                        </g>
                                    </g>
                                </g>
                            </g>
                        </g>
                    </g>
                    <g transform="translate(278.709677, 23.230769)" id="ic_56x56_底部btn" opacity="0.8">
                        <g>
                            <mask id="mask-6" fill="white">
                                <use xlink:href="#path-5"></use>
                            </mask>
                            <use id="backplane/round" fill="#64BB5C" xlink:href="#path-5"></use>
                            <g id="编组" mask="url(#mask-6)">
                                <g transform="translate(8.087558, 8.089286)" id="Public/ic_public_phone_filled备份">
                                    <mask id="mask-8" fill="white">
                                        <use xlink:href="#path-7"></use>
                                    </mask>
                                    <g id="路径"></g>
                                    <g id="编组" mask="url(#mask-8)" fill="#FFFFFF">
                                        <g id="Symbol/color-light/colorPrimary">
                                            <rect id="color/#000000" x="0" y="0" width="18.6635945" height="18.6675824"></rect>
                                        </g>
                                    </g>
                                </g>
                            </g>
                        </g>
                    </g>
                </g>
            </g>
        </g>
    </g>
</svg>