<?xml version="1.0" encoding="UTF-8"?>
<svg width="355px" height="755px" viewBox="0 0 355 755" version="1.1" xmlns="http://www.w3.org/2000/svg" xmlns:xlink="http://www.w3.org/1999/xlink">
    <title>手机全屏</title>
    <defs>
        <ellipse id="path-1" cx="34.8387097" cy="34.8461538" rx="34.8387097" ry="34.8461538"></ellipse>
        <path d="M3.27059821,10.7288346 C2.78227138,8.6035783 3.42852931,6.3775346 4.97974214,4.83858928 C5.84109642,3.87109532 6.65642783,3.31369605 7.42573638,3.16639146 C8.5796992,2.94543457 9.76127574,3.40091587 10.4952194,4.31333213 L12.9922843,7.40072641 C13.117238,7.55371844 13.2151245,7.67279778 13.2746853,7.74395695 L13.329259,7.80793969 C14.2756675,8.8743562 14.2509087,10.4766715 13.2866342,11.5127234 L13.2178352,11.5840735 L11.531945,13.1748661 C10.8619489,13.8430669 10.7422895,14.8824364 11.243212,15.6843742 C12.2146528,17.2474819 14.0349533,19.3550106 16.0227646,21.3088686 C17.9763131,23.2972126 20.0833916,25.117902 21.6461653,26.0895504 C22.4479318,26.59058 23.4870794,26.470895 24.1551374,25.8007558 L25.7455902,24.1145053 L25.816925,24.0456916 C26.8247601,23.1072781 28.368549,23.058472 29.4333172,23.9284335 L29.7016541,24.1544739 C30.3124909,24.6579237 32.2241864,26.2014825 33.0147783,26.8377029 C33.9269996,27.5718033 34.3823836,28.7536324 34.1614739,29.9078418 C34.0142008,30.6773147 33.4569206,31.4928203 32.4896333,32.3543586 C30.9510168,33.9059029 28.7254486,34.552299 26.6006463,34.0638678 C22.0757952,33.0124367 16.725076,29.4653801 12.2741142,25.0585359 C7.86810348,20.6065151 4.32180464,15.2546526 3.27059821,10.7288346 Z" id="path-3"></path>
        <ellipse id="path-5" cx="34.8387097" cy="34.8461538" rx="34.8387097" ry="34.8461538"></ellipse>
        <path d="M3.27059821,10.7288346 C2.78227138,8.6035783 3.42852931,6.3775346 4.97974214,4.83858928 C5.84109642,3.87109532 6.65642783,3.31369605 7.42573638,3.16639146 C8.5796992,2.94543457 9.76127574,3.40091587 10.4952194,4.31333213 L12.9922843,7.40072641 C13.117238,7.55371844 13.2151245,7.67279778 13.2746853,7.74395695 L13.329259,7.80793969 C14.2756675,8.8743562 14.2509087,10.4766715 13.2866342,11.5127234 L13.2178352,11.5840735 L11.531945,13.1748661 C10.8619489,13.8430669 10.7422895,14.8824364 11.243212,15.6843742 C12.2146528,17.2474819 14.0349533,19.3550106 16.0227646,21.3088686 C17.9763131,23.2972126 20.0833916,25.117902 21.6461653,26.0895504 C22.4479318,26.59058 23.4870794,26.470895 24.1551374,25.8007558 L25.7455902,24.1145053 L25.816925,24.0456916 C26.8247601,23.1072781 28.368549,23.058472 29.4333172,23.9284335 L29.7016541,24.1544739 C30.3124909,24.6579237 32.2241864,26.2014825 33.0147783,26.8377029 C33.9269996,27.5718033 34.3823836,28.7536324 34.1614739,29.9078418 C34.0142008,30.6773147 33.4569206,31.4928203 32.4896333,32.3543586 C30.9510168,33.9059029 28.7254486,34.552299 26.6006463,34.0638678 C22.0757952,33.0124367 16.725076,29.4653801 12.2741142,25.0585359 C7.86810348,20.6065151 4.32180464,15.2546526 3.27059821,10.7288346 Z" id="path-7"></path>
    </defs>
    <g id="手机全屏" stroke="none" stroke-width="1" fill="none" fill-rule="evenodd">
        <g id="编组-4" transform="translate(-1.000000, 0.000000)">
            <g id="编组-8备份-2">
                <path d="M330.748386,6.45682913 L331.250617,6.72283971 L331.250617,6.72283971 C339.453086,11.1095682 345.890432,17.546914 350.27716,25.7493831 L350.543171,26.2516142 C354.758267,34.2898915 357,42.5457781 357,64.5244442 L357,690.475556 C357,712.454222 354.758267,720.710109 350.543171,728.748386 L350.27716,729.250617 L350.27716,729.250617 C345.890432,737.453086 339.453086,743.890432 331.250617,748.27716 L330.748386,748.543171 C322.710109,752.758267 314.454222,755 292.475556,755 L64.5244442,755 C42.5457781,755 34.2898915,752.758267 26.2516142,748.543171 L25.7493831,748.27716 L25.7493831,748.27716 C17.546914,743.890432 11.1095682,737.453086 6.72283971,729.250617 L6.45682913,728.748386 C2.28563996,720.793841 0.0469168885,712.626196 0.000729427368,691.157937 L1.73790985e-15,64.5244442 C-9.53700456e-16,42.5457781 2.24173271,34.2898915 6.45682913,26.2516142 L6.72283971,25.7493831 L6.72283971,25.7493831 C11.1095682,17.546914 17.546914,11.1095682 25.7493831,6.72283971 L26.2516142,6.45682913 C34.2061594,2.28563996 42.3738041,0.0469168885 63.8420627,0.000729427368 L292.475556,2.60686477e-15 C314.454222,-1.43055068e-15 322.710109,2.24173271 330.748386,6.45682913 Z M290.969255,15.1007425 L66.0307447,15.1007425 C48.5800309,15.1403314 40.724654,16.7624357 34.0816591,19.800473 L33.5855767,20.0309781 C32.7621248,20.4195693 31.9543418,20.8302194 31.1458547,21.2626031 C23.6269247,25.2837709 17.7260244,31.1846712 13.7048566,38.7036012 C13.402188,39.2695422 13.1101689,39.8351381 12.8289108,40.406005 L12.5904704,40.8967413 C9.28927252,47.7887889 7.54225352,55.6709047 7.54225352,74.2474072 L7.54299598,674.700398 C7.58406948,692.805513 9.3285725,700.582148 12.5904704,707.392148 L12.8289108,707.882884 C13.1101689,708.453751 13.402188,709.019347 13.7048566,709.585288 C17.7260244,717.104218 23.6269247,723.005118 31.1458547,727.026286 C38.6647848,731.047454 46.1228187,733.188889 66.6896607,733.188889 L290.969255,733.188146 C311.037576,733.142619 318.416064,731.004215 325.854145,727.026286 C333.373075,723.005118 339.273976,717.104218 343.295143,709.585288 C343.597812,709.019347 343.889831,708.453751 344.171089,707.882884 L344.40953,707.392148 C347.710727,700.5001 349.457746,692.617984 349.457746,674.041482 L349.457004,73.5884912 C349.415931,55.4833756 347.671428,47.7067407 344.40953,40.8967413 L344.171089,40.406005 C343.889831,39.8351381 343.597812,39.2695422 343.295143,38.7036012 C339.273976,31.1846712 333.373075,25.2837709 325.854145,21.2626031 C325.045658,20.8302194 324.237875,20.4195693 323.414423,20.0309781 L322.918341,19.800473 C316.192309,16.7244603 308.223395,15.1 290.310339,15.1 Z" id="形状结合" fill="#505259"></path>
                <path d="M66.6896607,15.1 L290.310339,15.1 C310.877181,15.1 318.335215,17.2414353 325.854145,21.2626031 C333.373075,25.2837709 339.273976,31.1846712 343.295143,38.7036012 C347.316311,46.2225312 349.457746,53.6805651 349.457746,74.2474072 L349.457746,674.041482 C349.457746,694.608324 347.316311,702.066358 343.295143,709.585288 C339.273976,717.104218 333.373075,723.005118 325.854145,727.026286 C318.335215,731.047454 310.877181,733.188889 290.310339,733.188889 L66.6896607,733.188889 C46.1228187,733.188889 38.6647848,731.047454 31.1458547,727.026286 C23.6269247,723.005118 17.7260244,717.104218 13.7048566,709.585288 C9.6836888,702.066358 7.54225352,694.608324 7.54225352,674.041482 L7.54225352,74.2474072 C7.54225352,53.6805651 9.6836888,46.2225312 13.7048566,38.7036012 C17.7260244,31.1846712 23.6269247,25.2837709 31.1458547,21.2626031 C38.6647848,17.2414353 46.1228187,15.1 66.6896607,15.1 Z" id="矩形" fill="#FFFFFF" opacity="0.1"></path>
            </g>
            <g id="编组" transform="translate(231.258065, 592.384615)" opacity="0.8">
                <g id="ic_56x56_底部btn">
                    <mask id="mask-2" fill="white">
                        <use xlink:href="#path-1"></use>
                    </mask>
                    <use id="backplane/round" fill="#64BB5C" xlink:href="#path-1"></use>
                    <g id="编组" mask="url(#mask-2)">
                        <g transform="translate(16.175115, 16.178571)" id="Public/ic_public_phone_filled备份">
                            <mask id="mask-4" fill="white">
                                <use xlink:href="#path-3"></use>
                            </mask>
                            <g id="路径"></g>
                            <g id="编组" mask="url(#mask-4)" fill="#FFFFFF">
                                <g id="Symbol/color-light/colorPrimary">
                                    <rect id="color/#000000" x="0" y="0" width="37.3271889" height="37.3351648"></rect>
                                </g>
                            </g>
                        </g>
                    </g>
                </g>
            </g>
            <g id="编组" transform="translate(57.064516, 592.384615)" opacity="0.8">
                <g id="挂断">
                    <mask id="mask-6" fill="white">
                        <use xlink:href="#path-5"></use>
                    </mask>
                    <use id="backplane/round" fill="#E84026" xlink:href="#path-5"></use>
                    <g id="编组" mask="url(#mask-6)">
                        <g transform="translate(16.175115, 16.178571)" id="Public/ic_public_phone_filled备份-3">
                            <g transform="translate(18.663594, 18.667582) rotate(-225.000000) translate(-18.663594, -18.667582) ">
                                <mask id="mask-8" fill="white">
                                    <use xlink:href="#path-7"></use>
                                </mask>
                                <g id="路径"></g>
                                <g id="编组" mask="url(#mask-8)" fill="#FFFFFF">
                                    <g id="Symbol/color-light/colorPrimary">
                                        <rect id="color/#000000" x="0" y="0" width="37.3271889" height="37.3351648"></rect>
                                    </g>
                                </g>
                            </g>
                        </g>
                    </g>
                </g>
            </g>
            <g id="编组-2" transform="translate(108.000000, 139.000000)" fill="#A1A4B3" fill-opacity="0.4">
                <ellipse id="椭圆形" cx="71" cy="58.0769231" rx="58.0645161" ry="58.0769231"></ellipse>
                <rect id="矩形" x="0" y="139.615385" width="141" height="24" rx="4"></rect>
                <rect id="矩形备份-2" x="15" y="172.615385" width="113" height="17" rx="4"></rect>
            </g>
        </g>
    </g>
</svg>