<?xml version="1.0" encoding="UTF-8"?>
<svg width="244px" height="244px" viewBox="0 0 244 244" version="1.1" xmlns="http://www.w3.org/2000/svg" xmlns:xlink="http://www.w3.org/1999/xlink">
    <title>PAD_解锁后来电通知_全屏light</title>
    <defs>
        <circle id="path-1" cx="9.5" cy="9.5" r="9.5"></circle>
        <path d="M0.89184368,2.92496927 C0.758684186,2.34556715 0.934909151,1.73868769 1.35790191,1.31912975 C1.59278046,1.05536484 1.81510926,0.903402785 2.0248883,0.863243587 C2.33955687,0.803004789 2.66175528,0.927181258 2.86189083,1.1759305 L3.54280346,2.01763733 C3.57687649,2.05934708 3.60356866,2.09181132 3.61981001,2.11121122 L3.63469147,2.12865464 C3.89276304,2.4193885 3.88601168,2.85622282 3.6230683,3.13867846 L3.60430785,3.1581304 L3.14459055,3.59182333 C2.96189256,3.77399285 2.92926319,4.05735298 3.06585736,4.27598282 C3.33075487,4.70212806 3.82712385,5.27669716 4.36917054,5.80937147 C4.90187427,6.35144758 5.47644337,6.84781656 5.9025886,7.11271407 C6.12121845,7.24930823 6.40457858,7.21667887 6.5867481,7.03398088 L7.02044102,6.57426358 L7.03989297,6.55550313 C7.31471468,6.29966632 7.73568303,6.28636046 8.02602954,6.5235354 L8.09920105,6.58516011 C8.26576719,6.72241408 8.78705825,7.14322979 9.00264093,7.3166806 C9.25139017,7.51681615 9.37556664,7.83901456 9.31532784,8.15368313 C9.27516864,8.36346217 9.12320659,8.58579097 8.85944168,8.82066952 C8.43988374,9.24366228 7.83300428,9.41988724 7.25360216,9.28672775 C6.01974231,9.00007933 4.56068043,8.03305617 3.34696911,6.83163174 C2.14551525,5.61789099 1.1784921,4.15882912 0.89184368,2.92496927 Z" id="path-3"></path>
        <circle id="path-5" cx="9.5" cy="9.5" r="9.5"></circle>
        <path d="M0.89184368,2.92496927 C0.758684186,2.34556715 0.934909151,1.73868769 1.35790191,1.31912975 C1.59278046,1.05536484 1.81510926,0.903402785 2.0248883,0.863243587 C2.33955687,0.803004789 2.66175528,0.927181258 2.86189083,1.1759305 L3.54280346,2.01763733 C3.57687649,2.05934708 3.60356866,2.09181132 3.61981001,2.11121122 L3.63469147,2.12865464 C3.89276304,2.4193885 3.88601168,2.85622282 3.6230683,3.13867846 L3.60430785,3.1581304 L3.14459055,3.59182333 C2.96189256,3.77399285 2.92926319,4.05735298 3.06585736,4.27598282 C3.33075487,4.70212806 3.82712385,5.27669716 4.36917054,5.80937147 C4.90187427,6.35144758 5.47644337,6.84781656 5.9025886,7.11271407 C6.12121845,7.24930823 6.40457858,7.21667887 6.5867481,7.03398088 L7.02044102,6.57426358 L7.03989297,6.55550313 C7.31471468,6.29966632 7.73568303,6.28636046 8.02602954,6.5235354 L8.09920105,6.58516011 C8.26576719,6.72241408 8.78705825,7.14322979 9.00264093,7.3166806 C9.25139017,7.51681615 9.37556664,7.83901456 9.31532784,8.15368313 C9.27516864,8.36346217 9.12320659,8.58579097 8.85944168,8.82066952 C8.43988374,9.24366228 7.83300428,9.41988724 7.25360216,9.28672775 C6.01974231,9.00007933 4.56068043,8.03305617 3.34696911,6.83163174 C2.14551525,5.61789099 1.1784921,4.15882912 0.89184368,2.92496927 Z" id="path-7"></path>
    </defs>
    <g id="PAD_解锁后来电通知_全屏light" stroke="none" stroke-width="1" fill="none" fill-rule="evenodd">
        <g id="#illustration_编组备份">
            <rect id="矩形" x="0" y="0" width="244" height="244"></rect>
            <g id="Mockup/Tablet/Default-" transform="translate(-0.000000, 43.317322)">
                <g id="底备份-2" transform="translate(122.000000, 78.682678) rotate(270.000000) translate(-122.000000, -78.682678) translate(43.317322, -43.317322)">
                    <path d="M144.91776,5.02897813e-16 C149.24606,-2.92198112e-16 150.815607,0.450665962 152.397969,1.29692243 C153.980331,2.14317889 155.222178,3.38502586 156.068434,4.96738787 C156.91469,6.54974989 157.365356,8.11929628 157.365356,12.4475969 L157.365356,231.552403 C157.365356,235.880704 156.91469,237.45025 156.068434,239.032612 C155.222178,240.614974 153.980331,241.856821 152.397969,242.703078 C150.815607,243.549334 149.24606,244 144.91776,244 L12.4475969,244 C8.11929628,244 6.54974989,243.549334 4.96738787,242.703078 C3.38502586,241.856821 2.14317889,240.614974 1.29692243,239.032612 C0.450665962,237.45025 1.94798741e-16,235.880704 -3.35265209e-16,231.552403 L3.35265209e-16,12.4475969 C-1.94798741e-16,8.11929628 0.450665962,6.54974989 1.29692243,4.96738787 C2.14317889,3.38502586 3.38502586,2.14317889 4.96738787,1.29692243 C6.54974989,0.450665962 8.11929628,2.92198112e-16 12.4475969,-5.02897813e-16 L144.91776,5.02897813e-16 Z M144.183206,4.88 L13.1821504,4.88 C10.2966166,4.88 9.25025237,5.18044397 8.19534436,5.74461495 C7.14043635,6.30878593 6.31253837,7.13668391 5.74836739,8.19159192 C5.18419642,9.24649993 4.88375244,10.2928642 4.88375244,13.1783979 L4.88375244,13.1783979 L4.88375244,230.821602 C4.88375244,233.707136 5.18419642,234.7535 5.74836739,235.808408 C6.31253837,236.863316 7.14043635,237.691214 8.19534436,238.255385 C9.25025237,238.819556 10.2966166,239.12 13.1821504,239.12 L13.1821504,239.12 L144.183206,239.12 C147.06874,239.12 148.115104,238.819556 149.170012,238.255385 C150.22492,237.691214 151.052818,236.863316 151.616989,235.808408 C152.18116,234.7535 152.481604,233.707136 152.481604,230.821602 L152.481604,230.821602 L152.481604,13.1783979 C152.481604,10.2928642 152.18116,9.24649993 151.616989,8.19159192 C151.052818,7.13668391 150.22492,6.30878593 149.170012,5.74461495 C148.115104,5.18044397 147.06874,4.88 144.183206,4.88 L144.183206,4.88 Z" id="形状结合" fill="#505259"></path>
                    <path d="M13.1821504,4.88 L144.183206,4.88 C147.06874,4.88 148.115104,5.18044397 149.170012,5.74461495 C150.22492,6.30878593 151.052818,7.13668391 151.616989,8.19159192 C152.18116,9.24649993 152.481604,10.2928642 152.481604,13.1783979 L152.481604,230.821602 C152.481604,233.707136 152.18116,234.7535 151.616989,235.808408 C151.052818,236.863316 150.22492,237.691214 149.170012,238.255385 C148.115104,238.819556 147.06874,239.12 144.183206,239.12 L13.1821504,239.12 C10.2966166,239.12 9.25025237,238.819556 8.19534436,238.255385 C7.14043635,237.691214 6.31253837,236.863316 5.74836739,235.808408 C5.18419642,234.7535 4.88375244,233.707136 4.88375244,230.821602 L4.88375244,13.1783979 C4.88375244,10.2928642 5.18419642,9.24649993 5.74836739,8.19159192 C6.31253837,7.13668391 7.14043635,6.30878593 8.19534436,5.74461495 C9.25025237,5.18044397 10.2966166,4.88 13.1821504,4.88 Z" id="screen" fill-opacity="0.1" fill="#FFFFFF"></path>
                </g>
            </g>
            <g id="1:1通用手机" transform="translate(74.000000, 161.682678)">
                <g id="挂断">
                    <mask id="mask-2" fill="white">
                        <use xlink:href="#path-1"></use>
                    </mask>
                    <use id="backplane/round" fill="#E84026" xlink:href="#path-1"></use>
                    <g id="编组" mask="url(#mask-2)">
                        <g transform="translate(4.410714, 4.410714)" id="Public/ic_public_phone_filled备份-3">
                            <g transform="translate(5.089286, 5.089286) rotate(-225.000000) translate(-5.089286, -5.089286) ">
                                <mask id="mask-4" fill="white">
                                    <use xlink:href="#path-3"></use>
                                </mask>
                                <g id="路径"></g>
                                <g id="编组" mask="url(#mask-4)" fill="#FFFFFF">
                                    <g id="Symbol/color-light/colorPrimary">
                                        <rect id="color/#000000" x="0" y="0" width="10.1785714" height="10.1785714"></rect>
                                    </g>
                                </g>
                            </g>
                        </g>
                    </g>
                </g>
                <g id="挂断" transform="translate(77.000000, 0.000000)">
                    <mask id="mask-6" fill="white">
                        <use xlink:href="#path-5"></use>
                    </mask>
                    <use id="backplane/round" fill="#64BB5C" xlink:href="#path-5"></use>
                    <g id="编组" mask="url(#mask-6)">
                        <g transform="translate(4.410714, 4.410714)" id="Public/ic_public_phone_filled备份">
                            <mask id="mask-8" fill="white">
                                <use xlink:href="#path-7"></use>
                            </mask>
                            <g id="路径"></g>
                            <g id="编组" mask="url(#mask-8)" fill="#FFFFFF">
                                <g id="Symbol/color-light/colorPrimary">
                                    <rect id="color/#000000" x="0" y="0" width="10.1785714" height="10.1785714"></rect>
                                </g>
                            </g>
                        </g>
                    </g>
                </g>
            </g>
            <g id="编组-2备份-2" transform="translate(107.500178, 73.000000)" fill="#A1A4B3" fill-opacity="0.4">
                <ellipse id="椭圆形" cx="14.6361424" cy="11.9675211" rx="11.9695848" ry="11.9675211"></ellipse>
                <rect id="矩形" x="0" y="28.7696036" width="29.0661419" height="4.94551864" rx="0.823715779"></rect>
                <rect id="矩形备份-2" x="3.09214275" y="35.5696918" width="23.2941421" height="3.5030757" rx="0.823715779"></rect>
            </g>
        </g>
    </g>
</svg>