<?xml version="1.0" encoding="UTF-8"?>
<svg width="158px" height="158px" viewBox="0 0 158 158" version="1.1" xmlns="http://www.w3.org/2000/svg" xmlns:xlink="http://www.w3.org/1999/xlink">
    <title>解锁后来电通知-全屏light</title>
    <defs>
        <circle id="path-1" cx="7.5" cy="7.5" r="7.5"></circle>
        <path d="M0.739291471,2.42464558 C0.62890926,1.94435172 0.77499048,1.44128058 1.12562921,1.09348913 C1.32033117,0.874841906 1.50463004,0.748873361 1.67852583,0.7155835 C1.93936951,0.665648707 2.20645504,0.768584464 2.37235687,0.974784495 L2.9367976,1.67251516 C2.96504235,1.70709034 2.98716876,1.73400149 3.00063198,1.75008299 L3.01296793,1.76454266 C3.22689568,2.00554573 3.22129916,2.36765839 3.00333293,2.60179925 L2.98778151,2.61792389 L2.60670006,2.97743249 C2.45525304,3.12844144 2.42820502,3.36333207 2.54143439,3.54456471 C2.76102049,3.89781668 3.17248424,4.37410423 3.62181242,4.81566319 C4.06339577,5.26501576 4.53968332,5.67647951 4.89293529,5.89606561 C5.07416793,6.00929498 5.30905856,5.98224696 5.46006751,5.83079994 L5.81957611,5.44971849 L5.83570075,5.43416707 C6.06351348,5.22209182 6.41247409,5.21106196 6.65315607,5.4076675 L6.7138114,5.45875114 C6.85188596,5.57252746 7.28400881,5.92136153 7.4627155,6.06514313 C7.66891554,6.23104496 7.77185129,6.49813049 7.7219165,6.75897417 C7.68862664,6.93286996 7.56265809,7.11716883 7.34401087,7.31187079 C6.99621942,7.66250952 6.49314828,7.80859074 6.01285442,7.69820853 C4.99004954,7.46059208 3.78056404,6.65898078 2.77446123,5.66306315 C1.77851922,4.65693596 0.976907923,3.44745046 0.739291471,2.42464558 Z" id="path-3"></path>
        <circle id="path-5" cx="7.5" cy="7.5" r="7.5"></circle>
        <path d="M0.739291471,2.42464558 C0.62890926,1.94435172 0.77499048,1.44128058 1.12562921,1.09348913 C1.32033117,0.874841906 1.50463004,0.748873361 1.67852583,0.7155835 C1.93936951,0.665648707 2.20645504,0.768584464 2.37235687,0.974784495 L2.9367976,1.67251516 C2.96504235,1.70709034 2.98716876,1.73400149 3.00063198,1.75008299 L3.01296793,1.76454266 C3.22689568,2.00554573 3.22129916,2.36765839 3.00333293,2.60179925 L2.98778151,2.61792389 L2.60670006,2.97743249 C2.45525304,3.12844144 2.42820502,3.36333207 2.54143439,3.54456471 C2.76102049,3.89781668 3.17248424,4.37410423 3.62181242,4.81566319 C4.06339577,5.26501576 4.53968332,5.67647951 4.89293529,5.89606561 C5.07416793,6.00929498 5.30905856,5.98224696 5.46006751,5.83079994 L5.81957611,5.44971849 L5.83570075,5.43416707 C6.06351348,5.22209182 6.41247409,5.21106196 6.65315607,5.4076675 L6.7138114,5.45875114 C6.85188596,5.57252746 7.28400881,5.92136153 7.4627155,6.06514313 C7.66891554,6.23104496 7.77185129,6.49813049 7.7219165,6.75897417 C7.68862664,6.93286996 7.56265809,7.11716883 7.34401087,7.31187079 C6.99621942,7.66250952 6.49314828,7.80859074 6.01285442,7.69820853 C4.99004954,7.46059208 3.78056404,6.65898078 2.77446123,5.66306315 C1.77851922,4.65693596 0.976907923,3.44745046 0.739291471,2.42464558 Z" id="path-7"></path>
    </defs>
    <g id="解锁后来电通知-全屏light" stroke="none" stroke-width="1" fill="none" fill-rule="evenodd">
        <g id="#illustration_编组-4">
            <rect id="矩形" opacity="0" x="0" y="0" width="158" height="158"></rect>
            <g id="编组-4备份" transform="translate(9.937107, 0.000000)">
                <g id="folder-screen">
                    <path d="M47.5079511,4.90641219e-16 C51.7307627,-2.85076677e-16 53.2620562,0.439682359 54.805853,1.26531391 L55.009,1.379 L60.2151145,1.37953637 C60.790506,0.546131203 61.7523106,-2.00112249e-16 62.8416709,0 C63.9310313,2.00112249e-16 64.8928359,0.546131203 65.4682274,1.37953637 L70.6721538,1.37851484 C70.7399298,1.34001091 70.8083764,1.30227566 70.8774889,1.26531391 C72.373042,0.465483345 73.8568611,0.0278570509 77.7873049,0.0012864921 L78.1753907,4.90641219e-16 L127.159123,-2.3043095e-15 C131.381934,1.33887018e-15 132.913228,0.439682359 134.457024,1.26531391 C136.000821,2.09094547 137.212402,3.30252622 138.038033,4.846323 C138.626546,5.94674624 139.018963,7.04081672 139.195823,9.1078417 C139.380724,10.1795068 139.475753,11.560964 139.475753,13.5241375 L139.475,27.369 L139.49912,27.3708056 C139.845915,27.4178523 140.113208,27.7151198 140.113208,28.074817 L140.113208,43.3104933 C140.113208,43.6782811 139.833755,43.9807993 139.475601,44.0172974 L139.475753,144.475863 C139.475753,146.439036 139.380724,147.820493 139.196067,148.891929 C139.018963,150.959183 138.626546,152.053254 138.038033,153.153677 C137.212402,154.697474 136.000821,155.909055 134.457024,156.734686 C132.961471,157.534517 131.477652,157.972143 127.547208,157.998714 L127.159123,158 L78.1753907,158 C73.9525792,158 72.4212857,157.560318 70.8774889,156.734686 L70.673,156.62 L65.4682274,156.620464 C64.8928359,157.453869 63.9310313,158 62.8416709,158 C61.7523106,158 60.790506,157.453869 60.2151145,156.620464 L55.0109555,156.621617 C54.9432555,156.660075 54.8748864,156.697767 54.805853,156.734686 C53.2620562,157.560318 51.7307627,158 47.5079511,158 L12.1442248,158 C7.92141329,158 6.39011978,157.560318 4.846323,156.734686 C3.30252622,155.909055 2.09094547,154.697474 1.26531391,153.153677 C0.439682359,151.60988 -1.39063913e-15,150.078587 2.39340827e-15,145.855775 L3.27094146e-16,12.1442248 C-1.90051118e-16,7.92141329 0.439682359,6.39011978 1.26531391,4.846323 C2.09094547,3.30252622 3.30252622,2.09094547 4.846323,1.26531391 C6.39011978,0.439682359 7.92141329,8.11973427e-16 12.1442248,-1.39747536e-15 L47.5079511,4.90641219e-16 Z M126.994304,4.31222707 L12.6538537,4.31222707 C8.85332329,4.31222707 7.47515913,4.7079412 6.08574203,5.4510096 C4.69632493,6.194078 3.60590225,7.28450067 2.86283385,8.67391778 C2.1445344,10.017021 1.75081822,11.3496089 1.72536858,14.8699608 L1.72405133,15.2420294 L1.72405133,142.93046 C1.72405133,146.73099 2.11976545,148.109154 2.86283385,149.498571 C3.60590225,150.887988 4.69632493,151.978411 6.08574203,152.721479 C7.42884523,153.439779 8.76143318,153.833495 12.2817851,153.858945 L12.6538537,153.860262 L126.994304,153.860262 C130.794834,153.860262 132.172999,153.464548 133.562416,152.721479 C134.951833,151.978411 136.042255,150.887988 136.785324,149.498571 C137.503623,148.155468 137.897339,146.82288 137.922789,143.302528 L137.924106,142.93046 L137.924106,15.2420294 C137.924106,11.441499 137.528392,10.0633349 136.785324,8.67391778 C136.042255,7.28450067 134.951833,6.194078 133.562416,5.4510096 C132.219312,4.73271014 130.886724,4.33899396 127.366373,4.31354433 L126.994304,4.31222707 Z" id="形状结合" fill="#505259"></path>
                    <path d="M12.6538537,4.31222707 L126.994304,4.31222707 C130.794834,4.31222707 132.172999,4.7079412 133.562416,5.4510096 C134.951833,6.194078 136.042255,7.28450067 136.785324,8.67391778 C137.528392,10.0633349 137.924106,11.441499 137.924106,15.2420294 L137.924106,142.93046 C137.924106,146.73099 137.528392,148.109154 136.785324,149.498571 C136.042255,150.887988 134.951833,151.978411 133.562416,152.721479 C132.172999,153.464548 130.794834,153.860262 126.994304,153.860262 L12.6538537,153.860262 C8.85332329,153.860262 7.47515913,153.464548 6.08574203,152.721479 C4.69632493,151.978411 3.60590225,150.887988 2.86283385,149.498571 C2.11976545,148.109154 1.72405133,146.73099 1.72405133,142.93046 L1.72405133,15.2420294 C1.72405133,11.441499 2.11976545,10.0633349 2.86283385,8.67391778 C3.60590225,7.28450067 4.69632493,6.194078 6.08574203,5.4510096 C7.47515913,4.7079412 8.85332329,4.31222707 12.6538537,4.31222707 Z" id="#illustration_矩形" fill-opacity="0.1" fill="#FFFFFF"></path>
                </g>
                <g id="编组-2" transform="translate(35.062893, 123.000000)">
                    <g id="挂断">
                        <mask id="mask-2" fill="white">
                            <use xlink:href="#path-1"></use>
                        </mask>
                        <use id="backplane/round" fill="#E84026" xlink:href="#path-1"></use>
                        <g id="编组" mask="url(#mask-2)">
                            <g transform="translate(3.281250, 3.281250)" id="Public/ic_public_phone_filled备份-3">
                                <g transform="translate(4.218750, 4.218750) rotate(-225.000000) translate(-4.218750, -4.218750) ">
                                    <mask id="mask-4" fill="white">
                                        <use xlink:href="#path-3"></use>
                                    </mask>
                                    <g id="路径"></g>
                                    <g id="编组" mask="url(#mask-4)" fill="#FFFFFF">
                                        <g id="Symbol/color-light/colorPrimary">
                                            <rect id="color/#000000" x="0" y="0" width="8.4375" height="8.4375"></rect>
                                        </g>
                                    </g>
                                </g>
                            </g>
                        </g>
                    </g>
                    <g id="接听" transform="translate(53.000000, 0.000000)">
                        <mask id="mask-6" fill="white">
                            <use xlink:href="#path-5"></use>
                        </mask>
                        <use id="backplane/round" fill="#64BB5C" xlink:href="#path-5"></use>
                        <g id="编组" mask="url(#mask-6)">
                            <g transform="translate(3.281250, 3.281250)" id="Public/ic_public_phone_filled备份">
                                <mask id="mask-8" fill="white">
                                    <use xlink:href="#path-7"></use>
                                </mask>
                                <g id="路径"></g>
                                <g id="编组" mask="url(#mask-8)" fill="#FFFFFF">
                                    <g id="Symbol/color-light/colorPrimary">
                                        <rect id="color/#000000" x="0" y="0" width="8.4375" height="8.4375"></rect>
                                    </g>
                                </g>
                            </g>
                        </g>
                    </g>
                </g>
                <g id="编组-2备份-2" transform="translate(55.417910, 29.088742)" fill="#A1A4B3" fill-opacity="0.4">
                    <ellipse id="椭圆形" cx="14.8478175" cy="12.1538462" rx="12.1426949" ry="12.1538462"></ellipse>
                    <rect id="矩形" x="0" y="29.2175242" width="29.4865108" height="5.02251656" rx="1.12851257"></rect>
                    <rect id="矩形备份-2" x="3.13686286" y="36.1234845" width="23.6310335" height="3.55761589" rx="1.12851257"></rect>
                </g>
            </g>
        </g>
    </g>
</svg>