<svg viewBox="0 0 32 32" xmlns="http://www.w3.org/2000/svg" xmlns:xlink="http://www.w3.org/1999/xlink" width="32" height="32" fill="none" clip-path="url(#clipPath_0)" customFrame="url(#clipPath_0)">
    <defs>
        <clipPath id="clipPath_0">
            <rect width="32" height="32" x="0" y="0" rx="8" fill="rgb(255,255,255)" />
        </clipPath>
    </defs>
    <rect id="属性 1=通知_风信子图标_Light" width="32" height="32" x="0" y="0" rx="8" />
    <g id="light_风信子_终稿">
        <g id="编组-2">
            <rect id="矩形 227" width="32" height="32" x="0" y="0" fill="rgb(237,111,33)" />
            <g id="编组">
                <path id="路径" d="M13.5663 0.0692427L13.5577 2.27605L0 2.2068L0.00856693 0L13.5663 0.0692427Z" opacity="0.400000006" fill="rgb(255,255,255)" fill-rule="nonzero" transform="matrix(0.706739,0.707474,-0.706739,0.707474,12.5029,9.87769)" />
                <path id="矩形备份" d="M0.558946 0L5.83439 0C6.14305 0 6.39328 0.250224 6.39328 0.558892L6.39328 7.37078C6.39322 7.67942 6.14303 7.92964 5.83439 7.92972L0.558946 7.93022C0.250278 7.93031 2.94483e-05 7.68011 0 7.37144C0 7.37142 0 7.3714 5.33001e-05 7.37139L5.33001e-05 0.558892C5.33001e-05 0.250224 0.250278 0 0.558946 0Z" fill="rgb(255,238,227)" fill-rule="evenodd" transform="matrix(-0.706739,0.707474,0.706739,0.707474,10.5183,5)" />
                <path id="矩形备份-2" d="M0.558946 0L5.80351 0C6.11218 0 6.36241 0.250225 6.36241 0.558892L6.36241 7.37078C6.36235 7.67942 6.11216 7.92964 5.80351 7.92972L0.558946 7.93022C0.250278 7.93031 2.98481e-05 7.68011 0 7.37144C0 7.37142 0 7.3714 5.33001e-05 7.37139L5.33001e-05 0.558892C5.33001e-05 0.250225 0.250278 0 0.558946 0Z" fill="rgb(255,238,227)" fill-rule="evenodd" transform="matrix(-0.706739,0.707474,0.706739,0.707474,21.3955,15.8884)" />
                <path id="形状结合" d="M2.776 1.44547e-32C3.239 -8.5052e-17 3.61433 0.375337 3.61433 0.838339L3.6151 1.6036C4.1858 1.64883 4.66128 1.73888 4.95639 1.85477C5.30088 1.95784 5.55199 2.2779 5.55199 2.6566L5.55199 12.329C5.55199 12.5511 5.37194 12.7312 5.14984 12.7312C5.0843 12.7312 5.02243 12.7155 4.96776 12.6877C4.96665 12.6866 4.96505 12.6858 4.96349 12.6849C4.31184 12.333 3.56712 12.134 2.776 12.134C1.99009 12.134 1.24998 12.3304 0.601912 12.6768L0.558686 12.6996C0.510574 12.7199 0.457676 12.7312 0.402151 12.7312C0.180049 12.7312 0 12.5511 0 12.329L0 2.6566C0 2.2779 0.251108 1.95784 0.595903 1.85385C0.890711 1.73888 1.36619 1.64883 1.9369 1.6036L1.93766 0.838339C1.93766 0.375337 2.31299 8.5052e-17 2.776 1.44547e-32Z" fill="rgb(255,255,255)" fill-rule="evenodd" transform="matrix(0.706739,0.707474,-0.706739,0.707474,21.2766,6.80151)" />
                <path id="形状结合" d="M4.56274 0C6.80405 0 8.6729 1.59708 9.09654 3.71689C9.11515 3.78522 9.12548 3.85726 9.12548 3.93172C9.12548 4.36601 8.77395 4.71807 8.34031 4.71807C8.33232 4.71807 8.32436 4.71795 8.31643 4.71771L8.31413 4.71814L0.811348 4.71814L0.808159 4.71593L0.785176 4.71807C0.387672 4.71807 0.0591594 4.42224 0.0071678 4.03843L0 3.93172C0 3.85934 0.00976512 3.78925 0.0280471 3.72268L0.0226456 3.74899C0.433754 1.61322 2.31013 0 4.56274 0Z" fill="rgb(255,255,255)" fill-rule="evenodd" transform="matrix(0.706739,0.707474,-0.706739,0.707474,10.7549,14.8059)" />
                <circle id="椭圆形" cx="1.39723098" cy="1.39723098" r="1.39723098" fill="rgb(255,255,255)" transform="matrix(0.706739,0.707474,-0.706739,0.707474,8.87891,21.1628)" />
            </g>
        </g>
    </g>
</svg>
