<?xml version="1.0" encoding="UTF-8"?>
<svg width="128px" height="128px" viewBox="0 0 128 128" version="1.1" xmlns="http://www.w3.org/2000/svg" xmlns:xlink="http://www.w3.org/1999/xlink">
    <title>无圆角</title>
    <defs>
        <polygon id="path-1" points="-1.25 1.25 126.75 1.25 126.75 129.25 -1.25 129.25"></polygon>
        <linearGradient x1="50%" y1="0%" x2="50%" y2="100%" id="linearGradient-3">
            <stop stop-color="#FF8D46" offset="0%"></stop>
            <stop stop-color="#ED6F21" offset="100%"></stop>
        </linearGradient>
        <polygon id="path-4" points="0 0 128 0 128 128 0 128"></polygon>
    </defs>
    <g id="无圆角" stroke="none" stroke-width="1" fill="none" fill-rule="evenodd">
        <mask id="mask-2" fill="white">
            <use xlink:href="#path-1"></use>
        </mask>
        <use id="蒙版" fill="#2F83FB" xlink:href="#path-1"></use>
        <mask id="mask-5" fill="white">
            <use xlink:href="#path-4"></use>
        </mask>
        <use id="蒙版" fill="url(#linearGradient-3)" xlink:href="#path-4"></use>
        <g id="icon_天通卫星" transform="translate(-7.312074, 3.951961)" fill="#FFFFFF">
            <path d="M83.3617081,96.3411824 C84.2273406,97.2073095 84.2258937,98.6103006 83.358477,99.474645 C78.4481481,104.367582 71.8525784,107.095476 64.9058183,107.095476 C57.9766931,107.095476 51.3965814,104.381513 46.4893491,99.5106364 C45.6202518,98.6479779 45.6160732,97.2449923 46.4800184,96.377186 C47.3437421,95.5096021 48.7481242,95.5054318 49.6169988,96.3678692 C53.6933913,100.414061 59.149678,102.66449 64.9058183,102.66449 C70.6765993,102.66449 76.145732,100.402493 80.2247155,96.3379562 C81.0919098,95.4738333 82.4962974,95.4752774 83.3617081,96.3411824 Z M77.7416222,89.3712016 C78.6072547,90.2373287 78.6058078,91.6403198 77.7383911,92.5046642 C74.3254858,95.9054817 69.7396326,97.802168 64.9113376,97.802168 C60.0953012,97.802168 55.5201911,95.9151642 52.109435,92.5296774 C51.2403376,91.6670189 51.2361591,90.2640333 52.1001043,89.396227 C52.963828,88.5286431 54.3682101,88.5244728 55.2370847,89.3869101 C57.817001,91.9477127 61.268286,93.371182 64.9113376,93.371182 C68.5636535,93.371182 72.0230697,91.9403918 74.6046296,89.3679754 C75.4718239,88.5038525 76.8762115,88.5052966 77.7416222,89.3712016 Z M65.3858789,69.1755589 C72.6015293,69.1755589 78.6162682,74.3249311 79.966094,81.1545137 C80.0228243,81.3650849 80.052995,81.5861373 80.052995,81.8142469 C80.052995,83.2102778 78.9229716,84.3419845 77.5290171,84.3419845 C77.5018097,84.3419845 77.474703,84.3415534 77.4477032,84.3406976 L77.4448845,84.3422116 L53.3268734,84.3422116 L53.3237629,84.3395589 L53.2427408,84.3419845 C51.9045445,84.3419845 50.8095871,83.2990036 50.7241316,81.9804464 L50.7187629,81.8142469 C50.7187629,81.5861373 50.7489336,81.3650849 50.8054964,81.1548738 L50.7915583,81.226826 C52.1130848,74.3613117 58.1447839,69.1755589 65.3858789,69.1755589 Z M69.0316248,23.6762822 C70.2706955,23.6762822 71.2751607,24.6822436 71.2751607,25.92316 C71.3116397,25.7778653 71.3116811,26.3298909 71.2752849,27.579237 C71.2206906,29.4532561 72.3516438,29.6831166 72.8613823,29.8694075 C76.5174495,31.2055674 79.1277887,34.7188675 79.1277887,38.8427077 L79.1277887,66.9286811 L79.1240202,66.9982822 L79.1275364,67.0971969 C79.1275364,68.2864084 78.2050327,69.2598367 77.0376067,69.3388912 L76.8840005,69.3440748 C76.555459,69.3440748 76.2434116,69.2733503 75.9622095,69.1462742 C75.8631194,69.1057768 75.7678266,69.054234 75.6771043,68.9920555 C72.733308,66.9744615 69.1800968,65.8052421 65.3858789,65.8052421 L65.1259363,65.8070733 C61.4537929,65.8588342 58.0154593,67.0055944 55.1492234,68.9547633 L55.1352823,68.9649646 L55.1352823,68.9649646 C55.0826288,69.0001314 55.0302158,69.0362476 54.977998,69.0726326 C54.6785279,69.281301 54.3269427,69.3625397 53.9664465,69.3412825 L53.8877574,69.3440748 C52.6486867,69.3440748 51.6442215,68.3381133 51.6442215,67.0971969 C51.6442215,67.0688099 51.6447471,67.0405459 51.6457892,67.0124141 L51.644457,66.9709307 L51.644457,66.9709307 L51.6440202,38.8427077 C51.6440202,34.8615985 54.0768127,31.4494977 57.534592,30.015905 L57.9492873,29.8505945 L58.0802034,29.7943366 L58.2178424,29.7291963 L58.3597306,29.6537174 C58.9086187,29.3427058 59.4966393,28.7717227 59.4967363,27.5716882 L59.4965972,25.92316 C59.4965972,24.6822436 60.5010624,23.6762822 61.7401331,23.6762822 L69.0316248,23.6762822 Z M28.5829347,38.2809883 C29.5481603,38.2809883 30.3306303,39.0634583 30.3306303,40.0286839 L30.3306303,61.2489492 C30.3306303,62.2141748 29.5481603,62.9966448 28.5829347,62.9966448 L19.8689658,62.9966448 C16.9732889,62.9966448 14.6258789,60.6492348 14.6258789,57.7535579 L14.6258789,43.5240751 C14.6258789,40.6283982 16.9732889,38.2809883 19.8689658,38.2809883 L28.5829347,38.2809883 Z M44.7835264,38.2809883 C46.7139776,38.2809883 48.2789176,39.8459282 48.2789176,41.7763795 L48.2789176,59.5012535 C48.2789176,61.4317048 46.7139776,62.9966448 44.7835264,62.9966448 L34.3218618,62.9966448 C33.3566362,62.9966448 32.5741662,62.2141748 32.5741662,61.2489492 L32.5741662,40.0286839 C32.5741662,39.0634583 33.3566362,38.2809883 34.3218618,38.2809883 L44.7835264,38.2809883 Z M110.902792,38.2809883 C113.798469,38.2809883 116.145879,40.6283982 116.145879,43.5240751 L116.145879,57.7535579 C116.145879,60.6492348 113.798469,62.9966448 110.902792,62.9966448 L102.188823,62.9966448 C101.223598,62.9966448 100.441128,62.2141748 100.441128,61.2489492 L100.441128,40.0286839 C100.441128,39.0634583 101.223598,38.2809883 102.188823,38.2809883 L110.902792,38.2809883 Z M96.449896,38.2809883 C97.4151217,38.2809883 98.1975916,39.0634583 98.1975916,40.0286839 L98.1975916,61.2489492 C98.1975916,62.2141748 97.4151217,62.9966448 96.449896,62.9966448 L85.9882315,62.9966448 C84.0577802,62.9966448 82.4928403,61.4317048 82.4928403,59.5012535 L82.4928403,41.7763795 C82.4928403,39.8459282 84.0577802,38.2809883 85.9882315,38.2809883 L96.449896,38.2809883 Z" id="形状结合" transform="translate(65.385879, 65.385879) rotate(-315.000000) translate(-65.385879, -65.385879) "></path>
        </g>
    </g>
</svg>