<?xml version="1.0" encoding="UTF-8"?>
<svg width="92px" height="92px" viewBox="0 0 92 92" version="1.1" xmlns="http://www.w3.org/2000/svg" xmlns:xlink="http://www.w3.org/1999/xlink">
    <title>ic_46_arrow Right</title>
    <defs>
        <path d="M41.1472196,30.4723401 L41.2280545,30.5479145 L53.7076913,42.9096541 C55.3948721,44.5808958 55.4300217,47.2688812 53.8131401,48.9824873 L53.7076913,49.0905239 L41.2280545,61.4522635 C40.9031311,61.7741172 40.48938,61.9543553 40.0649694,61.9929777 L39.9490156,62 L39.8328855,62 C39.3684827,61.9859555 38.9083084,61.8033766 38.5538466,61.4522635 C37.8417581,60.7469022 37.8163264,59.6189377 38.4775514,58.8833905 L38.5538466,58.8033193 L50.1420808,47.3245611 C50.8541692,46.6191999 50.879601,45.4912353 50.218376,44.7556881 L50.1420808,44.6756169 L38.5538466,33.1968587 C37.8153845,32.465373 37.8153845,31.2794003 38.5538466,30.5479145 C38.9098908,30.1952339 39.3725935,30.0125957 39.8391054,30 L39.9557532,30.0003936 C40.3833164,30.0148262 40.8068786,30.1721417 41.1472196,30.4723401 Z" id="path-1"></path>
    </defs>
    <g id="ic_46_arrow-Right" stroke="none" stroke-width="1" fill="none" fill-rule="evenodd">
        <rect id="矩形" opacity="0.01" x="0" y="0" width="92" height="92"></rect>
        <mask id="mask-2" fill="white">
            <use xlink:href="#path-1"></use>
        </mask>
        <use id="路径" fill="#ffffff" fill-rule="nonzero" opacity="0.66" xlink:href="#path-1"></use>
    </g>
</svg>