<?xml version="1.0" encoding="UTF-8"?>
<svg width="18px" height="18px" viewBox="0 0 18 18" version="1.1" xmlns="http://www.w3.org/2000/svg" xmlns:xlink="http://www.w3.org/1999/xlink">
    <title>应用角标dark</title>
    <defs>
        <polygon id="path-1" points="0 0 12 0 12 12 0 12"></polygon>
    </defs>
    <g id="应用角标dark" stroke="none" stroke-width="1" fill="none" fill-rule="evenodd">
        <g id="ic_卫星角标">
            <circle id="椭圆形" fill="#DB6B42" cx="9" cy="9" r="9"></circle>
            <g id="编组" transform="translate(3.000000, 3.000000)">
                <mask id="mask-2" fill="white">
                    <use xlink:href="#path-1"></use>
                </mask>
                <g id="矩形"></g>
                <path d="M0.364640885,3.5756848 L1.5801105,3.5756848 C1.64723903,3.5756848 1.70165746,3.62987009 1.70165746,3.69671104 L1.70165746,6.12120205 C1.70165746,6.18804301 1.64723903,6.2422283 1.5801105,6.2422283 L0.364640885,6.2422283 C0.163255285,6.2422283 0,6.07967241 0,5.87914957 L0,3.93876352 C0,3.73824068 0.163255285,3.5756848 0.364640885,3.5756848 Z M2.06629835,3.5756848 L3.40331493,3.5756848 C3.53757199,3.5756848 3.64640885,3.68405538 3.64640885,3.81773729 L3.64640885,6.00017581 C3.64640885,6.13385771 3.53757199,6.2422283 3.40331493,6.2422283 L2.06629835,6.2422283 C1.99916982,6.2422283 1.94475138,6.18804301 1.94475138,6.12120205 L1.94475138,3.69671104 C1.94475138,3.62987009 1.99916982,3.5756848 2.06629835,3.5756848 Z M9.41988949,3.5756848 L10.6353591,3.5756848 C10.8367447,3.5756848 11,3.73824068 11,3.93876352 L11,5.87914957 C11,6.07967241 10.8367447,6.2422283 10.6353591,6.2422283 L9.41988949,6.2422283 C9.35276097,6.2422283 9.29834256,6.18804301 9.29834256,6.12120205 L9.29834256,3.69671104 C9.29834256,3.62987009 9.35276097,3.5756848 9.41988949,3.5756848 Z M7.59668513,3.5756848 L8.9337017,3.5756848 C9.00083023,3.5756848 9.05524863,3.62987009 9.05524863,3.69671104 L9.05524863,6.12120205 C9.05524863,6.18804301 9.00083023,6.2422283 8.9337017,6.2422283 L7.59668513,6.2422283 C7.46242803,6.2422283 7.35359117,6.13385771 7.35359117,6.00017581 L7.35359117,3.81773729 C7.35359117,3.68405538 7.46242803,3.5756848 7.59668513,3.5756848 Z M5.50000001,6.90886417 C6.28271366,6.90886417 6.93501315,7.46566965 7.08030028,8.2037372 C7.08620298,8.22580528 7.08922654,8.24876932 7.08922654,8.27243758 C7.08922654,8.42305374 6.96678507,8.54515223 6.81574587,8.54515223 L4.19337017,8.54517677 L4.19235593,8.54378465 L4.18425415,8.54515223 C4.05209485,8.54515223 3.94183069,8.45167053 3.91632964,8.32739909 L3.91077349,8.27243758 C3.91077349,8.25361051 3.91268664,8.23522912 3.91632964,8.21747607 L3.91866109,8.20906136 C4.0618525,7.46834903 4.71540539,6.90886417 5.50000001,6.90886417 Z M5.89502764,2 C6.0292847,2 6.13812156,2.10853202 6.13812156,2.24241305 C6.1394391,2.23718782 6.14031795,2.24032182 6.14075812,2.25181506 L6.14076261,2.31137247 C6.14032543,2.33958417 6.13944956,2.3761551 6.13813502,2.42108527 C6.13221956,2.62327101 6.25476177,2.6480704 6.30999348,2.66816911 C6.70613946,2.81232585 6.98897763,3.19137172 6.98897763,3.63628806 L6.98897763,6.66645113 L6.98775665,6.67390637 L6.98897763,6.68463211 C6.98897763,6.80177801 6.90562207,6.89951607 6.79484827,6.92212018 L6.74585636,6.92704515 C6.71682061,6.92704515 6.68897383,6.92196882 6.66315982,6.9126576 C6.66114275,6.91138751 6.65896467,6.91068542 6.65679971,6.90994166 C6.64757669,6.90663941 6.6386219,6.9024668 6.62998337,6.89778721 L6.6150855,6.88906621 L6.6150855,6.88906621 C6.29611624,6.67139033 5.91111503,6.5452446 5.50000001,6.5452446 L5.47183444,6.54544217 C5.06599158,6.55113825 4.68650585,6.67974362 4.37227453,6.89775957 C4.34101372,6.91944854 4.3045119,6.92837727 4.26695489,6.92695115 L4.25414366,6.92704515 C4.11988659,6.92704515 4.01102792,6.81851313 4.01102792,6.68463211 L4.01102792,3.63628806 C4.01102792,3.2067708 4.27462837,2.83864321 4.64928926,2.68397456 L4.69422275,2.66613939 L4.70840789,2.6600698 L4.7233215,2.65304188 L4.73869552,2.64489855 C4.79816921,2.61134388 4.86188303,2.54974117 4.86189354,2.42027084 L4.86187846,2.24241305 C4.86187846,2.10853202 4.97071532,2 5.10497238,2 L5.89502764,2 Z M7.44773564,9.8397318 C7.54152956,9.93317723 7.54137275,10.0845443 7.44738554,10.1777974 C6.91533651,10.7056908 6.20068652,11 5.44798398,11 C4.69719225,11 3.98421717,10.7071937 3.45250367,10.1816805 C3.35833434,10.0886092 3.35788158,9.93724276 3.45149266,9.84361614 C3.54507974,9.75001355 3.69724881,9.74956364 3.791394,9.84261101 C4.2330835,10.2791499 4.82428872,10.521946 5.44798398,10.521946 C6.07326561,10.521946 6.66586274,10.2779018 7.10783297,9.8393837 C7.20179611,9.74615449 7.35396577,9.74631026 7.44773564,9.8397318 Z M6.83878228,9.08774862 C6.93257619,9.18119405 6.93241941,9.33256118 6.83843218,9.42581428 C6.46863354,9.79272452 5.97174243,9.99735583 5.44858202,9.99735583 C4.92674986,9.99735583 4.4310228,9.7937692 4.06145702,9.42851288 C3.96728769,9.3354417 3.96683494,9.18407523 4.06044602,9.09044861 C4.1540331,8.99684595 4.30620217,8.99639604 4.40034736,9.08944341 C4.67988912,9.36572545 5.05384632,9.51930188 5.44858202,9.51930188 C5.84432153,9.51930188 6.21915977,9.36493559 6.49887961,9.08740052 C6.59284275,8.99417131 6.74501241,8.99432715 6.83878228,9.08774862 Z" id="形状结合" fill="#FFFFFF" fill-rule="nonzero" mask="url(#mask-2)" transform="translate(5.500000, 6.500000) rotate(45.000000) translate(-5.500000, -6.500000) "></path>
            </g>
        </g>
    </g>
</svg>