<?xml version="1.0" encoding="UTF-8"?>
<svg width="24px" height="24px" viewBox="0 0 24 24" version="1.1" xmlns="http://www.w3.org/2000/svg" xmlns:xlink="http://www.w3.org/1999/xlink">
    <title>ic_信号</title>
    <defs>
        <rect id="path-1" x="0" y="0" width="24" height="24" rx="1"></rect>
    </defs>
    <g id="ic_信号" stroke="none" stroke-width="1" fill="none" fill-rule="evenodd">
        <g id="信号">
            <mask id="mask-2" fill="white">
                <use xlink:href="#path-1"></use>
            </mask>
            <g id="蒙版"></g>
            <g id="编组" mask="url(#mask-2)">
                <g transform="translate(0.000000, 3.000000)" id="信号">
                    <path d="M1.6,13.0625 C2.4836556,13.0625 3.2,13.7788444 3.2,14.6625 L3.2,17.4 C3.2,18.2836556 2.4836556,19 1.6,19 C0.7163444,19 3.30261205e-16,18.2836556 0,17.4 L0,14.6625 C1.13828005e-16,13.7788444 0.7163444,13.0625 1.6,13.0625 Z M6.80004,11.0833333 C7.6836956,11.0833333 8.40004,11.7996777 8.40004,12.6833333 L8.40004,17.4 C8.40004,18.2836556 7.6836956,19 6.80004,19 C5.9163844,19 5.20004,18.2836556 5.20004,17.4 L5.20004,12.6833333 C5.20004,11.7996777 5.9163844,11.0833333 6.80004,11.0833333 Z M12.00004,8.70833333 C12.8836956,8.70833333 13.60004,9.42467773 13.60004,10.3083333 L13.60004,17.4 C13.60004,18.2836556 12.8836956,19 12.00004,19 C11.1163844,19 10.40004,18.2836556 10.40004,17.4 L10.40004,10.3083333 C10.40004,9.42467773 11.1163844,8.70833333 12.00004,8.70833333 Z M17.20004,4.75 C18.0836956,4.75 18.80004,5.4663444 18.80004,6.35 L18.80004,17.4 C18.80004,18.2836556 18.0836956,19 17.20004,19 C16.3163844,19 15.60004,18.2836556 15.60004,17.4 L15.60004,6.35 C15.60004,5.4663444 16.3163844,4.75 17.20004,4.75 Z M22.4,0 C23.2836556,-1.623249e-16 24,0.7163444 24,1.6 L24,17.4 C24,18.2836556 23.2836556,19 22.4,19 C21.5163444,19 20.8,18.2836556 20.8,17.4 L20.8,1.6 C20.8,0.7163444 21.5163444,1.623249e-16 22.4,0 Z" id="形状结合" fill="#000000"></path>
                </g>
            </g>
        </g>
    </g>
</svg>