<?xml version="1.0" encoding="UTF-8"?>
<svg width="288px" height="288px" viewBox="0 0 288 288" version="1.1" xmlns="http://www.w3.org/2000/svg" xmlns:xlink="http://www.w3.org/1999/xlink">
    <title>light陌生号码标记</title>
    <defs>
        <circle id="path-1" cx="9.5" cy="9.5" r="9.5"></circle>
        <path d="M0.89184368,2.92496927 C0.758684186,2.34556715 0.934909151,1.73868769 1.35790191,1.31912975 C1.59278046,1.05536484 1.81510926,0.903402785 2.0248883,0.863243587 C2.33955687,0.803004789 2.66175528,0.927181258 2.86189083,1.1759305 L3.54280346,2.01763733 C3.57687649,2.05934708 3.60356866,2.09181132 3.61981001,2.11121122 L3.63469147,2.12865464 C3.89276304,2.4193885 3.88601168,2.85622282 3.6230683,3.13867846 L3.60430785,3.1581304 L3.14459055,3.59182333 C2.96189256,3.77399285 2.92926319,4.05735298 3.06585736,4.27598282 C3.33075487,4.70212806 3.82712385,5.27669716 4.36917054,5.80937147 C4.90187427,6.35144758 5.47644337,6.84781656 5.9025886,7.11271407 C6.12121845,7.24930823 6.40457858,7.21667887 6.5867481,7.03398088 L7.02044102,6.57426358 L7.03989297,6.55550313 C7.31471468,6.29966632 7.73568303,6.28636046 8.02602954,6.5235354 L8.09920105,6.58516011 C8.26576719,6.72241408 8.78705825,7.14322979 9.00264093,7.3166806 C9.25139017,7.51681615 9.37556664,7.83901456 9.31532784,8.15368313 C9.27516864,8.36346217 9.12320659,8.58579097 8.85944168,8.82066952 C8.43988374,9.24366228 7.83300428,9.41988724 7.25360216,9.28672775 C6.01974231,9.00007933 4.56068043,8.03305617 3.34696911,6.83163174 C2.14551525,5.61789099 1.1784921,4.15882912 0.89184368,2.92496927 Z" id="path-3"></path>
        <circle id="path-5" cx="9.5" cy="9.5" r="9.5"></circle>
        <path d="M0.89184368,2.92496927 C0.758684186,2.34556715 0.934909151,1.73868769 1.35790191,1.31912975 C1.59278046,1.05536484 1.81510926,0.903402785 2.0248883,0.863243587 C2.33955687,0.803004789 2.66175528,0.927181258 2.86189083,1.1759305 L3.54280346,2.01763733 C3.57687649,2.05934708 3.60356866,2.09181132 3.61981001,2.11121122 L3.63469147,2.12865464 C3.89276304,2.4193885 3.88601168,2.85622282 3.6230683,3.13867846 L3.60430785,3.1581304 L3.14459055,3.59182333 C2.96189256,3.77399285 2.92926319,4.05735298 3.06585736,4.27598282 C3.33075487,4.70212806 3.82712385,5.27669716 4.36917054,5.80937147 C4.90187427,6.35144758 5.47644337,6.84781656 5.9025886,7.11271407 C6.12121845,7.24930823 6.40457858,7.21667887 6.5867481,7.03398088 L7.02044102,6.57426358 L7.03989297,6.55550313 C7.31471468,6.29966632 7.73568303,6.28636046 8.02602954,6.5235354 L8.09920105,6.58516011 C8.26576719,6.72241408 8.78705825,7.14322979 9.00264093,7.3166806 C9.25139017,7.51681615 9.37556664,7.83901456 9.31532784,8.15368313 C9.27516864,8.36346217 9.12320659,8.58579097 8.85944168,8.82066952 C8.43988374,9.24366228 7.83300428,9.41988724 7.25360216,9.28672775 C6.01974231,9.00007933 4.56068043,8.03305617 3.34696911,6.83163174 C2.14551525,5.61789099 1.1784921,4.15882912 0.89184368,2.92496927 Z" id="path-7"></path>
    </defs>
    <g id="light陌生号码标记" stroke="none" stroke-width="1" fill="none" fill-rule="evenodd">
        <g>
            <rect id="矩形" x="0" y="0" width="288" height="288"></rect>
            <g id="编组-8备份-2" transform="translate(92.800000, 36.000000)">
                <path d="M83.7800266,7.45805022e-16 C90.1989615,-4.33334195e-16 92.5266224,0.6683444 94.8732891,1.92335547 C97.2199557,3.17836653 99.0616335,5.02004427 100.316645,7.36671093 C101.571656,9.7133776 102.24,12.0410385 102.24,18.4599734 L102.24,197.540027 C102.24,203.958961 101.571656,206.286622 100.316645,208.633289 C99.0616335,210.979956 97.2199557,212.821633 94.8732891,214.076645 C92.5266224,215.331656 90.1989615,216 83.7800266,216 L18.4599734,216 C12.0410385,216 9.7133776,215.331656 7.36671093,214.076645 C5.02004427,212.821633 3.17836653,210.979956 1.92335547,208.633289 C0.6683444,206.286622 2.88889463e-16,203.958961 -4.97203348e-16,197.540027 L4.97203348e-16,18.4599734 C-2.88889463e-16,12.0410385 0.6683444,9.7133776 1.92335547,7.36671093 C3.17836653,5.02004427 5.02004427,3.17836653 7.36671093,1.92335547 C9.7133776,0.6683444 12.0410385,-2.20114955e-15 18.4599734,3.78836567e-15 L83.7800266,7.45805022e-16 Z M83.1583577,4.32 L19.0816423,4.32 C13.1976186,4.32 11.0639295,4.93264903 8.91281836,6.08307584 C6.76170725,7.23350266 5.07350266,8.92170725 3.92307584,11.0728184 C2.77264903,13.2239295 2.16,15.3576186 2.16,21.2416423 L2.16,21.2416423 L2.16,192.838358 C2.16,198.722381 2.77264903,200.856071 3.92307584,203.007182 C5.07350266,205.158293 6.76170725,206.846497 8.91281836,207.996924 C11.0639295,209.147351 13.1976186,209.76 19.0816423,209.76 L19.0816423,209.76 L83.1583577,209.76 C89.0423814,209.76 91.1760705,209.147351 93.3271816,207.996924 C95.4782928,206.846497 97.1664973,205.158293 98.3169242,203.007182 C99.467351,200.856071 100.08,198.722381 100.08,192.838358 L100.08,192.838358 L100.08,21.2416423 C100.08,15.3576186 99.467351,13.2239295 98.3169242,11.0728184 C97.1664973,8.92170725 95.4782928,7.23350266 93.3271816,6.08307584 C91.1760705,4.93264903 89.0423814,4.32 83.1583577,4.32 L83.1583577,4.32 Z" id="形状结合" fill="#505259"></path>
                <path d="M19.0816423,4.32 L83.1583577,4.32 C89.0423814,4.32 91.1760705,4.93264903 93.3271816,6.08307584 C95.4782928,7.23350266 97.1664973,8.92170725 98.3169242,11.0728184 C99.467351,13.2239295 100.08,15.3576186 100.08,21.2416423 L100.08,192.838358 C100.08,198.722381 99.467351,200.856071 98.3169242,203.007182 C97.1664973,205.158293 95.4782928,206.846497 93.3271816,207.996924 C91.1760705,209.147351 89.0423814,209.76 83.1583577,209.76 L19.0816423,209.76 C13.1976186,209.76 11.0639295,209.147351 8.91281836,207.996924 C6.76170725,206.846497 5.07350266,205.158293 3.92307584,203.007182 C2.77264903,200.856071 2.16,198.722381 2.16,192.838358 L2.16,21.2416423 C2.16,15.3576186 2.77264903,13.2239295 3.92307584,11.0728184 C5.07350266,8.92170725 6.76170725,7.23350266 8.91281836,6.08307584 C11.0639295,4.93264903 13.1976186,4.32 19.0816423,4.32 Z" id="矩形" fill="#FFFFFF" opacity="0.1"></path>
            </g>
            <g id="编组" transform="translate(110.000000, 196.000000)">
                <g id="挂断">
                    <mask id="mask-2" fill="white">
                        <use xlink:href="#path-1"></use>
                    </mask>
                    <use id="backplane/round" fill="#E84026" xlink:href="#path-1"></use>
                    <g id="编组" mask="url(#mask-2)">
                        <g transform="translate(4.410714, 4.410714)" id="Public/ic_public_phone_filled备份-3">
                            <g transform="translate(5.089286, 5.089286) rotate(-225.000000) translate(-5.089286, -5.089286) ">
                                <mask id="mask-4" fill="white">
                                    <use xlink:href="#path-3"></use>
                                </mask>
                                <g id="路径"></g>
                                <g id="编组" mask="url(#mask-4)" fill="#FFFFFF">
                                    <g id="Symbol/color-light/colorPrimary">
                                        <rect id="color/#000000" x="0" y="0" width="10.1785714" height="10.1785714"></rect>
                                    </g>
                                </g>
                            </g>
                        </g>
                    </g>
                </g>
                <g transform="translate(49.000000, 0.000000)" id="挂断">
                    <mask id="mask-6" fill="white">
                        <use xlink:href="#path-5"></use>
                    </mask>
                    <use id="backplane/round" fill="#64BB5C" xlink:href="#path-5"></use>
                    <g id="编组" mask="url(#mask-6)">
                        <g transform="translate(4.410714, 4.410714)" id="Public/ic_public_phone_filled备份">
                            <mask id="mask-8" fill="white">
                                <use xlink:href="#path-7"></use>
                            </mask>
                            <g id="路径"></g>
                            <g id="编组" mask="url(#mask-8)" fill="#FFFFFF">
                                <g id="Symbol/color-light/colorPrimary">
                                    <rect id="color/#000000" x="0" y="0" width="10.1785714" height="10.1785714"></rect>
                                </g>
                            </g>
                        </g>
                    </g>
                </g>
            </g>
            <g id="123-456-XXXX-2" transform="translate(112.030000, 90.890000)" fill="#000000" fill-opacity="0.600768616" fill-rule="nonzero">
                <path d="M2.81,7.45 L2.81,0.12 L2.13,0.12 L8.8817842e-15,1.36 L8.8817842e-15,2.28 L1.91,1.19 L1.91,7.45 L2.81,7.45 Z M9.88,7.45 L9.88,6.66 L6.57,6.66 L8.25,4.8 C8.78333333,4.21333333 9.15666667,3.72666667 9.37,3.34 C9.58333333,2.95333333 9.69,2.54333333 9.69,2.11 C9.69,1.66333333 9.595,1.28166667 9.405,0.965 C9.215,0.648333333 8.96,0.408333333 8.64,0.245 C8.32,0.0816666667 7.96666667,0 7.58,0 C7.04666667,0 6.56333333,0.151666667 6.13,0.455 C5.69666667,0.758333333 5.40666667,1.18333333 5.26,1.73 L5.26,1.73 L5.98,2.14 C6.1,1.74 6.29666667,1.41833333 6.57,1.175 C6.84333333,0.931666667 7.16,0.81 7.52,0.81 C7.87333333,0.81 8.16666667,0.926666667 8.4,1.16 C8.63333333,1.39333333 8.75,1.72333333 8.75,2.15 C8.75,2.48333333 8.66666667,2.79166667 8.5,3.075 C8.33333333,3.35833333 8.02666667,3.74666667 7.58,4.24 L7.58,4.24 L5.21,6.88 L5.21,7.45 L9.88,7.45 Z M13.25,7.56 C13.67,7.56 14.0566667,7.475 14.41,7.305 C14.7633333,7.135 15.0466667,6.885 15.26,6.555 C15.4733333,6.225 15.58,5.83333333 15.58,5.38 C15.58,4.92 15.4716667,4.53333333 15.255,4.22 C15.0383333,3.90666667 14.71,3.68 14.27,3.54 C14.6233333,3.39333333 14.885,3.18 15.055,2.9 C15.225,2.62 15.31,2.29666667 15.31,1.93 C15.31,1.35666667 15.12,0.893333333 14.74,0.54 C14.36,0.186666667 13.8566667,0.01 13.23,0.01 C12.69,0.01 12.2183333,0.148333333 11.815,0.425 C11.4116667,0.701666667 11.13,1.11 10.97,1.65 L10.97,1.65 L11.69,2.06 C11.8233333,1.66 12.015,1.35333333 12.265,1.14 C12.515,0.926666667 12.82,0.82 13.18,0.82 C13.5266667,0.82 13.81,0.92 14.03,1.12 C14.25,1.32 14.36,1.59666667 14.36,1.95 C14.36,2.32333333 14.2316667,2.63 13.975,2.87 C13.7183333,3.11 13.3433333,3.23 12.85,3.23 L12.85,3.23 L12.5,3.23 L12.49,4.03 L12.8,4.03 C14.02,4.03 14.63,4.47666667 14.63,5.37 C14.63,5.80333333 14.4983333,6.14166667 14.235,6.385 C13.9716667,6.62833333 13.6433333,6.75 13.25,6.75 C12.89,6.75 12.555,6.64833333 12.245,6.445 C11.935,6.24166667 11.7166667,5.94 11.59,5.54 L11.59,5.54 L10.87,5.95 C11.0233333,6.47666667 11.325,6.87666667 11.775,7.15 C12.225,7.42333333 12.7166667,7.56 13.25,7.56 Z M23.31,7.45 L23.31,5.83 L24.36,5.83 L24.36,5.06 L23.31,5.06 L23.31,3.01 L22.42,3.01 L22.42,5.06 L20.22,5.06 L22.9,0.12 L21.93,0.12 L19.18,5.21 L19.18,5.83 L22.42,5.83 L22.42,7.45 L23.31,7.45 Z M27.28,7.56 C27.72,7.56 28.12,7.45833333 28.48,7.255 C28.84,7.05166667 29.1233333,6.76666667 29.33,6.4 C29.5366667,6.03333333 29.64,5.61333333 29.64,5.14 C29.64,4.68666667 29.5466667,4.28166667 29.36,3.925 C29.1733333,3.56833333 28.91,3.28833333 28.57,3.085 C28.23,2.88166667 27.8433333,2.78 27.41,2.78 C26.99,2.78 26.6333333,2.87333333 26.34,3.06 L26.34,3.06 L26.63,0.89 L29.31,0.89 L29.31,0.11 L25.85,0.11 L25.35,4.09 L25.92,4.38 C26.2466667,3.85333333 26.7,3.59 27.28,3.59 C27.74,3.59 28.0916667,3.74333333 28.335,4.05 C28.5783333,4.35666667 28.7,4.73333333 28.7,5.18 C28.7,5.64 28.5733333,6.01666667 28.32,6.31 C28.0666667,6.60333333 27.72,6.75 27.28,6.75 C26.9533333,6.75 26.675,6.66333333 26.445,6.49 C26.215,6.31666667 26.04,6.06 25.92,5.72 L25.92,5.72 L25.2,6.13 C25.3466667,6.59666667 25.6083333,6.95166667 25.985,7.195 C26.3616667,7.43833333 26.7933333,7.56 27.28,7.56 Z M33.13,7.56 C33.5766667,7.56 33.9816667,7.45833333 34.345,7.255 C34.7083333,7.05166667 34.9916667,6.77 35.195,6.41 C35.3983333,6.05 35.5,5.65 35.5,5.21 C35.5,4.78333333 35.405,4.39333333 35.215,4.04 C35.025,3.68666667 34.76,3.40666667 34.42,3.2 C34.08,2.99333333 33.6933333,2.89 33.26,2.89 C33.0066667,2.89 32.7766667,2.92333333 32.57,2.99 C32.6633333,2.86333333 32.7566667,2.72666667 32.85,2.58 L32.85,2.58 L34.36,0.12 L33.35,0.12 L31.6,3 C31.3,3.49333333 31.085,3.89166667 30.955,4.195 C30.825,4.49833333 30.76,4.83 30.76,5.19 C30.76,5.65 30.86,6.06 31.06,6.42 C31.26,6.78 31.54,7.06 31.9,7.26 C32.26,7.46 32.67,7.56 33.13,7.56 Z M33.13,6.75 C32.6966667,6.75 32.3516667,6.61166667 32.095,6.335 C31.8383333,6.05833333 31.71,5.69333333 31.71,5.24 C31.71,4.78666667 31.8383333,4.41833333 32.095,4.135 C32.3516667,3.85166667 32.6966667,3.71 33.13,3.71 C33.5633333,3.71 33.9066667,3.85166667 34.16,4.135 C34.4133333,4.41833333 34.54,4.78666667 34.54,5.24 C34.54,5.68666667 34.4116667,6.05 34.155,6.33 C33.8983333,6.61 33.5566667,6.75 33.13,6.75 Z M39.76,7.45 L41.86,4.46 L43.98,7.45 L45.07,7.45 L42.41,3.74 L45,0.13 L43.97,0.13 L41.94,3.04 L39.9,0.13 L38.8,0.13 L41.39,3.75 L38.73,7.45 L39.76,7.45 Z M46.34,7.45 L48.44,4.46 L50.56,7.45 L51.65,7.45 L48.99,3.74 L51.58,0.13 L50.55,0.13 L48.52,3.04 L46.48,0.13 L45.38,0.13 L47.97,3.75 L45.31,7.45 L46.34,7.45 Z M52.92,7.45 L55.02,4.46 L57.14,7.45 L58.23,7.45 L55.57,3.74 L58.16,0.13 L57.13,0.13 L55.1,3.04 L53.06,0.13 L51.96,0.13 L54.55,3.75 L51.89,7.45 L52.92,7.45 Z M59.5,7.45 L61.6,4.46 L63.72,7.45 L64.81,7.45 L62.15,3.74 L64.74,0.13 L63.71,0.13 L61.68,3.04 L59.64,0.13 L58.54,0.13 L61.13,3.75 L58.47,7.45 L59.5,7.45 Z" id="123456XXXX"></path>
            </g>
        </g>
    </g>
</svg>