<?xml version="1.0" encoding="UTF-8"?>
<svg width="340px" height="340px" viewBox="0 0 340 340" version="1.1" xmlns="http://www.w3.org/2000/svg" xmlns:xlink="http://www.w3.org/1999/xlink">
    <title>number_identity_phone_md_dark</title>
    <defs>
        <circle id="path-1" cx="11.2152778" cy="11.2152778" r="11.2152778"></circle>
        <path d="M0.0540822695,2.57431087 C-0.110980019,1.85609366 0.107465509,1.10381599 0.631800279,0.58373896 C0.922951819,0.25678038 1.19854689,0.0684107504 1.4585855,0.0186300704 C1.84864341,-0.0560409366 2.2480352,0.0978861404 2.49611989,0.40623156 L3.34016783,1.44959732 C3.38240419,1.50130003 3.41549136,1.54154215 3.43562387,1.56558995 L3.45407067,1.58721252 C3.7739719,1.94760137 3.76560302,2.48909391 3.43966279,2.83922121 L3.41640765,2.86333352 L2.84654975,3.40093204 C2.62008036,3.62674634 2.57963355,3.97799484 2.74895339,4.24900475 C3.07731594,4.77724729 3.69260665,5.48947357 4.3645187,6.14976776 C5.02484935,6.82171627 5.73707563,7.43700698 6.26531817,7.76536953 C6.53632808,7.93468937 6.88757658,7.89424256 7.11339088,7.66777317 L7.6509894,7.09791527 L7.67510171,7.07466013 C8.01576611,6.75752909 8.53759146,6.74103537 8.89750016,7.03503346 L8.98820231,7.11142243 C9.19467501,7.28156017 9.84085871,7.8031963 10.1080913,8.01820303 C10.4164368,8.26628772 10.5703638,8.66567951 10.4956928,9.05573741 C10.4459122,9.31577601 10.2575425,9.59137111 9.93058391,9.88252261 C9.41050691,10.4068574 8.65822926,10.6253029 7.94001205,10.4602406 C6.41053994,10.104916 4.60191116,8.90621026 3.09741483,7.41694455 C1.60811266,5.91241176 0.409406869,4.10378298 0.0540822695,2.57431087 Z" id="path-3"></path>
        <circle id="path-5" cx="11.2152778" cy="11.2152778" r="11.2152778"></circle>
        <path d="M10.4602406,2.57431087 C10.6126058,1.91134114 10.4381951,1.21934948 9.99805762,0.707757448 L9.8825226,0.58373896 C9.59137106,0.25678038 9.31577599,0.0684107504 9.05573738,0.0186300704 C8.66567947,-0.0560409366 8.26628768,0.0978861404 8.01820299,0.40623156 L7.06025221,1.58721252 C6.74035098,1.94760137 6.74871986,2.48909391 7.07466009,2.83922121 L7.09791523,2.86333352 L7.66777313,3.40093204 C7.89424252,3.62674634 7.93468933,3.97799484 7.76536949,4.24900475 C7.47349167,4.71855367 6.95490518,5.33347247 6.37136186,5.9280699 L6.14980418,6.14976776 C5.48947353,6.82171627 4.77724725,7.43700698 4.24900471,7.76536953 C3.9779948,7.93468937 3.6267463,7.89424256 3.400932,7.66777317 L2.86333348,7.09791527 L2.83922117,7.07466013 C2.49855677,6.75752909 1.97673142,6.74103537 1.61682272,7.03503346 L0.406231573,8.01820303 L0.406231573,8.01820303 C0.0978860728,8.26628772 -0.0560409272,8.66567951 0.0186300728,9.05573741 C0.0612991586,9.27862764 0.205788808,9.51294713 0.452098894,9.75869583 L0.583738973,9.88252261 C1.10381597,10.4068574 1.85609362,10.6253029 2.57431083,10.4602406 C4.10378294,10.104916 5.91241172,8.90621026 7.41690805,7.41694455 C8.90621022,5.91241176 10.104916,4.10378298 10.4602406,2.57431087 Z" id="path-7"></path>
    </defs>
    <g id="页面-1" stroke="none" stroke-width="1" fill="none" fill-rule="evenodd">
        <g id="number_identity_phone_md_dark">
            <rect id="矩形" x="0" y="0" width="340" height="340"></rect>
            <g id="folder-screen" transform="translate(59.500000, 42.572984)" fill-rule="nonzero">
                <path d="M210.213222,-7.92714514e-15 C215.265161,-7.92714514e-15 217.097117,0.526011797 218.94403,1.51375199 C220.790944,2.50149218 222.240412,3.95096077 223.228153,5.79787435 C224.188456,7.59348477 224.712325,9.37495644 224.740688,14.1150722 L224.741905,14.5286828 L224.741905,240.300878 C224.741905,245.352817 224.215893,247.184773 223.228153,249.031686 C222.240412,250.8786 220.790944,252.328068 218.94403,253.315809 C217.14842,254.276112 215.366948,254.799982 210.626832,254.829561 L210.213222,254.829561 L121.058571,254.829561 C116.006631,254.829561 114.174676,254.303549 112.327762,253.315809 C110.480849,252.328068 109.03138,250.8786 108.04364,249.031686 C107.888963,248.742465 107.745608,248.45361 107.613823,248.152699 L209.440923,248.152804 C213.987668,248.152804 215.636428,247.679393 217.29865,246.790427 C218.960873,245.901461 220.265394,244.596939 221.15436,242.934717 C222.043327,241.272494 222.516737,239.623735 222.516737,235.076989 L222.516737,235.076989 L222.516737,20.0307698 C222.516737,15.4840242 222.043327,13.8352644 221.15436,12.1730422 C220.265394,10.5108199 218.960873,9.20629822 217.29865,8.31733205 C215.636428,7.42836588 213.987668,6.95495526 209.440923,6.95495526 L209.440923,6.95495526 L107.497238,6.95402098 C107.659785,6.55094158 107.842101,6.17471934 108.04364,5.79787435 C109.03138,3.95096077 110.480849,2.50149218 112.327762,1.51375199 C114.123373,0.553449024 115.904844,0.0295791495 120.64496,-7.92714514e-15 L121.058571,-7.92714514e-15 L210.213222,-7.92714514e-15 Z M106.529,248.152 L106.529888,249.683861 C106.529888,252.525753 104.22608,254.829561 101.384188,254.829561 C98.615166,254.829561 96.3569866,252.642382 96.2430031,249.901377 L96.2384889,249.683861 L96.238,248.152 L106.529,248.152 Z M81.7098061,6.28370958e-15 C86.7617456,6.28370958e-15 88.5937009,0.526011797 90.4406145,1.51375199 C92.2875281,2.50149218 93.7369967,3.95096077 94.7247369,5.79787435 C94.9262758,6.17471934 95.1085918,6.55094158 95.2711388,6.95402098 L15.8572737,6.95495526 C11.3105282,6.95495526 9.66176835,7.42836588 7.99954613,8.31733205 C6.33732391,9.20629822 5.03280218,10.5108199 4.14383601,12.1730422 C3.25486983,13.8352644 2.78145922,15.4840242 2.78145922,20.0307698 L2.78145922,20.0307698 L2.78145922,235.076989 C2.78145922,239.623735 3.25486983,241.272494 4.14383601,242.934717 C5.03280218,244.596939 6.33732391,245.901461 7.99954613,246.790427 C9.66176835,247.679393 11.3105282,248.152804 15.8572737,248.152804 L15.8572737,248.152804 L95.1545537,248.152699 C95.0227688,248.45361 94.8794142,248.742465 94.7247369,249.031686 C93.7369967,250.8786 92.2875281,252.328068 90.4406145,253.315809 C88.5937009,254.303549 86.7617456,254.829561 81.7098061,254.829561 L14.5286828,254.829561 C9.47674327,254.829561 7.64478793,254.303549 5.79787435,253.315809 C3.95096077,252.328068 2.50149218,250.8786 1.51375199,249.031686 C0.526011797,247.184773 -1.64158404e-14,245.352817 -1.64158404e-14,240.300878 L-1.64158404e-14,14.5286828 C-1.64158404e-14,9.47674327 0.526011797,7.64478793 1.51375199,5.79787435 C2.50149218,3.95096077 3.95096077,2.50149218 5.79787435,1.51375199 C7.64478793,0.526011797 9.47674327,6.28370958e-15 14.5286828,6.28370958e-15 L81.7098061,6.28370958e-15 Z M101.384188,6.64606373e-17 C104.153211,6.64606373e-17 106.41139,2.18717882 106.525374,4.92818359 L106.529888,5.14569955 L106.529,6.954 L96.238,6.954 L96.2384889,5.14569955 C96.2384889,2.30380816 98.542297,6.64606373e-17 101.384188,6.64606373e-17 Z" id="形状结合" fill="#505259"></path>
                <path d="M210.491368,2.22558568 C215.543307,2.22558568 217.375263,2.75159748 219.222176,3.73933767 C221.06909,4.72707786 222.518558,6.17654645 223.506299,8.02346003 C224.494039,9.87037361 225.020051,11.702329 225.020051,16.7542685 L225.020051,238.075292 C225.020051,243.127232 224.494039,244.959187 223.506299,246.806101 C222.518558,248.653014 221.06909,250.102483 219.222176,251.090223 C217.375263,252.077963 215.543307,252.603975 210.491368,252.603975 L14.5286828,252.603975 C9.47674327,252.603975 7.64478793,252.077963 5.79787435,251.090223 C3.95096077,250.102483 2.50149218,248.653014 1.51375199,246.806101 C0.526011797,244.959187 -6.18493635e-15,243.127232 -6.18493635e-15,238.075292 L-6.18493635e-15,16.7542685 C-6.18493635e-15,11.702329 0.526011797,9.87037361 1.51375199,8.02346003 C2.50149218,6.17654645 3.95096077,4.72707786 5.79787435,3.73933767 C7.64478793,2.75159748 9.47674327,2.22558568 14.5286828,2.22558568 L210.491368,2.22558568 Z M209.440923,6.95495526 L15.8572737,6.95495526 C11.3105282,6.95495526 9.66176835,7.42836588 7.99954613,8.31733205 C6.33732391,9.20629822 5.03280218,10.5108199 4.14383601,12.1730422 C3.25486983,13.8352644 2.78145922,15.4840242 2.78145922,20.0307698 L2.78145922,20.0307698 L2.78145922,235.076989 C2.78145922,239.623735 3.25486983,241.272494 4.14383601,242.934717 C5.03280218,244.596939 6.33732391,245.901461 7.99954613,246.790427 C9.66176835,247.679393 11.3105282,248.152804 15.8572737,248.152804 L15.8572737,248.152804 L209.440923,248.152804 C213.987668,248.152804 215.636428,247.679393 217.29865,246.790427 C218.960873,245.901461 220.265394,244.596939 221.15436,242.934717 C222.043327,241.272494 222.516737,239.623735 222.516737,235.076989 L222.516737,235.076989 L222.516737,20.0307698 C222.516737,15.4840242 222.043327,13.8352644 221.15436,12.1730422 C220.265394,10.5108199 218.960873,9.20629822 217.29865,8.31733205 C215.636428,7.42836588 213.987668,6.95495526 209.440923,6.95495526 L209.440923,6.95495526 Z" id="形状结合" fill="#505259"></path>
                <path d="M15.8572737,6.95495526 L209.440923,6.95495526 C213.987668,6.95495526 215.636428,7.42836588 217.29865,8.31733205 C218.960873,9.20629822 220.265394,10.5108199 221.15436,12.1730422 C222.043327,13.8352644 222.516737,15.4840242 222.516737,20.0307698 L222.516737,235.076989 C222.516737,239.623735 222.043327,241.272494 221.15436,242.934717 C220.265394,244.596939 218.960873,245.901461 217.29865,246.790427 C215.636428,247.679393 213.987668,248.152804 209.440923,248.152804 L15.8572737,248.152804 C11.3105282,248.152804 9.66176835,247.679393 7.99954613,246.790427 C6.33732391,245.901461 5.03280218,244.596939 4.14383601,242.934717 C3.25486983,241.272494 2.78145922,239.623735 2.78145922,235.076989 L2.78145922,20.0307698 C2.78145922,15.4840242 3.25486983,13.8352644 4.14383601,12.1730422 C5.03280218,10.5108199 6.33732391,9.20629822 7.99954613,8.31733205 C9.66176835,7.42836588 11.3105282,6.95495526 15.8572737,6.95495526 Z" id="矩形" fill="#FFFFFF" opacity="0.1"></path>
                <path d="M212.794668,56.8952424 L237.959302,56.8952424 C238.428744,56.8952424 238.809302,57.2758004 238.809302,57.7452424 L238.809302,58.2382216 L238.809302,58.2382216 L211.944668,58.2382216 L211.944668,57.7452424 C211.944668,57.2758004 212.325226,56.8952424 212.794668,56.8952424 Z" id="Rectangle" fill="#505259" transform="translate(225.376985, 57.566732) rotate(90.000000) translate(-225.376985, -57.566732) "></path>
            </g>
            <g id="挂断" transform="translate(112.521701, 231.388889)">
                <g id="backplane/round" fill="#D94838" fill-rule="nonzero">
                    <circle id="path-1" cx="11.2152778" cy="11.2152778" r="11.2152778"></circle>
                </g>
                <g id="编组-Clipped">
                    <mask id="mask-2" fill="white">
                        <use xlink:href="#path-1"></use>
                    </mask>
                    <g id="path-1"></g>
                    <g id="编组" mask="url(#mask-2)">
                        <g transform="translate(3.780529, 3.780529)" id="Public/ic_public_phone_filled备份-3">
                            <g id="编组-Clipped" transform="translate(7.434749, 7.434749) rotate(135.000000) translate(-7.434749, -7.434749) translate(2.177588, 2.177588)">
                                <mask id="mask-4" fill="white">
                                    <use xlink:href="#path-3"></use>
                                </mask>
                                <g id="path-3"></g>
                                <g id="编组" mask="url(#mask-4)">
                                    <g transform="translate(-1.051432, -1.051432)" id="Symbol/color-light/colorPrimary">
                                        <rect id="color/#000000" fill="#E5E5E5" fill-rule="nonzero" x="0" y="0" width="12.6171875" height="12.6171875"></rect>
                                    </g>
                                </g>
                            </g>
                        </g>
                    </g>
                </g>
            </g>
            <g id="接听" transform="translate(205.047743, 231.388889)">
                <g id="backplane/round" fill="#5BA854" fill-rule="nonzero">
                    <circle id="path-5" cx="11.2152778" cy="11.2152778" r="11.2152778"></circle>
                </g>
                <g id="编组-Clipped">
                    <mask id="mask-6" fill="white">
                        <use xlink:href="#path-5"></use>
                    </mask>
                    <g id="path-5"></g>
                    <g id="编组" mask="url(#mask-6)">
                        <g transform="translate(5.958116, 5.958116)" id="编组-Clipped">
                            <mask id="mask-8" fill="white">
                                <use xlink:href="#path-7"></use>
                            </mask>
                            <g id="path-7"></g>
                            <g id="编组" mask="url(#mask-8)">
                                <g transform="translate(-1.051432, -1.051432)" id="Symbol/color-light/colorPrimary">
                                    <rect id="color/#000000" fill="#E5E5E5" fill-rule="nonzero" x="0" y="0" width="12.6171875" height="12.6171875"></rect>
                                </g>
                            </g>
                        </g>
                    </g>
                </g>
            </g>
            <g id="123-456-XXXX-2" transform="translate(132.257639, 106.314583)" fill="#FFFFFF" fill-opacity="0.602504917" fill-rule="nonzero">
                <path d="M3.31736111,8.79513889 L3.31736111,0.141666667 L2.51458333,0.141666667 L0,1.60555556 L0,2.69166667 L2.25486111,1.40486111 L2.25486111,8.79513889 L3.31736111,8.79513889 Z M11.6638889,8.79513889 L11.6638889,7.8625 L7.75625,7.8625 L9.73958333,5.66666667 C10.369213,4.97407407 10.8099537,4.39953704 11.0618056,3.94305556 C11.3136574,3.48657407 11.4395833,3.0025463 11.4395833,2.49097222 C11.4395833,1.96365741 11.3274306,1.5130787 11.103125,1.13923611 C10.8788194,0.765393519 10.5777778,0.482060185 10.2,0.289236111 C9.82222222,0.096412037 9.40509259,7.10542736e-15 8.94861111,7.10542736e-15 C8.31898148,7.10542736e-15 7.74837963,0.179050926 7.23680556,0.537152778 C6.72523148,0.89525463 6.38287037,1.39699074 6.20972222,2.04236111 L6.20972222,2.04236111 L7.05972222,2.52638889 C7.20138889,2.05416667 7.43356481,1.6744213 7.75625,1.38715278 C8.07893519,1.09988426 8.45277778,0.95625 8.87777778,0.95625 C9.29490741,0.95625 9.6412037,1.09398148 9.91666667,1.36944444 C10.1921296,1.64490741 10.3298611,2.03449074 10.3298611,2.53819444 C10.3298611,2.93171296 10.2314815,3.29571759 10.0347222,3.63020833 C9.83796296,3.96469907 9.47592593,4.42314815 8.94861111,5.00555556 L8.94861111,5.00555556 L6.15069444,8.12222222 L6.15069444,8.79513889 L11.6638889,8.79513889 Z M15.6423611,8.925 C16.1381944,8.925 16.5946759,8.82465278 17.0118056,8.62395833 C17.4289352,8.42326389 17.7634259,8.128125 18.0152778,7.73854167 C18.2671296,7.34895833 18.3930556,6.88657407 18.3930556,6.35138889 C18.3930556,5.80833333 18.265162,5.35185185 18.009375,4.98194444 C17.753588,4.61203704 17.3659722,4.34444444 16.8465278,4.17916667 C17.2636574,4.00601852 17.5725694,3.75416667 17.7732639,3.42361111 C17.9739583,3.09305556 18.0743056,2.71134259 18.0743056,2.27847222 C18.0743056,1.60162037 17.85,1.05462963 17.4013889,0.6375 C16.9527778,0.22037037 16.3585648,0.0118055556 15.61875,0.0118055556 C14.98125,0.0118055556 14.4244213,0.175115741 13.9482639,0.501736111 C13.4721065,0.828356481 13.1395833,1.31041667 12.9506944,1.94791667 L12.9506944,1.94791667 L13.8006944,2.43194444 C13.9581019,1.95972222 14.184375,1.59768519 14.4795139,1.34583333 C14.7746528,1.09398148 15.1347222,0.968055556 15.5597222,0.968055556 C15.9689815,0.968055556 16.3034722,1.08611111 16.5631944,1.32222222 C16.8229167,1.55833333 16.9527778,1.8849537 16.9527778,2.30208333 C16.9527778,2.74282407 16.8012731,3.10486111 16.4982639,3.38819444 C16.1952546,3.67152778 15.7525463,3.81319444 15.1701389,3.81319444 L15.1701389,3.81319444 L14.7569444,3.81319444 L14.7451389,4.75763889 L15.1111111,4.75763889 C16.5513889,4.75763889 17.2715278,5.2849537 17.2715278,6.33958333 C17.2715278,6.85115741 17.116088,7.2505787 16.8052083,7.53784722 C16.4943287,7.82511574 16.106713,7.96875 15.6423611,7.96875 C15.2173611,7.96875 14.821875,7.84872685 14.4559028,7.60868056 C14.0899306,7.36863426 13.8321759,7.0125 13.6826389,6.54027778 L13.6826389,6.54027778 L12.8326389,7.02430556 C13.0136574,7.64606481 13.3697917,8.11828704 13.9010417,8.44097222 C14.4322917,8.76365741 15.0127315,8.925 15.6423611,8.925 Z M27.51875,8.79513889 L27.51875,6.88263889 L28.7583333,6.88263889 L28.7583333,5.97361111 L27.51875,5.97361111 L27.51875,3.55347222 L26.4680556,3.55347222 L26.4680556,5.97361111 L23.8708333,5.97361111 L27.0347222,0.141666667 L25.8895833,0.141666667 L22.6430556,6.15069444 L22.6430556,6.88263889 L26.4680556,6.88263889 L26.4680556,8.79513889 L27.51875,8.79513889 Z M32.2055556,8.925 C32.725,8.925 33.1972222,8.80497685 33.6222222,8.56493056 C34.0472222,8.32488426 34.381713,7.98842593 34.6256944,7.55555556 C34.8696759,7.12268519 34.9916667,6.62685185 34.9916667,6.06805556 C34.9916667,5.53287037 34.8814815,5.05474537 34.6611111,4.63368056 C34.4407407,4.21261574 34.1298611,3.88206019 33.7284722,3.64201389 C33.3270833,3.40196759 32.8706019,3.28194444 32.3590278,3.28194444 C31.8631944,3.28194444 31.4421296,3.39212963 31.0958333,3.6125 L31.0958333,3.6125 L31.4381944,1.05069444 L34.6020833,1.05069444 L34.6020833,0.129861111 L30.5173611,0.129861111 L29.9270833,4.82847222 L30.6,5.17083333 C30.9856481,4.54907407 31.5208333,4.23819444 32.2055556,4.23819444 C32.7486111,4.23819444 33.1637731,4.41921296 33.4510417,4.78125 C33.7383102,5.14328704 33.8819444,5.58796296 33.8819444,6.11527778 C33.8819444,6.65833333 33.7324074,7.10300926 33.4333333,7.44930556 C33.1342593,7.79560185 32.725,7.96875 32.2055556,7.96875 C31.8199074,7.96875 31.4913194,7.86643519 31.2197917,7.66180556 C30.9482639,7.45717593 30.7416667,7.15416667 30.6,6.75277778 L30.6,6.75277778 L29.75,7.23680556 C29.9231481,7.78773148 30.2320602,8.2068287 30.6767361,8.49409722 C31.121412,8.78136574 31.6310185,8.925 32.2055556,8.925 Z M39.1118056,8.925 C39.6391204,8.925 40.1172454,8.80497685 40.5461806,8.56493056 C40.9751157,8.32488426 41.3096065,7.99236111 41.5496528,7.56736111 C41.7896991,7.14236111 41.9097222,6.67013889 41.9097222,6.15069444 C41.9097222,5.64699074 41.7975694,5.18657407 41.5732639,4.76944444 C41.3489583,4.35231481 41.0361111,4.02175926 40.6347222,3.77777778 C40.2333333,3.5337963 39.7768519,3.41180556 39.2652778,3.41180556 C38.9662037,3.41180556 38.6946759,3.45115741 38.4506944,3.52986111 C38.5608796,3.38032407 38.6710648,3.21898148 38.78125,3.04583333 L38.78125,3.04583333 L40.5638889,0.141666667 L39.3715278,0.141666667 L37.3055556,3.54166667 C36.9513889,4.12407407 36.6975694,4.5943287 36.5440972,4.95243056 C36.390625,5.31053241 36.3138889,5.70208333 36.3138889,6.12708333 C36.3138889,6.67013889 36.4319444,7.15416667 36.6680556,7.57916667 C36.9041667,8.00416667 37.2347222,8.33472222 37.6597222,8.57083333 C38.0847222,8.80694444 38.56875,8.925 39.1118056,8.925 Z M39.1118056,7.96875 C38.6002315,7.96875 38.1929398,7.80543981 37.8899306,7.47881944 C37.5869213,7.15219907 37.4354167,6.7212963 37.4354167,6.18611111 C37.4354167,5.65092593 37.5869213,5.21608796 37.8899306,4.88159722 C38.1929398,4.54710648 38.6002315,4.37986111 39.1118056,4.37986111 C39.6233796,4.37986111 40.0287037,4.54710648 40.3277778,4.88159722 C40.6268519,5.21608796 40.7763889,5.65092593 40.7763889,6.18611111 C40.7763889,6.71342593 40.6248843,7.14236111 40.321875,7.47291667 C40.0188657,7.80347222 39.6155093,7.96875 39.1118056,7.96875 Z M46.9388889,8.79513889 L49.4180556,5.26527778 L51.9208333,8.79513889 L53.2076389,8.79513889 L50.0673611,4.41527778 L53.125,0.153472222 L51.9090278,0.153472222 L49.5125,3.58888889 L47.1041667,0.153472222 L45.8055556,0.153472222 L48.8631944,4.42708333 L45.7229167,8.79513889 L46.9388889,8.79513889 Z M54.7069444,8.79513889 L57.1861111,5.26527778 L59.6888889,8.79513889 L60.9756944,8.79513889 L57.8354167,4.41527778 L60.8930556,0.153472222 L59.6770833,0.153472222 L57.2805556,3.58888889 L54.8722222,0.153472222 L53.5736111,0.153472222 L56.63125,4.42708333 L53.4909722,8.79513889 L54.7069444,8.79513889 Z M62.475,8.79513889 L64.9541667,5.26527778 L67.4569444,8.79513889 L68.74375,8.79513889 L65.6034722,4.41527778 L68.6611111,0.153472222 L67.4451389,0.153472222 L65.0486111,3.58888889 L62.6402778,0.153472222 L61.3416667,0.153472222 L64.3993056,4.42708333 L61.2590278,8.79513889 L62.475,8.79513889 Z M70.2430556,8.79513889 L72.7222222,5.26527778 L75.225,8.79513889 L76.5118056,8.79513889 L73.3715278,4.41527778 L76.4291667,0.153472222 L75.2131944,0.153472222 L72.8166667,3.58888889 L70.4083333,0.153472222 L69.1097222,0.153472222 L72.1673611,4.42708333 L69.0270833,8.79513889 L70.2430556,8.79513889 Z" id="123456XXXX"></path>
            </g>
        </g>
    </g>
</svg>