<?xml version="1.0" encoding="UTF-8"?>
<svg width="394px" height="394px" viewBox="0 0 394 394" version="1.1" xmlns="http://www.w3.org/2000/svg" xmlns:xlink="http://www.w3.org/1999/xlink">
    <title>number_identity_phone_lg_light</title>
    <defs>
        <circle id="path-1" cx="12.9965278" cy="12.9965278" r="12.9965278"></circle>
        <path d="M0.0596874327,2.8411162 C-0.122482147,2.04846191 0.118603393,1.21821709 0.697280983,0.644238518 C1.01860789,0.283393468 1.32276603,0.075500938 1.60975542,0.020560918 C2.0402395,-0.061849102 2.48102483,0.108031208 2.75482138,0.448333998 L3.68634768,1.5998357 C3.73296148,1.65689695 3.76947786,1.70130983 3.79169693,1.72784998 L3.81205558,1.75171355 C4.16511184,2.14945362 4.1558756,2.74706723 3.79615445,3.13348224 L3.77048911,3.16009358 L3.1415703,3.75340959 C2.89162929,4.00262762 2.84699052,4.39028002 3.03385892,4.6893778 C3.39625344,5.27236816 4.07531377,6.05841061 4.81686377,6.78713865 C5.54563205,7.52872889 6.3316745,8.20778922 6.91466486,8.57018374 C7.21376264,8.75705214 7.60141504,8.71241337 7.85063307,8.46247236 L8.44394908,7.83355355 L8.47056042,7.80788821 C8.84653173,7.45788925 9.42243983,7.43968609 9.81965003,7.76415458 L9.91975273,7.84846061 C10.1476244,8.03623167 10.8607796,8.61193094 11.1557086,8.84922124 C11.4960114,9.12301784 11.6658917,9.56380314 11.5834817,9.99428724 C11.5285417,10.2812766 11.3206492,10.5854347 10.9598041,10.9067616 C10.3858255,11.4854392 9.55558073,11.7265248 8.76292646,11.5443552 C7.07493763,11.1522042 5.07885993,9.82926284 3.41843541,8.18564749 C1.77477979,6.52518273 0.451838393,4.52910503 0.0596874327,2.8411162 Z" id="path-3"></path>
        <circle id="path-5" cx="12.9965278" cy="12.9965278" r="12.9965278"></circle>
        <path d="M11.5443552,2.8411162 C11.7125117,2.10943531 11.5200249,1.34572463 11.0342709,0.781110462 L10.9067617,0.644238518 C10.5854348,0.283393468 10.2812766,0.075500938 9.99428722,0.020560918 C9.56380314,-0.061849102 9.12301781,0.108031208 8.84922126,0.448333998 L7.79198706,1.75171355 C7.4389308,2.14945362 7.44816704,2.74706723 7.80788819,3.13348224 L7.83355353,3.16009358 L8.46247234,3.75340959 C8.71241335,4.00262762 8.75705212,4.39028002 8.57018372,4.6893778 C8.24402865,5.21406912 7.66137428,5.90323264 7.007515,6.56706117 L6.78717887,6.78713865 C6.05841059,7.52872889 5.27236814,8.20778922 4.68937778,8.57018374 C4.39028,8.75705214 4.0026276,8.71241337 3.75340957,8.46247236 L3.16009356,7.83355355 L3.13348222,7.80788821 C2.75751091,7.45788925 2.18160281,7.43968609 1.78439261,7.76415458 L0.849208421,8.52602933 L0.849208421,8.52602933 L0.44833401,8.84922124 L0.44833401,8.84922124 C0.10803121,9.12301784 -0.0618490898,9.56380314 0.0205609102,9.99428724 C0.0686334102,10.245403 0.233810168,10.5096635 0.516091251,10.7870688 L0.64423851,10.9067616 C1.21821711,11.4854392 2.04846191,11.7265248 2.84111618,11.5443552 C4.52910501,11.1522042 6.52518271,9.82926284 8.18560723,8.18564749 C9.82926285,6.52518273 11.1522043,4.52910503 11.5443552,2.8411162 Z" id="path-7"></path>
    </defs>
    <g id="页面-1" stroke="none" stroke-width="1" fill="none" fill-rule="evenodd">
        <g id="number_identity_phone_lg_light">
            <rect id="矩形" x="0" y="0" width="394" height="394"></rect>
            <g id="底备份-2" transform="translate(197.000000, 197.000000) rotate(-90.000000) translate(-197.000000, -197.000000) translate(101.783333, 49.250000)" fill-rule="nonzero">
                <path d="M175.280772,-7.36071194e-15 C180.549648,-7.36071194e-15 182.460269,0.548599362 184.386491,1.57875428 C186.312714,2.6089092 187.824424,4.12061967 188.854579,6.04684189 C189.884734,7.97306411 190.433333,9.88368578 190.433333,15.1525615 L190.433333,280.347438 C190.433333,285.616314 189.884734,287.526936 188.854579,289.453158 C187.824424,291.37938 186.312714,292.891091 184.386491,293.921246 C182.460269,294.951401 180.549648,295.5 175.280772,295.5 L15.1525615,295.5 C9.88368578,295.5 7.97306411,294.951401 6.04684189,293.921246 C4.12061967,292.891091 2.6089092,291.37938 1.57875428,289.453158 C0.548599362,287.526936 -3.1286235e-15,285.616314 -3.1286235e-15,280.347438 L-3.1286235e-15,15.1525615 C-3.1286235e-15,9.88368578 0.548599362,7.97306411 1.57875428,6.04684189 C2.6089092,4.12061967 4.12061967,2.6089092 6.04684189,1.57875428 C7.97306411,0.548599362 9.88368578,-7.36071194e-15 15.1525615,-7.36071194e-15 L175.280772,-7.36071194e-15 Z M174.421626,5.91 L16.0117077,5.91 C12.4991239,5.91 11.2253761,6.27573291 9.94122793,6.96250285 C8.65707978,7.6492728 7.6492728,8.65707978 6.96250285,9.94122793 C6.27573291,11.2253761 5.91,12.4991239 5.91,16.0117077 L5.91,16.0117077 L5.91,279.488292 C5.91,283.000876 6.27573291,284.274624 6.96250285,285.558772 C7.6492728,286.84292 8.65707978,287.850727 9.94122793,288.537497 C11.2253761,289.224267 12.4991239,289.59 16.0117077,289.59 L16.0117077,289.59 L174.421626,289.59 C177.934209,289.59 179.207957,289.224267 180.492105,288.537497 C181.776254,287.850727 182.784061,286.84292 183.47083,285.558772 C184.1576,284.274624 184.523333,283.000876 184.523333,279.488292 L184.523333,279.488292 L184.523333,16.0117077 C184.523333,12.4991239 184.1576,11.2253761 183.47083,9.94122793 C182.784061,8.65707978 181.776254,7.6492728 180.492105,6.96250285 C179.207957,6.27573291 177.934209,5.91 174.421626,5.91 L174.421626,5.91 Z" id="形状结合" fill="#505259"></path>
                <path d="M16.0117077,5.91 L174.421626,5.91 C177.934209,5.91 179.207957,6.27573291 180.492105,6.96250285 C181.776254,7.6492728 182.784061,8.65707978 183.47083,9.94122793 C184.1576,11.2253761 184.523333,12.4991239 184.523333,16.0117077 L184.523333,279.488292 C184.523333,283.000876 184.1576,284.274624 183.47083,285.558772 C182.784061,286.84292 181.776254,287.850727 180.492105,288.537497 C179.207957,289.224267 177.934209,289.59 174.421626,289.59 L16.0117077,289.59 C12.4991239,289.59 11.2253761,289.224267 9.94122793,288.537497 C8.65707978,287.850727 7.6492728,286.84292 6.96250285,285.558772 C6.27573291,284.274624 5.91,283.000876 5.91,279.488292 L5.91,16.0117077 C5.91,12.4991239 6.27573291,11.2253761 6.96250285,9.94122793 C7.6492728,8.65707978 8.65707978,7.6492728 9.94122793,6.96250285 C11.2253761,6.27573291 12.4991239,5.91 16.0117077,5.91 Z" id="screen" fill="#FFFFFF" opacity="0.1"></path>
            </g>
            <g id="1:1通用手机" transform="translate(131.333333, 231.201389)">
                <g id="挂断">
                    <g id="backplane/round" fill="#E84026" fill-rule="nonzero">
                        <circle id="path-1" cx="12.9965278" cy="12.9965278" r="12.9965278"></circle>
                    </g>
                    <g id="编组-Clipped">
                        <mask id="mask-2" fill="white">
                            <use xlink:href="#path-1"></use>
                        </mask>
                        <g id="path-1"></g>
                        <g id="编组" mask="url(#mask-2)">
                            <g transform="translate(4.791231, 4.791231)" id="Public/ic_public_phone_filled备份-3">
                                <g transform="translate(-0.000000, 0.000000)">
                                    <g id="编组-Clipped" transform="translate(8.205297, 8.205297) rotate(135.000000) translate(-8.205297, -8.205297) translate(2.403276, 2.403276)">
                                        <mask id="mask-4" fill="white">
                                            <use xlink:href="#path-3"></use>
                                        </mask>
                                        <g id="path-3"></g>
                                        <g id="编组" mask="url(#mask-4)">
                                            <g transform="translate(-1.160404, -1.160404)" id="Symbol/color-light/colorPrimary">
                                                <rect id="color/#000000" fill="#FFFFFF" fill-rule="nonzero" x="0" y="0" width="13.9248512" height="13.9248512"></rect>
                                            </g>
                                        </g>
                                    </g>
                                </g>
                            </g>
                        </g>
                    </g>
                </g>
                <g id="挂断" transform="translate(105.340278, 0.000000)">
                    <g id="backplane/round" fill="#64BB5C" fill-rule="nonzero">
                        <circle id="path-5" cx="12.9965278" cy="12.9965278" r="12.9965278"></circle>
                    </g>
                    <g id="编组-Clipped">
                        <mask id="mask-6" fill="white">
                            <use xlink:href="#path-5"></use>
                        </mask>
                        <g id="path-5"></g>
                        <g id="编组" mask="url(#mask-6)">
                            <g transform="translate(7.194506, 7.194506)" id="Public/ic_public_phone_filled备份">
                                <g transform="translate(-0.000000, -0.000000)" id="编组-Clipped">
                                    <mask id="mask-8" fill="white">
                                        <use xlink:href="#path-7"></use>
                                    </mask>
                                    <g id="path-7"></g>
                                    <g id="编组" mask="url(#mask-8)">
                                        <g transform="translate(-1.160404, -1.160404)" id="Symbol/color-light/colorPrimary">
                                            <rect id="color/#000000" fill="#FFFFFF" fill-rule="nonzero" x="0" y="0" width="13.9248512" height="13.9248512"></rect>
                                        </g>
                                    </g>
                                </g>
                            </g>
                        </g>
                    </g>
                </g>
            </g>
            <g id="123-456-XXXX-2" transform="translate(153.263264, 154.759236)" fill="#000000" fill-opacity="0.597224309" fill-rule="nonzero">
                <path d="M3.84423611,10.1920139 L3.84423611,0.164166667 L2.91395833,0.164166667 L0,1.86055556 L0,3.11916667 L2.61298611,1.62798611 L2.61298611,10.1920139 L3.84423611,10.1920139 Z M13.5163889,10.1920139 L13.5163889,9.11125 L8.988125,9.11125 L11.2864583,6.56666667 C12.016088,5.76407407 12.5268287,5.09828704 12.8186806,4.56930556 C13.1105324,4.04032407 13.2564583,3.4794213 13.2564583,2.88659722 C13.2564583,2.27553241 13.1264931,1.7533912 12.8665625,1.32017361 C12.6066319,0.886956019 12.2577778,0.558622685 11.82,0.335173611 C11.3822222,0.111724537 10.8988426,1.13686838e-13 10.3698611,1.13686838e-13 C9.64023148,1.13686838e-13 8.97900463,0.207488426 8.38618056,0.622465278 C7.79335648,1.03744213 7.39662037,1.61886574 7.19597222,2.36673611 L7.19597222,2.36673611 L8.18097222,2.92763889 C8.34513889,2.38041667 8.61418981,1.9403588 8.988125,1.60746528 C9.36206019,1.27457176 9.79527778,1.108125 10.2877778,1.108125 C10.7711574,1.108125 11.1724537,1.26773148 11.4916667,1.58694444 C11.8108796,1.90615741 11.9704861,2.35761574 11.9704861,2.94131944 C11.9704861,3.39733796 11.8564815,3.81915509 11.6284722,4.20677083 C11.400463,4.59438657 10.9809259,5.12564815 10.3698611,5.80055556 L10.3698611,5.80055556 L7.12756944,9.41222222 L7.12756944,10.1920139 L13.5163889,10.1920139 Z M18.1267361,10.3425 C18.7013194,10.3425 19.2303009,10.2262153 19.7136806,9.99364583 C20.1970602,9.76107639 20.5846759,9.4190625 20.8765278,8.96760417 C21.1683796,8.51614583 21.3143056,7.98032407 21.3143056,7.36013889 C21.3143056,6.73083333 21.1660995,6.20185185 20.8696875,5.77319444 C20.5732755,5.34453704 20.1240972,5.03444444 19.5221528,4.84291667 C20.0055324,4.64226852 20.3635069,4.35041667 20.5960764,3.96736111 C20.8286458,3.58430556 20.9449306,3.14196759 20.9449306,2.64034722 C20.9449306,1.85599537 20.685,1.22212963 20.1651389,0.73875 C19.6452778,0.25537037 18.9566898,0.0136805556 18.099375,0.0136805556 C17.360625,0.0136805556 16.7153588,0.202928241 16.1635764,0.581423611 C15.611794,0.959918981 15.2264583,1.51854167 15.0075694,2.25729167 L15.0075694,2.25729167 L15.9925694,2.81819444 C16.1749769,2.27097222 16.4371875,1.85143519 16.7792014,1.55958333 C17.1212153,1.26773148 17.5384722,1.12180556 18.0309722,1.12180556 C18.5052315,1.12180556 18.8928472,1.25861111 19.1938194,1.53222222 C19.4947917,1.80583333 19.6452778,2.1843287 19.6452778,2.66770833 C19.6452778,3.17844907 19.4697106,3.59798611 19.1185764,3.92631944 C18.7674421,4.25465278 18.2544213,4.41881944 17.5795139,4.41881944 L17.5795139,4.41881944 L17.1006944,4.41881944 L17.0870139,5.51326389 L17.5111111,5.51326389 C19.1801389,5.51326389 20.0146528,6.1243287 20.0146528,7.34645833 C20.0146528,7.93928241 19.8345255,8.4021412 19.4742708,8.73503472 C19.1140162,9.06792824 18.664838,9.234375 18.1267361,9.234375 C17.6342361,9.234375 17.1759375,9.09528935 16.7518403,8.81711806 C16.3277431,8.53894676 16.0290509,8.12625 15.8557639,7.57902778 L15.8557639,7.57902778 L14.8707639,8.13993056 C15.0805324,8.86043981 15.4932292,9.40766204 16.1088542,9.78159722 C16.7244792,10.1555324 17.3971065,10.3425 18.1267361,10.3425 Z M31.889375,10.1920139 L31.889375,7.97576389 L33.3258333,7.97576389 L33.3258333,6.92236111 L31.889375,6.92236111 L31.889375,4.11784722 L30.6718056,4.11784722 L30.6718056,6.92236111 L27.6620833,6.92236111 L31.3284722,0.164166667 L30.0014583,0.164166667 L26.2393056,7.12756944 L26.2393056,7.97576389 L30.6718056,7.97576389 L30.6718056,10.1920139 L31.889375,10.1920139 Z M37.3205556,10.3425 C37.9225,10.3425 38.4697222,10.2034144 38.9622222,9.92524306 C39.4547222,9.64707176 39.842338,9.25717593 40.1250694,8.75555556 C40.4078009,8.25393519 40.5491667,7.67935185 40.5491667,7.03180556 C40.5491667,6.41162037 40.4214815,5.85755787 40.1661111,5.36961806 C39.9107407,4.88167824 39.5504861,4.49862269 39.0853472,4.22045139 C38.6202083,3.94228009 38.0912269,3.80319444 37.4984028,3.80319444 C36.9238194,3.80319444 36.4358796,3.93087963 36.0345833,4.18625 L36.0345833,4.18625 L36.4313194,1.21756944 L40.0977083,1.21756944 L40.0977083,0.150486111 L35.3642361,0.150486111 L34.6802083,5.59534722 L35.46,5.99208333 C35.9068981,5.27157407 36.5270833,4.91131944 37.3205556,4.91131944 C37.9498611,4.91131944 38.4309606,5.12108796 38.7638542,5.540625 C39.0967477,5.96016204 39.2631944,6.47546296 39.2631944,7.08652778 C39.2631944,7.71583333 39.0899074,8.23113426 38.7433333,8.63243056 C38.3967593,9.03372685 37.9225,9.234375 37.3205556,9.234375 C36.8736574,9.234375 36.4928819,9.11581019 36.1782292,8.87868056 C35.8635764,8.64155093 35.6241667,8.29041667 35.46,7.82527778 L35.46,7.82527778 L34.475,8.38618056 C34.6756481,9.02460648 35.0336227,9.5102662 35.5489236,9.84315972 C36.0642245,10.1760532 36.6547685,10.3425 37.3205556,10.3425 Z M45.3236806,10.3425 C45.9347454,10.3425 46.4888079,10.2034144 46.9858681,9.92524306 C47.4829282,9.64707176 47.870544,9.26173611 48.1487153,8.76923611 C48.4268866,8.27673611 48.5659722,7.72951389 48.5659722,7.12756944 C48.5659722,6.54386574 48.4360069,6.01032407 48.1760764,5.52694444 C47.9161458,5.04356481 47.5536111,4.66050926 47.0884722,4.37777778 C46.6233333,4.0950463 46.0943519,3.95368056 45.5015278,3.95368056 C45.1549537,3.95368056 44.8403009,3.99928241 44.5575694,4.09048611 C44.6852546,3.91719907 44.8129398,3.73023148 44.940625,3.52958333 L44.940625,3.52958333 L47.0063889,0.164166667 L45.6246528,0.164166667 L43.2305556,4.10416667 C42.8201389,4.77907407 42.5260069,5.3240162 42.3481597,5.73899306 C42.1703125,6.15396991 42.0813889,6.60770833 42.0813889,7.10020833 C42.0813889,7.72951389 42.2181944,8.29041667 42.4918056,8.78291667 C42.7654167,9.27541667 43.1484722,9.65847222 43.6409722,9.93208333 C44.1334722,10.2056944 44.694375,10.3425 45.3236806,10.3425 Z M45.3236806,9.234375 C44.7308565,9.234375 44.2588773,9.04512731 43.9077431,8.66663194 C43.5566088,8.28813657 43.3810417,7.7887963 43.3810417,7.16861111 C43.3810417,6.54842593 43.5566088,6.04452546 43.9077431,5.65690972 C44.2588773,5.26929398 44.7308565,5.07548611 45.3236806,5.07548611 C45.9165046,5.07548611 46.3862037,5.26929398 46.7327778,5.65690972 C47.0793519,6.04452546 47.2526389,6.54842593 47.2526389,7.16861111 C47.2526389,7.77967593 47.0770718,8.27673611 46.7259375,8.65979167 C46.3748032,9.04284722 45.9073843,9.234375 45.3236806,9.234375 Z M54.3938889,10.1920139 L57.2668056,6.10152778 L60.1670833,10.1920139 L61.6582639,10.1920139 L58.0192361,5.11652778 L61.5625,0.177847222 L60.1534028,0.177847222 L57.37625,4.15888889 L54.5854167,0.177847222 L53.0805556,0.177847222 L56.6238194,5.13020833 L52.9847917,10.1920139 L54.3938889,10.1920139 Z M63.3956944,10.1920139 L66.2686111,6.10152778 L69.1688889,10.1920139 L70.6600694,10.1920139 L67.0210417,5.11652778 L70.5643056,0.177847222 L69.1552083,0.177847222 L66.3780556,4.15888889 L63.5872222,0.177847222 L62.0823611,0.177847222 L65.625625,5.13020833 L61.9865972,10.1920139 L63.3956944,10.1920139 Z M72.3975,10.1920139 L75.2704167,6.10152778 L78.1706944,10.1920139 L79.661875,10.1920139 L76.0228472,5.11652778 L79.5661111,0.177847222 L78.1570139,0.177847222 L75.3798611,4.15888889 L72.5890278,0.177847222 L71.0841667,0.177847222 L74.6274306,5.13020833 L70.9884028,10.1920139 L72.3975,10.1920139 Z M81.3993056,10.1920139 L84.2722222,6.10152778 L87.1725,10.1920139 L88.6636806,10.1920139 L85.0246528,5.11652778 L88.5679167,0.177847222 L87.1588194,0.177847222 L84.3816667,4.15888889 L81.5908333,0.177847222 L80.0859722,0.177847222 L83.6292361,5.13020833 L79.9902083,10.1920139 L81.3993056,10.1920139 Z" id="123456XXXX"></path>
            </g>
        </g>
    </g>
</svg>