<?xml version="1.0" encoding="UTF-8"?>
<svg width="32px" height="32px" viewBox="0 0 32 32" version="1.1" xmlns="http://www.w3.org/2000/svg" xmlns:xlink="http://www.w3.org/1999/xlink">
    <title>静音</title>
    <defs>
        <path d="M4.8896847,3.00685672 L4.94280904,3.05719096 L6.333,4.44733333 L27.8856667,26.0000656 L27.8856667,25.9996667 L28.942809,27.057191 C29.4635081,27.57789 29.4635081,28.42211 28.942809,28.942809 C28.4394666,29.4461515 27.6338119,29.4629295 27.1103153,28.9931433 L27.057191,28.942809 L21.7203577,23.6068676 C20.4322558,24.4646865 18.9406302,25.0410469 17.3333229,25.2481069 L17.3333333,28 C17.3333333,28.7363797 16.7363797,29.3333333 16,29.3333333 C15.2859349,29.3333333 14.7029737,28.7720105 14.6682984,28.0665468 L14.6666667,28 L14.6666771,25.2481069 C9.58954095,24.5940492 5.66666667,20.2551428 5.66666667,15 C5.66666667,14.2636203 6.26362033,13.6666667 7,13.6666667 C7.73637967,13.6666667 8.33333333,14.2636203 8.33333333,15 C8.33333333,19.2341831 11.7658169,22.6666667 16,22.6666667 C17.3760166,22.6666667 18.6673651,22.3041596 19.7837539,21.6694369 L18.0421932,19.9283642 C17.4131751,20.1893067 16.7234072,20.3333333 16,20.3333333 C13.0544813,20.3333333 10.6666667,17.9455187 10.6666667,15 L10.6666667,12.5526667 L3.05719096,4.94280904 C2.5364919,4.42210999 2.5364919,3.57789001 3.05719096,3.05719096 C3.56053338,2.55384854 4.36618812,2.53707046 4.8896847,3.00685672 Z M25,13.6666667 C25.7363797,13.6666667 26.3333333,14.2636203 26.3333333,15 C26.3333333,16.9006671 25.8201796,18.6814808 24.9248588,20.2114544 L22.951423,18.2378328 C23.3935638,17.290202 23.6476361,16.2371852 23.6656396,15.1267824 L23.6666667,15 C23.6666667,14.2636203 24.2636203,13.6666667 25,13.6666667 Z M16,2.66666667 C18.9455187,2.66666667 21.3333333,5.05448133 21.3333333,8 L21.3333333,15 C21.3333333,15.4941685 21.2661244,15.9726395 21.1403485,16.426771 L10.9611479,6.24788263 C11.6860072,4.16303642 13.6682557,2.66666667 16,2.66666667 Z" id="path-1"></path>
    </defs>
    <g id="静音" stroke="none" stroke-width="1" fill="none" fill-rule="evenodd">
        <mask id="mask-2" fill="white">
            <use xlink:href="#path-1"></use>
        </mask>
        <use id="形状结合" fill-opacity="1" fill="#E84026" fill-rule="nonzero" xlink:href="#path-1"></use>
    </g>
</svg>