<svg width="24.000000" height="24.000000" viewBox="0 0 24 24" fill="none" xmlns="http://www.w3.org/2000/svg" xmlns:xlink="http://www.w3.org/1999/xlink">
	<desc>
			Created with Pixso.
	</desc>
	<defs>
		<clipPath id="clip702_132729">
			<rect id="#illustration_实况胶囊_救援沟通" rx="6.000000" width="24.000000" height="24.000000" fill="white" fill-opacity="0"/>
		</clipPath>
	</defs>
	<rect id="#illustration_实况胶囊_救援沟通" rx="6.000000" width="24.000000" height="24.000000" fill="#1A1A1A" fill-opacity="0"/>
	<g clip-path="url(#clip702_132729)">
		<g opacity="0.000000">
			<circle id="椭圆 16" cx="12.000000" cy="12.000000" r="11.999999" fill="#1A1A1A" fill-opacity="0"/>
		</g>
		<path id="矢量 3" d="M5.99 6L16.79 6C17.46 6 17.99 6.53 17.99 7.2L17.99 11.09C15.51 11.1 13.5 13.11 13.5 15.59C13.5 16.01 13.55 16.41 13.66 16.79L5.99 16.79C5.33 16.79 4.79 16.26 4.79 15.59L4.79 7.2C4.79 6.53 5.33 6 5.99 6ZM6.74 7.46C6.57 7.3 6.3 7.31 6.13 7.48C5.95 7.65 5.95 7.94 6.13 8.11L9.8 11.79C10.69 12.63 12.12 12.66 12.99 11.79L16.66 8.11C16.82 7.94 16.83 7.65 16.66 7.48C16.49 7.3 16.2 7.3 16.03 7.48L12.35 11.15C11.82 11.65 10.96 11.67 10.44 11.15L6.74 7.46Z" fill="#D9DADF" fill-opacity="1.000000" fill-rule="evenodd"/>
		<circle id="椭圆 2" cx="18.000000" cy="15.599609" r="3.600000" fill="#5BA854" fill-opacity="1.000000"/>
		<circle id="椭圆 19" cx="16.000000" cy="15.599609" r="0.600000" fill="#D9DADF" fill-opacity="1.000000"/>
		<circle id="椭圆 20" cx="18.000000" cy="15.599609" r="0.600000" fill="#D9DADF" fill-opacity="1.000000"/>
		<circle id="椭圆 21" cx="20.000000" cy="15.599609" r="0.600000" fill="#D9DADF" fill-opacity="1.000000"/>
	</g>
</svg>
