<svg width="32.000000" height="32.000000" viewBox="0 0 32 32" fill="none" xmlns="http://www.w3.org/2000/svg" xmlns:xlink="http://www.w3.org/1999/xlink">
	<desc>
			Created with Pixso.
	</desc>
	<defs>
		<clipPath id="clip702_130548">
			<rect id="#illustration_实况卡片和通知中心_救援沟通" rx="8.000000" width="32.000000" height="32.000000" fill="white" fill-opacity="0"/>
		</clipPath>
	</defs>
	<rect id="#illustration_实况卡片和通知中心_救援沟通" rx="8.000000" width="32.000000" height="32.000000" fill="#1A1A1A" fill-opacity="0"/>
	<g clip-path="url(#clip702_130548)">
		<rect id="矩形 1090" width="32.000000" height="32.000000" fill="#000000" fill-opacity="1.000000"/>
		<path id="矢量 2" d="M7.99 8L22.39 8C23.28 8 23.99 8.71 23.99 9.6L23.99 14.79C20.68 14.8 18 17.48 18 20.79C18 21.35 18.07 21.89 18.21 22.39L7.99 22.39C7.11 22.39 6.39 21.68 6.39 20.79L6.39 9.6C6.39 8.71 7.11 8 7.99 8ZM8.99 9.94C8.75 9.74 8.4 9.75 8.17 9.97C7.94 10.21 7.94 10.59 8.17 10.82L13.07 15.72C14.25 16.84 16.16 16.88 17.32 15.72L22.22 10.82C22.43 10.58 22.44 10.2 22.22 9.97C21.99 9.74 21.61 9.74 21.37 9.97L16.47 14.87C15.76 15.54 14.61 15.56 13.92 14.87L8.99 9.94Z" fill="#FFFFFF" fill-opacity="1.000000" fill-rule="evenodd"/>
		<circle id="椭圆 2" cx="24.000000" cy="20.799805" r="4.800000" fill="#5BA854" fill-opacity="1.000000"/>
		<circle id="椭圆 19" cx="21.333984" cy="20.666016" r="0.666667" fill="#FFFFFF" fill-opacity="1.000000"/>
		<circle id="椭圆 20" cx="24.000977" cy="20.666016" r="0.666667" fill="#FFFFFF" fill-opacity="1.000000"/>
		<circle id="椭圆 21" cx="26.666992" cy="20.666016" r="0.666667" fill="#FFFFFF" fill-opacity="1.000000"/>
	</g>
</svg>
