<?xml version="1.0" encoding="UTF-8"?>
<svg width="24.000000" height="24.000000" viewBox="0 0 24 24" fill="none" xmlns="http://www.w3.org/2000/svg" xmlns:xlink="http://www.w3.org/1999/xlink">
	<desc>
			Created with Pixso.
	</desc>
	<defs>
		<clipPath id="clip449_161899">
			<rect id="#illustration_实况胶囊信息已送达" width="24.000000" height="24.000000" fill="white" fill-opacity="0"/>
		</clipPath>
	</defs>
	<rect id="#illustration_实况胶囊信息已送达" width="24.000000" height="24.000000" fill="#1A1A1A" fill-opacity="0"/>
	<g clip-path="url(#clip449_161899)">
		<g opacity="0.000000">
			<circle id="椭圆 16" cx="12.000000" cy="12.000000" r="11.999999" fill="#1A1A1A" fill-opacity="0"/>
		</g>
		<path id="矢量 3" d="M5.99 6L16.79 6C17.45 6 17.99 6.53 17.99 7.2L17.99 11.09C15.51 11.1 13.5 13.11 13.5 15.59C13.5 16.01 13.55 16.41 13.66 16.79L5.99 16.79C5.33 16.79 4.79 16.26 4.79 15.59L4.79 7.2C4.79 6.53 5.33 6 5.99 6ZM6.74 7.46C6.56 7.3 6.3 7.31 6.13 7.48C5.95 7.65 5.95 7.94 6.13 8.11L9.8 11.79C10.69 12.63 12.12 12.66 12.99 11.79L16.66 8.11C16.82 7.94 16.83 7.65 16.66 7.48C16.49 7.3 16.2 7.3 16.03 7.48L12.35 11.15C11.82 11.65 10.96 11.67 10.44 11.15L6.74 7.46Z" fill="#D9DADF" fill-opacity="1.000000" fill-rule="evenodd"/>
		<circle id="椭圆 2" cx="18.000000" cy="15.599609" r="3.600000" fill="#5BA854" fill-opacity="1.000000"/>
		<path id="矢量 5" d="M18.06 16.73C17.99 16.8 17.91 16.85 17.83 16.89C17.77 16.91 17.72 16.93 17.66 16.94C17.63 16.94 17.59 16.95 17.56 16.95C17.51 16.95 17.46 16.94 17.41 16.93C17.37 16.92 17.32 16.91 17.28 16.89C17.23 16.87 17.19 16.85 17.15 16.82L16.15 15.79C16.12 15.76 16.1 15.73 16.08 15.69C16.06 15.64 16.04 15.59 16.04 15.53C16.04 15.47 16.06 15.42 16.08 15.37C16.09 15.33 16.12 15.3 16.15 15.27C16.18 15.23 16.22 15.2 16.27 15.18C16.31 15.16 16.36 15.16 16.41 15.16C16.46 15.16 16.51 15.17 16.56 15.19C16.6 15.21 16.64 15.23 16.67 15.27L17.56 16.18L19.32 14.36C19.39 14.28 19.48 14.25 19.58 14.25C19.63 14.25 19.68 14.25 19.72 14.27C19.76 14.29 19.81 14.32 19.84 14.36C19.87 14.41 19.94 14.56 19.94 14.62C19.94 14.68 19.93 14.73 19.91 14.78C19.89 14.81 19.87 14.85 19.84 14.88L18.06 16.73Z" fill="#D9DADF" fill-opacity="1.000000" fill-rule="evenodd"/>
	</g>
</svg>
