<?xml version="1.0" encoding="UTF-8"?>
<svg width="24.000000" height="24.000000" viewBox="0 0 24 24" fill="none" xmlns="http://www.w3.org/2000/svg" xmlns:xlink="http://www.w3.org/1999/xlink">
	<desc>
			Created with Pixso.
	</desc>
	<defs>
		<clipPath id="clip504_97600">
			<rect id="#illustration_实况胶囊 发送失败" rx="6.000000" width="24.000000" height="24.000000" fill="white" fill-opacity="0"/>
		</clipPath>
	</defs>
	<rect id="#illustration_实况胶囊 发送失败" rx="6.000000" width="24.000000" height="24.000000" fill="#1A1A1A" fill-opacity="0"/>
	<g clip-path="url(#clip504_97600)">
		<path id="矢量 2" d="M5.99 6L16.79 6C17.46 6 17.99 6.53 17.99 7.2L17.99 11.09C15.51 11.1 13.5 13.11 13.5 15.59C13.5 16.01 13.55 16.41 13.66 16.79L5.99 16.79C5.33 16.79 4.79 16.26 4.79 15.59L4.79 7.2C4.79 6.53 5.33 6 5.99 6ZM6.74 7.46C6.57 7.3 6.3 7.31 6.13 7.48C5.95 7.65 5.95 7.94 6.13 8.11L9.8 11.79C10.69 12.63 12.12 12.66 12.99 11.79L16.66 8.11C16.82 7.94 16.83 7.65 16.66 7.48C16.49 7.3 16.2 7.3 16.03 7.48L12.35 11.15C11.82 11.65 10.96 11.67 10.44 11.15L6.74 7.46Z" fill="#D9DADF" fill-opacity="1.000000" fill-rule="evenodd"/>
		<circle id="椭圆 2" cx="18.000000" cy="15.599609" r="3.600000" fill="#D94838" fill-opacity="1.000000"/>
		<path id="path" d="M19.5 14.24C19.5 14.2 19.48 14.17 19.46 14.14C19.43 14.11 19.39 14.09 19.36 14.09C19.32 14.09 19.28 14.11 19.26 14.14L18 15.4L16.73 14.14C16.71 14.11 16.67 14.09 16.63 14.09C16.6 14.09 16.56 14.11 16.53 14.14C16.51 14.17 16.5 14.2 16.5 14.24C16.5 14.27 16.51 14.31 16.53 14.34L17.8 15.6L16.53 16.85C16.51 16.88 16.5 16.92 16.5 16.96C16.5 17 16.51 17.03 16.53 17.06C16.56 17.08 16.6 17.09 16.63 17.09C16.67 17.09 16.71 17.08 16.73 17.06L18 15.8L19.26 17.06C19.28 17.08 19.32 17.09 19.36 17.09C19.39 17.09 19.43 17.08 19.46 17.06C19.48 17.03 19.5 17 19.5 16.96C19.5 16.92 19.48 16.88 19.46 16.85L18.19 15.6L19.46 14.34C19.48 14.31 19.5 14.27 19.5 14.24Z" stroke="#D9DADF" stroke-opacity="1.000000" stroke-width="0.375000"/>
	</g>
</svg>
