<?xml version="1.0" encoding="UTF-8"?>
<svg width="32.000000" height="32.000000" viewBox="0 0 32 32" fill="none" xmlns="http://www.w3.org/2000/svg" xmlns:xlink="http://www.w3.org/1999/xlink">
	<desc>
			Created with Pixso.
	</desc>
	<defs>
		<clipPath id="clip449_161931">
			<rect id="#illustration_实况卡片和通知中心 发送求救信息" rx="8.000000" width="32.000000" height="32.000000" fill="white" fill-opacity="0"/>
		</clipPath>
	</defs>
	<rect id="#illustration_实况卡片和通知中心 发送求救信息" rx="8.000000" width="32.000000" height="32.000000" fill="#1A1A1A" fill-opacity="0"/>
	<g clip-path="url(#clip449_161931)">
		<rect id="矩形 1090" width="31.999996" height="31.999996" fill="#000000" fill-opacity="1.000000"/>
		<path id="矢量 1" d="M22.79 32L9.2 32L9.2 20C9.2 18.89 10.09 18 11.2 18L20.79 18C21.9 18 22.79 18.89 22.79 20L22.79 32ZM15.04 18.62L16.95 18.62C17.21 18.62 17.42 18.83 17.42 19.08C17.42 19.34 17.21 19.55 16.95 19.55L15.04 19.55C14.78 19.55 14.57 19.34 14.57 19.08C14.57 18.83 14.78 18.62 15.04 18.62Z" fill="#FFFFFF" fill-opacity="1.000000" fill-rule="evenodd"/>
		<path id="矢量 8" d="M6.76 9.78C6.7 9.76 6.63 9.72 6.58 9.67C6.45 9.55 6.4 9.41 6.4 9.26C6.4 9.1 6.45 8.96 6.58 8.85C7.13 8.33 7.71 7.86 8.34 7.45C9.12 6.93 9.97 6.49 10.87 6.14C11.56 5.87 12.26 5.66 12.97 5.5C13.93 5.3 14.91 5.19 15.91 5.19C16.93 5.19 17.93 5.3 18.91 5.52C19.61 5.68 20.31 5.89 20.99 6.16C21.94 6.53 22.83 7 23.65 7.56C24.24 7.96 24.8 8.41 25.32 8.91C25.43 9.03 25.49 9.16 25.49 9.31C25.49 9.47 25.43 9.61 25.32 9.73C25.2 9.83 25.05 9.89 24.88 9.89C24.71 9.89 24.57 9.83 24.46 9.73C23.9 9.19 23.3 8.7 22.65 8.29C22 7.86 21.3 7.5 20.56 7.2C20.15 7.04 19.74 6.91 19.32 6.79C18.22 6.49 17.09 6.34 15.91 6.34C14.78 6.34 13.7 6.48 12.65 6.76C12.21 6.88 11.77 7.03 11.33 7.2C10.72 7.44 10.13 7.73 9.57 8.07C8.81 8.52 8.1 9.06 7.44 9.67C7.31 9.78 7.17 9.83 7.01 9.83C6.92 9.83 6.84 9.81 6.76 9.78ZM22.43 12.4C22.55 12.3 22.63 12.18 22.66 12.03C22.69 11.87 22.66 11.73 22.57 11.61C21.75 10.66 20.73 9.88 19.58 9.36C19.04 9.11 18.48 8.92 17.91 8.79C17.27 8.64 16.62 8.57 15.95 8.57C15.15 8.57 14.37 8.67 13.62 8.87C13.17 9 12.73 9.16 12.3 9.36C11.64 9.65 11.04 10.02 10.5 10.46C10.09 10.79 9.71 11.16 9.37 11.57C9.27 11.69 9.23 11.83 9.25 12C9.27 12.16 9.35 12.29 9.47 12.4C9.61 12.49 9.75 12.52 9.91 12.5C10.07 12.49 10.2 12.42 10.31 12.3C10.59 11.96 10.9 11.66 11.23 11.39C11.71 11 12.24 10.68 12.81 10.42C13.19 10.25 13.58 10.11 13.97 10C14.61 9.83 15.27 9.75 15.95 9.75C16.63 9.75 17.29 9.83 17.93 10C18.32 10.11 18.71 10.25 19.09 10.42C19.66 10.68 20.19 11 20.66 11.39C21 11.66 21.31 11.96 21.59 12.3C21.69 12.43 21.82 12.5 21.98 12.53C22.14 12.54 22.29 12.5 22.43 12.4ZM11.59 14.24C11.57 14.1 11.61 13.96 11.7 13.83C12.2 13.22 12.85 12.72 13.6 12.39C13.95 12.23 14.32 12.11 14.69 12.03C15.1 11.93 15.52 11.89 15.95 11.89C16.37 11.89 16.78 11.93 17.17 12.02C17.55 12.11 17.91 12.23 18.26 12.39C19.01 12.72 19.63 13.19 20.15 13.79C20.25 13.92 20.29 14.07 20.27 14.22C20.26 14.38 20.19 14.51 20.07 14.61C19.95 14.7 19.8 14.74 19.63 14.73C19.46 14.7 19.33 14.64 19.23 14.54C19.06 14.33 18.87 14.14 18.66 13.98C18.39 13.76 18.1 13.58 17.78 13.43C17.55 13.33 17.31 13.25 17.08 13.18C16.71 13.09 16.34 13.04 15.95 13.04C15.56 13.04 15.19 13.09 14.82 13.18C14.58 13.25 14.35 13.33 14.12 13.43C13.8 13.58 13.51 13.76 13.24 13.98C13.03 14.14 12.84 14.33 12.67 14.54C12.56 14.65 12.42 14.72 12.26 14.73C12.09 14.74 11.94 14.7 11.8 14.61C11.69 14.51 11.61 14.38 11.59 14.24Z" fill="#5BA854" fill-opacity="1.000000" fill-rule="evenodd"/>
	</g>
</svg>
