<?xml version="1.0" encoding="UTF-8"?>
<svg width="32.000000" height="32.000000" viewBox="0 0 32 32" fill="none" xmlns="http://www.w3.org/2000/svg" xmlns:xlink="http://www.w3.org/1999/xlink">
	<desc>
			Created with Pixso.
	</desc>
	<defs>
		<clipPath id="clip449_161932">
			<rect id="#illustration_实况卡片和通知中心 信息已送达" rx="8.000000" width="32.000000" height="32.000000" fill="white" fill-opacity="0"/>
		</clipPath>
	</defs>
	<rect id="#illustration_实况卡片和通知中心 信息已送达" rx="8.000000" width="32.000000" height="32.000000" fill="#1A1A1A" fill-opacity="0"/>
	<g clip-path="url(#clip449_161932)">
		<rect id="矩形 1090" width="32.000000" height="32.000000" fill="#000000" fill-opacity="1.000000"/>
		<path id="矢量 2" d="M7.99 8L22.39 8C23.28 8 23.99 8.71 23.99 9.6L23.99 14.79C20.68 14.8 18 17.48 18 20.79C18 21.35 18.07 21.89 18.21 22.39L7.99 22.39C7.11 22.39 6.39 21.68 6.39 20.79L6.39 9.6C6.39 8.71 7.11 8 7.99 8ZM8.99 9.94C8.75 9.74 8.4 9.75 8.17 9.97C7.94 10.21 7.94 10.59 8.17 10.82L13.07 15.72C14.25 16.84 16.16 16.88 17.32 15.72L22.22 10.82C22.43 10.58 22.44 10.2 22.22 9.97C21.99 9.74 21.61 9.74 21.37 9.97L16.47 14.87C15.76 15.54 14.61 15.56 13.92 14.87L8.99 9.94Z" fill="#FFFFFF" fill-opacity="1.000000" fill-rule="evenodd"/>
		<circle id="椭圆 2" cx="24.000000" cy="20.799805" r="4.800000" fill="#5BA854" fill-opacity="1.000000"/>
		<path id="矢量 4" d="M24.09 22.31C24 22.4 23.89 22.47 23.77 22.52C23.7 22.55 23.63 22.57 23.55 22.58C23.51 22.59 23.46 22.6 23.41 22.6C23.35 22.6 23.28 22.59 23.22 22.58C23.16 22.56 23.1 22.54 23.04 22.52C22.98 22.5 22.92 22.46 22.87 22.42L21.54 21.05C21.5 21.01 21.46 20.97 21.44 20.92C21.41 20.86 21.4 20.78 21.4 20.7C21.4 20.63 21.41 20.56 21.44 20.5C21.46 20.45 21.49 20.4 21.54 20.36C21.58 20.31 21.63 20.27 21.69 20.25C21.75 20.22 21.81 20.21 21.88 20.21C21.95 20.21 22.02 20.22 22.08 20.25C22.14 20.28 22.18 20.31 22.23 20.36L23.41 21.58L25.76 19.14C25.86 19.04 25.98 19 26.11 19C26.18 19 26.24 19.01 26.29 19.03C26.35 19.05 26.41 19.09 26.46 19.14C26.49 19.21 26.6 19.41 26.6 19.49C26.6 19.57 26.58 19.64 26.55 19.7C26.53 19.75 26.5 19.8 26.46 19.84L24.09 22.31Z" fill="#FFFFFF" fill-opacity="1.000000" fill-rule="evenodd"/>
	</g>
</svg>
