<?xml version="1.0" encoding="UTF-8"?>
<svg width="32.000000" height="32.000000" viewBox="0 0 32 32" fill="none" xmlns="http://www.w3.org/2000/svg" xmlns:xlink="http://www.w3.org/1999/xlink">
	<desc>
			Created with Pixso.
	</desc>
	<defs>
		<clipPath id="clip493_97122">
			<rect id="#illustration_实况卡片和通知中心 发送失败" rx="8.000000" width="32.000000" height="32.000000" fill="white" fill-opacity="0"/>
		</clipPath>
	</defs>
	<rect id="#illustration_实况卡片和通知中心 发送失败" rx="8.000000" width="32.000000" height="32.000000" fill="#1A1A1A" fill-opacity="0"/>
	<g clip-path="url(#clip493_97122)">
		<rect id="矩形 1090" width="32.000000" height="32.000000" fill="#000000" fill-opacity="1.000000"/>
		<path id="矢量 2" d="M7.99 8L22.39 8C23.28 8 23.99 8.71 23.99 9.6L23.99 14.79C20.68 14.8 18 17.48 18 20.79C18 21.35 18.07 21.89 18.21 22.39L7.99 22.39C7.11 22.39 6.39 21.68 6.39 20.79L6.39 9.6C6.39 8.71 7.11 8 7.99 8ZM8.99 9.94C8.75 9.74 8.4 9.75 8.17 9.97C7.94 10.21 7.94 10.59 8.17 10.82L13.07 15.72C14.25 16.84 16.16 16.88 17.32 15.72L22.22 10.82C22.43 10.58 22.44 10.2 22.22 9.97C21.99 9.74 21.61 9.74 21.37 9.97L16.47 14.87C15.76 15.54 14.61 15.56 13.92 14.87L8.99 9.94Z" fill="#FFFFFF" fill-opacity="1.000000" fill-rule="evenodd"/>
		<circle id="椭圆 2" cx="24.000000" cy="20.799805" r="4.800000" fill="#D94838" fill-opacity="1.000000"/>
		<path id="path" d="M25.94 19.12C25.98 19.08 26 19.04 26 18.98C26 18.93 25.98 18.89 25.94 18.85C25.91 18.81 25.86 18.79 25.81 18.79C25.76 18.79 25.71 18.81 25.68 18.85L24 20.53L22.31 18.85C22.28 18.81 22.23 18.79 22.18 18.79C22.13 18.79 22.08 18.81 22.04 18.85C22.01 18.89 22 18.93 22 18.98C22 19.04 22.01 19.08 22.04 19.12L23.73 20.8L22.04 22.47C22.01 22.51 22 22.56 22 22.61C22 22.66 22.01 22.71 22.04 22.74C22.08 22.77 22.13 22.79 22.18 22.79C22.23 22.79 22.28 22.78 22.31 22.74L24 21.06L25.68 22.74C25.71 22.78 25.76 22.79 25.81 22.79C25.86 22.79 25.91 22.78 25.94 22.74C25.98 22.71 26 22.66 26 22.61C26 22.56 25.98 22.51 25.94 22.47L24.26 20.8L25.94 19.12Z" fill="#FFFFFF" fill-opacity="0.901961" fill-rule="nonzero"/>
		<path id="path" d="M26 18.98C26 18.93 25.98 18.89 25.94 18.85C25.91 18.81 25.86 18.79 25.81 18.79C25.76 18.79 25.71 18.81 25.68 18.85L24 20.53L22.31 18.85C22.28 18.81 22.23 18.79 22.18 18.79C22.13 18.79 22.08 18.81 22.04 18.85C22.01 18.89 22 18.93 22 18.98C22 19.04 22.01 19.08 22.04 19.12L23.73 20.8L22.04 22.47C22.01 22.51 22 22.56 22 22.61C22 22.66 22.01 22.71 22.04 22.74C22.08 22.77 22.13 22.79 22.18 22.79C22.23 22.79 22.28 22.78 22.31 22.74L24 21.06L25.68 22.74C25.71 22.78 25.76 22.79 25.81 22.79C25.86 22.79 25.91 22.78 25.94 22.74C25.98 22.71 26 22.66 26 22.61C26 22.56 25.98 22.51 25.94 22.47L24.26 20.8L25.94 19.12C25.98 19.08 26 19.04 26 18.98Z" stroke="#FFFFFF" stroke-opacity="1.000000" stroke-width="0.500000"/>
	</g>
</svg>
