<svg width="32.000000" height="32.000000" viewBox="0 0 32 32" fill="none" xmlns="http://www.w3.org/2000/svg" xmlns:xlink="http://www.w3.org/1999/xlink">
	<desc>
			Created with Pixso.
	</desc>
	<defs>
		<clipPath id="clip449_161901">
			<rect id="#illustration_实况卡片 救援队头像 浅色" width="32.000000" height="32.000000" fill="white" fill-opacity="0"/>
		</clipPath>
		<linearGradient x1="16.000000" y1="0.000000" x2="16.000000" y2="32.000000" id="paint_linear_449_161923_0" gradientUnits="userSpaceOnUse">
			<stop stop-color="#000000" stop-opacity="0.101961"/>
			<stop offset="1.000000" stop-color="#000000" stop-opacity="0.301961"/>
		</linearGradient>
	</defs>
	<g clip-path="url(#clip449_161901)">
		<g style="mix-blend-mode:luminosity">
			<path id="默认头像" d="M0 16.01C0 17.75 0.25 19.4 0.76 20.97C1.11 22.03 1.57 23.05 2.14 24.03C3.57 26.46 5.5 28.4 7.95 29.83C10.4 31.27 13.07 32 15.98 32C18.89 32 21.56 31.27 24.01 29.83C26.46 28.4 28.4 26.45 29.85 24C31.28 21.55 32 18.89 32 16.01C32 13.1 31.28 10.43 29.85 7.98C28.4 5.53 26.46 3.59 24.01 2.14C23 1.55 21.95 1.08 20.86 0.74C19.31 0.24 17.69 0 15.98 0C14.27 0 12.64 0.24 11.1 0.74C10.01 1.08 8.96 1.55 7.95 2.14C6.69 2.89 5.57 3.76 4.58 4.77C3.65 5.72 2.83 6.79 2.14 7.98C1.55 8.99 1.08 10.04 0.74 11.13C0.24 12.68 0 14.3 0 16.01ZM14.15 6.44C13.51 6.68 12.93 7.07 12.4 7.6C11.39 8.59 10.9 9.78 10.92 11.16C10.93 12.55 11.43 13.74 12.43 14.73C13.43 15.73 14.62 16.23 15.99 16.25C17.38 16.26 18.56 15.77 19.56 14.76C20.57 13.77 21.06 12.58 21.04 11.2C21.03 9.82 20.53 8.64 19.53 7.63C18.52 6.63 17.33 6.13 15.96 6.12C15.32 6.12 14.71 6.22 14.15 6.44ZM8.1 21.83C7.16 22.76 6.49 23.81 6.1 25C7.37 26.39 8.85 27.47 10.52 28.23C12.21 28.98 14.03 29.36 15.98 29.36C17.27 29.36 18.52 29.19 19.71 28.84C20.27 28.68 20.82 28.48 21.36 28.25C23.03 27.51 24.52 26.42 25.82 25C25.43 23.81 24.77 22.76 23.84 21.83C22.92 20.9 21.84 20.18 20.61 19.67C19.37 19.16 18.13 18.91 16.89 18.91L15.06 18.91C13.83 18.91 12.59 19.16 11.35 19.67C10.12 20.18 9.04 20.9 8.1 21.83Z" fill="url(#paint_linear_449_161923_0)" fill-opacity="1.000000" fill-rule="evenodd"/>
		</g>
		<g style="mix-blend-mode:luminosity">
			<path id="文字头像 (边框)" d="M0.76 20.97C1.11 22.03 1.57 23.05 2.14 24.03C2.83 25.2 3.63 26.25 4.55 27.19C5.55 28.21 6.68 29.09 7.95 29.83C10.4 31.27 13.07 32 15.98 32C18.89 32 21.56 31.27 24.01 29.83C26.46 28.4 28.4 26.45 29.85 24C31.28 21.55 32 18.89 32 16.01C32 13.1 31.28 10.43 29.85 7.98C28.4 5.53 26.46 3.59 24.01 2.14C23 1.55 21.95 1.08 20.86 0.74C19.32 0.24 17.69 0 15.98 0C14.27 0 12.64 0.24 11.1 0.74C10.01 1.08 8.96 1.55 7.95 2.14C6.69 2.89 5.57 3.76 4.58 4.77C3.65 5.72 2.83 6.79 2.14 7.98C1.55 8.99 1.08 10.04 0.74 11.13C0.24 12.68 0 14.3 0 16.01C0 17.75 0.25 19.4 0.76 20.97ZM1.08 20.87C1.41 21.9 1.87 22.9 2.43 23.86C3.1 25.01 3.89 26.04 4.79 26.96C5.76 27.96 6.87 28.82 8.12 29.55C9.12 30.14 10.16 30.6 11.24 30.95C12.75 31.43 14.33 31.66 15.98 31.66C17.63 31.66 19.21 31.43 20.71 30.95C21.79 30.61 22.84 30.14 23.84 29.55C25 28.87 26.04 28.08 26.96 27.17C27.96 26.19 28.83 25.08 29.56 23.83C30.19 22.75 30.68 21.63 31.03 20.47C31.45 19.04 31.66 17.56 31.66 16.01C31.66 14.33 31.42 12.73 30.93 11.21C30.59 10.15 30.14 9.13 29.56 8.15C28.85 6.95 28.02 5.87 27.07 4.91C26.12 3.96 25.04 3.13 23.84 2.43C22.85 1.85 21.83 1.39 20.76 1.05C19.25 0.57 17.65 0.33 15.98 0.33C14.3 0.33 12.7 0.57 11.18 1.06C10.12 1.4 9.1 1.85 8.12 2.43C6.88 3.16 5.78 4.01 4.82 5C3.9 5.93 3.11 6.98 2.43 8.15C1.85 9.14 1.39 10.16 1.05 11.23C0.57 12.74 0.33 14.34 0.33 16.01C0.33 17.71 0.58 19.33 1.08 20.87Z" fill="#808080" fill-opacity="0.200000" fill-rule="evenodd"/>
		</g>
	</g>
</svg>
