<?xml version="1.0" encoding="UTF-8"?>
<svg width="40px" height="40px" viewBox="0 0 40 40" version="1.1" xmlns="http://www.w3.org/2000/svg" xmlns:xlink="http://www.w3.org/1999/xlink">
    <title>ic_user</title>
    <defs>
        <path d="M19.9334832,25.7142857 C29.3591168,25.7142857 31.8191885,31.3622549 32.7089267,33.2539683 L32.7984755,33.4572781 C29.4672959,36.6263689 24.9607944,38.5714286 20,38.5714286 C14.9919004,38.5714286 10.4467993,36.5890966 7.1065493,33.3662854 L7.15803972,33.2539683 L7.15803972,33.2539683 C8.08897579,31.3622549 10.5078496,25.7142857 19.9334832,25.7142857 Z M19.9334832,9.28571429 C23.6811297,9.28571429 26.7191975,12.3237821 26.7191975,16.0714286 C26.7191975,19.8190751 23.6811297,22.8571429 19.9334832,22.8571429 C16.1858367,22.8571429 13.1477689,19.8190751 13.1477689,16.0714286 C13.1477689,12.3237821 16.1858367,9.28571429 19.9334832,9.28571429 Z" id="path-1"></path>
    </defs>
    <g id="ic_user_40*40dark" stroke="none" stroke-width="1" fill="none" fill-rule="evenodd">
        <circle id="Oval-3" fill-opacity="0.2" fill="#FFFFFF" cx="20" cy="20" r="20"></circle>
        <mask id="mask-2" fill="white">
            <use xlink:href="#path-1"></use>
        </mask>
        <use id="IC/ic_user_portrait_40*40" fill="#E5E5E5" xlink:href="#path-1"></use>
    </g>
</svg>