<?xml version="1.0" encoding="UTF-8"?>
<svg width="56px" height="56px" viewBox="0 0 56 56" version="1.1" xmlns="http://www.w3.org/2000/svg" xmlns:xlink="http://www.w3.org/1999/xlink">
    <title>ic_public_ring off</title>
    <g id="ic_public_ring-off" stroke="none" stroke-width="1" fill="none" fill-rule="evenodd">
        <circle id="backplane/round" fill="#E64548" cx="28" cy="28" r="28"></circle>
        <path d="M13.1859419,29.9864415 L13.183572,31.0342059 C13.1840987,32.3708362 14.2642518,33.4509894 15.6011454,33.4517793 L18.7810405,33.004656 C18.9593106,32.9796402 19.1383706,32.9633142 19.3176939,32.9472514 C20.4115399,32.8450819 21.2518053,31.927926 21.2581251,30.8298668 L21.2818242,29.1814614 C21.2828775,28.4578484 21.7802957,27.8271885 22.4846861,27.6573448 C25.3770319,26.9637506 30.9205191,26.9626973 33.5995728,27.5878274 C34.3076498,27.7513513 34.8074379,28.3812212 34.8063846,29.1085208 L34.7545099,30.8893779 C34.7550365,32.0111362 35.6266375,32.9354019 36.7460258,33.0020227 L37.0191911,33.0224632 L37.0191911,33.0224632 L40.1855579,33.3606694 C41.0803313,33.4575724 41.9701016,33.0628505 42.4772627,32.3155382 C42.7490126,31.9158131 42.8951572,31.4442006 42.8959471,30.9620552 L42.8980944,30.0772881 C42.9049001,28.3978106 42.0464654,26.8368286 40.6260982,25.9473217 C34.5514874,22.1630991 21.2257363,22.0235376 15.3586245,25.9230959 C13.999085,26.826559 13.1898918,28.3583121 13.1859419,29.9864415 Z" id="Stroke-1" fill="#FFFFFF"></path>
    </g>
</svg>