<?xml version="1.0" encoding="UTF-8"?>
<svg width="56px" height="56px" viewBox="0 0 56 56" version="1.1" xmlns="http://www.w3.org/2000/svg" xmlns:xlink="http://www.w3.org/1999/xlink">
    <title>编组备份</title>
    <defs>
        <circle id="path-1" cx="28" cy="28" r="28"></circle>
        <path d="M27.0756157,27.0977403 L27.9324123,26.2448108 C29.0225292,25.1538346 29.0225292,23.391257 27.9324123,22.299851 L24.9731554,20.0702033 C24.8072961,19.9451642 24.6478821,19.8123908 24.4884681,19.6791877 C23.512648,18.8700864 22.0787813,18.9328208 21.1777268,19.8235627 L19.8134694,21.1491483 C19.2222196,21.7386793 18.3018292,21.8473902 17.5885482,21.4112576 C14.6628069,19.6173128 10.1390582,15.0952828 8.46327745,12.3994243 C8.01898071,11.6882917 8.12511349,10.7666122 8.71937113,10.1740734 L10.2146832,8.76340971 C11.1294876,7.84774592 11.1724563,6.38251197 10.3135113,5.41485601 C10.1730035,5.25802012 10.0393707,5.09430923 9.9078864,4.93059834 L7.79984015,2.31595067 C7.14886378,1.50684934 6.10085627,1.10294321 5.07734095,1.29888066 C4.52948955,1.40329469 4.02546626,1.66884148 3.63144293,2.06157574 L2.9078494,2.78173178 C1.53199043,4.14641888 0.958787471,6.12040268 1.39191234,8.0050115 C3.26062273,16.0487591 14.0191352,27.0350059 21.9876875,28.6403179 C23.8340542,29.0124272 25.7440146,28.4228961 27.0756157,27.0977403 Z" id="path-3"></path>
    </defs>
    <g id="页面-1" stroke="none" stroke-width="1" fill="none" fill-rule="evenodd">
        <g id="accept">
            <mask id="mask-2" fill="white">
                <use xlink:href="#path-1"></use>
            </mask>
            <use id="backplane/round" fill="#00CB87" xlink:href="#path-1"></use>
            <g id="ic/phonecall/ic_phonecall" mask="url(#mask-2)">
                <g transform="translate(13.000000, 13.000000)">
                    <g id="symbol/frame/symbol_grid24" stroke="none" stroke-width="1" fill="none" fill-rule="evenodd"></g>
                    <mask id="mask-4" fill="white">
                        <use xlink:href="#path-3"></use>
                    </mask>
                    <use id="Stroke-1" stroke="none" fill="#FFFFFF" fill-rule="evenodd" xlink:href="#path-3"></use>
                </g>
            </g>
        </g>
    </g>
</svg>