<?xml version="1.0" encoding="UTF-8"?>
<svg width="120px" height="120px" viewBox="0 0 120 120" version="1.1" xmlns="http://www.w3.org/2000/svg" xmlns:xlink="http://www.w3.org/1999/xlink">
    <title>EmptyPage_NoContact</title>
    <g id="EmptyPage_NoContact" stroke="none" stroke-width="1" fill="none" fill-rule="evenodd">
        <g id="EmptyPage/12-NoContact" transform="translate(14.000000, 22.000000)" fill="#A1A7B3">
            <path d="M90,0 C91.1045695,-2.02906125e-16 92,0.8954305 92,2 L92,59 C92,60.1045695 91.1045695,61 90,61 L68.4885663,61.0003381 C68.3120629,60.4795596 68.1215773,60.0076272 67.9171094,59.5845411 C66.338455,56.3179807 60.5987809,46.5652174 45.8834323,46.5652174 C31.1680837,46.5652174 25.5015066,56.3179807 23.8497553,59.5845411 C23.6359131,60.0074427 23.4378788,60.4791479 23.2556524,60.9996567 L2,61 C0.8954305,61 1.3527075e-16,60.1045695 0,59 L0,2 C-1.3527075e-16,0.8954305 0.8954305,2.02906125e-16 2,0 L90,0 Z M46.9779624,21 C40.3285475,21 34.9381317,26.2460548 34.9381317,32.7173913 C34.9381317,39.1887278 40.3285475,44.4347826 46.9779624,44.4347826 C53.6273772,44.4347826 59.0177931,39.1887278 59.0177931,32.7173913 C59.0177931,26.2460548 53.6273772,21 46.9779624,21 Z M21,16 L7,16 C5.8954305,16 5,16.8954305 5,18 C5,19.0543618 5.81587779,19.9181651 6.85073766,19.9945143 L7,20 L21,20 C22.1045695,20 23,19.1045695 23,18 C23,16.8954305 22.1045695,16 21,16 Z M26,8 L7,8 C5.8954305,8 5,8.8954305 5,10 C5,11.0543618 5.81587779,11.9181651 6.85073766,11.9945143 L7,12 L26,12 C27.1045695,12 28,11.1045695 28,10 C28,8.8954305 27.1045695,8 26,8 Z" id="形状结合" fill-opacity="0.6" opacity="0.400000006"></path>
            <path d="M7,8 L26,8 C27.1045695,8 28,8.8954305 28,10 C28,11.1045695 27.1045695,12 26,12 L7,12 C5.8954305,12 5,11.1045695 5,10 C5,8.8954305 5.8954305,8 7,8 Z M7,16 L21,16 C22.1045695,16 23,16.8954305 23,18 C23,19.1045695 22.1045695,20 21,20 L7,20 C5.8954305,20 5,19.1045695 5,18 C5,16.8954305 5.8954305,16 7,16 Z" id="形状结合" fill-opacity="0.4"></path>
            <ellipse id="椭圆形" fill-opacity="0.2" cx="46" cy="75" rx="30" ry="2"></ellipse>
            <path d="M23.8965061,59.5845411 C25.5482574,56.3179807 31.2148345,46.5652174 45.9301831,46.5652174 C60.6455317,46.5652174 66.3852058,56.3179807 67.9638602,59.5845411 C68.8470998,61.4121454 69.4694328,64.1512098 69.8308592,67.8017343 C69.9402953,68.9008692 69.1380392,69.8806532 68.0389102,69.990149 C67.9739725,69.9966181 67.9087571,69.9999051 67.843498,70 L23.9992318,70 C22.8946624,69.9995316 21.9996115,69.1037216 22.0000798,67.9991522 C22.0001054,67.9385655 22.0028842,67.8780113 22.0083283,67.8176696 C22.3416327,64.1591799 22.9710253,61.4148038 23.8965061,59.5845411 Z M47.0247132,21 C40.3752983,21 34.9848825,26.2460548 34.9848825,32.7173913 C34.9848825,39.1887278 40.3752983,44.4347826 47.0247132,44.4347826 C53.6741281,44.4347826 59.0645439,39.1887278 59.0645439,32.7173913 C59.0645439,26.2460548 53.6741281,21 47.0247132,21 Z" id="形状结合" fill-opacity="0.8"></path>
            <path d="M79.9189333,36.2630359 C78.7183495,38.0413548 77.8356621,39.1100398 77.2708713,39.4690907 C75.6666606,40.4889254 74.2198624,40.7179282 73.2390575,40.7179282 C70.9909033,40.7179282 75.6243483,40.1906364 77.2708713,38.4045786 C78.3685533,37.2138734 79.6676638,35.4123472 81.1682028,33 L79.9189333,33 L78.5387205,34.6848299 C78.1074507,34.1538689 77.5497369,33.8883884 76.8655793,33.8883884 C75.8393429,33.8883884 73.1886267,34.3261075 72.173374,37.1458125 C71.4965389,39.0256159 70.1054143,40.6803724 68,42.110082 C71.0419706,43.61922 73.9971637,43.61922 76.8655793,42.110082 C79.733995,40.6009441 80.7517796,38.6519287 79.9189333,36.2630359 Z" id="路径-14" opacity="0.400000006"></path>
            <path d="M86.6216296,52.864592 C85.9546386,53.8807742 85.4642567,54.4914513 85.150484,54.6966232 C84.2592559,55.2793859 83.4554791,55.4102447 82.9105875,55.4102447 C81.661613,55.4102447 84.235749,55.1089351 85.150484,54.0883306 C85.7603074,53.4079277 86.4820354,52.3784841 87.3156682,51 L86.6216296,51 L85.8548447,51.9627599 C85.6152504,51.6593537 85.3054094,51.5076505 84.9253218,51.5076505 C84.3551905,51.5076505 82.8825704,51.7577757 82.3185411,53.3690357 C81.9425216,54.4432091 81.1696746,55.3887842 80,56.2057612 C81.6899837,57.0681257 83.3317576,57.0681257 84.9253218,56.2057612 C86.5188861,55.3433966 87.084322,54.2296736 86.6216296,52.864592 Z" id="路径-14备份" opacity="0.400000006" transform="translate(83.657834, 53.926267) rotate(-62.000000) translate(-83.657834, -53.926267) "></path>
            <path d="M12.9459555,67.3307399 C12.1455663,68.6009677 11.5571081,69.3643141 11.1805809,69.620779 C10.1111071,70.3492324 9.14657491,70.5128059 8.49270502,70.5128059 C6.99393554,70.5128059 10.0828988,70.1361689 11.1805809,68.8604133 C11.9123689,68.0099096 12.7784425,66.7231051 13.7788018,65 L12.9459555,65 L12.0258137,66.2034499 C11.7383004,65.8241921 11.3664913,65.6345631 10.9103862,65.6345631 C10.2262286,65.6345631 8.45908445,65.9472196 7.78224936,67.9612947 C7.33102596,69.3040114 6.40360951,70.4859803 5,71.5072015 C7.02798039,72.5851571 8.99810913,72.5851571 10.9103862,71.5072015 C12.8226633,70.4292458 13.5011864,69.037092 12.9459555,67.3307399 Z" id="路径-14备份-2" opacity="0.600000024" transform="translate(9.389401, 68.657834) rotate(80.000000) translate(-9.389401, -68.657834) "></path>
        </g>
    </g>
</svg>