<?xml version="1.0" encoding="UTF-8"?>
<svg width="24px" height="24px" viewBox="0 0 24 24" version="1.1" xmlns="http://www.w3.org/2000/svg" xmlns:xlink="http://www.w3.org/1999/xlink">
    <title>删除</title>
    <g id="删除" stroke="none" stroke-width="1" fill="none" fill-rule="evenodd">
        <path d="M20.0010108,5 C21.5986917,5 22.9046717,6.24891996 22.9959181,7.82372721 L23.0010728,7.99968102 L23.0010728,15.999681 C23.0010728,17.6564799 21.6579442,18.9996427 20.0011111,18.9996427 L19.9503161,18.997 L19.9511144,18.9996427 L7.9520168,18.9996427 L7.951,18.995 L7.79173968,18.9904055 C7.09372862,18.9428431 6.40917619,18.6522772 5.87560679,18.1187078 L1.87867966,14.1217806 C0.707106781,12.9502078 0.707106781,11.0507128 1.87867966,9.87913994 L5.87782954,5.87999006 C6.40528812,5.35253148 7.08029118,5.06254217 7.76998552,5.01002212 L7.97701513,5 L20.0010108,5 Z M17.2813409,8.71966991 C16.9884477,8.4267767 16.513574,8.4267767 16.2206808,8.71966991 L16.2206808,8.71966991 L14.0010108,10.939 L11.7813409,8.71966991 L11.6972225,8.64705176 L11.5951696,8.58339881 C11.3128758,8.43756482 10.9573621,8.48298853 10.7206808,8.71966991 C10.4277875,9.01256313 10.4277875,9.48743687 10.7206808,9.78033009 L10.7206808,9.78033009 L12.9400108,12 L10.7206808,14.2196699 L10.6480626,14.3037883 C10.4302081,14.5973998 10.4544142,15.0140635 10.7206808,15.2803301 C11.013574,15.5732233 11.4884477,15.5732233 11.7813409,15.2803301 L11.7813409,15.2803301 L14.0010108,13.061 L16.2206808,15.2803301 L16.3047992,15.3529482 C16.5984107,15.5708027 17.0150744,15.5465966 17.2813409,15.2803301 C17.5742341,14.9874369 17.5742341,14.5125631 17.2813409,14.2196699 L17.2813409,14.2196699 L15.0620108,12 L17.2813409,9.78033009 L17.3539591,9.69621165 C17.5718135,9.40260016 17.5476075,8.98593648 17.2813409,8.71966991 Z" id="形状结合" fill="#E5E5E5" opacity="0.38"></path>
    </g>
</svg>