<?xml version="1.0" encoding="UTF-8"?>
<svg width="24px" height="24px" viewBox="0 0 24 24" version="1.1" xmlns="http://www.w3.org/2000/svg" xmlns:xlink="http://www.w3.org/1999/xlink">
    <title>ic_contacts_DTMF</title>
    <g id="ic_contacts_DTMF" stroke="none" stroke-width="1" fill="none" fill-rule="evenodd">
        <rect id="矩形" x="0" y="0" width="24" height="24"></rect>
        <path d="M12,19.5 C12.96675,19.5 13.75,20.28325 13.75,21.25 C13.75,22.21625 12.96675,23 12,23 C11.03375,23 10.25,22.21625 10.25,21.25 C10.25,20.28325 11.03375,19.5 12,19.5 Z M6,13.5 C6.96675,13.5 7.75,14.28325 7.75,15.25 C7.75,16.21625 6.96675,17 6,17 C5.03375,17 4.25,16.21625 4.25,15.25 C4.25,14.28325 5.03375,13.5 6,13.5 Z M12,13.5 C12.96675,13.5 13.75,14.28325 13.75,15.25 C13.75,16.21625 12.96675,17 12,17 C11.03375,17 10.25,16.21625 10.25,15.25 C10.25,14.28325 11.03375,13.5 12,13.5 Z M18,13.5 C18.96675,13.5 19.75,14.28325 19.75,15.25 C19.75,16.21625 18.96675,17 18,17 C17.03375,17 16.25,16.21625 16.25,15.25 C16.25,14.28325 17.03375,13.5 18,13.5 Z M6,7.5 C6.96675,7.5 7.75,8.28325 7.75,9.25 C7.75,10.21625 6.96675,11 6,11 C5.03375,11 4.25,10.21625 4.25,9.25 C4.25,8.28325 5.03375,7.5 6,7.5 Z M12,7.5 C12.96675,7.5 13.75,8.28325 13.75,9.25 C13.75,10.21625 12.96675,11 12,11 C11.03375,11 10.25,10.21625 10.25,9.25 C10.25,8.28325 11.03375,7.5 12,7.5 Z M18,7.5 C18.96675,7.5 19.75,8.28325 19.75,9.25 C19.75,10.21625 18.96675,11 18,11 C17.03375,11 16.25,10.21625 16.25,9.25 C16.25,8.28325 17.03375,7.5 18,7.5 Z M6,1.5 C6.96675,1.5 7.75,2.28325 7.75,3.25 C7.75,4.21625 6.96675,5 6,5 C5.03375,5 4.25,4.21625 4.25,3.25 C4.25,2.28325 5.03375,1.5 6,1.5 Z M12,1.5 C12.96675,1.5 13.75,2.28325 13.75,3.25 C13.75,4.21625 12.96675,5 12,5 C11.03375,5 10.25,4.21625 10.25,3.25 C10.25,2.28325 11.03375,1.5 12,1.5 Z M18,1.5 C18.96675,1.5 19.75,2.28325 19.75,3.25 C19.75,4.21625 18.96675,5 18,5 C17.03375,5 16.25,4.21625 16.25,3.25 C16.25,2.28325 17.03375,1.5 18,1.5 Z" id="形状结合" fill="#FFFFFF"></path>
    </g>
</svg>