<svg width="288.000000" height="288.000000" viewBox="0 0 288 288" fill="none" xmlns="http://www.w3.org/2000/svg" xmlns:xlink="http://www.w3.org/1999/xlink">
	<desc>
			Created with Pixso.
	</desc>
	<defs>
		<clipPath id="clip449_161853">
			<rect id="#illustration_浅色模式插画" width="288.000000" height="288.000000" fill="white" fill-opacity="0"/>
		</clipPath>
	</defs>
	<g clip-path="url(#clip449_161853)">
		<rect id="矩形 424" width="288.000000" height="288.000000" fill="#C4C4C4" fill-opacity="0"/>
		<path id="形状结合" d="M176.66 36C183.07 36 185.4 36.66 187.75 37.92C190.1 39.17 191.94 41.02 193.19 43.36C194.45 45.71 195.12 48.04 195.12 54.46L195.12 233.54C195.12 239.95 194.45 242.28 193.19 244.63C191.94 246.98 190.1 248.82 187.75 250.07C185.4 251.33 183.07 252 176.66 252L111.34 252C104.92 252 102.59 251.33 100.24 250.07C97.9 248.82 96.05 246.98 94.8 244.63C93.54 242.28 92.87 239.95 92.87 233.54L92.87 54.46C92.87 48.04 93.54 45.71 94.8 43.36C96.05 41.02 97.9 39.17 100.24 37.92C102.59 36.66 104.92 36 111.34 36L176.66 36ZM176.21 40.32L111.78 40.32C106.03 40.33 103.92 40.94 101.79 42.08C99.64 43.23 97.95 44.92 96.8 47.07C95.65 49.22 95.04 51.35 95.04 57.24L95.04 229.01C95.05 234.76 95.66 236.87 96.8 239C97.95 241.15 99.64 242.84 101.79 243.99C103.94 245.14 106.07 245.76 111.96 245.76L176.03 245.76C181.92 245.76 184.05 245.14 186.2 243.99C188.35 242.84 190.04 241.15 191.19 239C192.34 236.85 192.96 234.72 192.96 228.83L192.96 57.24C192.96 51.35 192.34 49.22 191.19 47.07C190.04 44.92 188.35 43.23 186.2 42.08C184.05 40.93 181.92 40.32 176.03 40.32L176.21 40.32Z" fill="#505259" fill-opacity="1.000000" fill-rule="evenodd"/>
		<g opacity="0.100000">
			<path id="矩形" d="M111.96 40.32L176.03 40.32C181.92 40.32 184.05 40.93 186.2 42.08C188.35 43.23 190.04 44.92 191.19 47.07C192.34 49.22 192.96 51.35 192.96 57.24L192.96 228.83C192.96 234.72 192.34 236.85 191.19 239C190.04 241.15 188.35 242.84 186.2 243.99C184.05 245.14 181.92 245.76 176.03 245.76L111.96 245.76C106.07 245.76 103.94 245.14 101.79 243.99C99.64 242.84 97.95 241.15 96.8 239C95.65 236.85 95.04 234.72 95.04 228.83L95.04 57.24C95.04 51.35 95.65 49.22 96.8 47.07C97.95 44.92 99.64 43.23 101.79 42.08C103.94 40.93 106.07 40.32 111.96 40.32Z" fill="#FFFFFF" fill-opacity="1.000000" fill-rule="evenodd"/>
		</g>
		<rect id="矩形 870" x="101.000000" y="144.000000" rx="6.000000" width="86.000000" height="48.000000" fill="#596080" fill-opacity="0.100000"/>
		<path id="矩形 942" d="M183 213L105 213C102.79 213 101 214.79 101 217L101 219C101 221.2 102.79 223 105 223L183 223C185.2 223 187 221.2 187 219L187 217C187 214.79 185.2 213 183 213Z" fill="#0A59F7" fill-opacity="0.400000" fill-rule="evenodd"/>
		<rect id="矩形 870" x="108.000000" y="49.000000" rx="6.000000" width="72.000008" height="72.000008" fill="#F1F3F5" fill-opacity="1.000000"/>
		<circle id="椭圆 14" cx="144.000000" cy="70.599609" r="12.000000" fill="#596080" fill-opacity="0.100000"/>
		<path id="交集" d="M149.101 81.4651C147.553 82.1929 145.824 82.5999 144 82.5999C142.177 82.5999 140.448 82.1931 138.9 81.4653L138.9 73.9753C138.9 72.9397 139.74 72.1003 140.775 72.1003L147.226 72.1003C148.261 72.1003 149.101 72.9397 149.101 73.9753L149.101 81.4651ZM143.283 72.5671L144.718 72.5671C144.911 72.5671 145.067 72.7239 145.067 72.9172C145.067 73.1104 144.911 73.2671 144.718 73.2671L143.283 73.2671C143.09 73.2671 142.933 73.1104 142.933 72.9172C142.933 72.7239 143.09 72.5671 143.283 72.5671Z" clip-rule="evenodd" fill="#596080" fill-opacity="0.200000" fill-rule="evenodd"/>
		<path id="path" d="M140.77 68.97C140.7 69.07 140.67 69.17 140.69 69.28C140.71 69.39 140.76 69.48 140.85 69.56C140.95 69.63 141.07 69.66 141.19 69.65C141.32 69.64 141.42 69.59 141.5 69.5C141.8 69.15 142.16 68.87 142.59 68.67C143.02 68.48 143.48 68.38 143.96 68.38C144.44 68.38 144.9 68.48 145.33 68.67C145.76 68.87 146.12 69.15 146.42 69.5C146.49 69.58 146.59 69.63 146.72 69.64C146.85 69.65 146.96 69.63 147.05 69.56C147.14 69.48 147.19 69.38 147.2 69.26C147.22 69.15 147.19 69.04 147.11 68.94C146.72 68.49 146.25 68.14 145.7 67.89C145.14 67.64 144.57 67.52 143.96 67.52C143.35 67.52 142.76 67.64 142.2 67.89C141.64 68.14 141.15 68.51 140.77 68.97Z" fill="#64BB5C" fill-opacity="1.000000" fill-rule="nonzero"/>
		<path id="path" d="M148.82 67.9C148.91 67.83 148.97 67.73 148.99 67.62C149.01 67.5 148.99 67.4 148.93 67.31C148.31 66.59 147.54 66.01 146.68 65.62C145.82 65.22 144.91 65.03 143.96 65.03C142.99 65.03 142.08 65.22 141.22 65.62C140.36 66.01 139.63 66.56 139.03 67.28C138.95 67.37 138.92 67.47 138.94 67.6C138.95 67.72 139.01 67.82 139.1 67.9C139.21 67.97 139.31 67.99 139.43 67.98C139.55 67.96 139.65 67.91 139.73 67.82C140.24 67.21 140.87 66.74 141.61 66.41C142.35 66.08 143.13 65.91 143.96 65.91C144.79 65.91 145.57 66.08 146.31 66.41C147.05 66.74 147.68 67.21 148.19 67.82C148.26 67.92 148.36 67.98 148.49 67.99C148.6 68.01 148.72 67.97 148.82 67.9Z" fill="#64BB5C" fill-opacity="1.000000" fill-rule="nonzero"/>
		<path id="path" d="M136.93 65.85C137.02 65.93 137.13 65.97 137.26 65.97C137.38 65.97 137.48 65.93 137.58 65.85C138.44 65.05 139.41 64.43 140.5 64C141.59 63.57 142.73 63.35 143.93 63.35C145.15 63.35 146.31 63.57 147.42 64C148.52 64.44 149.49 65.07 150.34 65.9C150.42 65.98 150.53 66.01 150.66 66.01C150.79 66.01 150.9 65.98 150.99 65.9C151.07 65.81 151.11 65.7 151.11 65.58C151.11 65.47 151.07 65.37 150.99 65.28C150.05 64.39 148.96 63.7 147.74 63.22C146.52 62.74 145.25 62.5 143.93 62.5C142.62 62.5 141.36 62.73 140.15 63.21C138.94 63.68 137.87 64.35 136.93 65.24C136.84 65.32 136.8 65.42 136.8 65.54C136.8 65.66 136.84 65.76 136.93 65.85Z" fill="#64BB5C" fill-opacity="1.000000" fill-rule="nonzero"/>
		<path id="矩形 880" d="M131.8 101L156.2 101C156.75 101 157.2 101.44 157.2 102L157.2 104.8C157.2 105.35 156.75 105.8 156.2 105.8L131.8 105.8C131.24 105.8 130.8 105.35 130.8 104.8L130.8 102C130.8 101.44 131.24 101 131.8 101Z" fill="#596080" fill-opacity="0.100000" fill-rule="evenodd"/>
		<path id="矩形 939" d="M123 87L165 87C165.55 87 166 87.44 166 88L166 96C166 96.55 165.55 97 165 97L123 97C122.44 97 122 96.55 122 96L122 88C122 87.44 122.44 87 123 87Z" fill="#596080" fill-opacity="0.100000" fill-rule="evenodd"/>
		<rect id="矩形 870" x="101.000000" y="122.000000" rx="6.000000" width="86.000000" height="14.000000" fill="#596080" fill-opacity="0.100000"/>
		<path id="矩形 872" d="M125 127L168 127C169.1 127 170 127.89 170 129C170 130.1 169.1 131 168 131L125 131C123.89 131 123 130.1 123 129C123 127.89 123.89 127 125 127Z" fill="#596080" fill-opacity="0.200000" fill-rule="evenodd"/>
		<g opacity="0.000000"/>
		<path id="path" d="M111 127.67C110.76 127.67 110.53 127.73 110.33 127.85C110.13 127.97 109.97 128.13 109.85 128.33C109.73 128.53 109.67 128.75 109.67 129C109.67 129.24 109.73 129.46 109.85 129.66C109.97 129.86 110.13 130.02 110.33 130.14C110.53 130.26 110.76 130.32 111 130.32C111.24 130.32 111.46 130.26 111.66 130.14C111.86 130.02 112.02 129.86 112.14 129.66C112.26 129.46 112.32 129.24 112.32 129C112.32 128.75 112.26 128.53 112.14 128.33C112.02 128.13 111.86 127.97 111.66 127.85C111.46 127.73 111.24 127.67 111 127.67ZM113.86 128.74C113.82 128.28 113.68 127.87 113.44 127.48C113.2 127.1 112.89 126.79 112.51 126.55C112.12 126.31 111.7 126.17 111.24 126.13L111.24 125.65C111.24 125.58 111.22 125.52 111.17 125.47C111.12 125.42 111.06 125.4 111 125.4C110.93 125.4 110.87 125.42 110.82 125.47C110.77 125.52 110.74 125.58 110.74 125.65L110.74 126.13C110.28 126.17 109.86 126.31 109.48 126.55C109.09 126.79 108.78 127.1 108.54 127.48C108.29 127.87 108.15 128.29 108.12 128.75L107.64 128.75C107.57 128.75 107.52 128.77 107.47 128.82C107.42 128.87 107.4 128.93 107.4 129C107.4 129.06 107.42 129.12 107.47 129.17C107.52 129.23 107.57 129.25 107.64 129.25L108.12 129.25C108.15 129.71 108.29 130.13 108.54 130.52C108.78 130.9 109.09 131.21 109.48 131.45C109.87 131.69 110.29 131.83 110.75 131.87L110.75 132.34C110.75 132.41 110.77 132.47 110.82 132.52C110.87 132.57 110.93 132.6 111 132.6C111.06 132.6 111.12 132.57 111.18 132.52C111.23 132.47 111.25 132.41 111.25 132.34L111.25 131.87C111.71 131.83 112.12 131.69 112.51 131.45C112.89 131.2 113.2 130.89 113.44 130.51C113.68 130.12 113.82 129.7 113.86 129.24L114.34 129.24C114.41 129.24 114.47 129.22 114.52 129.17C114.57 129.12 114.6 129.06 114.6 129C114.6 128.93 114.57 128.87 114.52 128.82C114.47 128.76 114.41 128.74 114.34 128.74L113.86 128.74ZM111 131.38C110.56 131.38 110.17 131.27 109.8 131.06C109.43 130.85 109.15 130.56 108.93 130.19C108.72 129.83 108.61 129.43 108.61 129C108.61 128.56 108.72 128.17 108.93 127.8C109.15 127.44 109.43 127.15 109.8 126.94C110.17 126.73 110.56 126.62 111 126.62C111.43 126.62 111.82 126.73 112.19 126.94C112.55 127.15 112.84 127.44 113.05 127.81C113.27 128.17 113.37 128.57 113.37 129C113.37 129.44 113.27 129.83 113.05 130.2C112.84 130.56 112.55 130.85 112.19 131.06C111.82 131.27 111.43 131.38 111 131.38Z" fill="#0A59F7" fill-opacity="0.396552" fill-rule="nonzero"/>
	</g>
</svg>
