<svg width="80.000000" height="80.000000" viewBox="0 0 80 80" fill="none" xmlns="http://www.w3.org/2000/svg" xmlns:xlink="http://www.w3.org/1999/xlink">
	<desc>
			Created with Pixso.
	</desc>
	<defs>
		<clipPath id="clip449_161887">
			<rect id="#illustration_主页面 信息已送达" width="80.000000" height="80.000000" fill="white" fill-opacity="0"/>
		</clipPath>
	</defs>
	<rect id="#illustration_主页面 信息已送达" width="80.000000" height="80.000000" fill="#1A1A1A" fill-opacity="0"/>
	<g clip-path="url(#clip449_161887)">
		<circle id="椭圆 16" cx="40.000000" cy="40.000000" r="39.999996" fill="#1A1A1A" fill-opacity="1.000000"/>
		<path id="矢量 3" d="M19.99 20L55.99 20C58.2 20 59.99 21.79 59.99 24L59.99 37C51.71 37 45 43.71 45 52C45 53.38 45.18 54.72 45.53 55.99L19.99 55.99C17.78 55.99 15.99 54.2 15.99 52L15.99 24C15.99 21.79 17.78 20 19.99 20ZM22.48 24.87C21.89 24.35 21 24.37 20.43 24.93C19.85 25.52 19.85 26.47 20.43 27.06L32.69 39.31C35.63 42.11 40.41 42.2 43.3 39.31L55.56 27.06C56.07 26.47 56.12 25.5 55.56 24.93C54.97 24.35 54.02 24.35 53.43 24.93L41.18 37.19C39.41 38.85 36.54 38.92 34.81 37.19L22.48 24.87Z" fill="#D9DADF" fill-opacity="1.000000" fill-rule="evenodd"/>
		<circle id="椭圆 2" cx="60.000000" cy="52.000000" r="12.000000" fill="#5BA854" fill-opacity="1.000000"/>
		<path id="矢量 5" d="M60.22 55.78C59.99 56.01 59.73 56.19 59.44 56.32C59.26 56.39 59.07 56.44 58.89 56.47C58.77 56.49 58.65 56.5 58.54 56.5C58.37 56.5 58.21 56.48 58.05 56.45C57.91 56.42 57.75 56.37 57.62 56.31C57.46 56.25 57.32 56.16 57.18 56.06L53.85 52.64C53.75 52.54 53.67 52.43 53.61 52.31C53.53 52.15 53.5 51.97 53.5 51.77C53.5 51.58 53.53 51.41 53.6 51.26C53.66 51.13 53.74 51.01 53.85 50.9C53.96 50.78 54.09 50.69 54.23 50.62C54.37 50.56 54.53 50.53 54.71 50.53C54.89 50.53 55.06 50.57 55.21 50.64C55.35 50.7 55.47 50.79 55.58 50.9L58.54 53.96L64.42 47.87C64.66 47.62 64.94 47.5 65.29 47.5C65.45 47.5 65.6 47.52 65.74 47.58C65.89 47.64 66.03 47.74 66.15 47.87C66.24 48.03 66.5 48.53 66.5 48.74C66.5 48.93 66.46 49.11 66.38 49.27C66.33 49.39 66.25 49.5 66.15 49.6L60.22 55.78Z" fill="#D9DADF" fill-opacity="1.000000" fill-rule="evenodd"/>
	</g>
</svg>
