<svg width="80.000000" height="80.000000" viewBox="0 0 80 80" fill="none" xmlns="http://www.w3.org/2000/svg" xmlns:xlink="http://www.w3.org/1999/xlink">
	<desc>
			Created with Pixso.
	</desc>
	<defs>
		<clipPath id="clip449_161886">
			<rect id="#illustration_主页面 发送求救信息" width="80.000000" height="80.000000" fill="white" fill-opacity="0"/>
		</clipPath>
	</defs>
	<rect id="#illustration_主页面 发送求救信息" width="80.000000" height="80.000000" fill="#1A1A1A" fill-opacity="0"/>
	<g clip-path="url(#clip449_161886)">
		<circle id="椭圆 16" cx="40.000000" cy="40.000000" r="39.999996" fill="#1A1A1A" fill-opacity="1.000000"/>
		<path id="矢量 6" d="M57 76.21C51.84 78.64 46.07 80 40 80C33.92 80 28.15 78.64 23 76.21L23 50C23 47.23 25.23 45 28 45L52 45C54.76 45 57 47.23 57 50L57 76.21ZM42.39 46.55L37.6 46.55C36.96 46.55 36.44 47.07 36.44 47.72C36.44 48.36 36.96 48.89 37.6 48.89L42.39 48.89C43.03 48.89 43.55 48.36 43.55 47.72C43.55 47.07 43.03 46.55 42.39 46.55Z" fill="#D9DADF" fill-opacity="1.000000" fill-rule="evenodd"/>
		<path id="矢量 7" d="M16.91 24.47C16.75 24.4 16.59 24.31 16.44 24.19C16.14 23.89 16 23.54 16 23.15C16 22.75 16.14 22.41 16.44 22.13C17.82 20.83 19.29 19.66 20.85 18.62C22.82 17.32 24.92 16.24 27.17 15.36C28.89 14.69 30.65 14.16 32.44 13.77C34.83 13.25 37.27 12.99 39.77 12.99C42.33 12.99 44.83 13.26 47.27 13.8C49.04 14.2 50.78 14.73 52.48 15.41C54.86 16.34 57.07 17.51 59.13 18.91C60.61 19.91 62 21.03 63.32 22.27C63.59 22.57 63.72 22.91 63.72 23.29C63.72 23.69 63.59 24.03 63.32 24.33C63 24.59 62.63 24.72 62.21 24.72C61.78 24.72 61.43 24.59 61.16 24.33C59.75 22.97 58.25 21.77 56.63 20.72C55 19.65 53.25 18.76 51.39 18.02C50.38 17.62 49.35 17.28 48.3 16.99C45.56 16.23 42.72 15.85 39.77 15.85C36.97 15.85 34.25 16.21 31.63 16.91C30.52 17.21 29.42 17.57 28.34 18C26.8 18.61 25.33 19.34 23.92 20.18C22.02 21.32 20.25 22.65 18.6 24.19C18.29 24.45 17.93 24.58 17.53 24.58C17.31 24.58 17.11 24.54 16.91 24.47ZM56.07 31C56.39 30.77 56.58 30.46 56.65 30.08C56.72 29.68 56.65 29.33 56.44 29.03C54.39 26.65 51.82 24.7 48.96 23.39C47.6 22.78 46.21 22.31 44.78 21.98C43.19 21.61 41.56 21.43 39.88 21.43C37.87 21.43 35.93 21.69 34.06 22.2C32.94 22.5 31.83 22.9 30.76 23.39C29.12 24.14 27.61 25.06 26.26 26.16C25.23 26.99 24.29 27.91 23.43 28.93C23.19 29.23 23.09 29.59 23.13 30C23.19 30.4 23.37 30.74 23.69 31C24.03 31.23 24.39 31.32 24.78 31.26C25.17 31.22 25.51 31.05 25.78 30.75C26.49 29.91 27.26 29.15 28.09 28.47C29.28 27.5 30.59 26.7 32.04 26.05C32.98 25.62 33.94 25.28 34.93 25.01C36.52 24.59 38.17 24.37 39.88 24.37C41.59 24.37 43.24 24.59 44.83 25.01C45.82 25.28 46.78 25.62 47.72 26.05C49.16 26.7 50.48 27.5 51.67 28.47C52.5 29.15 53.27 29.91 53.98 30.75C54.22 31.08 54.55 31.27 54.96 31.32C55.36 31.36 55.73 31.25 56.07 31ZM28.98 35.62C28.93 35.25 29.02 34.9 29.26 34.57C30.51 33.06 32.14 31.81 34 30.98C34.89 30.58 35.8 30.28 36.73 30.07C37.76 29.84 38.81 29.73 39.88 29.73C40.92 29.73 41.94 29.84 42.94 30.06C43.87 30.27 44.78 30.58 45.67 30.98C47.52 31.81 49.09 32.98 50.39 34.49C50.63 34.82 50.73 35.17 50.69 35.56C50.66 35.95 50.49 36.28 50.18 36.53C49.88 36.77 49.51 36.86 49.09 36.82C48.66 36.77 48.33 36.61 48.08 36.35C47.65 35.83 47.17 35.36 46.65 34.95C45.98 34.41 45.25 33.96 44.45 33.59C43.88 33.33 43.29 33.12 42.69 32.97C41.79 32.73 40.85 32.61 39.88 32.61C38.91 32.61 37.97 32.73 37.07 32.97C36.47 33.12 35.88 33.33 35.31 33.59C34.51 33.96 33.78 34.41 33.11 34.95C32.59 35.36 32.11 35.83 31.68 36.35C31.41 36.64 31.06 36.8 30.65 36.84C30.24 36.87 29.86 36.77 29.52 36.53C29.22 36.28 29.04 35.97 28.98 35.62Z" fill="#5BA854" fill-opacity="1.000000" fill-rule="evenodd"/>
	</g>
</svg>
