<?xml version="1.0" encoding="UTF-8"?>
<svg width="120px" height="120px" viewBox="0 0 120 120" version="1.1" xmlns="http://www.w3.org/2000/svg" xmlns:xlink="http://www.w3.org/1999/xlink">
    <title>EmptyPage_09 InfoHelp</title>
    <g id="EmptyPage_09-InfoHelp" stroke="none" stroke-width="1" fill="none" fill-rule="evenodd">
        <rect id="矩形" x="0" y="0" width="120" height="120"></rect>
        <ellipse id="椭圆形" fill="#A1A7B3" opacity="0.15" cx="60.5444444" cy="101.346795" rx="34.3" ry="2.17777778"></ellipse>
        <path d="M105.702964,15.3245726 C106.969255,15.3245726 107.995787,16.3511049 107.995787,17.6173965 L107.995787,89.8200805 C107.995787,91.0863722 106.969255,92.1129044 105.702964,92.1129044 L13.2928239,92.1129044 C12.0265322,92.1129044 11,91.0863722 11,89.8200805 L11,17.6173965 C11,16.3511049 12.0265322,15.3245726 13.2928239,15.3245726 L15.715073,15.3245726 C15.715073,17.1846176 17.2229373,18.6924819 19.0829823,18.6924819 C20.9430272,18.6924819 22.4508916,17.1846176 22.4508916,15.3245726 L22.4508916,15.3245726 L25.8188009,15.3245726 C25.8188009,17.1846176 27.3266652,18.6924819 29.1867101,18.6924819 C31.0467551,18.6924819 32.5546194,17.1846176 32.5546194,15.3245726 L32.5546194,15.3245726 L35.9225287,15.3245726 C35.9225287,17.1846176 37.4303931,18.6924819 39.290438,18.6924819 C41.1504829,18.6924819 42.6583473,17.1846176 42.6583473,15.3245726 L42.6583473,15.3245726 L46.0262566,15.3245726 C46.0262566,17.1846176 47.5341209,18.6924819 49.3941659,18.6924819 C51.2542108,18.6924819 52.7620751,17.1846176 52.7620751,15.3245726 L52.7620751,15.3245726 L56.1299844,15.3245726 C56.1299844,17.1846176 57.6378488,18.6924819 59.4978937,18.6924819 C61.3579387,18.6924819 62.865803,17.1846176 62.865803,15.3245726 L62.865803,15.3245726 L66.2337123,15.3245726 C66.2337123,17.1846176 67.7415766,18.6924819 69.6016216,18.6924819 C71.4616665,18.6924819 72.9695309,17.1846176 72.9695309,15.3245726 L72.9695309,15.3245726 L76.3374402,15.3245726 C76.3374402,17.1846176 77.8453045,18.6924819 79.7053494,18.6924819 C81.5653944,18.6924819 83.0732587,17.1846176 83.0732587,15.3245726 L83.0732587,15.3245726 L86.441168,15.3245726 C86.441168,17.1846176 87.9490324,18.6924819 89.8090773,18.6924819 C91.6691222,18.6924819 93.1769866,17.1846176 93.1769866,15.3245726 L93.1769866,15.3245726 L96.5448959,15.3245726 C96.5448959,17.1846176 98.0527602,18.6924819 99.9128052,18.6924819 C101.77285,18.6924819 103.280714,17.1846176 103.280714,15.3245726 L103.280714,15.3245726 L105.702964,15.3245726 Z" id="形状结合" fill="#A1A7B3" opacity="0.300000012"></path>
        <path d="M42.9636286,74.5839402 C43.7076466,74.5839402 44.3107923,75.1870859 44.3107923,75.9311039 C44.3107923,76.6751218 43.7076466,77.2782676 42.9636286,77.2782676 L20.3531389,77.2782676 C19.6091209,77.2782676 19.0059752,76.6751218 19.0059752,75.9311039 C19.0059752,75.1870859 19.6091209,74.5839402 20.3531389,74.5839402 L42.9636286,74.5839402 Z M42.9636286,68.1849125 C43.7076466,68.1849125 44.3107923,68.7880582 44.3107923,69.5320762 C44.3107923,70.2760942 43.7076466,70.8792399 42.9636286,70.8792399 L20.3531389,70.8792399 C19.6091209,70.8792399 19.0059752,70.2760942 19.0059752,69.5320762 C19.0059752,68.7880582 19.6091209,68.1849125 20.3531389,68.1849125 L42.9636286,68.1849125 Z M42.9636286,61.7858849 C43.7076466,61.7858849 44.3107923,62.3890306 44.3107923,63.1330486 C44.3107923,63.8770666 43.7076466,64.4802123 42.9636286,64.4802123 L20.3531389,64.4802123 C19.6091209,64.4802123 19.0059752,63.8770666 19.0059752,63.1330486 C19.0059752,62.3890306 19.6091209,61.7858849 20.3531389,61.7858849 L42.9636286,61.7858849 Z" id="形状结合" fill="#A1A7B3" opacity="0.200000003"></path>
        <path d="M84.5695605,64.9027321 L88.4776064,68.8092905 C89.4588048,68.3267996 90.6784973,68.4936698 91.4947285,69.3099011 L102.189566,80.0047384 C103.215549,81.0307215 103.215549,82.6941688 102.189566,83.7201519 L101.500171,84.4095467 C100.474188,85.4355298 98.8107407,85.4355298 97.7847576,84.4095467 L87.0899203,73.7147094 C86.273689,72.8984781 86.1068188,71.6787856 86.5893097,70.6975873 L82.633148,66.7400457 C83.3178784,66.1700524 83.9647885,65.5561752 84.5695605,64.9027321 Z" id="形状结合" fill="#A1A7B3" opacity="0.800000012"></path>
        <path d="M69.5591318,30.5690171 C80.8522618,30.5690171 90.0071524,39.7239078 90.0071524,51.0170378 C90.0071524,62.3101677 80.8522618,71.4650584 69.5591318,71.4650584 C58.2660018,71.4650584 49.1111111,62.3101677 49.1111111,51.0170378 C49.1111111,39.7239078 58.2660018,30.5690171 69.5591318,30.5690171 Z M69.5591318,35.1130217 C60.7755862,35.1130217 53.6551157,42.2334922 53.6551157,51.0170378 C53.6551157,59.8005833 60.7755862,66.9210538 69.5591318,66.9210538 C78.3426773,66.9210538 85.4631479,59.8005833 85.4631479,51.0170378 C85.4631479,42.2334922 78.3426773,35.1130217 69.5591318,35.1130217 Z M71.729885,48.1534662 L71.729885,61.3285834 L67.7917477,61.3285834 L67.7917477,48.1534662 L71.729885,48.1534662 Z M69.7608164,41.2708598 C71.2802045,41.2708598 72.511912,42.5025672 72.511912,44.0219554 C72.511912,45.5413435 71.2802045,46.773051 69.7608164,46.773051 C68.2414282,46.773051 67.0097207,45.5413435 67.0097207,44.0219554 C67.0097207,42.5025672 68.2414282,41.2708598 69.7608164,41.2708598 Z" id="形状结合" fill="#A1A7B3" opacity="0.600000024"></path>
    </g>
</svg>