<?xml version="1.0" encoding="UTF-8"?>
<svg width="24px" height="24px" viewBox="0 0 24 24" version="1.1" xmlns="http://www.w3.org/2000/svg" xmlns:xlink="http://www.w3.org/1999/xlink">
    <title>ic_距震中距离</title>
    <g id="ic_距震中距离" stroke="none" stroke-width="1" fill="none" fill-rule="evenodd">
        <g id="编组">
<!--            <rect id="矩形" x="0" y="0" width="24" height="24"></rect>-->
            <path d="M12.1388889,2 C17.7384426,2 22.2777778,6.53933518 22.2777778,12.1388889 C22.2777778,17.7384426 17.7384426,22.2777778 12.1388889,22.2777778 C6.53933518,22.2777778 2,17.7384426 2,12.1388889 C2,6.53933518 6.53933518,2 12.1388889,2 Z M16.0958997,8.30885636 C15.9512776,7.94037558 15.5367272,7.75528358 15.1699754,7.89544181 L15.1699754,7.89544181 L6.95872359,11.0334621 C6.76127462,11.1089194 6.60871378,11.2687425 6.54244383,11.469558 C6.41935066,11.8425628 6.62317806,12.2484088 6.99770508,12.3760405 L6.99770508,12.3760405 L10.3315021,13.512135 C10.4023559,13.5362806 10.4581915,13.5921162 10.4823371,13.66297 L10.4823371,13.66297 L11.6184317,16.996767 C11.687145,17.198402 11.8416578,17.3600895 12.0400376,17.43795 C12.4085184,17.5825721 12.8208518,17.4025003 12.9610101,17.0357485 L12.9610101,17.0357485 L16.0990303,8.82449669 C16.1622726,8.65901081 16.1611561,8.4751224 16.0958997,8.30885636 Z" id="形状结合" fill="#000000"></path>
        </g>
    </g>
</svg>

