<?xml version="1.0" encoding="UTF-8"?>
<svg width="24px" height="24px" viewBox="0 0 24 24" version="1.1" xmlns="http://www.w3.org/2000/svg" xmlns:xlink="http://www.w3.org/1999/xlink">
    <title>ic_emergency_shelter</title>
    <g id="ic_emergency_shelter" stroke="none" stroke-width="1" fill="none" fill-rule="evenodd">
<!--        <g id="编组-2">-->
<!--            <rect id="矩形" x="0" y="0" width="24" height="24"></rect>-->
            <g id="编组-2" transform="translate(3.000000, 1.000000)" fill="none">
                <ellipse id="椭圆形" cx="12.1644978" cy="2.5017493" rx="2.49378919" ry="2.5017493"></ellipse>
                <path d="M5.86259377,7.96966418 L6.31315749,7.9319685 C6.53442075,7.91345687 6.72879669,8.07781954 6.74730832,8.29908279 C6.75408321,8.38006072 6.73615994,8.46119082 6.69590125,8.53177808 L5.60507569,10.4443687 C5.27095523,11.0301962 5.08957687,11.6906637 5.07763812,12.3649691 L5.0197339,15.6354216 C5.00745857,16.328737 4.63871338,16.966772 4.0441071,17.3235357 L1.25,19 C0.559644063,19.4142136 0.335786438,20.3096441 0.75,21 C1.15675087,21.6779181 2.0360488,21.8977426 2.71396691,21.4909917 C2.72140542,21.4865286 2.72880319,21.481998 2.73615933,21.4774004 L7.18308342,18.6980729 C7.38265868,18.5733383 7.51210992,18.3621564 7.53270658,18.1277108 L7.77384709,15.3828808 C7.80105137,15.0732227 8.07413228,14.8442486 8.38379038,14.8714529 C8.5045206,14.8820594 8.6186026,14.9313519 8.70906949,15.0119994 L10.9954844,17.0502449 C11.3245202,17.3435669 11.5598273,17.7273438 11.6720073,18.1536277 L12.3986287,20.9147891 C12.6014631,21.6855598 13.3312604,22.1971581 14.125,22.125 C14.8124749,22.0625023 15.3191191,21.4545293 15.2566213,20.7670544 C15.2528738,20.7258318 15.2470809,20.6848208 15.239264,20.644173 L14.4966903,16.7827894 C14.3382237,15.9587632 13.8714915,15.2261782 13.191618,14.7343419 L11.1818609,13.2804371 C10.5245544,12.8049264 10.3109817,11.9218259 10.6783569,11.1985018 L10.9046783,10.7528982 C11.0297262,10.5066918 11.3306873,10.4084733 11.5768938,10.5335212 C11.6648183,10.5781779 11.737574,10.6478375 11.7860096,10.7337381 L12.2363949,11.5324964 C12.4036942,11.8292016 12.6923798,12.0379066 13.0265756,12.1037566 L15.9042772,12.6707798 C16.5629872,12.8005722 17.2021947,12.3717998 17.3319871,11.7130898 C17.3333081,11.7063859 17.3345724,11.6996711 17.3357801,11.6929459 C17.4595294,11.0038421 17.0372647,10.3341139 16.362134,10.148705 L14.3576888,9.59823089 C14.1274436,9.5349994 13.9288208,9.38864318 13.8002253,9.18746094 L12.9146514,7.80201828 C12.5887041,7.29208748 12.1518363,6.86232503 11.6366297,6.54478255 L10.396995,5.78074609 C9.74448451,5.37857772 8.99060556,5.17132133 8.2242092,5.18340384 L5.0061102,5.23413832 C4.37717938,5.24405363 3.79441609,5.56628294 3.45161352,6.0936715 L1.47501988,9.1345848 C1.08408194,9.73602778 1.25473,10.5405115 1.85617298,10.9314494 C1.86486935,10.9371021 1.87363311,10.9426503 1.88246238,10.948093 C2.5161238,11.3387061 3.34492916,11.1619925 3.76415662,10.5468878 L5.29507803,8.30066841 C5.42471456,8.11046134 5.63321184,7.98885505 5.86259377,7.96966418 Z" id="路径"></path>
            </g>
<!--        </g>-->
    </g>
</svg>