<?xml version="1.0" encoding="UTF-8"?>
<svg width="24px" height="24px" viewBox="0 0 24 24" version="1.1" xmlns="http://www.w3.org/2000/svg" xmlns:xlink="http://www.w3.org/1999/xlink">
    <title>ic_震中经纬度</title>
    <defs>
        <path d="M14.6023813,17.1678308 C15.9785672,17.5768482 17.2628602,18.1993794 18.4169721,18.9980143 L18.2041362,18.8560728 C16.5104291,20.4863778 14.2832958,21.5664264 11.8103985,21.8085565 C12.9773863,20.4417704 13.9240581,18.8812287 14.5967991,17.1823614 L14.5967991,17.1823614 Z M6.8972911,17.1674159 C7.57012198,18.8713906 8.51843107,20.4364999 9.68715736,21.8081277 C7.21610576,21.5661362 4.98934332,20.4861587 3.29586384,18.8560728 C4.38807462,18.1282329 5.59224478,17.5580947 6.87674966,17.1740518 L6.87674966,17.1740518 Z M10.75,16.6101952 C11.7365943,16.6101952 12.6984701,16.7160278 13.6251262,16.9182082 C12.9381731,18.6168049 11.9588949,20.1658779 10.7503381,21.5030567 C9.54110513,20.1658779 8.56182687,18.6168049 7.87510608,16.9169594 C8.80152993,16.7160278 9.76340571,16.6101952 10.75,16.6101952 Z M0.0114318082,11.6104097 L5.75745358,11.6109495 C5.80533083,13.2171653 6.08276396,14.7657188 6.55967314,16.2248749 C5.05206608,16.6792198 3.64797312,17.3723827 2.39097379,18.2608003 L2.59826918,18.1184613 C1.08027659,16.3544064 0.125103559,14.0921619 0.0114318082,11.6104097 Z M21.4885682,11.6104097 C21.3748964,14.0921619 20.4197234,16.3544064 18.9017308,18.1184613 C17.6998167,17.2977334 16.3670836,16.6545522 14.9419288,16.2249283 C15.417236,14.7657188 15.6946692,13.2171653 15.7425464,11.6109495 L15.7425464,11.6109495 Z M14.742077,11.6105468 C14.6939314,13.1287083 14.4274697,14.5917813 13.9727219,15.9696128 C12.9362656,15.7343897 11.8576364,15.6101952 10.75,15.6101952 C9.64236362,15.6101952 8.56373441,15.7343897 7.52694965,15.9694073 C7.07253027,14.5917813 6.80606863,13.1287083 6.757923,11.6105468 L6.757923,11.6105468 Z M18.9000523,4.09997903 C20.4190701,5.86437572 21.3749185,8.12746532 21.4885796,10.6102299 L15.7425761,10.6104388 C15.6947841,9.00386655 15.4173345,7.45497382 14.9403269,5.99551551 C16.4476414,5.54125879 17.851482,4.84827672 19.1081667,3.95858642 Z M2.59805267,4.10375499 C3.80088712,4.92299666 5.13329275,5.56595165 6.55807118,5.99546214 C6.08266553,7.45497382 5.80521593,9.00386655 5.75742387,10.6104388 L5.75742387,10.6104388 L0.0114203979,10.6102299 C0.12087479,8.21935478 1.01132983,6.03219479 2.43361527,4.29792019 Z M13.9730504,6.2509831 C14.4275694,7.6289113 14.6940482,9.09232383 14.7421086,10.6108424 L14.7421086,10.6108424 L6.75789135,10.6108424 C6.80595177,9.09232383 7.07243061,7.6289113 7.5272781,6.25077759 C8.56373441,6.48600076 9.64236362,6.61019522 10.75,6.61019522 C11.8037012,6.61019522 12.8311513,6.49780133 13.8210159,6.28434814 L13.8210159,6.28434814 Z M10.750562,0.71832916 C11.9593808,2.05528128 12.9383436,3.60400697 13.6248939,5.30343101 C12.6984701,5.50436268 11.7365943,5.61019522 10.75,5.61019522 C9.76340571,5.61019522 8.80152993,5.50436268 7.87487381,5.30218221 C8.5306337,3.68071539 9.45277373,2.19550145 10.5870398,0.900794466 L10.5870398,0.900794466 Z M9.68821309,0.411497694 C8.51891498,1.78309297 7.57032307,3.34852913 6.89761871,5.05255963 C5.52143282,4.64354227 4.23713978,4.02101104 3.08302788,3.22237609 L3.29586384,3.36431764 C4.97273225,1.75022097 7.17247313,0.675493815 9.6159189,0.419303767 Z M11.8113952,0.411931539 C14.284383,0.654302124 16.511537,1.73465873 18.2051404,3.36528442 C17.1071497,4.09583066 15.8954659,4.66860434 14.6027089,5.05297455 C13.9749496,3.46314564 13.1073833,1.99420059 12.0447305,0.690498615 Z" id="path-1"></path>
    </defs>
    <g id="ic_震中经纬度" stroke="none" stroke-width="1" fill="none" fill-rule="evenodd">
        <g id="编组">
<!--            <rect id="矩形" x="0" y="0" width="24" height="24"></rect>-->
            <g id="public/ic_worldclock_filled" transform="translate(1.238578, 0.837987)">
                <mask id="mask-2" fill="white">
                    <use xlink:href="#path-1"></use>
                </mask>
                <use id="Combined-Shape" fill="#000000" fill-rule="nonzero" xlink:href="#path-1"></use>
            </g>
        </g>
    </g>
</svg>