<?xml version="1.0" encoding="UTF-8"?>
<svg width="24px" height="24px" viewBox="0 0 24 24" version="1.1" xmlns="http://www.w3.org/2000/svg" xmlns:xlink="http://www.w3.org/1999/xlink">
    <title>ic_紧急联系人</title>
    <defs>
        <path d="M14.0689655,4.96551724 C14.0689655,7.70792402 11.84592,9.93103448 9.10359333,9.93103448 C6.36097655,9.93103448 4.13793103,7.70792402 4.13793103,4.96551724 C4.13793103,2.22311046 6.36097655,0 9.10359333,0 C11.84592,0 14.0689655,2.22311046 14.0689655,4.96551724 Z M0,18.3103448 L0,16.5086207 C-3.07857569e-16,13.9947729 2.03787631,11.9568966 4.55172414,11.9568966 L13.4482759,11.9568966 C15.9621237,11.9568966 18,13.9947729 18,16.5086207 L18,18.3103448 C18,19.8291279 16.7687831,21.0603448 15.25,21.0603448 L2.75,21.0603448 C1.23121694,21.0603448 1.85997282e-16,19.8291279 0,18.3103448 Z" id="path-1"></path>
    </defs>
    <g id="ic_紧急联系人" stroke="none" stroke-width="1" fill="none" fill-rule="evenodd">
<!--        <g id="编组">-->
<!--            <rect id="矩形" x="0" y="0" width="24" height="24"></rect>-->
            <g id="Group" transform="translate(3.000000, 1.000000)">
                <mask id="mask-2" fill="white">
                    <use xlink:href="#path-1"></use>
                </mask>
                <use id="合并形状" fill="#000000" xlink:href="#path-1"></use>
            </g>
<!--        </g>-->
    </g>
</svg>