<?xml version="1.0" encoding="UTF-8"?>
<svg width="24px" height="24px" viewBox="0 0 24 24" version="1.1" xmlns="http://www.w3.org/2000/svg" xmlns:xlink="http://www.w3.org/1999/xlink">
    <title>井号</title>
    <g id="井号" stroke="none" stroke-width="1" fill="none" fill-rule="evenodd">
        <path d="M7.65007999,3.275 L10.10008,3.275 L10.098,7.65 L13.9,7.65 L13.9,3.275 L16.35,3.275 L16.35,7.65 L20.725,7.65 L20.725,10.1 L16.35,10.1 L16.35,13.9 L20.725,13.9 L20.725,16.35 L16.35,16.35 L16.35,20.725 L13.9,20.725 L13.9,16.35 L10.1,16.35 L10.1,20.725 L7.65,20.725 L7.65,16.35 L3.275,16.35 L3.275,13.9 L7.649,13.9 L7.649,10.1 L3.275,10.1 L3.275,7.65 L7.649,7.65 L7.65007999,3.275 Z M13.9,10.1 L10.099,10.1 L10.099,13.9 L13.9,13.9 L13.9,10.1 Z" id="形状结合" fill="#000000"></path>
    </g>
</svg>