<?xml version="1.0" encoding="UTF-8"?>
<svg width="280px" height="180px" viewBox="0 0 280 180" version="1.1" xmlns="http://www.w3.org/2000/svg" xmlns:xlink="http://www.w3.org/1999/xlink">
    <title>ic_位置信息开关未开启</title>
    <defs>
        <rect id="path-1" x="0" y="0" width="280" height="180"></rect>
        <rect id="path-3" x="0" y="0" width="280" height="180"></rect>
        <path d="M4.5,0.333916374 C6.41454402,0.333916374 7.96875,1.85874239 7.96875,3.74242351 C7.96875,4.47601244 7.7465437,5.19281731 7.33411073,5.91727701 C7.01571491,6.47655561 6.61772559,6.99526792 6.04828129,7.63854353 C5.83324295,7.88146268 5.54883846,8.15676759 5.19446034,8.46561865 L5.19446034,8.46561865 L5.09130488,8.55477563 C4.7640461,8.83534515 4.28286637,8.8440607 3.94101301,8.57309546 L3.94101301,8.57309546 L3.91434515,8.55086711 L3.79025993,8.44265007 C3.46423078,8.15672528 3.2265526,7.9350058 3.07304825,7.77261366 L3.07304825,7.77261366 L3.03782121,7.73477614 L2.9508529,7.63773359 C1.70285768,6.23398967 1.03125,5.0436795 1.03125,3.74242351 C1.03125,1.87253421 2.51546658,0.364328642 4.40004321,0.334344224 L4.40004321,0.334344224 Z M4.5,2.90625 C4.03400974,2.90625 3.65625,3.28400974 3.65625,3.75 C3.65625,4.21599026 4.03400974,4.59375 4.5,4.59375 C4.96599026,4.59375 5.34375,4.21599026 5.34375,3.75 C5.34375,3.28400974 4.96599026,2.90625 4.5,2.90625 Z" id="path-5"></path>
    </defs>
    <g id="ic_位置信息开关未开启" stroke="none" stroke-width="1" fill="none" fill-rule="evenodd">
        <g id="编组">
            <mask id="mask-2" fill="white">
                <use xlink:href="#path-1"></use>
            </mask>
            <g id="矩形"></g>
            <mask id="mask-4" fill="white">
                <use xlink:href="#path-3"></use>
            </mask>
            <g id="矩形备份-4"></g>
            <g mask="url(#mask-4)" id="Mockup/Phone/Default">
                <g transform="translate(1.000000, -12.000000)">
                    <g id="编组-8备份-2" transform="translate(92.155556, 35.750000)">
                        <path d="M83.1982208,7.4062582e-16 C89.5725798,-4.3032493e-16 91.8840764,0.66370312 94.2144468,1.90999883 C96.5448172,3.15629454 98.3737055,4.98518285 99.6200012,7.31555322 C100.866297,9.64592359 101.53,11.9574202 101.53,18.3317792 L101.53,196.168221 C101.53,202.54258 100.866297,204.854076 99.6200012,207.184447 C98.3737055,209.514817 96.5448172,211.343705 94.2144468,212.590001 C91.8840764,213.836297 89.5725798,214.5 83.1982208,214.5 L18.3317792,214.5 C11.9574202,214.5 9.64592359,213.836297 7.31555322,212.590001 C4.98518285,211.343705 3.15629454,209.514817 1.90999883,207.184447 C0.66370312,204.854076 8.13780036e-16,202.54258 -1.40058469e-15,196.168221 L4.93750547e-16,18.3317792 C-2.86883287e-16,11.9574202 0.66370312,9.64592359 1.90999883,7.31555322 C3.15629454,4.98518285 4.98518285,3.15629454 7.31555322,1.90999883 C9.64592359,0.66370312 11.9574202,-6.2346857e-16 18.3317792,1.07304246e-15 L83.1982208,7.4062582e-16 Z M82.5808691,4.29 L18.9491309,4.29 C13.1059685,4.29 10.9870966,4.89839453 8.85092378,6.04083226 C6.71475095,7.18327 5.03827,8.85975095 3.89583226,10.9959238 C2.75339453,13.1320966 2.145,15.2509685 2.145,21.0941309 L2.145,21.0941309 L2.145,191.499202 C2.145,197.342365 2.75339453,199.461237 3.89583226,201.59741 C5.03827,203.733582 6.71475095,205.410063 8.85092378,206.552501 C10.9870966,207.694939 13.1059685,208.303333 18.9491309,208.303333 L18.9491309,208.303333 L82.5808691,208.303333 C88.4240315,208.303333 90.5429034,207.694939 92.6790762,206.552501 C94.8152491,205.410063 96.49173,203.733582 97.6341677,201.59741 C98.7766055,199.461237 99.385,197.342365 99.385,191.499202 L99.385,191.499202 L99.385,21.0941309 C99.385,15.2509685 98.7766055,13.1320966 97.6341677,10.9959238 C96.49173,8.85975095 94.8152491,7.18327 92.6790762,6.04083226 C90.5429034,4.89839453 88.4240315,4.29 82.5808691,4.29 L82.5808691,4.29 Z" id="形状结合" fill="#505259"></path>
                        <path d="M18.9491309,4.29 L82.5808691,4.29 C88.4240315,4.29 90.5429034,4.89839453 92.6790762,6.04083226 C94.8152491,7.18327 96.49173,8.85975095 97.6341677,10.9959238 C98.7766055,13.1320966 99.385,15.2509685 99.385,21.0941309 L99.385,191.499202 C99.385,197.342365 98.7766055,199.461237 97.6341677,201.59741 C96.49173,203.733582 94.8152491,205.410063 92.6790762,206.552501 C90.5429034,207.694939 88.4240315,208.303333 82.5808691,208.303333 L18.9491309,208.303333 C13.1059685,208.303333 10.9870966,207.694939 8.85092378,206.552501 C6.71475095,205.410063 5.03827,203.733582 3.89583226,201.59741 C2.75339453,199.461237 2.145,197.342365 2.145,191.499202 L2.145,21.0941309 C2.145,15.2509685 2.75339453,13.1320966 3.89583226,10.9959238 C5.03827,8.85975095 6.71475095,7.18327 8.85092378,6.04083226 C10.9870966,4.89839453 13.1059685,4.29 18.9491309,4.29 Z" id="矩形" fill="#FFFFFF" opacity="0.1"></path>
                    </g>
                </g>
            </g>
            <rect id="蒙版" mask="url(#mask-4)" x="95" y="28" width="98" height="152"></rect>
            <rect id="矩形备份-3" fill="#E9EAEC" opacity="0.800000012" mask="url(#mask-4)" x="99" y="92" width="90" height="105" rx="5"></rect>
            <circle id="椭圆形" fill="#D4D6D9" opacity="0.400000006" mask="url(#mask-4)" cx="133.5" cy="107.5" r="7.5"></circle>
            <circle id="椭圆形备份-4" fill="#115BEC" mask="url(#mask-4)" cx="133.5" cy="130.5" r="7.5"></circle>
            <circle id="椭圆形备份-8" fill="#D4D6D9" opacity="0.400000006" mask="url(#mask-4)" cx="133.5" cy="153.5" r="7.5"></circle>
            <circle id="椭圆形备份-12" fill="#D4D6D9" opacity="0.400000006" mask="url(#mask-4)" cx="133.5" cy="176.5" r="7.5"></circle>
            <circle id="椭圆形备份" fill="#D4D6D9" opacity="0.400000006" mask="url(#mask-4)" cx="112.5" cy="107.5" r="7.5"></circle>
            <circle id="椭圆形备份-5" fill="#D4D6D9" opacity="0.400000006" mask="url(#mask-4)" cx="112.5" cy="130.5" r="7.5"></circle>
            <circle id="椭圆形备份-9" fill="#D4D6D9" opacity="0.400000006" mask="url(#mask-4)" cx="112.5" cy="153.5" r="7.5"></circle>
            <circle id="椭圆形备份-13" fill="#D4D6D9" opacity="0.400000006" mask="url(#mask-4)" cx="112.5" cy="176.5" r="7.5"></circle>
            <circle id="椭圆形备份-2" fill="#D4D6D9" opacity="0.400000006" mask="url(#mask-4)" cx="154.5" cy="107.5" r="7.5"></circle>
            <circle id="椭圆形备份-6" fill="#D4D6D9" opacity="0.400000006" mask="url(#mask-4)" cx="154.5" cy="130.5" r="7.5"></circle>
            <circle id="椭圆形备份-10" fill="#D4D6D9" opacity="0.400000006" mask="url(#mask-4)" cx="154.5" cy="153.5" r="7.5"></circle>
            <circle id="椭圆形备份-14" fill="#D4D6D9" opacity="0.400000006" mask="url(#mask-4)" cx="154.5" cy="176.5" r="7.5"></circle>
            <circle id="椭圆形备份-3" fill="#D4D6D9" opacity="0.400000006" mask="url(#mask-4)" cx="175.5" cy="107.5" r="7.5"></circle>
            <circle id="椭圆形备份-7" fill="#D4D6D9" opacity="0.400000006" mask="url(#mask-4)" cx="175.5" cy="130.5" r="7.5"></circle>
            <circle id="椭圆形备份-11" fill="#D4D6D9" opacity="0.400000006" mask="url(#mask-4)" cx="175.5" cy="153.5" r="7.5"></circle>
            <g mask="url(#mask-4)" id="Public/ic_public_gps_filled">
                <g transform="translate(129.000000, 126.000000)">
                    <mask id="mask-6" fill="white">
                        <use xlink:href="#path-5"></use>
                    </mask>
                    <g id="路径" fill-rule="nonzero"></g>
                    <g id="编组" mask="url(#mask-6)" fill="#FFFFFF">
                        <g id="Symbol/color-light/colorPrimary">
                            <rect id="color/#000000" x="0" y="0" width="9" height="9"></rect>
                        </g>
                    </g>
                </g>
            </g>
            <rect id="矩形" fill="#E9EAEC" opacity="0.800000012" mask="url(#mask-4)" x="99" y="48" width="43" height="40" rx="5"></rect>
            <rect id="矩形备份" fill="#E9EAEC" opacity="0.800000012" mask="url(#mask-4)" x="146" y="48" width="43" height="18" rx="5"></rect>
            <rect id="矩形备份-2" fill="#E9EAEC" opacity="0.800000012" mask="url(#mask-4)" x="146" y="70" width="43" height="18" rx="5"></rect>
            <rect id="矩形" fill="#E9EAEC" opacity="0.800000012" mask="url(#mask-4)" x="99" y="36" width="24" height="6" rx="3"></rect>
            <circle id="椭圆形备份-15" fill="#E9EAEC" opacity="0.800000012" mask="url(#mask-4)" cx="168" cy="39" r="5"></circle>
            <circle id="椭圆形备份-16" fill="#E9EAEC" opacity="0.800000012" mask="url(#mask-4)" cx="184" cy="39" r="5"></circle>
        </g>
    </g>
</svg>