<?xml version="1.0" encoding="UTF-8"?>
<svg width="288px" height="288px" viewBox="0 0 288 288" version="1.1" xmlns="http://www.w3.org/2000/svg" xmlns:xlink="http://www.w3.org/1999/xlink">
    <title>ic_地震预警详情地图</title>
    <defs>
        <path d="M27.2047939,45.9516379 C22.3843135,52.1624474 17.4003261,60.0369041 14.8068543,65.3079473 C-8.64405097,115.50969 -4.09898913,155.650065 27.4452574,183.26452 C40.1826473,193.980375 67.5424853,204.372195 93.6957913,199.850068 C109.4168,200.159497 142.50164,184.834286 162.388076,184.834286 C191.590662,183.149838 221.061315,196.686442 240.591378,189.204801 C261.392399,182.707947 281.217863,154.753061 270.819981,104.322741 C260.422099,53.8924218 199.187394,-3.33833925 118.856996,0.152125843 C90.463327,2.84225526 68.2180394,11.1012781 46.1365334,27.0121394 C39.3293017,31.9171001 34.5125557,36.7474067 27.2047939,45.9516379 Z" id="path-1"></path>
        <path d="M27.2047939,45.9516379 C22.3843135,52.1624474 17.4003261,60.0369041 14.8068543,65.3079473 C-8.64405097,115.50969 -4.09898913,155.650065 27.4452574,183.26452 C40.1826473,193.980375 67.5424853,204.372195 93.6957913,199.850068 C109.4168,200.159497 142.50164,184.834286 162.388076,184.834286 C191.590662,183.149838 221.061315,196.686442 240.591378,189.204801 C261.392399,182.707947 281.217863,154.753061 270.819981,104.322741 C260.422099,53.8924218 199.187394,-3.33833925 118.856996,0.152125843 C90.463327,2.84225526 68.2180394,11.1012781 46.1365334,27.0121394 C39.3293017,31.9171001 34.5125557,36.7474067 27.2047939,45.9516379 Z" id="path-3"></path>
    </defs>
    <g id="ic_地震预警详情地图" stroke="none" stroke-width="1" fill="none" fill-rule="evenodd">
        <g id="编组-3" transform="translate(7.000000, 43.000000)">
            <g id="编组-2">
                <mask id="mask-2" fill="white">
                    <use xlink:href="#path-1"></use>
                </mask>
                <use id="Path-100" fill="#FFFFFF" opacity="0.1" transform="translate(136.837113, 100.467982) rotate(-360.000000) translate(-136.837113, -100.467982) " xlink:href="#path-1"></use>
                <mask id="mask-4" fill="white">
                    <use xlink:href="#path-3"></use>
                </mask>
                <use id="Path-100" fill="#8FC6FF" opacity="0.2" transform="translate(136.837113, 100.467982) rotate(-360.000000) translate(-136.837113, -100.467982) " xlink:href="#path-3"></use>
                <path d="M102.959314,112.942393 C103.211836,115.719494 103.387928,117.572979 103.48759,118.502847 C103.604633,119.594883 103.625237,119.68779 103.680965,120.250229 C103.736466,120.837408 103.930532,122.380811 103.989829,123 C104.017159,123.285394 106.041502,140.992038 107.097209,150.5 C107.801014,156.838641 108.517762,163.192148 109.247452,169.560521 L187.25,173 L187.25,165.178848 C187.25,161.31277 184.719556,157.902281 181.019504,156.781491 C177.25736,155.641893 174.569677,152.324432 174.235384,148.407717 L174.030493,146.007133 C173.590102,140.847327 169.552114,136.72476 164.402543,136.177521 L150.441641,134.693909 C145.88386,134.209077 141.547018,132.48074 137.905745,129.696937 C133.655795,126.448447 129.644591,123.885933 125.872132,122.009396 C120.593912,119.383846 112.956306,116.361512 102.959314,112.942393 Z M103.898937,-20.7056351 C105.774695,-0.367841557 111.235027,11.3184459 120.279935,14.3532273 C129.324843,17.3880087 139.578188,24.4383721 151.039968,35.5043176 C152.644645,31.8528657 153.726302,29.2096537 154.284941,27.5746815 C157.533659,18.3328269 158.884423,10.475055 160.479019,3.80419454 C163.068199,-8.78942338 159.798675,-21.6288436 154.857751,-32.8979137 C146.171716,-52.708687 129.185445,-48.6445941 103.898937,-20.7056351 Z" id="路径-6" fill="#A3D2FF" opacity="0.6" mask="url(#mask-4)"></path>
                <path d="M37.5,33.5 L45,25.25 C69.1274274,53.5310456 84.9005687,71.6120651 92.319424,79.4930585 C97.836684,77.3102768 101.813665,75.7297892 104.25,74.75 C112.120551,71.4610141 120.120551,66.8776808 128.25,61 C125.007394,58.0689482 121.705771,55.0421522 118.404897,52.0246957 L116.990457,50.7323782 C105.442414,40.1881257 94.0081252,29.9421782 85.25,24.5 C82.3312174,22.7605363 76.7589192,20.7328263 70.5,21.5 C62.8288976,22.1665151 54.3865398,26.1915458 49.5596277,29.7674638 L49.2537755,29.9965406 C49.1773109,29.8762574 47.815389,28.3310904 46.5,26.75 C55.3219191,20.8470827 62.1141511,16.4004685 70.5,15.75 C77.063669,15.1076017 85.0627869,17.3136877 91,20.75 C92.9545876,21.8557827 107.518808,34.2075228 133.5,58.25 C140.180875,53.4260169 146.429416,47.6188933 153.11396,30.9652616 C157.878782,19.6072539 160,4.53941543 161.25,1.75 L165,2.75 C165.731951,2.28968883 164.423313,10.2829075 162.415133,18.3775009 L162.241321,19.0713767 C162.065859,19.7651111 161.885538,20.4578371 161.701205,21.144295 L161.515564,21.8284687 C161.266344,22.737395 161.010488,23.6320613 160.75,24.5 C158.7768,31.503225 156.981143,35.8779941 156,37.75 C156.003428,37.9535043 160.029063,39.8681694 167.25,42.25 C169.736421,42.9485384 177.756333,45.4337479 191.75,48 C196.061642,48.7417131 203.811642,49.8250465 215,51.25 C214.985375,47.2778818 214.976692,43.5991241 214.97395,40.213727 L214.973106,38.6720663 C214.972965,38.1651229 214.972965,37.6651229 214.973106,37.1720663 L214.97395,35.713727 C214.976692,32.5991241 214.985375,29.7778818 215,27.25 L220.75,27.25 L220.75,51.25 C235.340792,51.4651031 243.829333,52.1641941 246.25,53.25 C248.508997,54.3590743 250.609254,55.8446427 252.5,57.75 L248.25,57.25 C196.163562,55.2520465 170.549578,50.7999782 153.998783,43.230338 L153.500009,42.999 C153.401408,43.2439029 149.55189,51.6145592 137.439304,61.7946695 L137.239106,61.7156945 C152.518165,67.9121588 167.614583,72.5069273 182.528359,75.5 C194.053399,77.4656093 206.441542,78.5066255 215.75,79.324009 L215.749063,79.2945275 C215.730856,78.7096994 215.495024,70.7793165 215.04141,55.5 L221.274629,55.9602829 L221.274629,80.3540971 C236.631644,79.5618262 247.376015,81.9198371 253.507743,87.42813 C253.471814,87.4787096 256.322221,83.3182984 262.058966,74.9468964 L265.330651,78.000216 L256.482648,90.08173 C262.381316,98.19391 265.330651,105.401476 265.330651,111.704428 L265.700871,111.704451 C267.267814,111.707644 269.867524,111.748088 273.5,111.825782 L274.5,117.352579 L265.689135,116.948663 C265.178631,121.786426 264.599689,125.372844 263.952309,127.707918 C261.83541,135.343494 257.937343,141.120526 255.854457,143.755787 L276.5,155.5 L272.272944,162.715193 L230.82877,138.048057 C218.702097,134.085396 207.360359,130.359589 196.803556,126.870638 C197.15893,131.394042 197.279954,138.451452 197.287611,145.734015 L197.287238,147.552966 C197.286951,147.755295 197.286584,147.957651 197.28614,148.159982 L197.282572,149.373298 L197.280132,149.979008 L197.280132,149.979008 L197.274016,151.187061 C197.212968,161.833173 196.970584,171.724143 196.918011,173.555078 C196.973725,173.560927 197.046692,173.567934 197.136913,173.576098 L197.340358,173.593971 C200.925804,173.901383 221.812352,175.369529 260,177.998411 C256.079497,181.437217 254.077257,183.242928 253.993282,183.415544 L253.992,183.42 L253.85337,183.419958 C248.227767,183.389426 229.488222,181.862847 197.634737,178.840222 L196.655534,178.747225 L196.655534,189.37851 L191.750224,188.582513 C191.765961,186.118248 191.775237,184.065308 191.778051,182.423693 L191.778033,180.505263 C191.775193,179.223557 191.76589,178.353176 191.750126,177.894121 C190.85833,177.234555 164.121751,176.247271 111.540388,174.932267 L109.939103,174.892318 L67.5160502,200.25 L60,198.607197 C87.1194346,183.619427 101.439951,174.562879 102.961549,171.437555 C104.25,168.791108 99.6885813,154.974516 98.9760553,135.641357 C98.7689448,130.021773 98.9452217,121.032683 96.2516403,114.563664 C94.4958242,110.346821 90.391773,104.704826 83.9394866,97.6376776 L83.6010091,97.269 L9.98400907,170.986982 L11.0631094,160.918793 L85.0151668,83.7481838 L85.0151668,83.7481838 L84.2428613,82.9754032 C75.8168777,74.5168071 60.235924,58.025006 37.5,33.5 Z M91.1911467,89.4351066 L91.3097559,89.5518803 L86.4660091,94.4 L87.9276036,93.0477829 C96.1025931,102.100668 101.043392,108.751488 102.75,113.000244 C105.080771,134.228712 107.216184,153.07402 109.156239,169.536167 C164.221275,172.192724 191.75257,173.516588 191.750126,173.507759 C192.030602,173.107216 191.642849,162.022343 191.367148,150.487621 L191.334002,149.073654 C191.091817,138.524147 190.969591,127.947869 191.561215,125.134519 C130.334625,104.856209 96.8783346,92.9559835 91.1911467,89.4351066 Z M221.283493,84.5164444 L221.21,84.516 L222.961063,127.346402 C226.243281,128.459536 229.589593,129.594068 233,130.75 L252.757009,141.991 L253.006975,141.483075 C256.043952,135.297062 258.025794,130.886037 258.9525,128.25 C260.469951,123.933576 261.94253,120.037377 261.80896,116.121156 C261.709017,116.173562 248.608395,115.525154 222.507092,114.175932 L222.303741,110.297969 L260.90348,111.704428 C260.116273,104.415293 257.013561,98.1949175 251.595346,93.0433024 C250.311765,92.0974335 248.041922,86.0875857 229.446677,84.5164444 C229.533705,84.5360028 229.044561,84.5468686 227.979243,84.5490417 L227.072223,84.5490417 C225.718819,84.5468686 223.789243,84.5360028 221.283493,84.5164444 Z M169.660969,77.5938299 C168.736356,78.8490496 161.888982,86.907631 149.119757,101.768265 L148.817914,102.116191 C166.769476,108.257105 189.376589,115.952372 216.639253,125.201991 L215.75,84.5 L218.237,84.499 L217.644432,84.4574854 C202.44748,83.375894 191.342409,82.2570007 184.329217,81.1008057 C179.321768,80.2752775 174.432352,79.1062856 169.660969,77.5938299 Z M132.75,65.5 C127.200168,69.6707809 115.843449,76.0644722 98.6798402,84.6810739 C103.559589,86.5274795 118.490621,91.7291117 143.472747,100.286511 L163.724022,75.511205 C163.691733,75.4987634 163.659449,75.4863054 163.62717,75.473831 L132.75,65.6553115 L134.026959,64.5349874 C133.609499,64.8555429 133.183889,65.1772746 132.75,65.5 Z" id="形状结合" stroke="#FFFFFE" stroke-width="0.5" fill="#FFFFFF" opacity="0.6" mask="url(#mask-4)"></path>
                <path d="M201.75,158.961238 L202.28033,162.739743 C210.574805,162.145634 214.905202,161.84858 215.271519,161.84858 C215.820996,161.84858 222.939217,161.84858 228.037033,162.739743 C227.890732,162.779977 246.228577,166.317665 246.132415,166.249014 C246.366218,166.106785 246.655413,165.079514 247,163.1672 C240.222845,161.512916 233.962528,160.110929 228.219048,158.961238 C228.136737,159.007975 219.565446,157.871116 212.781654,158.38253 C212.785174,158.432547 209.107956,158.62545 201.75,158.961238 Z" id="路径-45" fill="#FFFFFF" opacity="0.6" mask="url(#mask-4)"></path>
                <path d="M220.818706,29.6766907 L220.75,51.2142198 C235.930256,51.5683856 244.606818,52.2918427 246.779686,53.3845911 C246.877124,53.4076252 245.499209,44.8627615 242.645942,27.75 L220.818706,29.6766907 Z" id="路径-50" fill="#41BA41" opacity="0.215494792" mask="url(#mask-4)"></path>
                <path d="M165.79853,1.73111283 C164.176932,11.0780161 162.577458,18.4910751 161.000109,23.97029 C159.42276,29.4495049 157.807315,34.0730072 156.153775,37.8407969 C162.975142,41.1759701 171.981139,43.9393104 183.171767,46.1308178 C194.362394,48.3223252 204.91395,50.007886 214.826434,51.1875 L214.826434,15.01952 L165.79853,1.73111283 Z" id="路径-4" fill="#41BA41" opacity="0.218726749" mask="url(#mask-4)"></path>
            </g>
            <g id="编组" transform="translate(168.250000, 68.000000)">
                <circle id="Oval" fill-opacity="0.654692963" fill="#FF4D4F" opacity="0.25" cx="40.875" cy="40.875" r="40.875"></circle>
                <circle id="Oval" stroke-opacity="0.8" stroke="#FF2527" stroke-width="6" fill-opacity="0.3" fill="#FF0004" opacity="0.5" cx="41" cy="40.75" r="16.5"></circle>
                <circle id="Oval" fill="#FF191C" cx="41.125" cy="40.625" r="6.625"></circle>
            </g>
            <path d="M57.7154952,25.1727959 L65.7721433,35.690909 L58.4349151,41.1944744 L78.3389271,64.012828 L87.5114127,57.722104 L101.872555,67.2710642 C102.587907,67.7467134 103.511672,67.7735231 104.253405,67.3401617 L120.553524,57.8167363 C120.946835,57.5869423 121.079392,57.0818162 120.849598,56.6885053 C120.812727,56.6253974 120.767631,56.5674705 120.715495,56.5162462 C120.715495,56.5162462 120.715495,56.5162462 120.715495,56.5162462 C102.55627,38.6745674 91.0815109,28.9743598 87.809012,26.4955842 C86.5365579,25.5317555 82.5588202,22.6655816 78.3389271,21.8656997 C71.9025482,20.6456824 65.0280709,21.7480478 57.7154952,25.1727959 Z" id="路径-47" fill="#41BA41" opacity="0.218726749"></path>
        </g>
    </g>
</svg>