<?xml version="1.0" encoding="UTF-8"?>
<svg width="24px" height="24px" viewBox="0 0 24 24" version="1.1" xmlns="http://www.w3.org/2000/svg" xmlns:xlink="http://www.w3.org/1999/xlink">
    <title>ic_个人紧急信息</title>
    <g id="ic_个人紧急信息" stroke="none" stroke-width="1" fill="none" fill-rule="evenodd">
        <g id="编组">
            <rect id="矩形" x="0" y="0" width="24" height="24"></rect>
            <path d="M19.6553945,2 C20.9502844,2 22,3.04971563 22,4.34460548 L22,19.6553945 C22,20.9502844 20.9502844,22 19.6553945,22 L4.34460548,22 C3.04971563,22 2,20.9502844 2,19.6553945 L2,4.34460548 C2,3.04971563 3.04971563,2 4.34460548,2 L19.6553945,2 Z M13.1221237,6 L11.1926146,6 C10.822646,6 10.5227273,6.29991875 10.5227273,6.66988728 L10.5227273,6.66988728 L10.522,10.45 L6.91988728,10.4507576 C6.54991875,10.4507576 6.25,10.7506763 6.25,11.1206449 L6.25,11.1206449 L6.25,12.9854158 C6.25,13.3553843 6.54991875,13.655303 6.91988728,13.655303 L6.91988728,13.655303 L10.522,13.655 L10.5227273,17.0801127 C10.5227273,17.4500812 10.822646,17.75 11.1926146,17.75 L11.1926146,17.75 L13.1221237,17.75 C13.4920923,17.75 13.792011,17.4500812 13.792011,17.0801127 L13.792011,17.0801127 L13.792,13.655 L17.3301127,13.655303 C17.7000812,13.655303 18,13.3553843 18,12.9854158 L18,12.9854158 L18,11.1206449 C18,10.7506763 17.7000812,10.4507576 17.3301127,10.4507576 L17.3301127,10.4507576 L13.792,10.45 L13.792011,6.66988728 C13.792011,6.29991875 13.4920923,6 13.1221237,6 L13.1221237,6 Z" id="形状结合" fill="#000000"></path>
        </g>
    </g>
</svg>