<?xml version="1.0" encoding="UTF-8"?>
<svg width="24px" height="24px" viewBox="0 0 24 24" version="1.1" xmlns="http://www.w3.org/2000/svg" xmlns:xlink="http://www.w3.org/1999/xlink">
    <title>ic_发震时刻</title>
    <g id="ic_发震时刻" stroke="none" stroke-width="1" fill="none" fill-rule="evenodd">
        <g id="编组">
<!--            <rect id="矩形" x="0" y="0" width="24" height="24"></rect>-->
            <path d="M11.75,3.5 C17.1347763,3.5 21.5,7.86522369 21.5,13.25 C21.5,18.6347763 17.1347763,23 11.75,23 C6.36522369,23 2,18.6347763 2,13.25 C2,7.86522369 6.36522369,3.5 11.75,3.5 Z M11.75,6.5 C11.3703042,6.5 11.056509,6.78215388 11.0068466,7.14822944 L11,7.25 L11,12.75 C11,12.9373709 11.0687098,13.1086938 11.1823077,13.2401469 L11.2556625,13.3140438 L11.2803301,13.3409903 L15.1694174,17.2300776 C15.4623106,17.5229708 15.9371843,17.5229708 16.2300776,17.2300776 C16.4963441,16.963811 16.5205502,16.5471473 16.3026957,16.2535358 L16.2300776,16.1694174 L12.5,12.44 L12.5,7.25 C12.5,6.83578644 12.1642136,6.5 11.75,6.5 Z M19.7914178,3.61815889 C20.0992385,3.89532186 20.1240915,4.36954479 19.8469285,4.67736546 L19.1499494,5.45232462 C18.7868317,5.10761582 18.3996584,4.78800335 17.9912082,4.49626593 L18.7322112,3.67366955 C19.0093742,3.36584889 19.4835971,3.34099591 19.7914178,3.61815889 Z M14.25,1 C14.6642136,1 15,1.33578644 15,1.75 C15,2.16421356 14.6642136,2.5 14.25,2.5 L9.25,2.5 C8.83578644,2.5 8.5,2.16421356 8.5,1.75 C8.5,1.33578644 8.83578644,1 9.25,1 L14.25,1 Z" id="形状结合" fill="#000000"></path>
        </g>
    </g>
</svg>