<?xml version="1.0" encoding="UTF-8"?>
<svg width="24px" height="24px" viewBox="0 0 24 24" version="1.1" xmlns="http://www.w3.org/2000/svg" xmlns:xlink="http://www.w3.org/1999/xlink">
    <title>ic_警示</title>
    <g id="ic_警示" stroke="none" stroke-width="1" fill="none" fill-rule="evenodd">
        <g id="警示⚠️">
            <g id="编组" transform="translate(1.227589, 2.363278)" fill="#E84026">
                <path d="M12.118056,0.372845102 C12.4679143,0.578450405 12.75737,0.872675784 12.9572304,1.22584745 L21.2651792,15.9067576 C21.8928828,17.0159676 21.5025447,18.4240142 20.3933347,19.0517178 C20.0466619,19.2479005 19.6551105,19.3510077 19.2567768,19.3510077 L2.32112735,19.3510077 C1.04662409,19.3510077 0.0134350473,18.3178187 0.0134350473,17.0433154 C0.0134350473,16.6321927 0.123265472,16.228534 0.331567139,15.8740875 L8.95926782,1.1931774 C9.60501457,0.0943736293 11.0192522,-0.272901649 12.118056,0.372845102 Z M10.8353036,13.636722 C10.1753407,13.636722 9.64033503,14.176823 9.64033503,14.8430712 C9.64033503,15.5093195 10.1753407,16.0494204 10.8353036,16.0494204 C11.4952665,16.0494204 12.0302721,15.5093195 12.0302721,14.8430712 C12.0302721,14.176823 11.4952665,13.636722 10.8353036,13.636722 Z M10.8353036,5.17957918 C10.1753407,5.17957918 9.64033503,5.71458482 9.64033503,6.37454773 L9.64033503,6.37454773 L9.64033503,11.2227059 C9.64033503,11.8826688 10.1753407,12.4176744 10.8353036,12.4176744 C11.4952665,12.4176744 12.0302721,11.8826688 12.0302721,11.2227059 L12.0302721,11.2227059 L12.0302721,6.37454773 C12.0302721,5.71458482 11.4952665,5.17957918 10.8353036,5.17957918 Z" id="形状结合"></path>
            </g>
            <rect id="矩形" x="0" y="0" width="24" height="24"></rect>
        </g>
    </g>
</svg>