<svg width="24.000000" height="24.000000" viewBox="0 0 24 24" fill="none" xmlns="http://www.w3.org/2000/svg" xmlns:xlink="http://www.w3.org/1999/xlink">
	<desc>
			Created with Pixso.
	</desc>
	<defs>
		<clipPath id="clip449_104711">
			<rect id="#illustration_霸屏弹窗 救援队发来救援信息" width="24.000004" height="24.000004" fill="white" fill-opacity="0"/>
		</clipPath>
	</defs>
	<rect id="#illustration_霸屏弹窗 救援队发来救援信息" width="24.000004" height="24.000004" fill="#1A1A1A" fill-opacity="0"/>
	<g clip-path="url(#clip449_104711)">
		<rect id="矩形 1090" rx="12.000000" width="24.000000" height="24.000000" fill="#000000" fill-opacity="1.000000"/>
		<path id="矢量 6" d="M17.1 22.86C15.55 23.59 13.82 24 12 24C10.17 24 8.44 23.59 6.89 22.86L6.89 15C6.89 14.17 7.57 13.5 8.39 13.5L15.6 13.5C16.42 13.5 17.1 14.17 17.1 15L17.1 22.86ZM12.71 13.96L11.28 13.96C11.08 13.96 10.93 14.12 10.93 14.31C10.93 14.51 11.08 14.66 11.28 14.66L12.71 14.66C12.91 14.66 13.06 14.51 13.06 14.31C13.06 14.12 12.91 13.96 12.71 13.96Z" fill="#FFFFFF" fill-opacity="1.000000" fill-rule="evenodd"/>
		<path id="矢量 8" d="M5.07 7.34C5.02 7.32 4.97 7.29 4.93 7.25C4.84 7.16 4.79 7.06 4.79 6.94C4.79 6.82 4.84 6.72 4.93 6.63C5.34 6.24 5.78 5.89 6.25 5.58C6.84 5.19 7.47 4.87 8.15 4.61C8.66 4.4 9.19 4.24 9.73 4.13C10.45 3.97 11.18 3.89 11.93 3.89C12.7 3.89 13.45 3.98 14.18 4.14C14.71 4.26 15.23 4.42 15.74 4.62C16.45 4.9 17.12 5.25 17.74 5.67C18.18 5.97 18.6 6.31 18.99 6.68C19.07 6.77 19.11 6.87 19.11 6.98C19.11 7.1 19.07 7.21 18.99 7.3C18.9 7.37 18.79 7.41 18.66 7.41C18.53 7.41 18.42 7.37 18.34 7.3C17.92 6.89 17.47 6.53 16.99 6.21C16.5 5.89 15.97 5.62 15.41 5.4C15.11 5.28 14.8 5.18 14.49 5.09C13.67 4.87 12.81 4.75 11.93 4.75C11.09 4.75 10.27 4.86 9.49 5.07C9.15 5.16 8.82 5.27 8.5 5.4C8.04 5.58 7.59 5.8 7.17 6.05C6.6 6.39 6.07 6.79 5.58 7.25C5.48 7.33 5.38 7.37 5.26 7.37C5.19 7.37 5.13 7.36 5.07 7.34ZM16.82 9.3C16.91 9.23 16.97 9.13 16.99 9.02C17.01 8.9 16.99 8.8 16.93 8.71C16.31 7.99 15.54 7.41 14.68 7.02C14.28 6.83 13.86 6.69 13.43 6.59C12.95 6.48 12.46 6.43 11.96 6.43C11.36 6.43 10.78 6.5 10.22 6.66C9.88 6.75 9.55 6.87 9.22 7.02C8.73 7.24 8.28 7.52 7.87 7.84C7.57 8.09 7.28 8.37 7.03 8.68C6.95 8.77 6.92 8.87 6.94 9C6.95 9.12 7.01 9.22 7.1 9.3C7.2 9.36 7.31 9.39 7.43 9.37C7.55 9.36 7.65 9.31 7.73 9.22C7.94 8.97 8.17 8.74 8.42 8.54C8.78 8.25 9.17 8.01 9.61 7.81C9.89 7.68 10.18 7.58 10.48 7.5C10.95 7.37 11.45 7.31 11.96 7.31C12.47 7.31 12.97 7.37 13.45 7.5C13.74 7.58 14.03 7.68 14.31 7.81C14.75 8.01 15.14 8.25 15.5 8.54C15.75 8.74 15.98 8.97 16.19 9.22C16.26 9.32 16.36 9.38 16.48 9.39C16.6 9.41 16.72 9.37 16.82 9.3ZM8.69 10.68C8.67 10.57 8.7 10.47 8.77 10.37C9.15 9.91 9.64 9.54 10.2 9.29C10.46 9.17 10.74 9.08 11.02 9.02C11.32 8.95 11.64 8.92 11.96 8.92C12.27 8.92 12.58 8.95 12.88 9.02C13.16 9.08 13.43 9.17 13.7 9.29C14.25 9.54 14.72 9.89 15.11 10.34C15.19 10.44 15.22 10.55 15.2 10.66C15.19 10.78 15.14 10.88 15.05 10.96C14.96 11.03 14.85 11.06 14.72 11.04C14.59 11.03 14.49 10.98 14.42 10.9C14.29 10.75 14.15 10.61 13.99 10.48C13.79 10.32 13.57 10.18 13.33 10.07C13.16 10 12.98 9.93 12.8 9.89C12.53 9.82 12.25 9.78 11.96 9.78C11.67 9.78 11.39 9.82 11.12 9.89C10.94 9.93 10.76 10 10.59 10.07C10.35 10.18 10.13 10.32 9.93 10.48C9.77 10.61 9.63 10.75 9.5 10.9C9.42 10.99 9.32 11.04 9.19 11.05C9.07 11.06 8.95 11.03 8.85 10.96C8.76 10.88 8.71 10.79 8.69 10.68Z" fill="#5BA854" fill-opacity="1.000000" fill-rule="evenodd"/>
	</g>
</svg>
