<svg width="80.000000" height="80.000000" viewBox="0 0 80 80" fill="none" xmlns="http://www.w3.org/2000/svg" xmlns:xlink="http://www.w3.org/1999/xlink">
	<desc>
			Created with Pixso.
	</desc>
	<defs>
		<clipPath id="clip450_68499">
			<rect id="#illustration_霸屏弹窗 应急救援渐变插画" width="80.000000" height="80.000000" fill="white" fill-opacity="0"/>
		</clipPath>
		<linearGradient x1="40.500000" y1="37.000004" x2="40.500000" y2="76.000000" id="paint_linear_450_68493_0" gradientUnits="userSpaceOnUse">
			<stop stop-color="#000000"/>
			<stop offset="1.000000" stop-color="#000000" stop-opacity="0.000000"/>
			<stop offset="1.000000" stop-color="#000000" stop-opacity="0.000000"/>
		</linearGradient>
	</defs>
	<g clip-path="url(#clip450_68499)">
		<rect id="矩形 1089" width="80.000000" height="80.000000" fill="#C4C4C4" fill-opacity="0"/>
		<rect id="矩形 962" x="23.000000" y="37.000000" rx="1.500000" width="35.000000" height="39.000000" fill="url(#paint_linear_450_68493_0)" fill-opacity="0.150000"/>
		<path id="合并" d="M17.5791 16.1436C17.1553 16.1436 16.7822 16.0078 16.4604 15.7363C16.1533 15.4224 16 15.0581 16 14.644C16 14.23 16.1533 13.873 16.4604 13.5732C18.0327 12.0586 19.7183 10.7183 21.5161 9.55176C23.3799 8.34229 25.3652 7.31934 27.4712 6.4834C29.3354 5.7373 31.2349 5.15918 33.1704 4.74951C35.5312 4.24902 37.9453 3.99902 40.4121 3.99902C42.939 3.99902 45.4092 4.26074 47.8228 4.78418C49.7383 5.2002 51.6187 5.78076 53.4629 6.52637C55.6929 7.4248 57.7876 8.52637 59.7476 9.83105C61.4629 10.9727 63.0747 12.27 64.583 13.7231C64.8613 14.0371 65 14.394 65 14.7939C65 15.208 64.8613 15.5723 64.583 15.8862C64.2617 16.1577 63.8813 16.2935 63.4429 16.2935C63.0039 16.2935 62.646 16.1577 62.3682 15.8862C59.458 13.002 56.1167 10.7959 52.3442 9.26807C51.1992 8.80859 50.0352 8.41895 48.8521 8.09863C46.1382 7.36475 43.3247 6.99756 40.4121 6.99756C37.6392 6.99756 34.9561 7.33887 32.3628 8.02197C31.1138 8.35107 29.8853 8.75928 28.6777 9.24658C27.2729 9.81934 25.9224 10.4844 24.626 11.2432C22.4956 12.4897 20.5122 13.9873 18.6758 15.7363C18.354 16.0078 17.9888 16.1436 17.5791 16.1436ZM57.1475 22.8687C57.4692 22.626 57.6665 22.3047 57.7397 21.9048C57.813 21.4907 57.7397 21.1265 57.5205 20.8125C55.415 18.3135 52.7827 16.2715 49.8438 14.9009C48.3887 14.2256 46.8965 13.7168 45.3672 13.374L45.3667 13.374C43.7915 13.021 42.1763 12.8447 40.522 12.8447C38.5381 12.8447 36.6206 13.0918 34.7686 13.5854L34.7686 13.5854C33.5352 13.9146 32.3311 14.353 31.1562 14.9009C29.6016 15.6221 28.1709 16.5 26.8633 17.5337C25.6865 18.4644 24.6099 19.5215 23.6328 20.7056C23.3843 21.0195 23.2817 21.3906 23.3257 21.8193C23.3843 22.2476 23.5742 22.5972 23.896 22.8687C24.2471 23.1113 24.6201 23.2041 25.0146 23.147C25.4243 23.104 25.7676 22.9258 26.0454 22.6118C26.8481 21.6387 27.7319 20.7666 28.6968 19.9966C29.8408 19.0835 31.0996 18.313 32.4722 17.6855C33.498 17.2104 34.5488 16.832 35.6255 16.5498L35.6255 16.5498C37.2031 16.1357 38.8354 15.9292 40.522 15.9292C42.208 15.9292 43.8403 16.1357 45.4185 16.5498L45.4185 16.5498C46.4946 16.832 47.5459 17.2104 48.5718 17.6855C49.9443 18.313 51.2026 19.0835 52.3472 19.9971C53.312 20.7671 54.1953 21.6387 54.998 22.6118C55.2466 22.9541 55.583 23.1543 56.0068 23.2114C56.4165 23.2539 56.7969 23.1401 57.1475 22.8687ZM29.3359 27.7104C29.2773 27.3252 29.3726 26.9609 29.6211 26.6182C30.9077 25.0332 32.5747 23.7197 34.4902 22.8486C35.4409 22.416 36.4155 22.0913 37.4131 21.8735L37.4155 21.873C38.4272 21.6523 39.4624 21.542 40.522 21.542C42.5986 21.542 44.5796 21.9775 46.4658 22.8486C47.5186 23.3306 48.4834 23.9224 49.3608 24.623C50.0684 25.1885 50.7192 25.8252 51.3135 26.5327C51.562 26.8755 51.6646 27.2466 51.6206 27.6465C51.5913 28.0605 51.416 28.4033 51.0942 28.6743C50.7871 28.917 50.4141 29.0171 49.9756 28.9741C49.5366 28.917 49.1934 28.7529 48.9443 28.4814C48.4502 27.8813 47.9043 27.3462 47.3076 26.8765L47.3076 26.876L47.3071 26.876C46.6689 26.373 45.9717 25.9443 45.2158 25.5903C43.7388 24.9048 42.1743 24.562 40.522 24.562C38.8696 24.562 37.3052 24.9048 35.8281 25.5903C35.0723 25.9443 34.375 26.373 33.7363 26.876L33.7363 26.8765C33.1396 27.3467 32.5938 27.8813 32.0996 28.4814C31.8218 28.7817 31.4707 28.9531 31.0469 28.9956C30.6226 29.0244 30.2349 28.917 29.8843 28.6743C29.5771 28.4033 29.3945 28.082 29.3359 27.7104Z" clip-rule="evenodd" fill="#000000" fill-opacity="0.150000" fill-rule="evenodd"/>
	</g>
</svg>
