<svg viewBox="0 0 24 24" xmlns="http://www.w3.org/2000/svg" xmlns:xlink="http://www.w3.org/1999/xlink" width="24" height="24" fill="none">
    <defs>
        <clipPath id="clipPath_0">
            <rect width="18" height="18" x="3" y="3" fill="rgb(255,255,255)" />
        </clipPath>
        <linearGradient id="paint_linear_0" x1="7.92583275" x2="16.383112" y1="5.61712742" y2="18.0958824" gradientUnits="userSpaceOnUse">
            <stop stop-color="white" offset="0" stop-opacity="1" />
            <stop stop-color="white" offset="0.360399842" stop-opacity="1" />
            <stop stop-color="white" offset="0.642298639" stop-opacity="1" />
            <stop stop-color="white" offset="1" stop-opacity="1" />
        </linearGradient>
    </defs>
    <rect id="iCON" width="24" height="24" x="0" y="0" fill="rgb(0,0,0)" fill-opacity="0" />
    <g id="AI_phone_fill" clip-path="url(#clipPath_0)" customFrame="url(#clipPath_0)">
        <rect id="AI_phone_fill" width="18" height="18" x="3" y="3" />
        <rect id="矩形 881" width="18" height="18" x="3" y="3" opacity="0" fill="rgb(0,0,0)" />
        <path id="合并" d="M12.39 5.52002C12.6951 5.21997 12.895 4.85498 12.99 4.42493C13.015 4.33997 13.0475 4.29749 13.0875 4.29749C13.1326 4.29749 13.165 4.33997 13.185 4.42493C13.3201 4.86499 13.5276 5.23254 13.8075 5.52747C14.0925 5.82251 14.4451 6.005 14.865 6.07495C14.9451 6.08997 14.9825 6.12744 14.9775 6.1875C14.9725 6.24744 14.935 6.28247 14.865 6.29248C14.4451 6.36743 14.0925 6.54993 13.8075 6.83997C13.5276 7.13501 13.3201 7.5 13.185 7.93494C13.165 8.01501 13.1326 8.05493 13.0875 8.05493C13.0475 8.05493 13.015 8.01501 12.99 7.93494C12.895 7.51501 12.6975 7.15747 12.3976 6.86243C12.0975 6.5675 11.7375 6.37744 11.3175 6.29248C11.2575 6.28247 11.2275 6.24744 11.2275 6.1875C11.2275 6.12744 11.2575 6.08997 11.3175 6.07495C11.7225 6.005 12.0801 5.81995 12.39 5.52002ZM6.70506 4.89001C6.50499 4.92505 6.34495 4.98499 6.22496 5.06995C6.10496 5.15503 5.93004 5.30994 5.70005 5.53503L5.55748 5.68494C5.18248 6.04504 4.92503 6.46997 4.78502 6.95996C4.64 7.44995 4.62754 7.94751 4.74754 8.45251C5.07249 9.84753 5.84251 11.35 7.05748 12.96C8.27745 14.575 9.68003 15.985 11.265 17.1899C12.845 18.4 14.3201 19.1425 15.69 19.4175C16.18 19.5225 16.665 19.505 17.145 19.365C17.625 19.22 18.045 18.9675 18.405 18.6075L18.855 18.1575C19.05 17.9625 19.1825 17.73 19.2525 17.46C19.3275 17.1899 19.3301 16.9299 19.26 16.6799C19.2328 16.5751 19.1933 16.4774 19.1415 16.3867C19.0696 16.261 18.9741 16.1488 18.855 16.05C18.255 15.58 17.65 15.1175 17.04 14.6625C16.775 14.4475 16.475 14.345 16.14 14.355C15.805 14.37 15.5176 14.4974 15.2774 14.7375L14.535 15.4349C14.38 15.595 14.1951 15.6899 13.98 15.72C13.765 15.75 13.555 15.705 13.35 15.585C12.5801 15.105 11.6925 14.365 10.6875 13.365C9.67747 12.37 8.95005 11.5125 8.50499 10.7925C8.38499 10.6125 8.33751 10.4125 8.36253 10.1925C8.38756 9.96753 8.47752 9.77246 8.63255 9.60754L9.42747 8.84998C9.67747 8.60999 9.81004 8.31995 9.82505 7.97998C9.83506 7.63501 9.71995 7.33752 9.47996 7.08752L8.145 5.42993C7.97996 5.21497 7.765 5.05994 7.49998 4.96497C7.23497 4.86499 6.96995 4.83997 6.70506 4.89001ZM15.645 8.58752C16.12 8.11243 16.4175 7.53503 16.5376 6.85498C16.5625 6.755 16.6125 6.70996 16.6875 6.71997C16.7676 6.72498 16.82 6.77002 16.8451 6.85498C16.985 7.53503 17.295 8.11243 17.775 8.58752C18.255 9.0625 18.8501 9.40247 19.56 9.60754C19.655 9.63245 19.7051 9.6825 19.7101 9.75745C19.7201 9.83752 19.67 9.88245 19.56 9.89246C18.89 10.0275 18.305 10.345 17.805 10.845C17.305 11.35 16.985 11.95 16.8451 12.645C16.8301 12.73 16.78 12.7725 16.695 12.7725C16.6605 12.7725 16.6312 12.7646 16.6069 12.7488C16.5749 12.728 16.5517 12.6934 16.5376 12.645C16.4026 11.965 16.0901 11.37 15.6001 10.86C15.11 10.35 14.5276 10.0275 13.8525 9.89246C13.7676 9.88245 13.73 9.83752 13.74 9.75745C13.745 9.6825 13.7826 9.63245 13.8525 9.60754C14.5725 9.40247 15.17 9.0625 15.645 8.58752Z" fill="url(#paint_linear_0)" fill-rule="evenodd" />
    </g>
</svg>