<svg width="24.000000" height="24.000000" viewBox="0 0 24 24" fill="none" xmlns="http://www.w3.org/2000/svg" xmlns:xlink="http://www.w3.org/1999/xlink">
	<desc>
			Created with Pixso.
	</desc>
	<defs>
		<clipPath id="clip2_32">
			<rect id="default_video" width="24.000000" height="24.000000" fill="white" fill-opacity="0"/>
		</clipPath>
	</defs>
	<rect id="default_video" width="24.000000" height="24.000000" fill="#000000" fill-opacity="0"/>
	<g clip-path="url(#clip2_32)">
		<path id="󰂣" d="M5.6 6.83Q5.61 6.83 5.62 6.83L14.06 6.83Q14.21 6.83 14.35 6.85Q14.64 6.91 14.91 7.09Q15.09 7.21 15.24 7.36Q15.41 7.54 15.54 7.77Q15.68 8.02 15.74 8.29Q15.77 8.47 15.77 8.66L15.77 15.65Q15.77 15.73 15.77 15.81Q15.73 16.18 15.54 16.53Q15.4 16.78 15.21 16.98Q15.07 17.12 14.91 17.22Q14.65 17.4 14.36 17.45Q14.22 17.48 14.06 17.48L5.62 17.48Q5.61 17.48 5.6 17.48Q5.16 17.48 4.73 17.22Q4.44 17.04 4.23 16.8Q4.11 16.67 4.02 16.52Q3.8 16.18 3.76 15.82Q3.75 15.73 3.75 15.65L3.75 8.66Q3.75 8.61 3.75 8.57Q3.78 8.17 4.02 7.78Q4.16 7.56 4.35 7.37Q4.52 7.21 4.73 7.09Q5.16 6.83 5.6 6.83ZM16.68 14.69L16.68 9.62L18.73 8.55Q18.9 8.46 19.08 8.44Q19.24 8.42 19.41 8.46Q19.6 8.5 19.75 8.6Q19.89 8.68 20 8.82Q20.13 8.96 20.19 9.13Q20.24 9.28 20.24 9.45L20.24 14.86Q20.24 15.02 20.19 15.17Q20.13 15.34 20 15.5Q19.88 15.64 19.73 15.73Q19.59 15.81 19.42 15.85Q19.3 15.87 19.19 15.87Q18.96 15.87 18.73 15.76L16.68 14.69Z" fill="#FFFFFF" fill-opacity="1.000000" fill-rule="evenodd"/>
	</g>
</svg>
