<svg width="120.000000" height="120.000000" viewBox="0 0 120 120" fill="none" xmlns="http://www.w3.org/2000/svg" xmlns:xlink="http://www.w3.org/1999/xlink">
	<desc>
			Created with Pixso.
	</desc>
	<defs/>
	<rect id="EmptyPage/21 NoVideo" width="120.000000" height="120.000000" fill="#F1F3F5" fill-opacity="0"/>
	<g opacity="0.400000">
		<rect id="矩形" x="16.034424" y="33.103516" width="88.362068" height="53.233936" fill="#A1A7B3" fill-opacity="0.600000"/>
		<rect id="矩形" x="16.534424" y="33.603516" width="87.362068" height="52.233936" stroke="#979797" stroke-opacity="0" stroke-width="1.000000"/>
	</g>
	<mask id="mask_94_5316" fill="white">
		<path id="形状结合" d="M42.1675 54.958L70.6467 54.958C73.9604 54.958 76.6467 57.6445 76.6467 60.958L76.6467 75.4092C76.6467 78.7227 73.9604 81.4092 70.6467 81.4092L42.1675 81.4092C38.8538 81.4092 36.1675 78.7227 36.1675 75.4092L36.1675 60.958C36.1675 57.6445 38.8538 54.958 42.1675 54.958ZM53.3406 73.3901L61.5144 68.5347C62.1667 68.147 62.1667 67.2026 61.5144 66.8149L53.3406 61.9595C52.6738 61.5635 51.8298 62.0439 51.8298 62.8193L51.8298 72.5303C51.8298 73.3057 52.6738 73.7861 53.3406 73.3901Z" clip-rule="evenodd" fill="" fill-opacity="1.000000" fill-rule="evenodd"/>
	</mask>
	<path id="形状结合" d="M42.1675 54.958L70.6467 54.958C73.9604 54.958 76.6467 57.6445 76.6467 60.958L76.6467 75.4092C76.6467 78.7227 73.9604 81.4092 70.6467 81.4092L42.1675 81.4092C38.8538 81.4092 36.1675 78.7227 36.1675 75.4092L36.1675 60.958C36.1675 57.6445 38.8538 54.958 42.1675 54.958ZM53.3406 73.3901L61.5144 68.5347C62.1667 68.147 62.1667 67.2026 61.5144 66.8149L53.3406 61.9595C52.6738 61.5635 51.8298 62.0439 51.8298 62.8193L51.8298 72.5303C51.8298 73.3057 52.6738 73.7861 53.3406 73.3901Z" clip-rule="evenodd" fill="#A1A7B3" fill-opacity="0.600000" fill-rule="evenodd" mask="url(#mask_94_5316)"/>
	<path id="形状结合" d="" clip-rule="evenodd" fill="#979797" fill-opacity="0.000000" fill-rule="evenodd"/>
	<path id="三角形" d="M61.51 68.53L53.34 73.39C52.67 73.78 51.82 73.3 51.82 72.53L51.82 62.81C51.82 62.04 52.67 61.56 53.34 61.96L61.51 66.81C62.16 67.2 62.16 68.14 61.51 68.53Z" fill="#A1A7B3" fill-opacity="0.200000" fill-rule="evenodd"/>
	<path id="三角形" d="" fill="#979797" fill-opacity="0" fill-rule="evenodd"/>
	<mask id="mask_94_5322" fill="white">
		<path id="形状结合" d="M48.8174 38.6807C43.7871 38.6807 39.7095 42.7798 39.7095 47.8369C39.7095 50.7129 41.0288 53.2798 43.0923 54.958L54.5425 54.958C55.3857 54.2725 56.1047 53.438 56.6602 52.4946C55.8564 51.1299 55.3953 49.5376 55.3953 47.8369C55.3953 46.1362 55.8564 44.5435 56.6602 43.1787C55.0745 40.4863 52.1555 38.6807 48.8174 38.6807Z" clip-rule="evenodd" fill="" fill-opacity="1.000000" fill-rule="evenodd"/>
	</mask>
	<path id="形状结合" d="M48.8174 38.6807C43.7871 38.6807 39.7095 42.7798 39.7095 47.8369C39.7095 50.7129 41.0288 53.2798 43.0923 54.958L54.5425 54.958C55.3857 54.2725 56.1047 53.438 56.6602 52.4946C55.8564 51.1299 55.3953 49.5376 55.3953 47.8369C55.3953 46.1362 55.8564 44.5435 56.6602 43.1787C55.0745 40.4863 52.1555 38.6807 48.8174 38.6807Z" clip-rule="evenodd" fill="#A1A7B3" fill-opacity="0.200000" fill-rule="evenodd" mask="url(#mask_94_5322)"/>
	<path id="形状结合" d="" clip-rule="evenodd" fill="#979797" fill-opacity="0.000000" fill-rule="evenodd"/>
	<mask id="mask_94_5325" fill="white">
		<path id="形状结合" d="M64.5032 38.6807C59.4729 38.6807 55.3953 42.7798 55.3953 47.8369C55.3953 50.7866 56.7827 53.4102 58.9373 55.085L58.9373 54.958L70.2283 54.958C72.2917 53.2798 73.6108 50.7129 73.6108 47.8369C73.6108 42.7798 69.5332 38.6807 64.5032 38.6807Z" clip-rule="evenodd" fill="" fill-opacity="1.000000" fill-rule="evenodd"/>
	</mask>
	<path id="形状结合" d="M64.5032 38.6807C59.4729 38.6807 55.3953 42.7798 55.3953 47.8369C55.3953 50.7866 56.7827 53.4102 58.9373 55.085L58.9373 54.958L70.2283 54.958C72.2917 53.2798 73.6108 50.7129 73.6108 47.8369C73.6108 42.7798 69.5332 38.6807 64.5032 38.6807Z" clip-rule="evenodd" fill="#A1A7B3" fill-opacity="0.400000" fill-rule="evenodd" mask="url(#mask_94_5325)"/>
	<path id="形状结合" d="" clip-rule="evenodd" fill="#979797" fill-opacity="0.000000" fill-rule="evenodd"/>
	<path id="矩形" d="M76.64 63.09L85.31 58.73C85.98 58.4 86.76 58.88 86.76 59.63L86.76 75.71C86.76 76.46 85.98 76.94 85.31 76.61L76.64 72.25L76.64 63.09Z" fill="#A1A7B3" fill-opacity="0.600000" fill-rule="evenodd"/>
	<path id="矩形" d="" fill="#979797" fill-opacity="0" fill-rule="evenodd"/>
	<mask id="mask_94_5337" fill="white">
		<path id="形状结合" d="M20.0344 20.6895L100.396 20.6895C102.606 20.6895 104.396 22.4805 104.396 24.6895L104.396 33.0581L16.0344 33.0581L16.0344 24.6895C16.0344 22.4805 17.8252 20.6895 20.0344 20.6895ZM23.3816 24.0142C21.8105 24.0142 20.5369 25.2944 20.5369 26.874C20.5369 28.4531 21.8105 29.7339 23.3816 29.7339C24.9529 29.7339 26.2266 28.4531 26.2266 26.874C26.2266 25.2944 24.9529 24.0142 23.3816 24.0142ZM35.6597 24.0142C34.0884 24.0142 32.8147 25.2944 32.8147 26.874C32.8147 28.4531 34.0884 29.7339 35.6597 29.7339C37.2307 29.7339 38.5044 28.4531 38.5044 26.874C38.5044 25.2944 37.2307 24.0142 35.6597 24.0142ZM47.9375 24.0142C46.3665 24.0142 45.0928 25.2944 45.0928 26.874C45.0928 28.4531 46.3665 29.7339 47.9375 29.7339C49.5088 29.7339 50.7825 28.4531 50.7825 26.874C50.7825 25.2944 49.5088 24.0142 47.9375 24.0142ZM60.2153 24.0142C58.6443 24.0142 57.3706 25.2944 57.3706 26.874C57.3706 28.4531 58.6443 29.7339 60.2153 29.7339C61.7866 29.7339 63.0603 28.4531 63.0603 26.874C63.0603 25.2944 61.7866 24.0142 60.2153 24.0142ZM72.4934 24.0142C70.9224 24.0142 69.6487 25.2944 69.6487 26.874C69.6487 28.4531 70.9224 29.7339 72.4934 29.7339C74.0647 29.7339 75.3384 28.4531 75.3384 26.874C75.3384 25.2944 74.0647 24.0142 72.4934 24.0142ZM84.7712 24.0288C83.2002 24.0288 81.9265 25.3027 81.9265 26.874C81.9265 28.4448 83.2002 29.7188 84.7712 29.7188C86.3425 29.7188 87.6162 28.4448 87.6162 26.874C87.6162 25.3027 86.3425 24.0288 84.7712 24.0288ZM97.0493 24.0288C95.478 24.0288 94.2043 25.3027 94.2043 26.874C94.2043 28.4448 95.478 29.7188 97.0493 29.7188C98.6204 29.7188 99.894 28.4448 99.894 26.874C99.894 25.3027 98.6204 24.0288 97.0493 24.0288Z" clip-rule="evenodd" fill="" fill-opacity="1.000000" fill-rule="evenodd"/>
	</mask>
	<path id="形状结合" d="M20.0344 20.6895L100.396 20.6895C102.606 20.6895 104.396 22.4805 104.396 24.6895L104.396 33.0581L16.0344 33.0581L16.0344 24.6895C16.0344 22.4805 17.8252 20.6895 20.0344 20.6895ZM23.3816 24.0142C21.8105 24.0142 20.5369 25.2944 20.5369 26.874C20.5369 28.4531 21.8105 29.7339 23.3816 29.7339C24.9529 29.7339 26.2266 28.4531 26.2266 26.874C26.2266 25.2944 24.9529 24.0142 23.3816 24.0142ZM35.6597 24.0142C34.0884 24.0142 32.8147 25.2944 32.8147 26.874C32.8147 28.4531 34.0884 29.7339 35.6597 29.7339C37.2307 29.7339 38.5044 28.4531 38.5044 26.874C38.5044 25.2944 37.2307 24.0142 35.6597 24.0142ZM47.9375 24.0142C46.3665 24.0142 45.0928 25.2944 45.0928 26.874C45.0928 28.4531 46.3665 29.7339 47.9375 29.7339C49.5088 29.7339 50.7825 28.4531 50.7825 26.874C50.7825 25.2944 49.5088 24.0142 47.9375 24.0142ZM60.2153 24.0142C58.6443 24.0142 57.3706 25.2944 57.3706 26.874C57.3706 28.4531 58.6443 29.7339 60.2153 29.7339C61.7866 29.7339 63.0603 28.4531 63.0603 26.874C63.0603 25.2944 61.7866 24.0142 60.2153 24.0142ZM72.4934 24.0142C70.9224 24.0142 69.6487 25.2944 69.6487 26.874C69.6487 28.4531 70.9224 29.7339 72.4934 29.7339C74.0647 29.7339 75.3384 28.4531 75.3384 26.874C75.3384 25.2944 74.0647 24.0142 72.4934 24.0142ZM84.7712 24.0288C83.2002 24.0288 81.9265 25.3027 81.9265 26.874C81.9265 28.4448 83.2002 29.7188 84.7712 29.7188C86.3425 29.7188 87.6162 28.4448 87.6162 26.874C87.6162 25.3027 86.3425 24.0288 84.7712 24.0288ZM97.0493 24.0288C95.478 24.0288 94.2043 25.3027 94.2043 26.874C94.2043 28.4448 95.478 29.7188 97.0493 29.7188C98.6204 29.7188 99.894 28.4448 99.894 26.874C99.894 25.3027 98.6204 24.0288 97.0493 24.0288Z" clip-rule="evenodd" fill="#A1A7B3" fill-opacity="0.400000" fill-rule="evenodd" mask="url(#mask_94_5337)"/>
	<path id="形状结合" d="" clip-rule="evenodd" fill="#979797" fill-opacity="0.000000" fill-rule="evenodd"/>
	<mask id="mask_94_5347" fill="white">
		<path id="形状结合" d="M20.0344 98.6357L100.396 98.6357C102.606 98.6357 104.396 96.8447 104.396 94.6357L104.396 86.2671L16.0344 86.2671L16.0344 94.6357C16.0344 96.8447 17.8252 98.6357 20.0344 98.6357ZM23.3816 95.311C21.8105 95.311 20.5369 94.0308 20.5369 92.4512C20.5369 90.8716 21.8105 89.5913 23.3816 89.5913C24.9529 89.5913 26.2266 90.8716 26.2266 92.4512C26.2266 94.0308 24.9529 95.311 23.3816 95.311ZM35.6597 95.311C34.0884 95.311 32.8147 94.0308 32.8147 92.4512C32.8147 90.8716 34.0884 89.5913 35.6597 89.5913C37.2307 89.5913 38.5044 90.8716 38.5044 92.4512C38.5044 94.0308 37.2307 95.311 35.6597 95.311ZM47.9375 95.311C46.3665 95.311 45.0928 94.0308 45.0928 92.4512C45.0928 90.8716 46.3665 89.5913 47.9375 89.5913C49.5088 89.5913 50.7825 90.8716 50.7825 92.4512C50.7825 94.0308 49.5088 95.311 47.9375 95.311ZM60.2153 95.311C58.6443 95.311 57.3706 94.0308 57.3706 92.4512C57.3706 90.8716 58.6443 89.5913 60.2153 89.5913C61.7866 89.5913 63.0603 90.8716 63.0603 92.4512C63.0603 94.0308 61.7866 95.311 60.2153 95.311ZM72.4934 95.311C70.9224 95.311 69.6487 94.0308 69.6487 92.4512C69.6487 90.8716 70.9224 89.5913 72.4934 89.5913C74.0647 89.5913 75.3384 90.8716 75.3384 92.4512C75.3384 94.0308 74.0647 95.311 72.4934 95.311ZM84.7712 95.2959C83.2002 95.2959 81.9265 94.0225 81.9265 92.4512C81.9265 90.8804 83.2002 89.6064 84.7712 89.6064C86.3425 89.6064 87.6162 90.8804 87.6162 92.4512C87.6162 94.0225 86.3425 95.2959 84.7712 95.2959ZM97.0493 95.2959C95.478 95.2959 94.2043 94.0225 94.2043 92.4512C94.2043 90.8804 95.478 89.6064 97.0493 89.6064C98.6204 89.6064 99.894 90.8804 99.894 92.4512C99.894 94.0225 98.6204 95.2959 97.0493 95.2959Z" clip-rule="evenodd" fill="" fill-opacity="1.000000" fill-rule="evenodd"/>
	</mask>
	<path id="形状结合" d="M20.0344 98.6357L100.396 98.6357C102.606 98.6357 104.396 96.8447 104.396 94.6357L104.396 86.2671L16.0344 86.2671L16.0344 94.6357C16.0344 96.8447 17.8252 98.6357 20.0344 98.6357ZM23.3816 95.311C21.8105 95.311 20.5369 94.0308 20.5369 92.4512C20.5369 90.8716 21.8105 89.5913 23.3816 89.5913C24.9529 89.5913 26.2266 90.8716 26.2266 92.4512C26.2266 94.0308 24.9529 95.311 23.3816 95.311ZM35.6597 95.311C34.0884 95.311 32.8147 94.0308 32.8147 92.4512C32.8147 90.8716 34.0884 89.5913 35.6597 89.5913C37.2307 89.5913 38.5044 90.8716 38.5044 92.4512C38.5044 94.0308 37.2307 95.311 35.6597 95.311ZM47.9375 95.311C46.3665 95.311 45.0928 94.0308 45.0928 92.4512C45.0928 90.8716 46.3665 89.5913 47.9375 89.5913C49.5088 89.5913 50.7825 90.8716 50.7825 92.4512C50.7825 94.0308 49.5088 95.311 47.9375 95.311ZM60.2153 95.311C58.6443 95.311 57.3706 94.0308 57.3706 92.4512C57.3706 90.8716 58.6443 89.5913 60.2153 89.5913C61.7866 89.5913 63.0603 90.8716 63.0603 92.4512C63.0603 94.0308 61.7866 95.311 60.2153 95.311ZM72.4934 95.311C70.9224 95.311 69.6487 94.0308 69.6487 92.4512C69.6487 90.8716 70.9224 89.5913 72.4934 89.5913C74.0647 89.5913 75.3384 90.8716 75.3384 92.4512C75.3384 94.0308 74.0647 95.311 72.4934 95.311ZM84.7712 95.2959C83.2002 95.2959 81.9265 94.0225 81.9265 92.4512C81.9265 90.8804 83.2002 89.6064 84.7712 89.6064C86.3425 89.6064 87.6162 90.8804 87.6162 92.4512C87.6162 94.0225 86.3425 95.2959 84.7712 95.2959ZM97.0493 95.2959C95.478 95.2959 94.2043 94.0225 94.2043 92.4512C94.2043 90.8804 95.478 89.6064 97.0493 89.6064C98.6204 89.6064 99.894 90.8804 99.894 92.4512C99.894 94.0225 98.6204 95.2959 97.0493 95.2959Z" clip-rule="evenodd" fill="#A1A7B3" fill-opacity="0.400000" fill-rule="evenodd" mask="url(#mask_94_5347)"/>
	<path id="形状结合" d="" clip-rule="evenodd" fill="#979797" fill-opacity="0.000000" fill-rule="evenodd"/>
</svg>
