<?xml version="1.0" encoding="UTF-8"?>
<svg width="24px" height="24px" viewBox="0 0 24 24" version="1.1" xmlns="http://www.w3.org/2000/svg" xmlns:xlink="http://www.w3.org/1999/xlink">
    <title>挂断</title>
    <defs>
        <path d="M0.00201511688,12.8339868 L-6.53699317e-13,13.6401367 C0.000548468419,14.6685222 0.872910426,15.4994776 1.9525404,15.5 L4.52112123,15.1562383 C4.66504325,15.1368868 4.80979507,15.1241439 4.95454609,15.1117234 C5.83800616,15.0332594 6.5169101,14.3276328 6.52176275,13.4828187 L6.54084375,12.2145476 C6.54162675,11.6579037 6.94359025,11.1727922 7.51229796,11.0421438 C9.84861665,10.5084973 14.3259667,10.5076939 16.4898093,10.9885694 C17.0615469,11.114398 17.4652668,11.5989603 17.4645486,12.158494 L17.4225315,13.5287139 C17.4230824,14.3916898 18.1269047,15.1028378 19.0310386,15.1539631 L19.2517395,15.1697265 L19.2517395,15.1697265 L21.8091414,15.4299744 C22.5320473,15.5044349 23.2506511,15.2008231 23.660182,14.6257576 C23.8797682,14.3182829 23.9975595,13.9554702 23.9982645,13.5844184 L24,12.9040279 C24.0056562,11.6117731 23.3122238,10.4110041 22.1649712,9.72649525 C17.2587098,6.81502344 6.49553666,6.70754913 1.75679423,9.70780604 C0.658908664,10.4029361 0.00514660851,11.5812298 0.00201511688,12.8339868 Z" id="path-1"></path>
    </defs>
    <g id="挂断" stroke="none" stroke-width="1" fill="none" fill-rule="evenodd">
        <rect id="color/#000000" x="0" y="0" width="24" height="24"></rect>
        <mask id="mask-2" fill="white">
            <use xlink:href="#path-1"></use>
        </mask>
        <use id="形状结合" fill="#FFFFFF" fill-rule="nonzero" xlink:href="#path-1"></use>
    </g>
</svg>