<svg width="24.000000" height="24.000000" viewBox="0 0 24 24" fill="none" xmlns="http://www.w3.org/2000/svg" xmlns:xlink="http://www.w3.org/1999/xlink">
	<desc>
			Created with Pixso.
	</desc>
	<defs>
		<clipPath id="clip2_34">
			<rect id="sim1_video_incoming" width="24.000000" height="24.000000" fill="white" fill-opacity="0"/>
		</clipPath>
	</defs>
	<rect id="sim1_video_incoming" width="24.000000" height="24.000000" fill="#000000" fill-opacity="0"/>
	<g clip-path="url(#clip2_34)">
		<g opacity="0.000000">
			<rect id="rect" x="3.000000" y="3.000000" width="18.000000" height="18.000000" fill="#000000" fill-opacity="1.000000"/>
		</g>
		<path id="减去顶层" d="M5.625 6.67499Q5.57843 6.67499 5.53204 6.67772Q5.13 6.70137 4.73999 6.92999Q4.50916 7.06694 4.3252 7.25085Q4.15662 7.41945 4.02753 7.62749Q3.79474 7.99602 3.76263 8.38127Q3.75751 8.44292 3.75751 8.50499L3.75751 15.495C3.75751 15.795 3.84753 16.085 4.02753 16.365C4.20752 16.645 4.44501 16.875 4.73999 17.055Q5.13483 17.3001 5.54205 17.3227Q5.5835 17.325 5.625 17.325L14.07 17.325C14.37 17.325 14.6525 17.24 14.9175 17.07Q15.0591 16.9764 15.1799 16.861Q15.3979 16.6525 15.5475 16.3725C15.7025 16.0875 15.78 15.795 15.78 15.495L15.78 8.50499Q15.78 8.3315 15.7476 8.16426Q15.6932 7.88329 15.5475 7.62Q15.4102 7.36739 15.2151 7.17241L15.2151 7.17239Q15.0801 7.03738 14.9175 6.92999C14.6525 6.75999 14.37 6.67499 14.07 6.67499L5.625 6.67499ZM16.68 9.46498L16.68 14.535L18.735 15.6C18.96 15.71 19.19 15.74 19.425 15.69C19.66 15.64 19.855 15.5225 20.01 15.3375Q20.129 15.1954 20.1871 15.0317Q20.2425 14.8757 20.2425 14.7L20.2425 9.29999Q20.2425 9.12431 20.1871 8.96829Q20.129 8.80457 20.01 8.66249C19.855 8.47749 19.6575 8.35748 19.4175 8.30249Q19.2375 8.26123 19.0669 8.28561Q18.8962 8.30998 18.735 8.39999L16.68 9.46498ZM10.6818 15.1849Q10.5499 15.2979 10.3212 15.2979Q10.0948 15.2979 9.95813 15.1872Q9.93176 15.1659 9.90875 15.1404C9.81372 15.0404 9.76624 14.8929 9.76624 14.6979L9.76624 10.0404L8.77625 10.5804C8.61621 10.6654 8.46875 10.6979 8.33374 10.6779C8.19373 10.6579 8.09375 10.5779 8.03375 10.4379C7.98871 10.3029 7.98871 10.1704 8.03375 10.0404Q8.10876 9.83792 8.43121 9.65793L9.79626 8.87042Q10.1262 8.69043 10.3588 8.66792C10.5137 8.65793 10.6362 8.70793 10.7263 8.81793Q10.8612 8.97543 10.8612 9.33543L10.8612 14.6829C10.8612 14.8879 10.8162 15.0404 10.7263 15.1404Q10.7056 15.1645 10.6818 15.1849Z" clip-rule="evenodd" fill="#FFFFFF" fill-opacity="1.000000" fill-rule="evenodd"/>
	</g>
</svg>
