<svg width="24.000000" height="24.000000" viewBox="0 0 24 24" fill="none" xmlns="http://www.w3.org/2000/svg" xmlns:xlink="http://www.w3.org/1999/xlink">
	<desc>
			Created with Pixso.
	</desc>
	<defs>
		<clipPath id="clip2_33">
			<rect id="sim1_incoming" width="24.000000" height="24.000000" fill="white" fill-opacity="0"/>
		</clipPath>
	</defs>
	<rect id="sim1_incoming" width="24.000000" height="24.000000" fill="#000000" fill-opacity="0"/>
	<g clip-path="url(#clip2_33)">
		<path id="󰂕" d="M5.52 5.33Q6.07 4.76 6.56 4.69Q6.76 4.65 6.96 4.67Q7.16 4.68 7.37 4.76Q7.47 4.79 7.57 4.85Q7.84 4.99 8.05 5.24L9.42 6.94Q9.61 7.15 9.7 7.4Q9.77 7.61 9.76 7.85Q9.75 8.09 9.68 8.29Q9.58 8.54 9.37 8.75L9.17 8.95Q8.86 9.24 8.56 9.53Q8.46 9.62 8.4 9.74Q8.3 9.9 8.28 10.1Q8.26 10.24 8.28 10.37Q8.3 10.57 8.41 10.75Q9.12 11.85 10.66 13.39Q12.21 14.93 13.38 15.66Q13.56 15.77 13.74 15.8Q13.88 15.82 14.03 15.8Q14.23 15.77 14.4 15.68Q14.51 15.62 14.61 15.52Q14.8 15.32 14.9 15.23Q15 15.14 15.2 14.94L15.34 14.8Q15.54 14.62 15.77 14.52Q15.99 14.43 16.24 14.42Q16.5 14.4 16.72 14.48Q16.96 14.55 17.16 14.73L19.04 16.15Q19.15 16.25 19.24 16.37Q19.38 16.56 19.44 16.8Q19.48 16.92 19.49 17.05Q19.52 17.32 19.43 17.61Q19.35 17.91 19.18 18.14Q19.11 18.23 19.04 18.31Q18.8 18.53 18.56 18.76Q18.27 19.06 17.92 19.26Q17.63 19.44 17.29 19.54Q16.92 19.64 16.55 19.66Q16.17 19.68 15.79 19.61Q13.69 19.18 11.24 17.31Q10.37 16.65 9.57 15.91Q8.13 14.57 6.92 12.97Q5.05 10.48 4.56 8.34Q4.54 8.25 4.52 8.17Q4.41 7.49 4.68 6.75Q4.98 5.91 5.52 5.33ZM15.51 11.21Q15.38 11.33 15.15 11.33Q14.91 11.33 14.77 11.21Q14.75 11.19 14.73 11.17Q14.59 11.02 14.59 10.73L14.59 6.07L13.6 6.61Q13.36 6.74 13.16 6.71Q13.07 6.7 13.01 6.66Q12.91 6.6 12.86 6.47Q12.82 6.36 12.82 6.26Q12.82 6.17 12.86 6.07Q12.93 5.87 13.26 5.69L14.62 4.9Q14.95 4.72 15.18 4.7Q15.32 4.69 15.43 4.75Q15.5 4.79 15.55 4.85Q15.69 5.01 15.69 5.37L15.69 10.72Q15.69 11.02 15.55 11.17Q15.53 11.19 15.51 11.21Z" fill="#FFFFFF" fill-opacity="1.000000" fill-rule="evenodd"/>
	</g>
</svg>
