<?xml version="1.0" encoding="UTF-8"?>
<svg width="24px" height="24px" viewBox="0 0 24 24" version="1.1" xmlns="http://www.w3.org/2000/svg" xmlns:xlink="http://www.w3.org/1999/xlink">
    <title>卡1视频来电</title>
    <g id="卡1视频来电" stroke="none" stroke-width="1" fill="none" fill-rule="evenodd">
        <rect id="矩形" x="0" y="0" width="24" height="24"></rect>
        <path d="M15.3333333,4.25 C16.8060927,4.25 18,5.44390733 18,6.91666667 L18,17.0833333 C18,18.5560927 16.8060927,19.75 15.3333333,19.75 L2.66666667,19.75 C1.19390733,19.75 -2.6372821e-16,18.5560927 0,17.0833333 L0,6.91666667 C-1.80361e-16,5.44390733 1.19390733,4.25 2.66666667,4.25 L15.3333333,4.25 Z M23.839056,7.10354959 C23.9446823,7.29855201 24,7.51682168 24,7.73859378 L24,16.2614062 C24,16.9977859 23.4030463,17.5947395 22.6666667,17.5947395 C22.4448946,17.5947395 22.2266249,17.5394218 22.0316225,17.4337955 L19,15.7910048 L19,8.2080048 L22.0316225,6.5662045 C22.6791152,6.21547927 23.4883307,6.45605686 23.839056,7.10354959 Z M10,7.25 L10,16.25 L8.3924528,16.25 L8.3924528,9.42622951 L7,10.5204918 L7,8.57786885 L8.6754717,7.25 L10,7.25 Z" id="形状结合" fill="#FFFFFF"></path>
    </g>
</svg>