<?xml version="1.0" encoding="UTF-8"?>
<svg width="24px" height="24px" viewBox="0 0 24 24" version="1.1" xmlns="http://www.w3.org/2000/svg" xmlns:xlink="http://www.w3.org/1999/xlink">
    <title>卡2视频来电</title>
    <g id="卡2视频来电" stroke="none" stroke-width="1" fill="none" fill-rule="evenodd">
        <rect id="矩形" x="0" y="0" width="24" height="24"></rect>
        <path d="M15.3333333,4.25 C16.8060927,4.25 18,5.44390733 18,6.91666667 L18,17.0833333 C18,18.5560927 16.8060927,19.75 15.3333333,19.75 L2.66666667,19.75 C1.19390733,19.75 -2.6372821e-16,18.5560927 0,17.0833333 L0,6.91666667 C-1.80361e-16,5.44390733 1.19390733,4.25 2.66666667,4.25 L15.3333333,4.25 Z M23.839056,7.10354959 C23.9446823,7.29855201 24,7.51682168 24,7.73859378 L24,16.2614062 C24,16.9977859 23.4030463,17.5947395 22.6666667,17.5947395 C22.4448946,17.5947395 22.2266249,17.5394218 22.0316225,17.4337955 L19,15.7910048 L19,8.2080048 L22.0316225,6.5662045 C22.6791152,6.21547927 23.4883307,6.45605686 23.839056,7.10354959 Z M9.11580388,7.25 C9.86025687,7.25 10.4168937,7.43898317 10.7847411,7.81738098 C11.1525885,8.19621026 11.3365123,8.70361715 11.3365123,9.33960161 C11.3365123,9.78271969 11.2387115,10.2340357 11.0435968,10.6926866 C10.8479954,11.1522005 10.4962047,11.8205451 9.98773837,12.6985833 L8.81607625,14.7036171 L11.5,14.7036171 L11.5,16.25 L6.5,16.25 L6.5,14.9573206 L8.32561312,11.9732849 C8.71584275,11.3291025 8.979564,10.8458579 9.11580388,10.523551 C9.25204362,10.2012441 9.3201635,9.87936862 9.3201635,9.5570617 C9.3201635,9.31587084 9.28804988,9.13853732 9.22479563,9.02549259 C9.16105487,8.91287933 9.06130788,8.85635697 8.92506812,8.85635697 C8.73433238,8.85635697 8.579603,8.97112757 8.46136625,9.20066878 C8.34361625,9.43020998 8.23462437,9.8029987 8.13487738,10.318172 L6.54087188,9.53333094 C6.84011287,8.01067884 7.69891013,7.25 9.11580388,7.25 Z" id="形状结合" fill="#FFFFFF"></path>
    </g>
</svg>