<svg width="24.000000" height="24.000000" viewBox="0 0 24 24" fill="none" xmlns="http://www.w3.org/2000/svg" xmlns:xlink="http://www.w3.org/1999/xlink">
	<desc>
			Created with Pixso.
	</desc>
	<defs>
		<clipPath id="clip2_35">
			<rect id="sim2_incoming" width="24.000000" height="24.000000" fill="white" fill-opacity="0"/>
		</clipPath>
	</defs>
	<rect id="sim2_incoming" width="24.000000" height="24.000000" fill="#000000" fill-opacity="0"/>
	<g clip-path="url(#clip2_35)">
		<rect id="矩形" width="24.000000" height="24.000000" fill="#000000" fill-opacity="0"/>
		<rect id="矩形" width="24.000000" height="24.000000" stroke="#000000" stroke-opacity="0" stroke-width="1.000000"/>
		<path id="󰖤" d="M17.74 10.91Q17.59 11.04 17.32 11.04L14.39 11.04Q14.14 11.04 13.98 10.95Q13.89 10.9 13.85 10.82Q13.82 10.76 13.81 10.7Q13.81 10.66 13.8 10.63Q13.78 10.37 14.06 10.08L15.72 8.19L15.92 7.98Q16.33 7.53 16.49 7.24Q16.53 7.15 16.57 7.06Q16.64 6.85 16.64 6.61Q16.64 6.26 16.47 6.02Q16.44 5.98 16.41 5.95Q16.35 5.88 16.27 5.82Q16.08 5.69 15.79 5.69Q15.62 5.69 15.47 5.74Q15.37 5.78 15.27 5.84Q15.04 5.98 14.87 6.25Q14.82 6.34 14.75 6.4Q14.67 6.47 14.57 6.51Q14.37 6.58 14.23 6.52Q14.1 6.47 14.02 6.37Q13.97 6.31 13.95 6.22Q13.93 6.17 13.93 6.11Q13.92 5.96 14.01 5.8Q14.15 5.54 14.35 5.34Q14.53 5.15 14.77 5.01Q14.95 4.91 15.14 4.84Q15.48 4.72 15.87 4.72Q16.52 4.72 16.97 5.02Q17.1 5.11 17.22 5.23Q17.33 5.34 17.41 5.46Q17.72 5.91 17.72 6.58Q17.72 6.87 17.65 7.14Q17.58 7.37 17.47 7.59Q17.22 8.05 16.51 8.83L15.36 10.1L17.32 10.1Q17.59 10.1 17.74 10.23Q17.8 10.28 17.84 10.34Q17.9 10.44 17.9 10.57Q17.9 10.7 17.84 10.8Q17.8 10.86 17.74 10.91ZM6.22 5.13Q6.4 5.01 6.7 4.95Q6.86 4.93 7.02 4.93Q7.25 4.94 7.49 5.03Q7.65 5.09 7.79 5.18Q7.98 5.3 8.14 5.5L9.48 7.15Q9.66 7.35 9.74 7.58Q9.82 7.79 9.82 8.04Q9.81 8.28 9.72 8.48Q9.62 8.72 9.42 8.91L8.63 9.67Q8.5 9.82 8.43 9.99Q8.37 10.12 8.36 10.26Q8.34 10.43 8.38 10.59Q8.42 10.73 8.5 10.86Q9.17 11.94 10.68 13.45Q12.19 14.96 13.34 15.66Q13.56 15.78 13.79 15.8Q13.88 15.8 13.97 15.79Q14.12 15.78 14.24 15.72Q14.4 15.65 14.54 15.52L15.27 14.8Q15.45 14.62 15.68 14.52Q15.89 14.43 16.13 14.42Q16.38 14.42 16.6 14.49Q16.83 14.56 17.04 14.73Q17.95 15.41 18.85 16.12Q19 16.23 19.09 16.38Q19.2 16.55 19.25 16.75Q19.29 16.88 19.3 17.01Q19.32 17.27 19.25 17.54Q19.18 17.79 19.06 17.99Q18.97 18.12 18.85 18.24L18.4 18.69Q18.2 18.89 17.97 19.04Q17.6 19.29 17.15 19.43Q16.77 19.54 16.38 19.55Q16.03 19.57 15.69 19.5Q13.63 19.08 11.26 17.28Q10.55 16.74 9.9 16.15Q8.34 14.75 7.05 13.04Q5.23 10.62 4.74 8.52Q4.67 8.21 4.66 7.91Q4.65 7.47 4.77 7.03Q4.89 6.65 5.09 6.33Q5.28 6.01 5.55 5.75L5.69 5.6Q6.04 5.26 6.22 5.13Z" fill="#FFFFFF" fill-opacity="1.000000" fill-rule="evenodd"/>
	</g>
</svg>
