<?xml version="1.0" encoding="UTF-8"?>
<svg width="24px" height="24px" viewBox="0 0 24 24" version="1.1" xmlns="http://www.w3.org/2000/svg" xmlns:xlink="http://www.w3.org/1999/xlink">
    <title>卡2来电备份 2</title>
    <g id="卡2来电备份-2" stroke="none" stroke-width="1" fill="none" fill-rule="evenodd">
        <rect id="矩形" x="0" y="0" width="24" height="24"></rect>
        <g id="编组" transform="translate(2.000000, 2.000000)" fill="#FFFFFF" fill-rule="nonzero">
            <path d="M2.78336169,0.035621262 C3.52775989,-0.107042998 4.28985811,0.186721332 4.76352073,0.775242452 L4.76352073,0.775242452 L6.29669184,2.67677106 C6.39217225,2.79586471 6.48939774,2.91495836 6.59160914,3.02908978 C7.216411,3.73275452 7.18499521,4.79831407 6.51981186,5.46430681 L6.51981186,5.46430681 L5.43213291,6.49024898 C5.00005324,6.92127336 4.92292245,7.59159993 5.24590871,8.1086821 C6.46471742,10.0692613 9.7546783,13.3579828 11.8826699,14.6628026 C12.4012435,14.9798455 13.0707032,14.9010007 13.5006017,14.4722527 L13.5006017,14.4722527 L14.4928002,13.5080904 C15.1479457,12.8600751 16.1909401,12.8146111 16.9005021,13.4031391 C17.0164248,13.4999027 17.1325968,13.5964182 17.2532561,13.6872271 L17.2532561,13.6872271 L19.4054295,15.3091338 C20.1981902,16.1027003 20.1981902,17.3844836 19.4054295,18.1780502 L19.4054295,18.1780502 L18.7821892,18.7983296 C17.8136738,19.7622438 16.4245958,20.1907328 15.0818869,19.920291 C9.2865001,18.7529251 1.46209228,10.7627337 0.103179152,4.91275434 C-0.211722628,3.54196923 0.204956662,2.10641241 1.20581587,1.11391502 L1.20581587,1.11391502 L1.73183067,0.590399182 C2.01853009,0.304735682 2.38489368,0.111445682 2.78336169,0.035621262 Z M16.0926431,1.95268512e-09 C16.6882055,1.95268512e-09 17.133515,0.167985042 17.4277929,0.504338652 C17.7220708,0.841075792 17.8692098,1.29210413 17.8692098,1.85742365 C17.8692098,2.25130639 17.7909692,2.65247615 17.6348774,3.06016588 C17.4783963,3.46862266 17.1969638,4.06270675 16.7901907,4.8431852 L15.852861,6.62543746 L18,6.62543746 L18,8 L14,8 L14,6.85095163 L15.4604905,4.19847548 C15.7726742,3.62586893 15.9836512,3.19631814 16.0926431,2.9098231 C16.2016349,2.62332806 16.2561308,2.33721655 16.2561308,2.05072151 C16.2561308,1.83632964 16.2304399,1.67869984 16.1798365,1.57821564 C16.1288439,1.47811496 16.0490463,1.42787286 15.9400545,1.42787286 C15.7874659,1.42787286 15.6636824,1.52989117 15.569093,1.7339278 C15.474893,1.93796443 15.3876995,2.26933218 15.3079019,2.72726401 L14.0326975,2.0296275 C14.2720903,0.676158972 14.9591281,1.95268512e-09 16.0926431,1.95268512e-09 Z" id="形状结合"></path>
        </g>
    </g>
</svg>