<?xml version="1.0" encoding="UTF-8"?>
<svg width="30px"
     height="30px"
     viewBox="0 0 30 30"
     version="1.1"
     xmlns="http://www.w3.org/2000/svg"
     xmlns:xlink="http://www.w3.org/1999/xlink">
    <title>画板</title>
    <defs>
        <path
            d="M2.6285919,8.62096206 C2.23612181,6.91325055 2.75552171,5.12455319 4.0022372,3.88796137 C4.69451083,3.110549 5.3497957,2.66266084 5.96809183,2.54429689 C6.89553603,2.36675096 7.84517347,2.73274476 8.43504666,3.46590043 L10.441947,5.94672056 C10.5423728,6.06965455 10.6210445,6.16533862 10.6689137,6.22251729 L10.7127748,6.27392947 C11.4734069,7.13082927 11.4535081,8.41834094 10.6785171,9.25084176 L10.6232231,9.30817382 L9.26826689,10.5864266 C8.72978858,11.1233473 8.63361784,11.958514 9.03621116,12.6028967 C9.81696173,13.8589038 11.279944,15.5523706 12.8775553,17.122358 C14.4476294,18.720056 16.1410962,20.1830383 17.3971033,20.9637888 C18.041486,21.3663822 18.8766527,21.2702114 19.4135734,20.7317331 L20.6918262,19.3767769 L20.7491582,19.3214829 C21.559159,18.5674376 22.7999079,18.5282203 23.655666,19.2272622 L23.8713294,19.408893 C24.3622612,19.813431 25.898698,21.0537299 26.5340996,21.5649533 C27.2672552,22.1548265 27.633249,23.104464 27.4557031,24.0319082 C27.3373392,24.6502043 26.889451,25.3054892 26.1120386,25.9977628 C24.8754468,27.2444783 23.0867494,27.7638782 21.3790379,27.3714081 C17.7423984,26.5265496 13.4420055,23.6763761 9.86475106,20.1353357 C6.32362391,16.5579945 3.47345039,12.2576016 2.6285919,8.62096206 Z"
            id="path-1"></path>
    </defs>
    <g
        id="画板"
        stroke="none"
        stroke-width="1"
        fill="none"
        fill-rule="evenodd">
        <mask
            id="mask-2"
            fill="white">
            <use xlink:href="#path-1"></use>
        </mask>
        <use
            id="路径"
            fill="#64BB5C"
            xlink:href="#path-1"></use>
    </g>
</svg>