<?xml version="1.0" encoding="UTF-8"?>
<svg width="24px" height="24px" viewBox="0 0 24 24" version="1.1" xmlns="http://www.w3.org/2000/svg" xmlns:xlink="http://www.w3.org/1999/xlink">
    <title>反诈盾牌+星_最终版</title>
    <g id="页面-1" stroke="none" stroke-width="1" fill="none" fill-rule="evenodd">
        <g id="反诈盾牌+星_最终版">
            <g transform="translate(1.700092, 1.000000)" fill="#000000" fill-rule="nonzero">
                <path d="M10.3016185,0 C12.7342377,0 15.0756337,0.43584428 17.2548551,1.24671735 C17.7008353,1.41902787 18.0251845,1.80419258 18.2279028,2.24003686 C18.3698056,2.55425017 18.552252,2.8785994 18.7651062,3.07118176 C19.0286399,3.30430776 19.5050279,3.45634646 19.9206003,3.5577056 C20.2854932,3.64892882 20.5794347,3.95300622 20.5895706,4.33817093 L20.6007324,4.84735151 L20.6015404,5.47250953 L20.59346,5.94678279 L20.5764777,6.46220559 L20.5305502,7.30339866 L20.4837874,7.90350229 C20.2770279,10.2575303 19.7413547,13.1977594 18.4407569,15.6701221 C16.860724,18.6500806 14.2954533,20.3736957 12.4646602,21.284248 L12.0232588,21.4952038 L11.6460078,21.6621024 L11.3050739,21.8023497 C10.6563755,22.0658834 9.93672564,22.0658834 9.28802724,21.8023497 L8.94709574,21.6621024 L8.56986214,21.4952038 L8.12851297,21.284248 C6.29802272,20.3736957 3.73432635,18.6500806 2.16248009,15.6701221 C0.91256193,13.3052535 0.36929382,10.512318 0.14519837,8.21378718 L0.09170368,7.59986618 L0.07034552,7.30339866 L0.03731587,6.73404856 L0.01574621,6.1996104 L0.00388982,5.70424257 L0,5.25210347 L0.00233005,4.84735151 L0.01366646,4.33817093 C0.02380237,3.95300622 0.30760794,3.64892882 0.68263674,3.5577056 C1.08807327,3.45634646 1.5644612,3.30430776 1.82799495,3.07118176 C2.00638703,2.90900714 2.15883116,2.6754757 2.28532736,2.42767289 L2.37533427,2.24003686 C2.56791663,1.79405667 2.89226586,1.41902787 3.34838196,1.24671735 C5.52760334,0.43584428 7.85886342,0 10.3016185,0 Z M10.3016185,1.5 C8.07492238,1.5 5.9189008,1.89072007 3.87848281,2.64992549 C3.85877621,2.6573702 3.82172418,2.69422526 3.76453516,2.80968758 L3.62132567,3.10966155 C3.40583243,3.53180728 3.15608521,3.89101816 2.82185578,4.1946766 C2.5131005,4.46780627 2.16136252,4.65682219 1.73548341,4.80889909 L1.50190764,4.886 L1.4999445,5.23919924 L1.50346036,5.66835108 L1.51452603,6.13912038 L1.53479811,6.64717529 L1.56646805,7.19561476 L1.58604138,7.46965541 L1.63811982,8.06823468 C1.89431208,10.6959801 2.48970238,13.0791855 3.48922436,14.9703009 C4.60500279,17.0856309 6.37326356,18.6645596 8.44568494,19.761667 L8.77538614,19.9308984 L9.17675874,20.1234617 L9.51774644,20.2748902 L9.85259274,20.4126498 C10.0983251,20.5124786 10.3645204,20.5267399 10.6122695,20.4569992 L10.7344268,20.415136 L11.0391345,20.29035 L11.376448,20.1418244 L11.7966843,19.9411888 C14.0328916,18.829002 15.9340166,17.1957785 17.1132367,14.971774 C18.083348,13.1276474 18.6723607,10.818538 18.9392258,8.29455605 L18.988321,7.7869688 L19.0327809,7.22162341 L19.0772912,6.41280982 L19.0936777,5.92123048 L19.1015416,5.47444815 L19.1009076,4.888 L19.0869548,4.88436958 C18.6343266,4.74449186 18.2553228,4.57150475 17.9218238,4.31747548 L17.7587362,4.18348542 C17.4345963,3.890216 17.1868267,3.52484319 16.9724347,3.09367237 L16.8678211,2.87263298 C16.8400629,2.81295291 16.8127597,2.76583103 16.7899812,2.73075864 L16.7317545,2.65255012 C14.6880584,1.89210506 12.5220323,1.5 10.3016185,1.5 Z" id="路径"></path>
                <path d="M10.3016185,3 L10.8091431,3.00743932 C12.3287201,3.05205088 13.8203692,3.2970851 15.2582861,3.73661436 L15.2582861,3.73661436 L15.6889076,3.875 L15.7557866,4.00204637 C16.0395795,4.51900897 16.3583261,4.93927658 16.7523662,5.29578909 L16.7523662,5.29578909 L16.9696075,5.47647687 L17.1911108,5.63661966 C17.2653446,5.68727297 17.3400752,5.73528292 17.4155947,5.78090229 L17.4155947,5.78090229 L17.5939076,5.882 L17.5781239,6.36283608 L17.5350471,7.13920075 L17.492938,7.66936869 L17.4461934,8.15014601 L17.3906989,8.6318912 C17.112789,10.858587 16.5703174,12.7819441 15.7857165,14.2734259 C14.8185369,16.0975057 13.2243348,17.5558612 11.1287084,18.5981295 L11.1287084,18.5981295 L10.7301743,18.7881884 L10.4346597,18.9175389 L10.2979076,18.973 L10.0884522,18.8877006 L9.78555824,18.752563 L9.42422094,18.5784882 L9.13065274,18.4271937 L8.79711844,18.2441716 C7.04256947,17.2466067 5.67910622,15.9068448 4.81596863,14.2704798 C3.94880082,12.6297799 3.37918837,10.4679089 3.13104128,7.92268217 L3.13104128,7.92268217 L3.08039621,7.33964142 L3.06265649,7.08874965 L3.03230343,6.560701 L3.01333337,6.07931595 L3.00890764,5.879 L3.19701486,5.77299443 C3.41832843,5.63913364 3.62249948,5.48909427 3.8157166,5.31817144 L3.8157166,5.31817144 L4.01302441,5.12874809 C4.33042995,4.80643893 4.59224385,4.44998264 4.82265332,4.04244096 L4.82265332,4.04244096 L4.91190764,3.874 L5.35459876,3.73288419 C6.94510034,3.24686373 8.60289344,3 10.3016185,3 L10.3016185,3 Z M11.3689674,9.5295499 C11.3287747,9.5265505 11.2937606,9.5567018 11.2907613,9.5968945 L11.2907613,9.5968945 L11.2416589,10.2548962 L10.6717759,10.5874781 C10.6579143,10.5955677 10.6471061,10.6080012 10.6410244,10.6228537 C10.6257516,10.6601525 10.6436072,10.7027701 10.6809059,10.7180429 L10.6809059,10.7180429 L11.2915293,10.9680757 L11.4317299,11.6128401 C11.4351401,11.6285231 11.4436251,11.6426445 11.4558714,11.6530182 C11.486625,11.6790694 11.5326745,11.6752574 11.5587257,11.6445037 L11.5587257,11.6445037 L11.9852141,11.1410308 L12.6417458,11.2069352 C12.657715,11.2085382 12.6737673,11.2048322 12.6874176,11.196391 C12.7216972,11.1751928 12.7323017,11.1302192 12.7111035,11.0959396 L12.7111035,11.0959396 L12.3640645,10.5347434 L12.6296227,9.9307102 C12.6360821,9.9160179 12.6375179,9.8996061 12.633708,9.8840154 C12.6241403,9.844863 12.5846448,9.8208798 12.5454924,9.8304475 L12.5454924,9.8304475 L11.9045221,9.9870821 L11.4121144,9.5478647 C11.4001373,9.5371813 11.3849724,9.5307442 11.3689674,9.5295499 Z M9.22481604,9.530782 L9.19069644,9.5478647 L8.69828874,9.9870821 L8.0573185,9.8304475 C8.0417278,9.8266376 8.02531594,9.8280735 8.01062368,9.8345328 C7.97372749,9.8507539 7.95696702,9.893814 7.97318814,9.9307102 L7.97318814,9.9307102 L8.23874642,10.5347434 L7.89170736,11.0959396 C7.88326612,11.1095899 7.87956016,11.1256422 7.88116319,11.1416114 C7.88518883,11.1817144 7.92096214,11.2109608 7.9610651,11.2069352 L7.9610651,11.2069352 L8.61759684,11.1410308 L9.04408514,11.6445037 C9.05445894,11.65675 9.06858034,11.665235 9.08426334,11.6686452 C9.12364754,11.677209 9.16251704,11.6522243 9.17108094,11.6128401 L9.17108094,11.6128401 L9.31128164,10.9680757 L9.92190494,10.7180429 C9.93675754,10.7119612 9.94919104,10.7011529 9.95728064,10.6872913 C9.97759574,10.6524811 9.96584514,10.6077932 9.93103494,10.5874781 L9.93103494,10.5874781 L9.36115194,10.2548962 L9.31204964,9.5968945 C9.31085524,9.5808896 9.30441814,9.5657247 9.29373484,9.5537475 C9.26690604,9.5236698 9.22077424,9.5210359 9.19069644,9.5478647 L9.22481604,9.530782 Z M14.2731385,7.43400326 C14.2398302,7.41130939 14.1944315,7.41991408 14.1717376,7.45322236 L14.1717376,7.45322236 L13.8002129,7.99851738 L13.1403888,8.00160025 C13.1243395,8.00167524 13.1087625,8.00703882 13.0960694,8.01686066 C13.0641934,8.04152594 13.0583479,8.08736168 13.0830132,8.11923766 L13.0830132,8.11923766 L13.4868121,8.64108411 L13.2858473,9.2695667 C13.2809591,9.2848537 13.2812466,9.3013257 13.2866653,9.3164328 C13.3002732,9.3543706 13.3420592,9.374094 13.3799971,9.3604861 L13.3799971,9.3604861 L14.0010833,9.13771 L14.5367042,9.5230507 C14.5497324,9.5324236 14.5654871,9.5372403 14.5815292,9.5367551 C14.6218153,9.5355367 14.653486,9.5018907 14.6522676,9.4616046 L14.6522676,9.4616046 L14.632321,8.80207489 L15.1643178,8.41174594 C15.1772579,8.40225174 15.1867073,8.38875659 15.1912032,8.37334968 C15.2024935,8.33465883 15.180281,8.29414108 15.1415901,8.28285075 L15.1415901,8.28285075 L14.5081763,8.09801515 L14.3013475,7.47143784 C14.2963167,7.45619723 14.286402,7.44304007 14.2731385,7.43400326 Z M6.39363868,7.42501338 C6.35536542,7.41237964 6.31409714,7.43316458 6.30146341,7.47143784 L6.30146341,7.47143784 L6.09463458,8.09801515 L5.46122074,8.28285075 C5.44581384,8.28734662 5.43231868,8.29679603 5.42282448,8.30973611 C5.39898199,8.3422321 5.40599704,8.38790346 5.43849304,8.41174594 L5.43849304,8.41174594 L5.97048985,8.80207489 L5.95054331,9.4616046 C5.95005814,9.4776467 5.95487483,9.4934014 5.9642477,9.5064296 C5.9877855,9.539147 6.03338931,9.5465885 6.06610668,9.5230507 L6.06610668,9.5230507 L6.60172762,9.13771 L7.22281382,9.3604861 C7.23792087,9.3659048 7.2543929,9.3661924 7.26967986,9.3613042 C7.3080695,9.3490286 7.32923915,9.3079564 7.31696361,9.2695667 L7.31696361,9.2695667 L7.11599874,8.64108411 L7.51979766,8.11923766 C7.5296195,8.10654447 7.53498309,8.09096749 7.5350597,8.07491819 C7.53524638,8.03461412 7.50272614,8.00178856 7.46242206,8.00160025 L7.46242206,8.00160025 L6.802598,7.99851738 L6.43107326,7.45322236 C6.42203644,7.43995883 6.40887929,7.4300442 6.39363868,7.42501338 Z M10.3584201,5.01258708 C10.2981825,4.98285809 10.2252503,5.00759013 10.1955213,5.06782765 L10.1955213,5.06782765 L9.70882354,6.05398514 L8.62053414,6.21212285 C8.59406304,6.21596933 8.56959814,6.22843481 8.55092694,6.24758948 C8.50403854,6.295692 8.50502284,6.37269733 8.55312534,6.41958569 L8.55312534,6.41958569 L9.34061894,7.18720225 L9.15471694,8.27109422 C9.15019514,8.29745837 9.15449044,8.3245779 9.16693794,8.34825438 C9.19819684,8.40771236 9.27173734,8.43057222 9.33119534,8.39931331 L9.33119534,8.39931331 L10.304591,7.88756894 L11.2779866,8.39931331 C11.3016631,8.41176077 11.3287826,8.41605608 11.3551468,8.41153428 C11.4213542,8.40017882 11.4658205,8.33730166 11.454465,8.27109422 L11.454465,8.27109422 L11.268563,7.18720225 L12.0560566,6.41958569 C12.0752113,6.4009145 12.0876768,6.37644962 12.0915233,6.34997851 C12.1011828,6.28350247 12.0551239,6.22178239 11.9886479,6.21212285 L11.9886479,6.21212285 L10.9003584,6.05398514 L10.4136606,5.06782765 C10.4018224,5.04384075 10.382407,5.02442532 10.3584201,5.01258708 Z" id="形状结合"></path>
            </g>
        </g>
    </g>
</svg>