<?xml version="1.0" encoding="UTF-8"?>
<svg width="32px" height="32px" viewBox="0 0 32 32" version="1.1" xmlns="http://www.w3.org/2000/svg" xmlns:xlink="http://www.w3.org/1999/xlink">
    <title>白色头挂式耳机</title>
    <g id="白色头挂式耳机" stroke="none" stroke-width="1" fill="none" fill-rule="evenodd">
        <path d="M16,1.66666667 C23.4724127,1.66666667 29.5441483,7.66367813 29.6648357,15.10733 L29.6666667,15.3333333 L29.6666667,26.3333333 C29.6666667,27.758143 28.8539895,28.9931417 27.6668804,29.6000843 L27.6666667,15.3333333 C27.6666667,8.89001125 22.4433221,3.66666667 16,3.66666667 C9.62111114,3.66666667 4.43792222,8.78606669 4.33489633,15.1404037 L4.33333333,15.3333333 L4.3331196,29.6000843 C3.14601048,28.9931417 2.33333333,27.758143 2.33333333,26.3333333 L2.33333333,15.3333333 C2.33333333,7.78544175 8.45210842,1.66666667 16,1.66666667 Z" id="路径" fill="#FFFFFF"></path>
        <path d="M6,18 C8.02504408,18 9.66666667,19.6416226 9.66666667,21.6666667 L9.66666667,26.3333333 C9.66666667,28.3583774 8.02504408,30 6,30 C5.39971908,30 4.83312936,29.8557508 4.3330034,29.6000249 L4.3330034,18.3999751 C4.83312936,18.1442492 5.39971908,18 6,18 Z M26,18 C26.6002344,18 27.1667829,18.1442269 27.6668804,18.3999157 L27.6668804,29.6000843 C27.1667829,29.8557731 26.6002344,30 26,30 C23.9749559,30 22.3333333,28.3583774 22.3333333,26.3333333 L22.3333333,21.6666667 C22.3333333,19.6416226 23.9749559,18 26,18 Z" id="形状" fill="#FFFFFF" opacity="0.600051153"></path>
    </g>
</svg>