<?xml version="1.0" encoding="UTF-8"?>
<svg width="32px" height="32px" viewBox="0 0 32 32" version="1.1" xmlns="http://www.w3.org/2000/svg" xmlns:xlink="http://www.w3.org/1999/xlink">
    <title>白色</title>
    <g id="白色" stroke="none" stroke-width="1" fill="none" fill-rule="evenodd">
        <path d="M12.3333333,13.6666667 L12.3331901,28 L8.00008511,28 L8,14.0192111 C8.58462442,14.1448986 9.16493049,14.2122158 9.71928552,14.2122158 C10.6479231,14.2122158 11.531645,14.0177162 12.3333333,13.6666667 Z M19.6669418,13.6666667 C20.4685792,14.0177162 21.3522451,14.2122158 22.2808237,14.2122158 C22.7735524,14.2122158 23.2867843,14.1590269 23.8053272,14.0589328 L24,14.0192111 L23.9995816,28 L19.6666667,28 L19.6669418,13.6666667 Z M9.719125,2 C12.8197666,2 15.3333333,4.53705308 15.3333333,7.66666667 C15.3333333,10.7962802 12.8197666,13.3333333 9.719125,13.3333333 C7.46808538,13.3333333 4.41201595,11.9961447 3.11158654,10.0658154 C2.88021116,9.72236682 2.67655393,8.8101754 2.6670535,7.86740651 C2.66374745,7.53933278 2.68177915,7.20755622 2.71552501,6.89475532 L2.74028855,6.68928148 C2.82119298,6.08278681 2.95995525,5.57235348 3.11158654,5.33940953 C4.39323818,3.37046892 7.44024533,2 9.719125,2 Z M22.280875,2 C24.5597547,2 27.6067618,3.37046892 28.8884135,5.33940953 C29.0400447,5.57235348 29.178807,6.08278681 29.2597114,6.68928148 L29.284475,6.89475532 C29.3182208,7.20755622 29.3362526,7.53933278 29.3329465,7.86740651 C29.3234461,8.8101754 29.1197888,9.72236682 28.8884135,10.0658154 C27.5879841,11.9961447 24.5319146,13.3333333 22.280875,13.3333333 C19.1802334,13.3333333 16.6666667,10.7962802 16.6666667,7.66666667 C16.6666667,4.53705308 19.1802334,2 22.280875,2 Z M4.1476841,5.74595918 C3.63904898,5.88315271 3.33333333,6.86337908 3.33333333,7.90729371 C3.33333333,8.95120834 3.74894107,9.79746835 4.26160796,9.79746835 C4.77427486,9.79746835 5.18987342,8.95120834 5.18987342,7.90729371 C5.18987342,7.17748829 5.13073558,6.38965713 4.85456262,5.99314881 C4.69093291,5.75822162 4.48554283,5.65482895 4.1476841,5.74595918 Z M27.1454374,5.99314881 C26.8692644,6.38965713 26.8101266,7.17748829 26.8101266,7.90729371 C26.8101266,8.95120834 27.2257251,9.79746835 27.738392,9.79746835 C28.2510589,9.79746835 28.6666667,8.95120834 28.6666667,7.90729371 C28.6666667,6.86337908 28.360951,5.88315271 27.8523159,5.74595918 C27.5144572,5.65482895 27.3090671,5.75822162 27.1454374,5.99314881 Z M20.5056559,6.50671387 C19.8613237,6.50671387 19.3389893,7.02904833 19.3389893,7.67338053 C19.3389893,8.31771274 19.8613237,8.8400472 20.5056559,8.8400472 C21.1499881,8.8400472 21.6723226,8.31771274 21.6723226,7.67338053 C21.6723226,7.02904833 21.1499881,6.50671387 20.5056559,6.50671387 Z M24.1723226,6.50671387 C23.5279904,6.50671387 23.0056559,7.02904833 23.0056559,7.67338053 C23.0056559,8.31771274 23.5279904,8.8400472 24.1723226,8.8400472 C24.8166548,8.8400472 25.3389893,8.31771274 25.3389893,7.67338053 C25.3389893,7.02904833 24.8166548,6.50671387 24.1723226,6.50671387 Z M11.4972331,6.49308268 C10.8529009,6.49308268 10.3305664,7.01541714 10.3305664,7.65974935 C10.3305664,8.30408156 10.8529009,8.82641602 11.4972331,8.82641602 C12.1415653,8.82641602 12.6638997,8.30408156 12.6638997,7.65974935 C12.6638997,7.01541714 12.1415653,6.49308268 11.4972331,6.49308268 Z M7.83056641,6.49308268 C7.1862342,6.49308268 6.66389974,7.01541714 6.66389974,7.65974935 C6.66389974,8.30408156 7.1862342,8.82641602 7.83056641,8.82641602 C8.47489861,8.82641602 8.99723307,8.30408156 8.99723307,7.65974935 C8.99723307,7.01541714 8.47489861,6.49308268 7.83056641,6.49308268 Z" id="形状" fill="#FFFFFF"></path>
        <path d="M4.1476841,5.74595918 C4.48554283,5.65482895 4.69093291,5.75822162 4.85456262,5.99314881 C5.13073558,6.38965713 5.18987342,7.17748829 5.18987342,7.90729371 C5.18987342,8.95120834 4.77427486,9.79746835 4.26160796,9.79746835 C3.74894107,9.79746835 3.33333333,8.95120834 3.33333333,7.90729371 C3.33333333,6.86337908 3.63904898,5.88315271 4.1476841,5.74595918 Z M27.8523159,5.74595918 C28.360951,5.88315271 28.6666667,6.86337908 28.6666667,7.90729371 C28.6666667,8.95120834 28.2510589,9.79746835 27.738392,9.79746835 C27.2257251,9.79746835 26.8101266,8.95120834 26.8101266,7.90729371 C26.8101266,7.17748829 26.8692644,6.38965713 27.1454374,5.99314881 C27.3090671,5.75822162 27.5144572,5.65482895 27.8523159,5.74595918 Z" id="形状" fill="#FFFFFF" opacity="0.602389381"></path>
        <path d="M12.3333333,28 L12.3333333,29.1666667 C12.3333333,30.3632836 11.3632836,31.3333333 10.1666667,31.3333333 C8.97004971,31.3333333 8,30.3632836 8,29.1666667 L8,28 L12.3333333,28 Z M24,28 L24,29.1666667 C24,30.3632836 23.0299503,31.3333333 21.8333333,31.3333333 C20.6627298,31.3333333 19.7089498,30.4050013 19.6680343,29.244378 L19.6666667,29.1666667 L19.6666667,28 L24,28 Z" id="形状" fill="#FFFFFF" opacity="0.602389381"></path>
    </g>
</svg>