<?xml version="1.0" encoding="UTF-8"?>
<svg width="32px" height="32px" viewBox="0 0 32 32" version="1.1" xmlns="http://www.w3.org/2000/svg" xmlns:xlink="http://www.w3.org/1999/xlink">
    <title>听筒</title>
    <defs>
        <path d="M15.7852953,2.33333333 C20.8498241,2.33333333 25.0704582,6.33551018 25.0991973,11.6764266 C25.1004703,11.9373344 25.0901372,12.1909719 25.0678563,12.4373457 C25.0015325,13.1707324 24.3532389,13.7114938 23.6198521,13.6451699 C22.8864653,13.578846 22.345704,12.9305524 22.4120279,12.1971656 C22.4265169,12.0369511 22.4333946,11.8681314 22.432444,11.6907132 C22.4118466,7.84615888 19.4103313,5 15.7852953,5 C12.198435,5 9.30730414,7.6511581 9.12060091,11.3942545 C8.98246215,14.1637122 9.93522105,16.282482 11.7182785,18.4260249 L11.9919318,18.7478265 C13.5509625,20.5427658 14.1795314,21.9159408 14.3718747,24.2747846 C14.5290741,26.2026341 15.6614382,26.9916138 17.6433368,26.9916138 C18.938421,26.9916138 20.1027962,26.2219993 20.744807,25.0744304 L20.858967,24.8549277 C21.1787095,24.1915879 21.9756552,23.9130472 22.638995,24.2327897 C23.3023349,24.5525323 23.5808755,25.349478 23.261133,26.0128178 C22.2276198,28.1569508 20.1048199,29.6582804 17.6433368,29.6582804 C14.5031443,29.6582804 12.1498167,28.0869623 11.7468941,24.8136033 L11.7140294,24.4915089 C11.5793958,22.8404005 11.2297165,21.9916776 10.1948972,20.7503498 L9.9786588,20.4964954 C7.61181115,17.7715024 6.27103559,14.9946108 6.45724533,11.261408 C6.71583982,6.07700877 10.7983786,2.33333333 15.7852953,2.33333333 Z M15.7876009,8 C17.9618877,8 19.7842107,9.72111261 19.7842107,11.930141 C19.7842107,12.0438569 19.7797246,12.1530696 19.770306,12.2583952 C19.7047181,12.9918482 19.0569675,13.5332597 18.3235145,13.4676718 C17.6424511,13.4067687 17.1269743,12.8438988 17.1093229,12.1765561 L17.117544,11.930141 C17.117544,11.22902 16.5221214,10.6666667 15.7876009,10.6666667 C15.0300171,10.6666667 14.4517746,11.2043117 14.4517746,11.930141 C14.4517746,12.3276928 14.570647,12.7822315 14.7548736,13.0693639 L14.8395429,13.1979699 L14.9838552,13.3987776 C15.0048197,13.4258057 15.0241381,13.4495563 15.0416569,13.4699431 L15.0886615,13.5209255 C15.6130353,14.0379237 15.6190144,14.8821225 15.1020162,15.4064963 C14.585018,15.9308701 13.7408192,15.9368492 13.2164455,15.419851 C12.9842605,15.1909319 12.7553243,14.8910463 12.5104572,14.5094007 C12.0344753,13.7675435 11.7851079,12.8140247 11.7851079,11.930141 C11.7851079,9.68643125 13.5988814,8 15.7876009,8 Z" id="path-1"></path>
    </defs>
    <g id="听筒" stroke="none" stroke-width="1" fill="none" fill-rule="evenodd">
        <mask id="mask-2" fill="white">
            <use xlink:href="#path-1"></use>
        </mask>
        <use id="形状结合" fill-opacity="0.901960784" fill="#0A59f7" fill-rule="nonzero" xlink:href="#path-1"></use>
    </g>
</svg>