<?xml version="1.0" encoding="UTF-8"?>
<svg width="32px" height="32px" viewBox="0 0 32 32" version="1.1" xmlns="http://www.w3.org/2000/svg" xmlns:xlink="http://www.w3.org/1999/xlink">
    <title>蓝牙加粗32*32</title>
    <defs>
        <path d="M18.8276667,16.9423331 L23.5531475,21.6675295 C24.4436613,22.5580432 24.4639002,23.9892763 23.6138644,24.9043682 L23.5531475,24.9673611 L18.2795195,30.0124979 C17.3482767,30.9032519 15.8712564,30.8704293 14.9805023,29.9391864 C14.5882264,29.5290797 14.3596573,28.9909761 14.3354715,28.4262473 L14.3333333,28.3263336 L14.3326667,21.4373331 L18.8276667,16.9423331 Z M17,18.8856667 L17,27.546 L21.4263333,23.312 L17,18.8856667 Z M14.3326667,19.5523331 L8.94280904,24.942809 C8.43946662,25.4461515 7.63381188,25.4629295 7.1103153,24.9931433 L7.05719096,24.942809 C6.55384854,24.4394666 6.53707046,23.6338119 7.00685672,23.1103153 L7.05719096,23.057191 L14.1143333,16 L7.05719096,8.94280904 C6.55384854,8.43946662 6.53707046,7.63381188 7.00685672,7.1103153 L7.05719096,7.05719096 C7.56053338,6.55384854 8.36618812,6.53707046 8.8896847,7.00685672 L8.94280904,7.05719096 L14.3333333,12.4476667 L14.3333333,3.67366642 C14.3333333,2.41184918 15.3349278,1.38396686 16.5864501,1.34168609 L16.6666667,1.34033308 C17.234177,1.34033308 17.7810253,1.54710899 18.2058397,1.91998457 L18.2795195,1.98750208 L23.5160846,6.99639039 C24.4261628,7.86690001 24.4781941,9.29733025 23.6486984,10.2310813 L23.5531475,10.3324705 L14.3326667,19.5523331 Z M17,4.45366667 L17,13.114 L21.4263333,8.68766667 L17,4.45366667 Z" id="path-1"></path>
    </defs>
    <g id="蓝牙加粗32*32" stroke="none" stroke-width="1" fill="none" fill-rule="evenodd">
        <mask id="mask-2" fill="#000000">
            <use xlink:href="#path-1"></use>
        </mask>
        <use id="形状结合" fill="#0A59f7" fill-rule="nonzero" xlink:href="#path-1"></use>
    </g>
</svg>