<?xml version="1.0" encoding="UTF-8"?>
<svg width="192px" height="192px" viewBox="0 0 192 192" version="1.1" xmlns="http://www.w3.org/2000/svg" xmlns:xlink="http://www.w3.org/1999/xlink">
    <title>ic_xiaoyi_call_filled</title>
    <defs>
        <linearGradient x1="13.6967289%" y1="8.86205118%" x2="100%" y2="106.189423%" id="linearGradient-1">
            <stop stop-color="#9F5CFF" offset="0%"></stop>
            <stop stop-color="#D757F8" offset="37.2622391%"></stop>
            <stop stop-color="#FF5C9A" offset="100%"></stop>
        </linearGradient>
    </defs>
    <g id="页面-1" stroke="none" stroke-width="1" fill="none" fill-rule="evenodd">
        <g id="ic_xiaoyi_call_filled" fill-rule="nonzero">
            <path d="M61.5332448,-2.48601674e-15 L130.466755,-2.48601674e-15 C151.863205,-2.48601674e-15 159.622075,2.22781467 167.444297,6.41118489 C175.266519,10.5945551 181.405445,16.7334809 185.588815,24.5557031 C189.772185,32.3779253 192,40.136795 192,61.5332448 L192,130.466755 C192,151.863205 189.772185,159.622075 185.588815,167.444297 C181.405445,175.266519 175.266519,181.405445 167.444297,185.588815 C159.622075,189.772185 151.863205,192 130.466755,192 L61.5332448,192 C40.136795,192 32.3779253,189.772185 24.5557031,185.588815 C16.7334809,181.405445 10.5945551,175.266519 6.41118489,167.444297 C2.22781467,159.622075 -1.65734449e-15,151.863205 -1.65734449e-15,130.466755 L-1.65734449e-15,61.5332448 C-1.65734449e-15,40.136795 2.22781467,32.3779253 6.41118489,24.5557031 C10.5945551,16.7334809 16.7334809,10.5945551 24.5557031,6.41118489 C32.3779253,2.22781467 40.136795,-2.48601674e-15 61.5332448,-2.48601674e-15 Z" id="path-2" fill="#FFFFFF"></path>
            <path d="M50.11,34.38 C48.3766667,34.6833333 46.99,35.2033333 45.95,35.94 C44.91,36.6766667 43.3933333,38.02 41.4,39.97 L40.165,41.27 C36.915,44.39 34.6833333,48.0733333 33.47,52.32 C32.2133333,56.5666667 32.105,60.8783333 33.145,65.255 C35.9616667,77.345 42.635,90.3666667 53.165,104.32 C63.7383333,118.316667 75.8933333,130.536667 89.63,140.98 C103.323333,151.466667 116.106667,157.901667 127.98,160.285 C132.226667,161.195 136.43,161.043333 140.59,159.83 C144.75,158.573333 148.39,156.385 151.51,153.265 L155.41,149.365 C157.1,147.675 158.248333,145.66 158.855,143.32 C159.505,140.98 159.526667,138.726667 158.92,136.56 C158.356667,134.393333 157.186667,132.573333 155.41,131.1 C150.21,127.026667 144.966667,123.018333 139.68,119.075 C137.383333,117.211667 134.783333,116.323333 131.88,116.41 C128.976667,116.54 126.485,117.645 124.405,119.725 L117.97,125.77 C116.626667,127.156667 115.023333,127.98 113.16,128.24 C111.296667,128.5 109.476667,128.11 107.7,127.07 C101.026667,122.91 93.335,116.496667 84.625,107.83 C75.8716667,99.2066667 69.5666667,91.775 65.71,85.535 C64.67,83.975 64.2583333,82.2416667 64.475,80.335 C64.6916667,78.385 65.4716667,76.695 66.815,75.265 L73.705,68.7 C75.8716667,66.62 77.02,64.1066667 77.15,61.16 C77.2366667,58.17 76.24,55.5916667 74.16,53.425 L62.59,39.06 C61.16,37.1966667 59.2966667,35.8533333 57,35.03 C54.7033333,34.1633333 52.4066667,33.9466667 50.11,34.38 Z" id="路径" fill="url(#linearGradient-1)"></path>
            <path d="M104.58,30.35 C103.756667,34.0766667 102.023333,37.24 99.38,39.84 C96.6933333,42.44 93.595,44.0433333 90.085,44.65 C89.565,44.78 89.305,45.105 89.305,45.625 C89.305,46.145 89.565,46.4483333 90.085,46.535 C93.725,47.2716667 96.845,48.9183333 99.445,51.475 C102.045,54.0316667 103.756667,57.13 104.58,60.77 C104.796667,61.4633333 105.078333,61.81 105.425,61.81 C105.815,61.81 106.096667,61.4633333 106.27,60.77 C107.44,57 109.238333,53.8366667 111.665,51.28 C114.135,48.7666667 117.19,47.185 120.83,46.535 C121.436667,46.4483333 121.761667,46.145 121.805,45.625 C121.848333,45.105 121.523333,44.78 120.83,44.65 C117.19,44.0433333 114.135,42.4616667 111.665,39.905 C109.238333,37.3483333 107.44,34.1633333 106.27,30.35 C106.096667,29.6133333 105.815,29.245 105.425,29.245 C105.078333,29.245 104.796667,29.6133333 104.58,30.35 Z M135.325,51.41 C134.285,57.3033333 131.706667,62.3083333 127.59,66.425 C123.473333,70.5416667 118.295,73.4883333 112.055,75.265 C111.448333,75.4816667 111.123333,75.915 111.08,76.565 C110.993333,77.2583333 111.318333,77.6483333 112.055,77.735 C117.905,78.905 122.953333,81.7 127.2,86.12 C131.446667,90.54 134.155,95.6966667 135.325,101.59 C135.541667,102.326667 135.996667,102.695 136.69,102.695 C137.426667,102.695 137.86,102.326667 137.99,101.59 C139.203333,95.5666667 141.976667,90.3666667 146.31,85.99 C150.643333,81.6566667 155.713333,78.905 161.52,77.735 C162.473333,77.6483333 162.906667,77.2583333 162.82,76.565 C162.776667,75.915 162.343333,75.4816667 161.52,75.265 C155.366667,73.4883333 150.21,70.5416667 146.05,66.425 C141.89,62.3083333 139.203333,57.3033333 137.99,51.41 C137.773333,50.6733333 137.318333,50.2833333 136.625,50.24 C135.975,50.1533333 135.541667,50.5433333 135.325,51.41 Z" id="形状" fill="#D757F8" opacity="0.4"></path>
        </g>
    </g>
</svg>