<svg viewBox="0 0 24 24" xmlns="http://www.w3.org/2000/svg" xmlns:xlink="http://www.w3.org/1999/xlink" width="24.000000" height="24.000000" fill="none">
	<rect id="矩形 15" width="24.000000" height="24.000000" x="0.000000" y="0.000000" opacity="0" fill="rgb(0,0,0)" />
	<path id="减去顶层" d="M5.86 1.98999Q5.22181 1.98999 4.64523 2.17849L4.64522 2.17849Q4.26415 2.30307 3.91 2.50999Q3.4813 2.75565 3.13844 3.08949Q2.76952 3.4487 2.5 3.90999Q2.27828 4.28231 2.14932 4.68438Q1.97 5.24343 1.97 5.85999L1.97 18.14Q1.97 18.7265 2.13228 19.2641Q2.26327 19.698 2.5 20.1Q2.77654 20.5786 3.15775 20.9498Q3.49332 21.2765 3.91 21.52Q4.24506 21.712 4.60422 21.8317Q5.19906 22.03 5.86 22.03L18.14 22.03Q18.7692 22.03 19.3421 21.8503Q19.7343 21.7272 20.1 21.52Q20.55 21.26 20.905 20.905Q21.26 20.55 21.52 20.1Q21.7272 19.7343 21.8503 19.3422L21.8503 19.3421Q22.03 18.7692 22.03 18.14L22.03 5.85999Q22.03 5.19905 21.8317 4.6042Q21.712 4.24504 21.52 3.90999Q21.2668 3.47671 20.9236 3.13349Q20.5619 2.7717 20.1 2.50999Q19.7157 2.28793 19.3022 2.1607L19.3021 2.16069Q18.7473 1.98999 18.14 1.98999L5.86 1.98999ZM18.6725 7.82C19.0177 7.82 19.2975 7.54018 19.2975 7.195L19.2975 6.35998L20.1325 6.35998C20.4777 6.35998 20.7575 6.08015 20.7575 5.73498C20.7575 5.3898 20.4777 5.10998 20.1325 5.10998L19.2975 5.10998L19.2975 4.27498C19.2975 3.92981 19.0177 3.64998 18.6725 3.64998C18.3273 3.64998 18.0475 3.92981 18.0475 4.27498L18.0475 5.10998L17.2125 5.10998C16.8673 5.10998 16.5875 5.3898 16.5875 5.73498C16.5875 6.08015 16.8673 6.35998 17.2125 6.35998L18.0475 6.35998L18.0475 7.195C18.0475 7.54018 18.3273 7.82 18.6725 7.82ZM5.518 7.84374Q5.87325 7.84374 6.114 8.00977L6.11401 8.00978Q6.18447 8.05838 6.24512 8.1212Q6.31207 8.18814 6.36286 8.26566Q6.52258 8.50945 6.52258 8.85789L6.52258 11.3359L9.21104 11.3359L9.21104 8.85789Q9.21104 8.57769 9.32739 8.35953Q9.39378 8.23504 9.49806 8.13076C9.68941 7.93941 9.93179 7.84374 10.2252 7.84374Q10.5804 7.84374 10.8212 8.00977L10.8212 8.00979Q10.8917 8.05838 10.9523 8.1212Q11.0192 8.18813 11.07 8.26564L11.07 8.26566Q11.2298 8.50945 11.2298 8.85789L11.2298 15.9761C11.2298 16.2822 11.1341 16.531 10.9428 16.7223Q10.8279 16.8372 10.6902 16.906Q10.4835 17.0094 10.2252 17.0094C9.93179 17.0094 9.68941 16.9137 9.49806 16.7223C9.30671 16.531 9.21104 16.2822 9.21104 15.9761L9.21104 13.1728L6.52258 13.1728L6.52258 15.9761C6.52258 16.2822 6.42691 16.531 6.23556 16.7223Q6.12075 16.8372 5.98298 16.906Q5.77632 17.0094 5.518 17.0094Q5.26494 17.0094 5.06249 16.9081Q4.91285 16.8333 4.79087 16.7032C4.59952 16.5055 4.50385 16.2631 4.50385 15.9761L4.50385 8.85789Q4.50385 8.52575 4.65398 8.2887Q4.71143 8.19799 4.79087 8.1212Q4.88532 8.02989 4.99635 7.96863Q5.22272 7.84374 5.518 7.84374ZM12.7223 8.85789Q12.7223 8.57769 12.8386 8.35953Q12.905 8.23504 13.0093 8.13076C13.2007 7.93941 13.443 7.84374 13.7365 7.84374L15.6404 7.84374Q16.7118 7.84374 17.525 8.30206Q17.5831 8.33483 17.64 8.36995Q17.8037 8.46675 17.9537 8.58136Q18.6195 9.08976 19.0177 9.94858Q19.4961 10.9914 19.4961 12.417Q19.4961 13.8808 18.989 14.895Q18.6 15.7353 17.9515 16.2465L17.9515 16.2466Q17.8026 16.364 17.64 16.464Q17.4666 16.5726 17.283 16.6596Q16.5446 17.0094 15.6404 17.0094L13.7365 17.0094C13.443 17.0094 13.2007 16.9073 13.0093 16.7032C12.818 16.5055 12.7223 16.2631 12.7223 15.9761L12.7223 8.85789ZM16.4944 14.9667Q16.7259 14.804 16.8937 14.5505Q17.3625 13.833 17.3625 12.417Q17.3625 11.0106 16.8841 10.3026C16.5589 9.82421 16.0837 9.58502 15.4586 9.58502L14.741 9.58502L14.741 15.2585L15.4586 15.2585Q16.079 15.2585 16.4944 14.9667Z" fill="rgb(0,0,0)" fill-rule="evenodd" />
</svg>
