<?xml version="1.0" encoding="UTF-8"?>
<svg width="24px" height="24px" viewBox="0 0 24 24" version="1.1" xmlns="http://www.w3.org/2000/svg" xmlns:xlink="http://www.w3.org/1999/xlink">
    <title>ic_诈骗电话备份</title>
    <defs>
        <path d="M8.9274,0 C9.1503,0 9.3732,0.0470555556 9.5814,0.142083333 L17.0439,3.542 C17.6247,3.80691667 18,4.39755556 18,5.04991667 L18,10.1499444 C18,10.4310556 17.9874,10.7106389 17.9685,10.9893056 C17.6118,16.1483056 14.0097,20.7765556 9.3093,21.9526389 C9.1836,21.9841111 9.0555,22 8.9271,22 C8.7993,22 8.6712,21.9841111 8.5461,21.9526389 C3.8457,20.7765556 0.4002,16.1483056 0.0435,10.9893056 C0.0249,10.7106389 0,10.4310556 0,10.1499444 L0,5.0655 C0,4.41344444 0.387,3.8225 0.9684,3.55758333 L8.2737,0.142083333 C8.4816,0.0473611111 8.7042,0 8.9274,0 Z M9.05,14.7 C8.3596875,14.7 7.8,15.2596875 7.8,15.95 C7.8,16.6403125 8.3596875,17.2 9.05,17.2 C9.7403125,17.2 10.3,16.6403125 10.3,15.95 C10.3,15.2596875 9.7403125,14.7 9.05,14.7 Z M9.05,4.8 C8.3596875,4.8 7.8,5.3596875 7.8,6.05 L7.8,6.05 L7.80645409,6.17779808 L7.82054909,6.26870887 L8.425,12.7020251 L8.427,12.701 L8.43177709,12.767353 C8.47195612,13.0385871 8.68641294,13.2530439 8.95764698,13.2932229 L9.05,13.3 C9.38594754,13.3 9.66002114,13.0348894 9.675,12.7020251 L9.675,12.7020251 L10.2794509,6.26870887 C10.2800352,6.2624897 10.2803279,6.25624656 10.2803279,6.25 L10.2803279,6.25 L10.2935459,6.17779808 C10.2978137,6.13577881 10.3,6.09314453 10.3,6.05 C10.3,5.3596875 9.7403125,4.8 9.05,4.8 Z" id="path-1"></path>
    </defs>
    <g id="ic_诈骗电话备份" stroke="none" stroke-width="1" fill="none" fill-rule="evenodd">
        <g id="ic/30/广告备份-3" transform="translate(3.000000, 1.000000)">
            <mask id="mask-2" fill="white">
                <use xlink:href="#path-1"></use>
            </mask>
            <use id="Fill-5" fill-opacity="0.901960784" fill="#FFFFFF" xlink:href="#path-1"></use>
        </g>
    </g>
</svg>