<svg viewBox="0 0 18 18" xmlns="http://www.w3.org/2000/svg" xmlns:xlink="http://www.w3.org/1999/xlink" width="18" height="18" fill="none">
    <rect id="应用角标" width="18" height="18" x="0" y="0" />
    <path id="矢量 11" d="M9 0C13.9707 0 18 4.02954 18 9C18 13.9705 13.9707 18 9 18C4.0293 18 0 13.9705 0 9C0 4.02954 4.0293 0 9 0Z" fill="rgb(237,111,33)" fill-rule="evenodd" />
    <path id="路径" d="M7.74813 0.0395467L7.74324 1.29992L0 1.26038L0.00489284 0L7.74813 0.0395467Z" opacity="0.400000006" fill="rgb(255,255,255)" fill-rule="nonzero" transform="matrix(0.707107,0.707107,-0.707107,0.707107,6.71582,5.78442)" />
    <path id="矩形备份" d="M0.319231 0L3.3322 0C3.50849 0 3.6514 0.142911 3.6514 0.319201L3.6514 4.20968C3.65137 4.38596 3.50848 4.52887 3.3322 4.52891L0.319231 4.5292C0.142942 4.52925 1.68189e-05 4.38635 0 4.21006C0 4.21005 0 4.21004 3.04414e-05 4.21003L3.04414e-05 0.319201C3.04414e-05 0.142911 0.142942 0 0.319231 0Z" fill="rgb(255,238,227)" fill-rule="evenodd" transform="matrix(-0.707107,0.707107,0.707107,0.707107,5.58203,3)" />
    <path id="矩形备份-2" d="M0.319231 0L3.31457 0C3.49086 0 3.63377 0.142911 3.63377 0.319201L3.63377 4.20968C3.63374 4.38596 3.49085 4.52887 3.31457 4.52891L0.319231 4.5292C0.142942 4.52925 1.70472e-05 4.38635 0 4.21006C0 4.21005 0 4.21004 3.04414e-05 4.21003L3.04414e-05 0.319201C3.04414e-05 0.142911 0.142942 0 0.319231 0Z" fill="rgb(255,238,227)" fill-rule="evenodd" transform="matrix(-0.707107,0.707107,0.707107,0.707107,11.7974,9.21533)" />
    <path id="形状结合" d="M1.58546 8.25554e-33C1.84989 -4.85759e-17 2.06426 0.214367 2.06426 0.478802L2.0647 0.915868C2.39064 0.941697 2.6622 0.99313 2.83075 1.05932C3.0275 1.11818 3.17092 1.30098 3.17092 1.51727L3.17092 7.04148C3.17092 7.16833 3.06809 7.27116 2.94124 7.27116C2.90381 7.27116 2.86847 7.26221 2.83724 7.24633C2.83661 7.24571 2.8357 7.24525 2.8348 7.24477C2.46263 7.04376 2.03729 6.93012 1.58546 6.93012C1.1366 6.93012 0.713902 7.04227 0.343771 7.24011L0.319083 7.25311C0.291605 7.26474 0.261393 7.27116 0.229681 7.27116C0.102832 7.27116 0 7.16833 0 7.04148L0 1.51727C0 1.30098 0.143415 1.11818 0.340339 1.05879C0.508713 0.99313 0.780275 0.941697 1.10622 0.915868L1.10666 0.478802C1.10666 0.214367 1.32102 4.85759e-17 1.58546 8.25554e-33Z" fill="rgb(255,255,255)" fill-rule="evenodd" transform="matrix(0.707107,0.707107,-0.707107,0.707107,11.7295,4.02832)" />
    <path id="形状结合" d="M2.60592 0C3.88601 0 4.95336 0.912141 5.19532 2.12283C5.20595 2.16186 5.21185 2.203 5.21185 2.24553C5.21185 2.49357 5.01108 2.69464 4.76341 2.69464C4.75885 2.69464 4.7543 2.69457 4.74977 2.69443L4.74846 2.69468L0.463386 2.69468L0.461565 2.69342L0.448438 2.69464C0.221411 2.69464 0.0337878 2.52568 0.00409376 2.30647L0 2.24553C0 2.20419 0.00557717 2.16416 0.0160186 2.12614L0.0129336 2.14116C0.247731 0.921359 1.31939 0 2.60592 0Z" fill="rgb(255,255,255)" fill-rule="evenodd" transform="matrix(0.707107,0.707107,-0.707107,0.707107,5.71729,8.59766)" />
    <circle id="椭圆形" cx="0.798002601" cy="0.798002601" r="0.798002601" fill="rgb(255,255,255)" transform="matrix(0.707107,0.707107,-0.707107,0.707107,4.64502,12.2263)" />
</svg>