<?xml version="1.0" encoding="UTF-8"?>
<svg width="24px" height="24px" viewBox="0 0 24 24" version="1.1" xmlns="http://www.w3.org/2000/svg" xmlns:xlink="http://www.w3.org/1999/xlink">
    <title>ic_audio/DTMF</title>
    <g id="ic_audio/DTMF" stroke="none" stroke-width="1" fill="none" fill-rule="evenodd">
        <rect id="矩形" x="0" y="0" width="24" height="24"></rect>
        <path d="M8.38665989,3.68996197 C8.32090252,4.74370054 7.44547077,5.578125 6.375,5.578125 C5.26203384,5.578125 4.359375,4.67546616 4.359375,3.5625 C4.359375,2.4492104 5.2618885,1.546875 6.375,1.546875 C7.48843491,1.546875 8.390625,2.44906509 8.390625,3.5625 L8.38665989,3.68996197 Z M8.38665989,9.31496197 C8.32090252,10.3687005 7.44547077,11.203125 6.375,11.203125 C5.26203384,11.203125 4.359375,10.3004662 4.359375,9.1875 C4.359375,8.0742104 5.2618885,7.171875 6.375,7.171875 C7.48843491,7.171875 8.390625,8.07406509 8.390625,9.1875 L8.38665989,9.31496197 Z M8.38665989,14.939962 C8.32090252,15.9937005 7.44547077,16.828125 6.375,16.828125 C5.26203384,16.828125 4.359375,15.9254662 4.359375,14.8125 C4.359375,13.6992104 5.2618885,12.796875 6.375,12.796875 C7.48843491,12.796875 8.390625,13.6990651 8.390625,14.8125 L8.38665989,14.939962 Z M14.0116599,3.68996197 C13.9459025,4.74370054 13.0704708,5.578125 12,5.578125 C10.8870338,5.578125 9.984375,4.67546616 9.984375,3.5625 C9.984375,2.4492104 10.8868885,1.546875 12,1.546875 C13.1134349,1.546875 14.015625,2.44906509 14.015625,3.5625 L14.0116599,3.68996197 Z M14.0116599,9.31496197 C13.9459025,10.3687005 13.0704708,11.203125 12,11.203125 C10.8870338,11.203125 9.984375,10.3004662 9.984375,9.1875 C9.984375,8.0742104 10.8868885,7.171875 12,7.171875 C13.1134349,7.171875 14.015625,8.07406509 14.015625,9.1875 L14.0116599,9.31496197 Z M14.0116599,14.939962 C13.9459025,15.9937005 13.0704708,16.828125 12,16.828125 C10.8870338,16.828125 9.984375,15.9254662 9.984375,14.8125 C9.984375,13.6992104 10.8868885,12.796875 12,12.796875 C13.1134349,12.796875 14.015625,13.6990651 14.015625,14.8125 L14.0116599,14.939962 Z M14.0116599,20.564962 C13.9459025,21.6187005 13.0704708,22.453125 12,22.453125 C10.8870338,22.453125 9.984375,21.5504662 9.984375,20.4375 C9.984375,19.3242104 10.8868885,18.421875 12,18.421875 C13.1134349,18.421875 14.015625,19.3240651 14.015625,20.4375 L14.0116599,20.564962 Z M19.6366599,3.68996197 C19.5709025,4.74370054 18.6954708,5.578125 17.625,5.578125 C16.5120338,5.578125 15.609375,4.67546616 15.609375,3.5625 C15.609375,2.4492104 16.5118885,1.546875 17.625,1.546875 C18.7384349,1.546875 19.640625,2.44906509 19.640625,3.5625 L19.6366599,3.68996197 Z M19.6366599,9.31496197 C19.5709025,10.3687005 18.6954708,11.203125 17.625,11.203125 C16.5120338,11.203125 15.609375,10.3004662 15.609375,9.1875 C15.609375,8.0742104 16.5118885,7.171875 17.625,7.171875 C18.7384349,7.171875 19.640625,8.07406509 19.640625,9.1875 L19.6366599,9.31496197 Z M19.6366599,14.939962 C19.5709025,15.9937005 18.6954708,16.828125 17.625,16.828125 C16.5120338,16.828125 15.609375,15.9254662 15.609375,14.8125 C15.609375,13.6992104 16.5118885,12.796875 17.625,12.796875 C18.7384349,12.796875 19.640625,13.6990651 19.640625,14.8125 L19.6366599,14.939962 Z" id="形状结合" fill="#ffffff" fill-rule="nonzero"></path>
    </g>
</svg>