<?xml version="1.0" standalone="no"?>
<!--
  - Copyright (c) Huawei Technologies Co., Ltd. 2025-2025. All rights reserved.
  -->

<svg xmlns="http://www.w3.org/2000/svg" width="12" height="12"><rect width="12" height="12" opacity="0"></rect><g><path d="M1.84 3.22Q1.5 3.22 1.25 3.46Q1 3.71 1 4.06L1 7.94Q1 8.28 1.25 8.53Q1.5 8.78 1.84 8.78L10.18 8.78Q10.51 8.78 10.76 8.54Q11 8.29 11 7.94L11 4.06Q11 3.71 10.76 3.46Q10.51 3.22 10.16 3.22L1.84 3.22ZM2.48 7.22Q2.38 7.22 2.3 7.17Q2.22 7.12 2.2 7.02L1.57 5.08Q1.54 4.94 1.58 4.87Q1.62 4.8 1.74 4.8Q1.86 4.8 1.94 4.85Q2.03 4.9 2.05 5L2.5 6.56L2.92 5Q2.93 4.98 2.93 4.97Q2.96 4.88 3.03 4.84Q3.1 4.8 3.2 4.8Q3.32 4.8 3.37 4.87Q3.41 4.94 3.37 5.08L2.77 7.02L2.77 7.03Q2.74 7.13 2.67 7.18Q2.6 7.22 2.48 7.22ZM4.01 7.24Q3.65 7.24 3.46 6.99Q3.28 6.74 3.28 6.34Q3.28 5.92 3.47 5.68Q3.67 5.44 4.01 5.44Q4.34 5.44 4.54 5.68Q4.73 5.92 4.73 6.35Q4.73 6.76 4.54 7Q4.36 7.24 4.01 7.24ZM6.89 7.01Q6.86 7.1 6.8 7.16Q6.74 7.21 6.65 7.21Q6.55 7.21 6.49 7.16Q6.42 7.1 6.4 7.01L6.05 5.66L5.71 7.01Q5.69 7.1 5.63 7.16Q5.57 7.21 5.47 7.21Q5.29 7.21 5.23 7.01L4.7 5.04Q4.67 4.92 4.71 4.85Q4.75 4.78 4.86 4.78Q4.98 4.78 5.06 4.82Q5.14 4.87 5.15 4.98L5.5 6.44L5.82 4.98Q5.84 4.87 5.9 4.82Q5.96 4.78 6.06 4.78Q6.16 4.78 6.22 4.82Q6.29 4.87 6.3 4.98L6.65 6.44L6.96 4.98Q7.02 4.78 7.22 4.78Q7.33 4.78 7.38 4.85Q7.43 4.92 7.4 5.04L6.89 7.01ZM8.06 7.01Q8.06 7.12 8.01 7.18Q7.96 7.24 7.84 7.24Q7.74 7.24 7.68 7.18Q7.62 7.12 7.62 7.01L7.62 5.75Q7.62 5.64 7.68 5.58Q7.74 5.52 7.84 5.52Q7.96 5.52 8.01 5.58Q8.06 5.64 8.06 5.75L8.06 7.01ZM7.84 5.27Q7.74 5.27 7.67 5.19Q7.6 5.11 7.6 5Q7.6 4.9 7.67 4.82Q7.74 4.74 7.84 4.74Q7.94 4.74 8.02 4.82Q8.1 4.9 8.1 5Q8.1 5.11 8.02 5.19Q7.94 5.27 7.84 5.27ZM10.19 4.75Q10.28 4.75 10.36 4.83Q10.44 4.91 10.44 5.02Q10.44 5.12 10.36 5.2Q10.28 5.28 10.19 5.28Q10.09 5.28 10.01 5.2Q9.94 5.12 9.94 5.02Q9.94 4.91 10.01 4.83Q10.09 4.75 10.19 4.75ZM10.19 5.52Q10.3 5.52 10.35 5.58Q10.4 5.64 10.4 5.76L10.4 7.01Q10.4 7.13 10.35 7.19Q10.3 7.25 10.19 7.25Q10.08 7.25 10.02 7.19Q9.96 7.13 9.96 7.01L9.96 5.76Q9.96 5.64 10.02 5.58Q10.08 5.52 10.19 5.52ZM9.47 4.78Q9.58 4.78 9.64 4.83Q9.7 4.88 9.7 4.98Q9.7 5.08 9.64 5.13Q9.58 5.18 9.47 5.18L8.84 5.18L8.84 5.83L9.37 5.83Q9.48 5.83 9.54 5.89Q9.6 5.94 9.6 6.04Q9.6 6.13 9.54 6.19Q9.48 6.24 9.37 6.24L8.84 6.24L8.84 6.98Q8.84 7.1 8.78 7.16Q8.72 7.22 8.62 7.22Q8.51 7.22 8.45 7.16Q8.39 7.1 8.39 6.98L8.39 5.02Q8.39 4.9 8.45 4.84Q8.51 4.78 8.62 4.78L9.47 4.78ZM4.02 6.85Q4.16 6.85 4.22 6.7Q4.28 6.55 4.28 6.35Q4.28 6.13 4.22 5.98Q4.16 5.83 4.02 5.83Q3.86 5.83 3.8 5.99Q3.73 6.14 3.73 6.35Q3.73 6.55 3.8 6.7Q3.86 6.85 4.02 6.85Z" fill="rgba(255,255,255,1)"></path></g></svg>