<?xml version="1.0" encoding="UTF-8"?>
<svg width="24px" height="24px" viewBox="0 0 24 24" version="1.1" xmlns="http://www.w3.org/2000/svg" xmlns:xlink="http://www.w3.org/1999/xlink">
    <title>y</title>
    <defs>
        <path d="M18.4837572,13.0088835 C19.1529369,13.6780631 19.1668781,14.7543557 18.5255809,15.4404984 L18.4837572,15.4837572 L12.7840097,21.1835047 C12.4911165,21.4763979 12.0162428,21.4763979 11.7233496,21.1835047 C11.4409168,20.9010719 11.4308299,20.4494252 11.6930889,20.1549057 L11.7233496,20.1228445 L17.0695436,14.7766504 C17.3519764,14.4942177 17.3620633,14.0425709 17.0998043,13.7480514 L17.0695436,13.7159903 L6.72334957,3.36979618 C6.43045635,3.07690296 6.43045635,2.60202923 6.72334957,2.30913601 C7.00578232,2.02670326 7.45742909,2.01661638 7.75194855,2.27887536 L7.78400974,2.30913601 L18.4837572,13.0088835 Z" id="path-1"></path>
    </defs>
    <g id="y" stroke="none" stroke-width="1" fill="none" fill-rule="evenodd">
        <g id="Public/Icon/Default" transform="translate(12.000000, 12.000000) rotate(90.000000) translate(-12.000000, -12.000000) ">
            <mask id="mask-2" fill="white">
                <use xlink:href="#path-1"></use>
            </mask>
            <g id="形状结合" fill-rule="nonzero" transform="translate(12.750000, 11.746320) rotate(-270.000000) translate(-12.750000, -11.746320) "></g>
            <g id="编组" mask="url(#mask-2)" fill="#FFFFFF" fill-opacity="0.858823529">
                <g id="Symbol/color-light/colorPrimary">
                    <rect id="color/#000000" x="0" y="0" width="24" height="24"></rect>
                </g>
            </g>
        </g>
    </g>
</svg>