<?xml version="1.0" encoding="UTF-8"?>
<svg width="280px" height="212px" viewBox="0 0 280 212" version="1.1" xmlns="http://www.w3.org/2000/svg" xmlns:xlink="http://www.w3.org/1999/xlink">
    <title>直板机_来电通知设置_dark </title>
    <defs>
        <circle id="path-1" cx="4.155" cy="4.155" r="4.155"></circle>
        <path d="M0.409567475,1.34325365 C0.34841573,1.07717085 0.429344726,0.798469444 0.623598584,0.60579298 C0.731463468,0.484662416 0.833565043,0.414875842 0.929903309,0.396433259 C1.07441071,0.368769384 1.22237609,0.425795793 1.31428571,0.54003061 L1.62698587,0.926573397 C1.64263346,0.94572805 1.65489149,0.960636823 1.66235012,0.969545975 L1.66918423,0.977556635 C1.78770021,1.11107234 1.78459973,1.31168275 1.66384644,1.44139678 L1.65523096,1.45032983 L1.44411183,1.6494976 C1.36021018,1.73315656 1.34522558,1.86328597 1.40795465,1.96368885 C1.52960535,2.15939044 1.75755627,2.42325374 2.00648408,2.66787741 C2.25112126,2.91681873 2.51498456,3.14476965 2.71068615,3.26642035 C2.81108903,3.32914942 2.94121844,3.31416482 3.0248774,3.23026317 L3.22404517,3.01914404 L3.23297822,3.01052856 C3.35918647,2.89303887 3.55251065,2.88692833 3.68584846,2.9958478 L3.71945151,3.02414813 C3.79594482,3.08718021 4.03534088,3.28043429 4.13434439,3.36008929 C4.24857921,3.45199891 4.30560562,3.59996429 4.27794174,3.74447169 C4.25949916,3.84080996 4.18971258,3.94291153 4.06858202,4.05077642 C3.87590556,4.24503027 3.59720415,4.32595927 3.33112135,4.26480752 C2.76448745,4.13316801 2.09443248,3.68907535 1.53705152,3.13733699 C0.98529965,2.57994252 0.541206989,1.90988755 0.409567475,1.34325365 Z" id="path-3"></path>
        <circle id="path-5" cx="4.155" cy="4.155" r="4.155"></circle>
        <path d="M0.409567475,1.34325365 C0.34841573,1.07717085 0.429344726,0.798469444 0.623598584,0.60579298 C0.731463468,0.484662416 0.833565043,0.414875842 0.929903309,0.396433259 C1.07441071,0.368769384 1.22237609,0.425795793 1.31428571,0.54003061 L1.62698587,0.926573397 C1.64263346,0.94572805 1.65489149,0.960636823 1.66235012,0.969545975 L1.66918423,0.977556635 C1.78770021,1.11107234 1.78459973,1.31168275 1.66384644,1.44139678 L1.65523096,1.45032983 L1.44411183,1.6494976 C1.36021018,1.73315656 1.34522558,1.86328597 1.40795465,1.96368885 C1.52960535,2.15939044 1.75755627,2.42325374 2.00648408,2.66787741 C2.25112126,2.91681873 2.51498456,3.14476965 2.71068615,3.26642035 C2.81108903,3.32914942 2.94121844,3.31416482 3.0248774,3.23026317 L3.22404517,3.01914404 L3.23297822,3.01052856 C3.35918647,2.89303887 3.55251065,2.88692833 3.68584846,2.9958478 L3.71945151,3.02414813 C3.79594482,3.08718021 4.03534088,3.28043429 4.13434439,3.36008929 C4.24857921,3.45199891 4.30560562,3.59996429 4.27794174,3.74447169 C4.25949916,3.84080996 4.18971258,3.94291153 4.06858202,4.05077642 C3.87590556,4.24503027 3.59720415,4.32595927 3.33112135,4.26480752 C2.76448745,4.13316801 2.09443248,3.68907535 1.53705152,3.13733699 C0.98529965,2.57994252 0.541206989,1.90988755 0.409567475,1.34325365 Z" id="path-7"></path>
        <circle id="path-9" cx="8.31" cy="8.31" r="8.31"></circle>
        <path d="M0.81913495,2.6865073 C0.69683146,2.1543417 0.858689452,1.59693889 1.24719717,1.21158596 C1.46292694,0.969324832 1.66713009,0.829751684 1.85980662,0.792866518 C2.14882141,0.737538767 2.44475218,0.851591586 2.62857142,1.08006122 L3.25397174,1.85314679 C3.28526692,1.8914561 3.30978299,1.92127365 3.32470024,1.93909195 L3.33836846,1.95511327 C3.57540041,2.22214467 3.56919947,2.62336549 3.32769289,2.88279356 L3.31046191,2.90065967 L2.88822367,3.2989952 C2.72042037,3.46631311 2.69045116,3.72657194 2.8159093,3.9273777 C3.0592107,4.31878088 3.51511254,4.84650748 4.01296817,5.33575481 C4.50224252,5.83363746 5.02996912,6.2895393 5.4213723,6.5328407 C5.62217806,6.65829884 5.88243689,6.62832963 6.0497548,6.46052633 L6.44809033,6.03828809 L6.46595644,6.02105711 C6.71837294,5.78607774 7.10502129,5.77385665 7.37169692,5.99169559 L7.43890303,6.04829627 C7.59188965,6.17436043 8.07068176,6.56086858 8.26868878,6.72017858 C8.49715841,6.90399782 8.61121123,7.19992859 8.55588348,7.48894338 C8.51899832,7.68161991 8.37942517,7.88582306 8.13716404,8.10155283 C7.75181111,8.49006055 7.1944083,8.65191854 6.6622427,8.52961505 C5.52897489,8.26633602 4.18886496,7.3781507 3.07410305,6.27467397 C1.9705993,5.15988504 1.08241398,3.81977511 0.81913495,2.6865073 Z" id="path-11"></path>
        <circle id="path-13" cx="8.31" cy="8.31" r="8.31"></circle>
        <path d="M0.81913495,2.6865073 C0.69683146,2.1543417 0.858689452,1.59693889 1.24719717,1.21158596 C1.46292694,0.969324832 1.66713009,0.829751684 1.85980662,0.792866518 C2.14882141,0.737538767 2.44475218,0.851591586 2.62857142,1.08006122 L3.25397174,1.85314679 C3.28526692,1.8914561 3.30978299,1.92127365 3.32470024,1.93909195 L3.33836846,1.95511327 C3.57540041,2.22214467 3.56919947,2.62336549 3.32769289,2.88279356 L3.31046191,2.90065967 L2.88822367,3.2989952 C2.72042037,3.46631311 2.69045116,3.72657194 2.8159093,3.9273777 C3.0592107,4.31878088 3.51511254,4.84650748 4.01296817,5.33575481 C4.50224252,5.83363746 5.02996912,6.2895393 5.4213723,6.5328407 C5.62217806,6.65829884 5.88243689,6.62832963 6.0497548,6.46052633 L6.44809033,6.03828809 L6.46595644,6.02105711 C6.71837294,5.78607774 7.10502129,5.77385665 7.37169692,5.99169559 L7.43890303,6.04829627 C7.59188965,6.17436043 8.07068176,6.56086858 8.26868878,6.72017858 C8.49715841,6.90399782 8.61121123,7.19992859 8.55588348,7.48894338 C8.51899832,7.68161991 8.37942517,7.88582306 8.13716404,8.10155283 C7.75181111,8.49006055 7.1944083,8.65191854 6.6622427,8.52961505 C5.52897489,8.26633602 4.18886496,7.3781507 3.07410305,6.27467397 C1.9705993,5.15988504 1.08241398,3.81977511 0.81913495,2.6865073 Z" id="path-15"></path>
    </defs>
    <g id="直板机_来电通知设置_dark-" stroke="none" stroke-width="1" fill="none" fill-rule="evenodd">
        <g id="编组-4">
            <rect id="矩形" x="0" y="0" width="280" height="212"></rect>
            <path d="M149.672,103.504 C149.768,103.504 149.848,103.468 149.912,103.396 C149.976,103.324 150.008,103.24 150.008,103.144 C150.008,103.048 149.976,102.968 149.912,102.904 L147.056,100.072 C146.992,100.008 146.912,99.976 146.816,99.976 C146.72,99.976 146.636,100.008 146.564,100.072 C146.492,100.136 146.456,100.216 146.456,100.312 L146.456,101.992 L130.664,101.992 C130.456,101.992 130.28,102.064 130.136,102.208 C129.992,102.352 129.92,102.528 129.92,102.736 C129.92,102.944 129.992,103.124 130.136,103.276 C130.28,103.428 130.456,103.504 130.664,103.504 L149.672,103.504 Z M133.184,111.76 C133.28,111.76 133.364,111.728 133.436,111.664 C133.508,111.6 133.544,111.52 133.544,111.424 L133.544,109.744 L149.336,109.744 C149.544,109.744 149.72,109.672 149.864,109.528 C150.008,109.384 150.08,109.208 150.08,109 C150.08,108.792 150.008,108.616 149.864,108.472 C149.72,108.328 149.544,108.256 149.336,108.256 L130.304,108.256 C130.208,108.256 130.128,108.292 130.064,108.364 C130,108.436 129.968,108.52 129.968,108.616 C129.968,108.712 130,108.792 130.064,108.856 L132.944,111.664 C133.008,111.728 133.088,111.76 133.184,111.76 Z" id="󰏽" fill-opacity="0.6" fill="#FFFFFF" fill-rule="nonzero"></path>
            <g id="编组-3" transform="translate(12.000000, 16.000000)">
                <rect id="矩形" x="0" y="0" width="116" height="180"></rect>
                <g id="编组-8备份-2" transform="translate(15.400000, 0.000000)" fill="#505259">
                    <path d="M69.8166888,6.21504185e-16 C75.1658012,-3.61111829e-16 77.1055187,0.556953667 79.0610742,1.60279622 C81.0166298,2.64863878 82.5513612,4.18337022 83.5972038,6.13892578 C84.6430463,8.09448133 85.2,10.0341988 85.2,15.3833112 L85.2,164.616689 C85.2,169.965801 84.6430463,171.905519 83.5972038,173.861074 C82.5513612,175.81663 81.0166298,177.351361 79.0610742,178.397204 C77.1055187,179.443046 75.1658012,180 69.8166888,180 L15.3833112,180 C10.0341988,180 8.09448133,179.443046 6.13892578,178.397204 C4.18337022,177.351361 2.64863878,175.81663 1.60279622,173.861074 C0.556953667,171.905519 2.4074122e-16,169.965801 -4.14336123e-16,164.616689 L1.32117026e-15,15.3833112 C-7.67637969e-16,10.0341988 0.556953667,8.09448133 1.60279622,6.13892578 C2.64863878,4.18337022 4.18337022,2.64863878 6.13892578,1.60279622 C8.09448133,0.556953667 10.0341988,3.61111829e-16 15.3833112,-6.21504185e-16 L69.8166888,6.21504185e-16 Z M69.2986314,3.6 L15.9013686,3.6 C10.9980155,3.6 9.21994122,4.11054086 7.42734863,5.06922987 C5.63475604,6.02791888 4.22791888,7.43475604 3.26922987,9.22734863 C2.31054086,11.0199412 1.8,12.7980155 1.8,17.7013686 L1.8,17.7013686 L1.8,160.698631 C1.8,165.601984 2.31054086,167.380059 3.26922987,169.172651 C4.22791888,170.965244 5.63475604,172.372081 7.42734863,173.33077 C9.21994122,174.289459 10.9980155,174.8 15.9013686,174.8 L15.9013686,174.8 L69.2986314,174.8 C74.2019845,174.8 75.9800588,174.289459 77.7726514,173.33077 C79.565244,172.372081 80.9720811,170.965244 81.9307701,169.172651 C82.8894591,167.380059 83.4,165.601984 83.4,160.698631 L83.4,160.698631 L83.4,17.7013686 C83.4,12.7980155 82.8894591,11.0199412 81.9307701,9.22734863 C80.9720811,7.43475604 79.565244,6.02791888 77.7726514,5.06922987 C75.9800588,4.11054086 74.2019845,3.6 69.2986314,3.6 L69.2986314,3.6 Z" id="形状结合"></path>
                </g>
                <g id="编组" transform="translate(19.389324, 19.311258)">
                    <path d="M2.86092715,0 L74.3604242,0 C75.9404707,-8.7104287e-15 77.2213514,1.28088072 77.2213514,2.86092715 L77.2213514,16.5236882 C77.2213514,18.1037347 75.9404707,19.3846154 74.3604242,19.3846154 L2.86092715,19.3846154 C1.28088072,19.3846154 -3.3592138e-15,18.1037347 0,16.5236882 L0,2.86092715 C-1.93499881e-16,1.28088072 1.28088072,2.90249822e-16 2.86092715,0 Z" id="Mask" fill-opacity="0.2" fill="#596080"></path>
                    <rect id="矩形" fill-opacity="0.4" fill="#A1A4B3" x="13.789527" y="5.53846154" width="20.1863354" height="4.15384615" rx="0.953642384"></rect>
                    <rect id="矩形备份-3" fill-opacity="0.4" fill="#A1A4B3" x="13.789527" y="11.0769231" width="15.6740957" height="2.76923077" rx="0.953642384"></rect>
                    <ellipse id="椭圆形" fill-opacity="0.4" fill="#A1A4B3" cx="6.89476352" cy="9.69230769" rx="4.13685811" ry="4.15384615"></ellipse>
                    <g id="挂断" transform="translate(55.121824, 5.192308)">
                        <mask id="mask-2" fill="white">
                            <use xlink:href="#path-1"></use>
                        </mask>
                        <use id="backplane/round" fill="#D94838" xlink:href="#path-1"></use>
                        <g id="编组" mask="url(#mask-2)">
                            <g transform="translate(1.817812, 1.817813)" id="Public/ic_public_phone_filled备份-3">
                                <g transform="translate(2.337188, 2.337188) rotate(-225.000000) translate(-2.337188, -2.337188) ">
                                    <mask id="mask-4" fill="white">
                                        <use xlink:href="#path-3"></use>
                                    </mask>
                                    <g id="路径"></g>
                                    <g id="编组" mask="url(#mask-4)" fill="#FFFFFF">
                                        <g id="Symbol/color-light/colorPrimary">
                                            <rect id="color/#000000" x="0" y="0" width="4.674375" height="4.674375"></rect>
                                        </g>
                                    </g>
                                </g>
                            </g>
                        </g>
                    </g>
                    <g id="接听" transform="translate(66.189730, 5.192308)">
                        <mask id="mask-6" fill="white">
                            <use xlink:href="#path-5"></use>
                        </mask>
                        <use id="backplane/round" fill="#5BA854" xlink:href="#path-5"></use>
                        <g id="编组" mask="url(#mask-6)">
                            <g transform="translate(1.817813, 1.817813)" id="Public/ic_public_phone_filled备份">
                                <mask id="mask-8" fill="white">
                                    <use xlink:href="#path-7"></use>
                                </mask>
                                <g id="路径"></g>
                                <g id="编组" mask="url(#mask-8)" fill="#FFFFFF">
                                    <g id="Symbol/color-light/colorPrimary">
                                        <rect id="color/#000000" x="0" y="0" width="4.674375" height="4.674375"></rect>
                                    </g>
                                </g>
                            </g>
                        </g>
                    </g>
                </g>
            </g>
            <g id="编组-3备份" transform="translate(152.000000, 16.000000)">
                <rect id="矩形" x="0" y="0" width="116" height="180"></rect>
                <g id="编组-8备份-2" transform="translate(15.400000, 0.000000)" fill="#505259">
                    <path d="M69.8166888,6.21504185e-16 C75.1658012,-3.61111829e-16 77.1055187,0.556953667 79.0610742,1.60279622 C81.0166298,2.64863878 82.5513612,4.18337022 83.5972038,6.13892578 C84.6430463,8.09448133 85.2,10.0341988 85.2,15.3833112 L85.2,164.616689 C85.2,169.965801 84.6430463,171.905519 83.5972038,173.861074 C82.5513612,175.81663 81.0166298,177.351361 79.0610742,178.397204 C77.1055187,179.443046 75.1658012,180 69.8166888,180 L15.3833112,180 C10.0341988,180 8.09448133,179.443046 6.13892578,178.397204 C4.18337022,177.351361 2.64863878,175.81663 1.60279622,173.861074 C0.556953667,171.905519 2.4074122e-16,169.965801 -4.14336123e-16,164.616689 L1.32117026e-15,15.3833112 C-7.67637969e-16,10.0341988 0.556953667,8.09448133 1.60279622,6.13892578 C2.64863878,4.18337022 4.18337022,2.64863878 6.13892578,1.60279622 C8.09448133,0.556953667 10.0341988,3.61111829e-16 15.3833112,-6.21504185e-16 L69.8166888,6.21504185e-16 Z M69.2986314,3.6 L15.9013686,3.6 C10.9980155,3.6 9.21994122,4.11054086 7.42734863,5.06922987 C5.63475604,6.02791888 4.22791888,7.43475604 3.26922987,9.22734863 C2.31054086,11.0199412 1.8,12.7980155 1.8,17.7013686 L1.8,17.7013686 L1.8,160.698631 C1.8,165.601984 2.31054086,167.380059 3.26922987,169.172651 C4.22791888,170.965244 5.63475604,172.372081 7.42734863,173.33077 C9.21994122,174.289459 10.9980155,174.8 15.9013686,174.8 L15.9013686,174.8 L69.2986314,174.8 C74.2019845,174.8 75.9800588,174.289459 77.7726514,173.33077 C79.565244,172.372081 80.9720811,170.965244 81.9307701,169.172651 C82.8894591,167.380059 83.4,165.601984 83.4,160.698631 L83.4,160.698631 L83.4,17.7013686 C83.4,12.7980155 82.8894591,11.0199412 81.9307701,9.22734863 C80.9720811,7.43475604 79.565244,6.02791888 77.7726514,5.06922987 C75.9800588,4.11054086 74.2019845,3.6 69.2986314,3.6 L69.2986314,3.6 Z" id="形状结合"></path>
                </g>
                <g id="编组-2" transform="translate(29.124453, 33.139073)">
                    <ellipse id="椭圆形" fill-opacity="0.4" fill="#A1A4B3" cx="28.8755474" cy="13.8461538" rx="13.789527" ry="13.8461538"></ellipse>
                    <rect id="矩形" fill-opacity="0.4" fill="#A1A4B3" x="12.0140202" y="33.2857871" width="33.4855681" height="5.7218543" rx="0.953642384"></rect>
                    <rect id="矩形备份-2" fill-opacity="0.4" fill="#A1A4B3" x="15.5763147" y="41.1533367" width="26.8359518" height="4.05298013" rx="0.953642384"></rect>
                    <g id="挂断" transform="translate(0.000000, 108.091696)">
                        <mask id="mask-10" fill="white">
                            <use xlink:href="#path-9"></use>
                        </mask>
                        <use id="backplane/round" fill="#D94838" xlink:href="#path-9"></use>
                        <g id="编组" mask="url(#mask-10)">
                            <g transform="translate(3.635625, 3.635625)" id="Public/ic_public_phone_filled备份-3">
                                <g transform="translate(4.674375, 4.674375) rotate(-225.000000) translate(-4.674375, -4.674375) ">
                                    <mask id="mask-12" fill="white">
                                        <use xlink:href="#path-11"></use>
                                    </mask>
                                    <g id="路径"></g>
                                    <g id="编组" mask="url(#mask-12)" fill="#FFFFFF">
                                        <g id="Symbol/color-light/colorPrimary">
                                            <rect id="color/#000000" x="0" y="0" width="9.34875" height="9.34875"></rect>
                                        </g>
                                    </g>
                                </g>
                            </g>
                        </g>
                    </g>
                    <g id="接听" transform="translate(41.368581, 108.091696)">
                        <mask id="mask-14" fill="white">
                            <use xlink:href="#path-13"></use>
                        </mask>
                        <use id="backplane/round" fill="#5BA854" xlink:href="#path-13"></use>
                        <g id="编组" mask="url(#mask-14)">
                            <g transform="translate(3.635625, 3.635625)" id="Public/ic_public_phone_filled备份">
                                <mask id="mask-16" fill="white">
                                    <use xlink:href="#path-15"></use>
                                </mask>
                                <g id="路径"></g>
                                <g id="编组" mask="url(#mask-16)" fill="#FFFFFF">
                                    <g id="Symbol/color-light/colorPrimary">
                                        <rect id="color/#000000" x="0" y="0" width="9.34875" height="9.34875"></rect>
                                    </g>
                                </g>
                            </g>
                        </g>
                    </g>
                </g>
            </g>
        </g>
    </g>
</svg>