<?xml version="1.0" encoding="UTF-8"?>
<svg width="352px" height="180px" viewBox="0 0 352 180" version="1.1" xmlns="http://www.w3.org/2000/svg" xmlns:xlink="http://www.w3.org/1999/xlink">
    <title>折叠屏_来电通知设置_dark</title>
    <defs>
        <circle id="path-1" cx="6.4556962" cy="6.4556962" r="6.4556962"></circle>
        <path d="M0.636352153,2.0870367 C0.541339616,1.6736192 0.667080414,1.24059595 0.968896031,0.941231153 C1.13648759,0.753028476 1.29512459,0.644599855 1.44480704,0.615945291 C1.66933072,0.572963444 1.89922712,0.661566374 2.0420287,0.839055009 L2.52787642,1.4396333 C2.55218835,1.46939422 2.57123387,1.49255824 2.58282247,1.50640055 L2.59344075,1.51884685 C2.77758109,1.72629253 2.77276383,2.03798444 2.58514733,2.2395234 L2.5717613,2.25340284 L2.24374183,2.56285329 C2.11338236,2.69283567 2.09010052,2.89502001 2.18756378,3.05101773 C2.3765746,3.35508271 2.73074593,3.76505174 3.11750943,4.14512781 C3.49760649,4.5319123 3.90757551,4.88608363 4.2116405,5.07509445 C4.36763821,5.17255771 4.56982256,5.14927587 4.69980494,5.0189164 L5.00925539,4.69089693 L5.02313483,4.67751089 C5.21922679,4.49496511 5.51959795,4.48547106 5.72676725,4.65470114 L5.7789769,4.69867187 C5.89782589,4.79660592 6.26977974,5.09686816 6.42360322,5.22062953 C6.60109185,5.36343111 6.68969478,5.59332751 6.64671294,5.81785119 C6.61805837,5.96753363 6.50962975,6.12617064 6.32142707,6.2937622 C6.02206228,6.59557781 5.58903903,6.72131861 5.17562153,6.62630608 C4.29523252,6.42177546 3.25415639,5.73178092 2.38814385,4.87453537 C1.53087731,4.00850184 0.840882769,2.96742571 0.636352153,2.0870367 Z" id="path-3"></path>
        <circle id="path-5" cx="6.4556962" cy="6.4556962" r="6.4556962"></circle>
        <path d="M0.636352153,2.0870367 C0.541339616,1.6736192 0.667080414,1.24059595 0.968896031,0.941231153 C1.13648759,0.753028476 1.29512459,0.644599855 1.44480704,0.615945291 C1.66933072,0.572963444 1.89922712,0.661566374 2.0420287,0.839055009 L2.52787642,1.4396333 C2.55218835,1.46939422 2.57123387,1.49255824 2.58282247,1.50640055 L2.59344075,1.51884685 C2.77758109,1.72629253 2.77276383,2.03798444 2.58514733,2.2395234 L2.5717613,2.25340284 L2.24374183,2.56285329 C2.11338236,2.69283567 2.09010052,2.89502001 2.18756378,3.05101773 C2.3765746,3.35508271 2.73074593,3.76505174 3.11750943,4.14512781 C3.49760649,4.5319123 3.90757551,4.88608363 4.2116405,5.07509445 C4.36763821,5.17255771 4.56982256,5.14927587 4.69980494,5.0189164 L5.00925539,4.69089693 L5.02313483,4.67751089 C5.21922679,4.49496511 5.51959795,4.48547106 5.72676725,4.65470114 L5.7789769,4.69867187 C5.89782589,4.79660592 6.26977974,5.09686816 6.42360322,5.22062953 C6.60109185,5.36343111 6.68969478,5.59332751 6.64671294,5.81785119 C6.61805837,5.96753363 6.50962975,6.12617064 6.32142707,6.2937622 C6.02206228,6.59557781 5.58903903,6.72131861 5.17562153,6.62630608 C4.29523252,6.42177546 3.25415639,5.73178092 2.38814385,4.87453537 C1.53087731,4.00850184 0.840882769,2.96742571 0.636352153,2.0870367 Z" id="path-7"></path>
        <circle id="path-9" cx="3.44303797" cy="3.44303797" r="3.44303797"></circle>
        <path d="M0.339387815,1.11308624 C0.288714462,0.892596907 0.355776221,0.661651171 0.51674455,0.501989948 C0.606126714,0.401615187 0.690733116,0.343786589 0.770563756,0.328504155 C0.890309715,0.305580503 1.01292113,0.352835399 1.08908197,0.447496005 L1.34820076,0.767804427 C1.36116712,0.783676917 1.37132473,0.796031062 1.37750532,0.803413624 L1.3831684,0.810051653 C1.48137658,0.920689348 1.47880738,1.08692503 1.37874525,1.19441248 L1.37160603,1.20181485 L1.19666231,1.36685509 C1.12713726,1.43617902 1.11472028,1.54401067 1.16670068,1.62720945 C1.26750645,1.78937745 1.45639783,2.00802759 1.6626717,2.21073483 C1.86539013,2.41701989 2.08404027,2.60591127 2.24620827,2.70671704 C2.32940705,2.75869744 2.4372387,2.74628046 2.50656264,2.67675541 L2.67160287,2.5018117 L2.67900524,2.49467248 C2.78358762,2.39731473 2.94378557,2.39225123 3.05427587,2.48250727 L3.08212101,2.50595833 C3.14550714,2.55818982 3.34388253,2.71832968 3.42592172,2.78433575 C3.52058232,2.86049659 3.56783722,2.98310801 3.54491357,3.10285397 C3.52963113,3.18268461 3.47180253,3.26729101 3.37142777,3.35667317 C3.21176655,3.5176415 2.98082081,3.58470326 2.76033148,3.53402991 C2.29079068,3.42494691 1.73555008,3.05694982 1.27367672,2.5997522 C0.816467897,2.13786765 0.44847081,1.58262705 0.339387815,1.11308624 Z" id="path-11"></path>
        <circle id="path-13" cx="3.44303797" cy="3.44303797" r="3.44303797"></circle>
        <path d="M0.339387815,1.11308624 C0.288714462,0.892596907 0.355776221,0.661651171 0.51674455,0.501989948 C0.606126714,0.401615187 0.690733116,0.343786589 0.770563756,0.328504155 C0.890309715,0.305580503 1.01292113,0.352835399 1.08908197,0.447496005 L1.34820076,0.767804427 C1.36116712,0.783676917 1.37132473,0.796031062 1.37750532,0.803413624 L1.3831684,0.810051653 C1.48137658,0.920689348 1.47880738,1.08692503 1.37874525,1.19441248 L1.37160603,1.20181485 L1.19666231,1.36685509 C1.12713726,1.43617902 1.11472028,1.54401067 1.16670068,1.62720945 C1.26750645,1.78937745 1.45639783,2.00802759 1.6626717,2.21073483 C1.86539013,2.41701989 2.08404027,2.60591127 2.24620827,2.70671704 C2.32940705,2.75869744 2.4372387,2.74628046 2.50656264,2.67675541 L2.67160287,2.5018117 L2.67900524,2.49467248 C2.78358762,2.39731473 2.94378557,2.39225123 3.05427587,2.48250727 L3.08212101,2.50595833 C3.14550714,2.55818982 3.34388253,2.71832968 3.42592172,2.78433575 C3.52058232,2.86049659 3.56783722,2.98310801 3.54491357,3.10285397 C3.52963113,3.18268461 3.47180253,3.26729101 3.37142777,3.35667317 C3.21176655,3.5176415 2.98082081,3.58470326 2.76033148,3.53402991 C2.29079068,3.42494691 1.73555008,3.05694982 1.27367672,2.5997522 C0.816467897,2.13786765 0.44847081,1.58262705 0.339387815,1.11308624 Z" id="path-15"></path>
    </defs>
    <g id="折叠屏_来电通知设置_dark" stroke="none" stroke-width="1" fill="none" fill-rule="evenodd">
        <g id="编组-4">
            <g id="#illustration_编组-4备份" transform="translate(200.000000, 22.000000)">
                <rect id="矩形" opacity="0" x="0" y="0" width="136" height="136"></rect>
                <g id="编组-4备份" transform="translate(8.553459, 0.000000)">
                    <g id="folder-screen" fill="#505259">
                        <path d="M109.453422,-2.23599237e-15 C113.088247,1.29917596e-15 114.406322,0.378460764 115.73516,1.08913096 C117.063998,1.79980116 118.106878,2.8426808 118.817548,4.17151853 C119.308249,5.08904935 119.640566,6.00144916 119.799275,7.67491073 L119.812518,7.82934019 C119.972658,8.7530629 120.055078,9.94477802 120.055078,11.6410297 L120.055,23.559 L120.091406,23.5621023 C120.381989,23.609499 120.603774,23.8616818 120.603774,24.1656652 L120.603774,37.2799183 C120.603774,37.5961838 120.363705,37.8563784 120.055857,37.8882133 L120.055078,124.35897 C120.055078,126.051623 119.973007,127.241878 119.813536,128.164777 C119.661211,129.941448 119.323605,130.882236 118.817548,131.828481 C118.106878,133.157319 117.063998,134.200199 115.73516,134.910869 C114.450617,135.59785 113.176131,135.9744 109.809268,135.99874 L109.453422,136 L10.4532568,136 C6.81843169,136 5.50035627,135.621539 4.17151853,134.910869 C2.8426808,134.200199 1.79980116,133.157319 1.08913096,131.828481 C0.378460764,130.499644 1.2173818e-15,129.181568 -2.09521767e-15,125.546743 L2.81549391e-16,10.4532568 C-1.63588304e-16,6.81843169 0.378460764,5.50035627 1.08913096,4.17151853 C1.79980116,2.8426808 2.8426808,1.79980116 4.17151853,1.08913096 C5.50035627,0.378460764 6.81843169,1.29917596e-15 10.4532568,-2.23599237e-15 L109.453422,-2.23599237e-15 Z M109.311553,3.71179039 L10.8919247,3.71179039 C7.62058207,3.71179039 6.43431419,4.05240508 5.23836023,4.69200826 C4.04240626,5.33161144 3.10381459,6.27020311 2.46421142,7.46615707 C1.84745121,8.61939839 1.50870453,9.76363314 1.48529503,12.7771037 L1.48399355,13.1197215 L1.48399355,123.02875 C1.48399355,126.300093 1.82460824,127.486361 2.46421142,128.682315 C3.10381459,129.878269 4.04240626,130.81686 5.23836023,131.456463 C6.39160155,132.073224 7.5358363,132.41197 10.5493069,132.43538 L10.8919247,132.436681 L109.311553,132.436681 C112.582895,132.436681 113.769163,132.096067 114.965117,131.456463 C116.161071,130.81686 117.099663,129.878269 117.739266,128.682315 C118.356026,127.529073 118.694773,126.384838 118.718182,123.371368 L118.719484,123.02875 L118.719484,13.1197215 C118.719484,9.84837892 118.378869,8.66211104 117.739266,7.46615707 C117.099663,6.27020311 116.161071,5.33161144 114.965117,4.69200826 C113.769163,4.05240508 112.582895,3.71179039 109.311553,3.71179039 Z" id="形状结合"></path>
                    </g>
                    <g id="编组-2" transform="translate(30.180718, 105.873418)">
                        <g id="挂断">
                            <mask id="mask-2" fill="white">
                                <use xlink:href="#path-1"></use>
                            </mask>
                            <use id="backplane/round" fill="#D94838" xlink:href="#path-1"></use>
                            <g id="编组" mask="url(#mask-2)">
                                <g transform="translate(2.824367, 2.824367)" id="Public/ic_public_phone_filled备份-3">
                                    <g transform="translate(3.631329, 3.631329) rotate(-225.000000) translate(-3.631329, -3.631329) ">
                                        <mask id="mask-4" fill="white">
                                            <use xlink:href="#path-3"></use>
                                        </mask>
                                        <g id="路径"></g>
                                        <g id="编组" mask="url(#mask-4)" fill="#FFFFFF">
                                            <g id="Symbol/color-light/colorPrimary">
                                                <rect id="color/#000000" x="0" y="0" width="7.26265823" height="7.26265823"></rect>
                                            </g>
                                        </g>
                                    </g>
                                </g>
                            </g>
                        </g>
                        <g id="接听" transform="translate(45.620253, 0.000000)">
                            <mask id="mask-6" fill="white">
                                <use xlink:href="#path-5"></use>
                            </mask>
                            <use id="backplane/round" fill="#5BA854" xlink:href="#path-5"></use>
                            <g id="编组" mask="url(#mask-6)">
                                <g transform="translate(2.824367, 2.824367)" id="Public/ic_public_phone_filled备份">
                                    <mask id="mask-8" fill="white">
                                        <use xlink:href="#path-7"></use>
                                    </mask>
                                    <g id="路径"></g>
                                    <g id="编组" mask="url(#mask-8)" fill="#FFFFFF">
                                        <g id="Symbol/color-light/colorPrimary">
                                            <rect id="color/#000000" x="0" y="0" width="7.26265823" height="7.26265823"></rect>
                                        </g>
                                    </g>
                                </g>
                            </g>
                        </g>
                    </g>
                    <g id="编组-2备份-2" transform="translate(47.701493, 25.038411)" fill="#A1A4B3" fill-opacity="0.4">
                        <ellipse id="椭圆形" cx="12.7803999" cy="10.4615385" rx="10.4519399" ry="10.4615385"></ellipse>
                        <rect id="矩形" x="0" y="25.1492613" width="25.3807941" height="4.32317881" rx="0.971377911"></rect>
                        <rect id="矩形备份-2" x="2.70008448" y="31.0936322" width="20.3406364" height="3.06225166" rx="0.971377911"></rect>
                    </g>
                </g>
            </g>
            <g id="#illustration_编组-2备份" transform="translate(16.000000, 22.000000)">
                <g id="Mockup/Folderscreen/Default-">
                    <rect id="矩形" x="0" y="0" width="136" height="136"></rect>
                    <g id="folder-screen" transform="translate(7.626168, 0.000000)" fill="#505259">
                        <path d="M112.283065,-2.5808682e-15 C114.983706,1.49955875e-15 115.963024,0.281192811 116.950338,0.809214127 C117.937652,1.33723544 118.712502,2.11208526 119.240523,3.09939928 C119.632783,3.83286141 119.888823,4.56191055 119.994554,5.99554051 C120.129136,6.69888217 120.198313,7.61492706 120.198313,8.95444505 L120.198,23.554 L120.293275,23.5540979 C120.544227,23.5540979 120.747664,23.7575347 120.747664,24.0084867 L120.747664,37.4370968 C120.747664,37.6880488 120.544227,37.8914857 120.293275,37.8914857 L120.198,37.891 L120.198313,127.045555 C120.198313,128.38825 120.128807,129.305461 119.994017,130.009711 C119.888152,131.44 119.632269,132.1681 119.240523,132.900601 C118.712502,133.887915 117.937652,134.662765 116.950338,135.190786 C116.002516,135.697686 115.062064,135.97711 112.59899,135.998652 L112.283065,136 L7.76667212,136 C5.06603102,136 4.0867133,135.718807 3.09939928,135.190786 C2.11208526,134.662765 1.33723544,133.887915 0.809214127,132.900601 C0.281192811,131.913287 -4.05352169e-16,130.933969 6.97645573e-16,128.233328 L2.09188566e-16,7.76667212 C-1.21544581e-16,5.06603102 0.281192811,4.0867133 0.809214127,3.09939928 C1.33723544,2.11208526 2.11208526,1.33723544 3.09939928,0.809214127 C4.0867133,0.281192811 5.06603102,1.49955875e-15 7.76667212,-2.5808682e-15 L112.283065,-2.5808682e-15 Z M111.871121,3.71179039 L8.47576898,3.71179039 C6.04519199,3.71179039 5.16380605,3.96486392 4.27522343,4.44008311 C3.38664081,4.91530229 2.68927597,5.61266713 2.21405679,6.50124975 C1.7586384,7.35280809 1.5072392,8.19775699 1.48707993,10.4059293 L1.48576407,10.7017953 L1.48576407,125.446676 C1.48576407,127.877253 1.7388376,128.758639 2.21405679,129.647222 C2.68927597,130.535804 3.38664081,131.233169 4.27522343,131.708389 C5.12678177,132.163807 5.97173067,132.415206 8.17990298,132.435365 L8.47576898,132.436681 L111.871121,132.436681 C114.301698,132.436681 115.183084,132.183608 116.071666,131.708389 C116.960249,131.233169 117.657614,130.535804 118.132833,129.647222 C118.588251,128.795664 118.839651,127.950715 118.85981,125.742542 L118.861126,125.446676 L118.861126,10.7017953 C118.861126,8.27121831 118.608052,7.38983237 118.132833,6.50124975 C117.657614,5.61266713 116.960249,4.91530229 116.071666,4.44008311 C115.183084,3.96486392 114.301698,3.71179039 111.871121,3.71179039 Z" id="形状结合"></path>
                    </g>
                </g>
                <g id="编组-5" transform="translate(38.714186, 14.410596)">
                    <g id="编组" transform="translate(-0.000000, 0.000000)">
                        <g id="编组-3" transform="translate(-0.000000, 0.000000)">
                            <path d="M2.16517413,5.11967216e-15 L56.4064537,5.11967216e-15 C57.6022464,6.51699703e-16 58.5716278,0.969381477 58.5716278,2.16517413 L58.5716278,12.4809797 C58.5716278,13.6767724 57.6022464,14.6461538 56.4064537,14.6461538 L2.16517413,14.6461538 C0.969381477,14.6461538 1.79705937e-14,13.6767724 2.04886866e-14,12.4809797 L2.04886866e-14,2.16517413 C2.03422442e-14,0.969381477 0.969381477,5.33933571e-15 2.16517413,5.11967216e-15 Z" id="Mask" fill-opacity="0.2" fill="#596080"></path>
                            <rect id="矩形" fill-opacity="0.4" fill="#A1A4B3" x="10.4914015" y="4.18461538" width="15.4989538" height="3.06225166" rx="0.72172471"></rect>
                            <rect id="矩形备份-3" fill-opacity="0.4" fill="#A1A4B3" x="10.4914015" y="8.36923077" width="11.894546" height="2.1615894" rx="0.72172471"></rect>
                            <ellipse id="椭圆形" fill-opacity="0.4" fill="#A1A4B3" cx="5.24570074" cy="7.32307692" rx="3.14742044" ry="3.13846154"></ellipse>
                            <g id="挂断" transform="translate(40.602915, 3.880039)">
                                <mask id="mask-10" fill="white">
                                    <use xlink:href="#path-9"></use>
                                </mask>
                                <use id="backplane/round" fill="#D94838" xlink:href="#path-9"></use>
                                <g id="编组" mask="url(#mask-10)">
                                    <g transform="translate(1.506329, 1.506329)" id="Public/ic_public_phone_filled备份-3">
                                        <g transform="translate(1.936709, 1.936709) rotate(-225.000000) translate(-1.936709, -1.936709) ">
                                            <mask id="mask-12" fill="white">
                                                <use xlink:href="#path-11"></use>
                                            </mask>
                                            <g id="路径"></g>
                                            <g id="编组" mask="url(#mask-12)" fill="#FFFFFF">
                                                <g id="Symbol/color-light/colorPrimary">
                                                    <rect id="color/#000000" x="0" y="0" width="3.87341772" height="3.87341772"></rect>
                                                </g>
                                            </g>
                                        </g>
                                    </g>
                                </g>
                            </g>
                            <g id="接听" transform="translate(49.587272, 3.880039)">
                                <mask id="mask-14" fill="white">
                                    <use xlink:href="#path-13"></use>
                                </mask>
                                <use id="backplane/round" fill="#5BA854" xlink:href="#path-13"></use>
                                <g id="编组" mask="url(#mask-14)">
                                    <g transform="translate(1.506329, 1.506329)" id="Public/ic_public_phone_filled备份">
                                        <mask id="mask-16" fill="white">
                                            <use xlink:href="#path-15"></use>
                                        </mask>
                                        <g id="路径"></g>
                                        <g id="编组" mask="url(#mask-16)" fill="#FFFFFF">
                                            <g id="Symbol/color-light/colorPrimary">
                                                <rect id="color/#000000" x="0" y="0" width="3.87341772" height="3.87341772"></rect>
                                            </g>
                                        </g>
                                    </g>
                                </g>
                            </g>
                        </g>
                    </g>
                </g>
            </g>
            <path d="M185.672,87.504 C185.768,87.504 185.848,87.468 185.912,87.396 C185.976,87.324 186.008,87.24 186.008,87.144 C186.008,87.048 185.976,86.968 185.912,86.904 L183.056,84.072 C182.992,84.008 182.912,83.976 182.816,83.976 C182.72,83.976 182.636,84.008 182.564,84.072 C182.492,84.136 182.456,84.216 182.456,84.312 L182.456,85.992 L166.664,85.992 C166.456,85.992 166.28,86.064 166.136,86.208 C165.992,86.352 165.92,86.528 165.92,86.736 C165.92,86.944 165.992,87.124 166.136,87.276 C166.28,87.428 166.456,87.504 166.664,87.504 L185.672,87.504 Z M169.184,95.76 C169.28,95.76 169.364,95.728 169.436,95.664 C169.508,95.6 169.544,95.52 169.544,95.424 L169.544,93.744 L185.336,93.744 C185.544,93.744 185.72,93.672 185.864,93.528 C186.008,93.384 186.08,93.208 186.08,93 C186.08,92.792 186.008,92.616 185.864,92.472 C185.72,92.328 185.544,92.256 185.336,92.256 L166.304,92.256 C166.208,92.256 166.128,92.292 166.064,92.364 C166,92.436 165.968,92.52 165.968,92.616 C165.968,92.712 166,92.792 166.064,92.856 L168.944,95.664 C169.008,95.728 169.088,95.76 169.184,95.76 Z" id="󰏽" fill-opacity="0.6" fill="#FFFFFF" fill-rule="nonzero"></path>
        </g>
    </g>
</svg>