<?xml version="1.0" encoding="UTF-8"?>
<svg width="352px" height="136px" viewBox="0 0 352 136" version="1.1" xmlns="http://www.w3.org/2000/svg" xmlns:xlink="http://www.w3.org/1999/xlink">
    <title>平板_来电通知设置_dark</title>
    <defs>
        <circle id="path-1" cx="2.01526861" cy="2.01526861" r="2.01526861"></circle>
        <path d="M0.189189955,0.620484078 C0.16094236,0.497573458 0.198325585,0.36883397 0.288056535,0.27983166 C0.337882153,0.223878277 0.385045548,0.191642029 0.429546718,0.183122916 C0.496298474,0.170344247 0.564647564,0.19668624 0.607103026,0.249454297 L0.75154743,0.428008545 C0.758775462,0.436856581 0.764437768,0.443743334 0.767883103,0.447858705 L0.771039958,0.451559039 C0.825785595,0.513233442 0.824353405,0.60590065 0.768574295,0.665818964 L0.764594575,0.669945375 L0.667073118,0.761946188 C0.628316746,0.800590453 0.621394964,0.86070064 0.650371167,0.907079363 C0.706564814,0.99747906 0.81186132,1.11936444 0.926847604,1.23236252 C1.03985193,1.34735504 1.1617373,1.45265155 1.252137,1.5088452 C1.29851572,1.5378214 1.35862591,1.53089962 1.39727018,1.49214325 L1.48927099,1.39462179 L1.4933974,1.39064207 C1.5516963,1.3363705 1.64099781,1.33354788 1.70259004,1.38386064 L1.71811217,1.39693331 C1.75344644,1.42604948 1.86402975,1.5153186 1.90976207,1.55211334 C1.96253012,1.5945688 1.98887212,1.66291789 1.97609345,1.72966965 C1.96757434,1.77417082 1.93533809,1.82133421 1.8793847,1.87115983 C1.79038239,1.96089078 1.66164291,1.998274 1.53873229,1.97002641 C1.27698923,1.90921867 0.967473274,1.70408062 0.710004397,1.44921821 C0.455135741,1.19174309 0.249997698,0.882227134 0.189189955,0.620484078 Z" id="path-3"></path>
        <circle id="path-5" cx="2.01526861" cy="2.01526861" r="2.01526861"></circle>
        <path d="M0.189189955,0.620484078 C0.16094236,0.497573458 0.198325585,0.36883397 0.288056535,0.27983166 C0.337882153,0.223878277 0.385045548,0.191642029 0.429546718,0.183122916 C0.496298474,0.170344247 0.564647564,0.19668624 0.607103026,0.249454297 L0.75154743,0.428008545 C0.758775462,0.436856581 0.764437768,0.443743334 0.767883103,0.447858705 L0.771039958,0.451559039 C0.825785595,0.513233442 0.824353405,0.60590065 0.768574295,0.665818964 L0.764594575,0.669945375 L0.667073118,0.761946188 C0.628316746,0.800590453 0.621394964,0.86070064 0.650371167,0.907079363 C0.706564814,0.99747906 0.81186132,1.11936444 0.926847604,1.23236252 C1.03985193,1.34735504 1.1617373,1.45265155 1.252137,1.5088452 C1.29851572,1.5378214 1.35862591,1.53089962 1.39727018,1.49214325 L1.48927099,1.39462179 L1.4933974,1.39064207 C1.5516963,1.3363705 1.64099781,1.33354788 1.70259004,1.38386064 L1.71811217,1.39693331 C1.75344644,1.42604948 1.86402975,1.5153186 1.90976207,1.55211334 C1.96253012,1.5945688 1.98887212,1.66291789 1.97609345,1.72966965 C1.96757434,1.77417082 1.93533809,1.82133421 1.8793847,1.87115983 C1.79038239,1.96089078 1.66164291,1.998274 1.53873229,1.97002641 C1.27698923,1.90921867 0.967473274,1.70408062 0.710004397,1.44921821 C0.455135741,1.19174309 0.249997698,0.882227134 0.189189955,0.620484078 Z" id="path-7"></path>
        <circle id="path-9" cx="5.29508197" cy="5.29508197" r="5.29508197"></circle>
        <path d="M0.497093199,1.63031074 C0.422873153,1.3073653 0.521096904,0.969104613 0.756863358,0.735252647 C0.887779272,0.58823614 1.01170024,0.503535979 1.12862627,0.481152163 C1.3040153,0.44757644 1.48360131,0.516789553 1.59515227,0.655436673 L1.97467734,1.12458474 C1.99366886,1.1478328 2.00854647,1.16592762 2.01759902,1.17674068 L2.0258936,1.18646324 C2.16973678,1.34851162 2.16597372,1.59199305 2.01941512,1.74942734 L2.00895847,1.76026941 L1.7527226,2.00199989 C1.65089093,2.103537 1.63270408,2.26147543 1.70883853,2.38333469 C1.85648632,2.62085826 2.133151,2.94110989 2.43527538,3.23801033 C2.73219221,3.54015111 3.05244384,3.81681579 3.28996742,3.96446358 C3.41182668,4.04059803 3.56976511,4.02241118 3.67130222,3.92057951 L3.9130327,3.66434363 L3.92387477,3.65388699 C4.07705408,3.51128943 4.31169218,3.50387304 4.47352466,3.63606891 L4.51430878,3.67041711 C4.60714893,3.74691932 4.8977046,3.98147234 5.01786543,4.07814984 C5.15651255,4.1897008 5.22572567,4.36928681 5.19214994,4.54467584 C5.16976613,4.66160187 5.08506597,4.78552284 4.93804946,4.91643875 C4.70419749,5.1522052 4.36593681,5.25042895 4.04299137,5.17620891 C3.3552662,5.01643766 2.5420186,4.47744115 1.86552377,3.80779474 C1.19586096,3.13128351 0.656864448,2.3180359 0.497093199,1.63031074 Z" id="path-11"></path>
        <circle id="path-13" cx="5.29508197" cy="5.29508197" r="5.29508197"></circle>
        <path d="M0.497093199,1.63031074 C0.422873153,1.3073653 0.521096904,0.969104613 0.756863358,0.735252647 C0.887779272,0.58823614 1.01170024,0.503535979 1.12862627,0.481152163 C1.3040153,0.44757644 1.48360131,0.516789553 1.59515227,0.655436673 L1.97467734,1.12458474 C1.99366886,1.1478328 2.00854647,1.16592762 2.01759902,1.17674068 L2.0258936,1.18646324 C2.16973678,1.34851162 2.16597372,1.59199305 2.01941512,1.74942734 L2.00895847,1.76026941 L1.7527226,2.00199989 C1.65089093,2.103537 1.63270408,2.26147543 1.70883853,2.38333469 C1.85648632,2.62085826 2.133151,2.94110989 2.43527538,3.23801033 C2.73219221,3.54015111 3.05244384,3.81681579 3.28996742,3.96446358 C3.41182668,4.04059803 3.56976511,4.02241118 3.67130222,3.92057951 L3.9130327,3.66434363 L3.92387477,3.65388699 C4.07705408,3.51128943 4.31169218,3.50387304 4.47352466,3.63606891 L4.51430878,3.67041711 C4.60714893,3.74691932 4.8977046,3.98147234 5.01786543,4.07814984 C5.15651255,4.1897008 5.22572567,4.36928681 5.19214994,4.54467584 C5.16976613,4.66160187 5.08506597,4.78552284 4.93804946,4.91643875 C4.70419749,5.1522052 4.36593681,5.25042895 4.04299137,5.17620891 C3.3552662,5.01643766 2.5420186,4.47744115 1.86552377,3.80779474 C1.19586096,3.13128351 0.656864448,2.3180359 0.497093199,1.63031074 Z" id="path-15"></path>
    </defs>
    <g id="平板_来电通知设置_dark" stroke="none" stroke-width="1" fill="none" fill-rule="evenodd">
        <g id="编组">
            <rect id="矩形" x="0" y="0" width="352" height="136"></rect>
            <g id="#illustration_编组备份-2" transform="translate(16.000000, 0.000000)">
                <rect id="矩形" x="0" y="0" width="136" height="136"></rect>
                <g id="Mockup/Tablet/Default-" transform="translate(0.000000, 24.144081)" fill="#505259">
                    <g id="底备份-2" transform="translate(68.000000, 43.855919) rotate(270.000000) translate(-68.000000, -43.855919) translate(24.144081, -24.144081)">
                        <path d="M80.7738332,4.34612409e-15 C83.1863286,-2.52522326e-15 84.0611577,0.251190864 84.94313,0.722874796 C85.8251023,1.19455873 86.5172793,1.88673573 86.9889632,2.768708 C87.4606471,3.65068027 87.711838,4.5255094 87.711838,6.93800483 L87.711838,129.061995 C87.711838,131.474491 87.4606471,132.34932 86.9889632,133.231292 C86.5172793,134.113264 85.8251023,134.805441 84.94313,135.277125 C84.0611577,135.748809 83.1863286,136 80.7738332,136 L6.93800483,136 C4.5255094,136 3.65068027,135.748809 2.768708,135.277125 C1.88673573,134.805441 1.19455873,134.113264 0.722874796,133.231292 C0.251190864,132.34932 6.35473097e-16,131.474491 -1.09370327e-15,129.061995 L1.86869133e-16,6.93800483 C-1.08576348e-16,4.5255094 0.251190864,3.65068027 0.722874796,2.768708 C1.19455873,1.88673573 1.88673573,1.19455873 2.768708,0.722874796 C3.65068027,0.251190864 4.5255094,-1.41782573e-15 6.93800483,2.44019872e-15 L80.7738332,4.34612409e-15 Z M7.34742808,2.72 C5.73909779,2.72 5.15587837,2.88746058 4.56789685,3.20191653 C3.97991534,3.51637248 3.51846401,3.97782382 3.20400805,4.56580533 C2.8895521,5.15378684 2.72209152,5.73700627 2.72209152,7.34533655 L2.72209152,7.34533655 L2.72209152,128.654663 C2.72209152,130.262994 2.8895521,130.846213 3.20400805,131.434195 C3.51846401,132.022176 3.97991534,132.483628 4.56789685,132.798083 C5.15587837,133.112539 5.73909779,133.28 7.34742808,133.28 L7.34742808,133.28 L80.3644099,133.28 C81.9727402,133.28 82.5559596,133.112539 83.1439411,132.798083 C83.7319227,132.483628 84.193374,132.022176 84.5078299,131.434195 C84.8222859,130.846213 84.9897465,130.262994 84.9897465,128.654663 L84.9897465,128.654663 L84.9897465,7.34533655 C84.9897465,5.73700627 84.8222859,5.15378684 84.5078299,4.56580533 C84.193374,3.97782382 83.7319227,3.51637248 83.1439411,3.20191653 C82.5559596,2.88746058 81.9727402,2.72 80.3644099,2.72 L80.3644099,2.72 Z" id="形状结合"></path>
                    </g>
                </g>
                <g id="编组-4" transform="translate(37.636543, 33.442623)">
                    <path d="M1.3774133,0 L59.3495,0 C60.1102243,-3.61787402e-16 60.7269133,0.616688938 60.7269133,1.3774133 L60.7269133,8.02717354 C60.7269133,8.78789789 60.1102243,9.40458683 59.3495,9.40458683 L1.3774133,9.40458683 C0.616688938,9.40458683 5.37251075e-16,8.78789789 0,8.02717354 L0,1.3774133 C-3.1520647e-16,0.616688938 0.616688938,-8.23018075e-17 1.3774133,0 Z" id="Mask" fill-opacity="0.2" fill="#596080"></path>
                    <rect id="矩形" fill-opacity="0.4" fill="#A1A4B3" x="7.80976005" y="2.68702481" width="12.1913879" height="1.96633272" rx="0.459137765"></rect>
                    <rect id="矩形备份-3" fill-opacity="0.4" fill="#A1A4B3" x="7.80976005" y="5.37404962" width="9.89112603" height="1.38799957" rx="0.459137765"></rect>
                    <ellipse id="椭圆形" fill-opacity="0.4" fill="#A1A4B3" cx="4.47067024" cy="4.70229342" rx="2.00345388" ry="2.01526861"></ellipse>
                    <g id="挂断" transform="translate(48.500766, 2.687025)">
                        <mask id="mask-2" fill="white">
                            <use xlink:href="#path-1"></use>
                        </mask>
                        <use id="backplane/round" fill="#D94838" xlink:href="#path-1"></use>
                        <g id="编组" mask="url(#mask-2)">
                            <g transform="translate(0.935660, 0.935660)" id="Public/ic_public_phone_filled备份-3">
                                <g transform="translate(1.079608, 1.079608) rotate(-225.000000) translate(-1.079608, -1.079608) ">
                                    <mask id="mask-4" fill="white">
                                        <use xlink:href="#path-3"></use>
                                    </mask>
                                    <g id="路径"></g>
                                    <g id="编组" mask="url(#mask-4)" fill="#FFFFFF">
                                        <g id="Symbol/color-light/colorPrimary">
                                            <rect id="color/#000000" x="0" y="0" width="2.15921636" height="2.15921636"></rect>
                                        </g>
                                    </g>
                                </g>
                            </g>
                        </g>
                    </g>
                    <g id="挂断" transform="translate(53.889199, 2.687025)">
                        <mask id="mask-6" fill="white">
                            <use xlink:href="#path-5"></use>
                        </mask>
                        <use id="backplane/round" fill="#5BA854" xlink:href="#path-5"></use>
                        <g id="编组" mask="url(#mask-6)">
                            <g transform="translate(0.935660, 0.935660)" id="Public/ic_public_phone_filled备份">
                                <mask id="mask-8" fill="white">
                                    <use xlink:href="#path-7"></use>
                                </mask>
                                <g id="路径"></g>
                                <g id="编组" mask="url(#mask-8)" fill="#FFFFFF">
                                    <g id="Symbol/color-light/colorPrimary">
                                        <rect id="color/#000000" x="0" y="0" width="2.15921636" height="2.15921636"></rect>
                                    </g>
                                </g>
                            </g>
                        </g>
                    </g>
                </g>
            </g>
            <g id="#illustration_编组备份-3" transform="translate(200.000000, 23.000000)">
                <rect id="矩形" x="0" y="0" width="136" height="90"></rect>
                <g id="Mockup/Tablet/Default-" transform="translate(0.000000, 1.144081)" fill="#505259">
                    <g id="底备份-2" transform="translate(68.000000, 43.855919) rotate(270.000000) translate(-68.000000, -43.855919) translate(24.144081, -24.144081)">
                        <path d="M80.7738332,4.34612409e-15 C83.1863286,-2.52522326e-15 84.0611577,0.251190864 84.94313,0.722874796 C85.8251023,1.19455873 86.5172793,1.88673573 86.9889632,2.768708 C87.4606471,3.65068027 87.711838,4.5255094 87.711838,6.93800483 L87.711838,129.061995 C87.711838,131.474491 87.4606471,132.34932 86.9889632,133.231292 C86.5172793,134.113264 85.8251023,134.805441 84.94313,135.277125 C84.0611577,135.748809 83.1863286,136 80.7738332,136 L6.93800483,136 C4.5255094,136 3.65068027,135.748809 2.768708,135.277125 C1.88673573,134.805441 1.19455873,134.113264 0.722874796,133.231292 C0.251190864,132.34932 6.35473097e-16,131.474491 -1.09370327e-15,129.061995 L1.86869133e-16,6.93800483 C-1.08576348e-16,4.5255094 0.251190864,3.65068027 0.722874796,2.768708 C1.19455873,1.88673573 1.88673573,1.19455873 2.768708,0.722874796 C3.65068027,0.251190864 4.5255094,-1.41782573e-15 6.93800483,2.44019872e-15 L80.7738332,4.34612409e-15 Z M7.34742808,2.72 C5.73909779,2.72 5.15587837,2.88746058 4.56789685,3.20191653 C3.97991534,3.51637248 3.51846401,3.97782382 3.20400805,4.56580533 C2.8895521,5.15378684 2.72209152,5.73700627 2.72209152,7.34533655 L2.72209152,7.34533655 L2.72209152,128.654663 C2.72209152,130.262994 2.8895521,130.846213 3.20400805,131.434195 C3.51846401,132.022176 3.97991534,132.483628 4.56789685,132.798083 C5.15587837,133.112539 5.73909779,133.28 7.34742808,133.28 L7.34742808,133.28 L80.3644099,133.28 C81.9727402,133.28 82.5559596,133.112539 83.1439411,132.798083 C83.7319227,132.483628 84.193374,132.022176 84.5078299,131.434195 C84.8222859,130.846213 84.9897465,130.262994 84.9897465,128.654663 L84.9897465,128.654663 L84.9897465,7.34533655 C84.9897465,5.73700627 84.8222859,5.15378684 84.5078299,4.56580533 C84.193374,3.97782382 83.7319227,3.51637248 83.1439411,3.20191653 C82.5559596,2.88746058 81.9727402,2.72 80.3644099,2.72 L80.3644099,2.72 Z" id="形状结合"></path>
                    </g>
                </g>
                <g id="1:1通用手机" transform="translate(41.245902, 67.118214)">
                    <g id="挂断">
                        <mask id="mask-10" fill="white">
                            <use xlink:href="#path-9"></use>
                        </mask>
                        <use id="backplane/round" fill="#D94838" xlink:href="#path-9"></use>
                        <g id="编组" mask="url(#mask-10)">
                            <g transform="translate(2.458431, 2.458431)" id="Public/ic_public_phone_filled备份-3">
                                <g transform="translate(2.836651, 2.836651) rotate(-225.000000) translate(-2.836651, -2.836651) ">
                                    <mask id="mask-12" fill="white">
                                        <use xlink:href="#path-11"></use>
                                    </mask>
                                    <g id="路径"></g>
                                    <g id="编组" mask="url(#mask-12)" fill="#FFFFFF">
                                        <g id="Symbol/color-light/colorPrimary">
                                            <rect id="color/#000000" x="0" y="0" width="5.67330211" height="5.67330211"></rect>
                                        </g>
                                    </g>
                                </g>
                            </g>
                        </g>
                    </g>
                    <g id="挂断" transform="translate(42.918033, 0.000000)">
                        <mask id="mask-14" fill="white">
                            <use xlink:href="#path-13"></use>
                        </mask>
                        <use id="backplane/round" fill="#5BA854" xlink:href="#path-13"></use>
                        <g id="编组" mask="url(#mask-14)">
                            <g transform="translate(2.458431, 2.458431)" id="Public/ic_public_phone_filled备份">
                                <mask id="mask-16" fill="white">
                                    <use xlink:href="#path-15"></use>
                                </mask>
                                <g id="路径"></g>
                                <g id="编组" mask="url(#mask-16)" fill="#FFFFFF">
                                    <g id="Symbol/color-light/colorPrimary">
                                        <rect id="color/#000000" x="0" y="0" width="5.67330211" height="5.67330211"></rect>
                                    </g>
                                </g>
                            </g>
                        </g>
                    </g>
                </g>
                <g id="编组-2备份-2" transform="translate(59.918132, 17.688525)" fill="#A1A4B3" fill-opacity="0.4">
                    <ellipse id="椭圆形" cx="8.15784984" cy="6.67042158" rx="6.67157188" ry="6.67042158"></ellipse>
                    <rect id="矩形" x="0" y="16.0355168" width="16.2008004" height="2.75651859" rx="0.45912027"></rect>
                    <rect id="矩形备份-2" x="1.7234894" y="19.8257298" width="12.9836202" height="1.952534" rx="0.45912027"></rect>
                </g>
            </g>
            <path d="M185.672,65.504 C185.768,65.504 185.848,65.468 185.912,65.396 C185.976,65.324 186.008,65.24 186.008,65.144 C186.008,65.048 185.976,64.968 185.912,64.904 L183.056,62.072 C182.992,62.008 182.912,61.976 182.816,61.976 C182.72,61.976 182.636,62.008 182.564,62.072 C182.492,62.136 182.456,62.216 182.456,62.312 L182.456,63.992 L166.664,63.992 C166.456,63.992 166.28,64.064 166.136,64.208 C165.992,64.352 165.92,64.528 165.92,64.736 C165.92,64.944 165.992,65.124 166.136,65.276 C166.28,65.428 166.456,65.504 166.664,65.504 L185.672,65.504 Z M169.184,73.76 C169.28,73.76 169.364,73.728 169.436,73.664 C169.508,73.6 169.544,73.52 169.544,73.424 L169.544,71.744 L185.336,71.744 C185.544,71.744 185.72,71.672 185.864,71.528 C186.008,71.384 186.08,71.208 186.08,71 C186.08,70.792 186.008,70.616 185.864,70.472 C185.72,70.328 185.544,70.256 185.336,70.256 L166.304,70.256 C166.208,70.256 166.128,70.292 166.064,70.364 C166,70.436 165.968,70.52 165.968,70.616 C165.968,70.712 166,70.792 166.064,70.856 L168.944,73.664 C169.008,73.728 169.088,73.76 169.184,73.76 Z" id="󰏽" fill-opacity="0.6" fill="#FFFFFF" fill-rule="nonzero"></path>
        </g>
    </g>
</svg>