<?xml version="1.0" encoding="UTF-8"?>
<svg width="40px" height="40px" viewBox="0 0 40 40" version="1.1" xmlns="http://www.w3.org/2000/svg"
     xmlns:xlink="http://www.w3.org/1999/xlink">
    <title>画板</title>
    <g id="画板" stroke="none" stroke-width="1" fill="none" fill-rule="evenodd">
        <g id="编组-2" transform="translate(-0.000000, -0.000000)">
            <path d="M1.4791142e-30,20 C1.22731686e-15,31.05 8.95,40 20,40 C31.05,40 40,31.05 40,20 C40,8.95 31.05,6.15826834e-16 20,1.45446229e-30 C8.95,-6.16911036e-16 -1.22731686e-15,8.95 1.4791142e-30,20 Z"
                  id="Fill-1备份" fill="#DB6B42"
                  transform="translate(20.000000, 20.000000) scale(-1, 1) rotate(-270.000000) translate(-20.000000, -20.000000) "></path>
            <path d="M17.5790508,7.53213614 L21.3452707,9.5703695 C21.5753802,9.69490203 21.71875,9.93551085 21.71875,10.1971571 L21.71875,13.3641265 C21.71875,13.6202085 21.5813605,13.8566042 21.3588554,13.9833696 L18.5559197,15.5802561 C18.3372242,15.7048511 18.0690258,15.7048511 17.8503303,15.5802561 L15.0641257,13.9929016 C14.8327581,13.8610871 14.6941719,13.6112857 14.7047989,13.3452159 L14.8754824,9.0717923 C14.8852975,8.8260514 15.0211191,8.60273525 15.2348092,8.48099186 L16.8870462,7.53968065 C17.1009321,7.4178257 17.362559,7.41497334 17.5790508,7.53213614 Z"
                  id="多边形备份-4" fill="#F5B38B"
                  transform="translate(18.203125, 11.562500) scale(1, -1) rotate(45.000000) translate(-18.203125, -11.562500) "></path>
            <path d="M22.1103008,24.4071361 L25.8765207,26.4453695 C26.1066302,26.569902 26.25,26.8105109 26.25,27.0721571 L26.25,30.2391265 C26.25,30.4952085 26.1126105,30.7316042 25.8901054,30.8583696 L23.0871697,32.4552561 C22.8684742,32.5798511 22.6002758,32.5798511 22.3815803,32.4552561 L19.5953757,30.8679016 C19.3640081,30.7360871 19.2254219,30.4862857 19.2360489,30.2202159 L19.4067324,25.9467923 C19.4165475,25.7010514 19.5523691,25.4777353 19.7660592,25.3559919 L21.4182962,24.4146806 C21.6321821,24.2928257 21.893809,24.2899733 22.1103008,24.4071361 Z"
                  id="多边形备份-3" fill="#F5B38B"
                  transform="translate(22.734375, 28.437500) scale(-1, 1) rotate(45.000000) translate(-22.734375, -28.437500) "></path>
            <g id="编组"
               transform="translate(20.257887, 20.201532) scale(-1, 1) rotate(-255.000000) translate(-20.257887, -20.201532) translate(11.601425, 5.883118)">
                <polygon id="路径" fill="#FFFFFF" fill-rule="nonzero" opacity="0.400000006"
                         transform="translate(8.656462, 15.482013) scale(-1, 1) rotate(-315.000000) translate(-8.656462, -15.482013) "
                         points="2.55589979 10.8550957 4.08405493 9.34048905 14.7570235 20.1089296 13.2288684 21.6235363"></polygon>
                <path d="M4.89472694,5.00222703 L11.9054943,5.00222703 C12.1268867,5.00222703 12.3063606,5.18170099 12.3063606,5.40309335 L12.3063606,9.13226234 C12.3063427,9.35364772 12.1268797,9.5331188 11.9054943,9.53314654 L4.89472694,9.53345915 C4.67333459,9.5334869 4.49385262,9.35402094 4.49384274,9.13262858 C4.49384274,9.13262262 4.49384274,9.13261666 4.49386062,9.1326107 L4.49386062,5.40309335 C4.49386062,5.18170099 4.67333459,5.00222703 4.89472694,5.00222703 Z"
                      id="矩形备份" fill="#FFEEE3"
                      transform="translate(8.400111, 7.267852) rotate(-360.000000) translate(-8.400111, -7.267852) "></path>
                <path d="M4.84847948,0 L11.8592468,0 C12.0806392,-4.06691163e-17 12.2601132,0.179473967 12.2601132,0.400866325 L12.2601132,4.13003532 C12.2600953,4.35142069 12.0806322,4.53089177 11.8592468,4.53091952 L4.84847948,4.53123213 C4.62708712,4.53125987 4.44760515,4.35179391 4.44759528,4.13040155 C4.44759528,4.13039559 4.44759528,4.13038963 4.44761315,4.13038368 L4.44761315,0.400866325 C4.44761315,0.179473967 4.62708712,4.06691163e-17 4.84847948,0 Z"
                      id="矩形备份-2" fill="#FFEEE3"
                      transform="translate(8.353863, 2.265625) rotate(-360.000000) translate(-8.353863, -2.265625) "></path>
                <path d="M4.99332396,24.1055797 L12.0040913,24.1055797 C12.2254837,24.1055797 12.4049576,24.2850536 12.4049576,24.506446 L12.4049576,28.235615 C12.4049398,28.4570004 12.2254767,28.6364714 12.0040913,28.6364992 L4.99332396,28.6368118 C4.7719316,28.6368395 4.59244963,28.4573736 4.59243976,28.2359812 C4.59243976,28.2359753 4.59243976,28.2359693 4.59245763,28.2359634 L4.59245763,24.506446 C4.59245763,24.2850536 4.7719316,24.1055797 4.99332396,24.1055797 Z"
                      id="矩形备份-4" fill="#FFEEE3"
                      transform="translate(8.498708, 26.371205) rotate(-360.000000) translate(-8.498708, -26.371205) "></path>
                <path d="M4.94707649,19.1033526 L11.9578438,19.1033526 C12.1792362,19.1033526 12.3587102,19.2828266 12.3587102,19.504219 L12.3587102,23.233388 C12.3586923,23.4547733 12.1792292,23.6342444 11.9578438,23.6342722 L4.94707649,23.6345848 C4.72568413,23.6346125 4.54620216,23.4551466 4.54619229,23.2337542 C4.54619229,23.2337482 4.54619229,23.2337423 4.54621016,23.2337363 L4.54621016,19.504219 C4.54621016,19.2828266 4.72568413,19.1033526 4.94707649,19.1033526 Z"
                      id="矩形备份-3" fill="#FFEEE3"
                      transform="translate(8.452460, 21.368978) rotate(-360.000000) translate(-8.452460, -21.368978) "></path>
                <path d="M3.87319476,11.0677143 L13.1935157,11.0677143 C13.6400874,11.0677143 14.0021052,11.4297321 14.0021052,11.8763038 L14.0021052,16.8587204 C14.0020713,17.3052788 13.6400741,17.6672912 13.1935157,17.6673439 L3.87319476,17.6677351 C3.4266231,17.6677878 3.06459004,17.3057851 3.0645713,16.8592134 C3.0645713,16.8592021 3.0645713,16.8591908 3.06460524,16.8591795 L3.06460524,11.8763038 C3.06460524,11.4297321 3.4266231,11.0677143 3.87319476,11.0677143 Z"
                      id="矩形" fill="#FFFFFF"></path>
            </g>
        </g>
    </g>
</svg>