<?xml version="1.0" encoding="UTF-8"?>
<svg width="192px" height="192px" viewBox="0 0 32 32" version="1.1" xmlns="http://www.w3.org/2000/svg" xmlns:xlink="http://www.w3.org/1999/xlink">
    <title>ic_应急预警</title>
    <defs>
        <path d="M10.2555408,1.41694211e-13 L21.7444592,1.42522883e-13 C25.3105342,1.41867806e-13 26.6036791,0.371302445 27.9073828,1.06853082 C29.2110865,1.76575919 30.2342408,2.78891348 30.9314692,4.09261719 C31.6286976,5.39632089 32,6.68946584 32,10.2555408 L32,21.7444592 C32,25.3105342 31.6286976,26.6036791 30.9314692,27.9073828 C30.2342408,29.2110865 29.2110865,30.2342408 27.9073828,30.9314692 C26.6036791,31.6286976 25.3105342,32 21.7444592,32 L10.2555408,32 C6.68946584,32 5.39632089,31.6286976 4.09261719,30.9314692 C2.78891348,30.2342408 1.76575919,29.2110865 1.06853082,27.9073828 C0.371302445,26.6036791 1.60494146e-16,25.3105342 -2.76224082e-16,21.7444592 L2.76224082e-16,10.2555408 C-1.60494146e-16,6.68946584 0.371302445,5.39632089 1.06853082,4.09261719 C1.76575919,2.78891348 2.78891348,1.76575919 4.09261719,1.06853082 C5.39632089,0.371302445 6.68946584,1.42349288e-13 10.2555408,1.41694211e-13 Z" id="path-1"></path>
    </defs>
    <g id="ic_应急预警" stroke="none" stroke-width="1" fill="none" fill-rule="evenodd">
        <g id="编组-4备份-2" transform="translate(0.000000, -0.000000)">
            <mask id="mask-2" fill="white">
                <use xlink:href="#path-1"></use>
            </mask>
            <use id="蒙版" fill="#E84026" xlink:href="#path-1"></use>
            <path d="M15.8383541,7.27272727 C16.0183613,7.27299504 16.1962366,7.31154021 16.3600856,7.38578531 L22.3042407,10.0833105 C22.7687395,10.2987241 23.0655278,10.7630421 23.0649342,11.2733952 L23.0649342,15.3256334 C23.0649342,15.5477825 23.0649342,15.7699317 23.0390458,15.9920808 C22.7562753,20.0839885 19.8787865,23.7573831 16.1430294,24.6896161 C15.94304,24.7398249 15.7336682,24.7398249 15.5336788,24.6896161 C11.7899563,23.7573831 9.04588741,20.0839885 8.76311688,15.9920808 C8.74718614,15.7699317 8.72727273,15.5477825 8.72727273,15.3256334 L8.72727273,11.2912464 C8.73093959,10.7793265 9.03122495,10.3156072 9.49792198,10.1011618 L15.3186139,7.38578531 C15.4816949,7.31134743 15.658965,7.27272727 15.8383541,7.27272727 Z M16.9974026,11.7429014 C16.6857143,11.5596719 16.3116883,11.6207484 16.1246753,11.8650544 L16.1246753,11.8650544 L13.0077922,16.1404099 C12.9454545,16.2625629 12.8831169,16.384716 12.8831169,16.506869 C12.8831169,16.8122515 13.1324675,17.117634 13.5064935,17.117634 L13.5064935,17.117634 L14.7532468,17.117634 L14.7532468,19.5606943 C14.7532468,19.7439238 14.8779221,19.9271534 15.0025974,20.0493064 C15.3142857,20.2325359 15.6883117,20.1714594 15.8753247,19.9271534 L15.8753247,19.9271534 L18.9922078,15.6517979 C19.0545455,15.5296449 19.1168831,15.4074918 19.1168831,15.2853388 C19.1168831,14.9799563 18.8675325,14.6745738 18.4935065,14.6745738 L18.4935065,14.6745738 L17.2467532,14.6745738 L17.2467532,12.2315135 C17.2467532,12.0482839 17.1220779,11.8650544 16.9974026,11.7429014 Z" id="形状结合" fill="#FFFFFF" fill-rule="nonzero" mask="url(#mask-2)"></path>
        </g>
    </g>
</svg>