<svg width="18.000000" height="14.000000" viewBox="0 0 18 14" fill="none" xmlns="http://www.w3.org/2000/svg" xmlns:xlink="http://www.w3.org/1999/xlink">
	<desc>
			Created with Pixso.
	</desc>
	<defs/>
	<g opacity="0.200000">
		<path id="矩形 5" d="M8 0L17 0C17.55 0 18 0.44 18 1L18 6C18 10.41 14.41 14 10 14L1 14C0.44 14 0 13.55 0 13L0 8C0 3.58 3.58 0 8 0Z" fill="#000000" fill-opacity="1.000000" fill-rule="evenodd"/>
	</g>
	<path id="path" d="M11.25 9.97L11.62 9.97C12.03 9.97 12.45 9.97 12.87 9.97C12.92 9.97 12.96 9.97 12.97 9.95C12.99 9.94 12.99 9.91 12.99 9.88C12.99 9.68 12.99 9.49 12.99 9.3C12.99 9.21 12.97 9.17 12.84 9.17C12.75 9.17 12.67 9.17 12.58 9.17C12.48 9.17 12.37 9.17 12.26 9.17L11.9 9.17C11.19 9.17 10.48 9.17 9.77 9.17C9.6 9.17 9.5 9.17 9.44 9.1C9.37 9.04 9.37 8.94 9.37 8.74L9.37 8.72C9.38 8.6 9.41 8.47 9.63 8.47C10.63 8.47 11.4 8.47 12.13 8.46C12.26 8.46 12.42 8.41 12.55 8.33C12.82 8.17 12.84 7.87 12.84 7.6C12.85 6.86 12.83 6.13 12.82 5.51C12.82 5.32 12.74 5.17 12.58 5.06C12.4 4.94 12.21 4.89 11.99 4.89C11.7 4.89 11.41 4.89 11.12 4.89C10.55 4.89 9.98 4.89 9.41 4.89C9.32 4.89 9.23 4.88 9.18 4.82C9.13 4.78 9.12 4.72 9.12 4.63C9.12 4.53 9.15 4.46 9.2 4.41C9.27 4.36 9.36 4.36 9.43 4.36L9.46 4.37C9.52 4.37 9.58 4.38 9.63 4.38C10.04 4.38 10.45 4.38 10.85 4.38C11.53 4.39 12.2 4.39 12.88 4.39C12.92 4.39 12.96 4.38 12.97 4.37C12.99 4.35 13 4.32 12.99 4.28C12.99 4.21 12.99 4.14 12.99 4.06C12.99 3.99 13 3.92 12.99 3.85C12.99 3.79 12.99 3.69 12.97 3.67C12.95 3.65 12.85 3.65 12.78 3.65L12.73 3.65C11.61 3.65 10.5 3.65 9.38 3.66C9.3 3.66 9.22 3.65 9.17 3.6C9.13 3.55 9.12 3.5 9.13 3.42C9.13 3.37 9.13 3.33 9.11 3.31C9.08 3.28 9.02 3.27 8.97 3.28C8.83 3.28 8.67 3.28 8.51 3.28C8.44 3.27 8.4 3.28 8.38 3.3C8.36 3.33 8.35 3.37 8.35 3.42C8.35 3.58 8.35 3.75 8.35 3.91C8.35 4.13 8.35 4.37 8.36 4.6C8.36 4.71 8.34 4.77 8.3 4.82C8.24 4.88 8.15 4.89 8.06 4.89C7.4 4.88 6.71 4.88 5.96 4.88C5.44 4.89 5.15 5.15 5.14 5.63C5.13 6.19 5.13 6.76 5.13 7.31L5.14 7.66C5.14 7.92 5.21 8.12 5.36 8.26C5.5 8.4 5.72 8.47 5.97 8.47C6.47 8.46 6.99 8.46 7.48 8.47C7.69 8.47 7.91 8.48 8.12 8.48C8.56 8.48 8.59 8.51 8.59 8.93L8.59 8.94C8.59 9.01 8.59 9.08 8.54 9.14C8.48 9.19 8.41 9.19 8.35 9.19C8.07 9.18 7.79 9.18 7.51 9.19C7.35 9.19 7.18 9.19 7.02 9.19C6.32 9.18 5.74 9.17 5.14 9.17C5.08 9.16 5.04 9.17 5.02 9.19C5 9.21 4.99 9.25 5 9.3C5 9.46 5.01 9.64 5 9.82C4.99 9.88 5 9.92 5.02 9.94C5.04 9.96 5.08 9.97 5.15 9.97C5.62 9.97 6.09 9.97 6.55 9.97L7.06 9.97C7.19 9.97 7.31 9.97 7.43 9.97C7.73 9.97 8.03 9.97 8.33 9.96C8.33 9.96 8.33 9.96 8.34 9.96C8.4 9.96 8.48 9.97 8.54 10.03C8.6 10.09 8.6 10.18 8.59 10.24C8.58 10.35 8.59 10.47 8.59 10.57C8.6 10.69 8.65 10.71 8.71 10.71C8.87 10.72 9.03 10.71 9.18 10.71L9.23 10.71C9.29 10.71 9.33 10.7 9.35 10.68C9.37 10.66 9.38 10.62 9.38 10.57C9.37 10.48 9.37 10.38 9.37 10.3L9.37 10.22C9.37 10.14 9.39 10.07 9.43 10.03C9.48 9.99 9.54 9.97 9.62 9.97C10.02 9.97 10.41 9.97 10.8 9.97C10.95 9.97 11.1 9.97 11.25 9.97ZM6.19 5.68C6.66 5.67 7.13 5.67 7.53 5.67C7.69 5.67 7.86 5.67 8.03 5.67C8.2 5.67 8.38 5.68 8.55 5.68C9.06 5.67 9.57 5.67 10.08 5.67C10.59 5.67 11.1 5.66 11.61 5.66C11.8 5.66 11.91 5.69 11.99 5.77C12.05 5.84 12.08 5.95 12.08 6.11C12.07 6.25 12 6.32 11.86 6.32C11.86 6.32 11.85 6.32 11.85 6.32C11.67 6.32 11.48 6.32 11.3 6.32C10.87 6.32 10.44 6.32 10.01 6.32C8.74 6.32 7.47 6.32 6.19 6.32C6.18 6.32 6.16 6.32 6.15 6.32C6.09 6.32 6.02 6.32 5.97 6.28C5.93 6.24 5.91 6.19 5.91 6.11C5.91 5.86 5.92 5.69 6.19 5.68ZM6.35 7.7C6.03 7.7 5.92 7.61 5.91 7.34C5.91 7.28 5.91 7.21 5.97 7.15C6.02 7.1 6.09 7.09 6.16 7.09C6.71 7.1 7.27 7.1 7.8 7.1L9 7.1C9.93 7.1 10.85 7.1 11.78 7.1C11.79 7.1 11.81 7.1 11.82 7.1C11.87 7.09 11.94 7.09 12 7.14C12.03 7.17 12.05 7.22 12.05 7.29C12.06 7.38 12.07 7.65 11.8 7.68C11.71 7.69 11.61 7.69 11.52 7.69C11.49 7.69 11.45 7.69 11.42 7.69L10.18 7.69C8.9 7.69 7.62 7.7 6.35 7.7Z" fill="#FFFFFF" fill-opacity="1.000000" fill-rule="nonzero"/>
</svg>
